<?xml version="1.0" encoding="utf-8"?>
<!-- Generator: Adobe Illustrator 21.1.0, SVG Export Plug-In . SVG Version: 6.00 Build 0)  -->
<svg version="1.1" id="Layer_1" xmlns="http://www.w3.org/2000/svg" xmlns:xlink="http://www.w3.org/1999/xlink" x="0px" y="0px"
	 viewBox="0 0 792 612" style="enable-background:new 0 0 792 612;" xml:space="preserve">
<style type="text/css">
	.st0{fill:none;stroke:#010101;stroke-width:0.709;stroke-linecap:round;stroke-linejoin:round;stroke-miterlimit:10;}
</style>
<path class="st0" d="M653.1,172.7l0.4-0.3l0.3-0.3l0.2-0.3l0.1-0.3 M658.9,138.5l-0.1,0.3l-0.2,0.3l-0.3,0.3l-0.4,0.3 M581,96.2
	l0.5-0.4l0.5-0.2l0.5-0.2 M657.9,139.7l0.4-0.9l0.3-0.9l0.2-0.9l0.1-0.9v-0.9l-0.2-0.9v-0.4 M653.1,119l0.4-0.9l0.3-0.9l0.2-0.9
	l0.1-0.9v-0.9l-0.1-0.9l-0.1-0.4 M586.5,96.8l0.2-0.5l0.2-0.4l0.1-0.4l0.1-0.2l0.2-0.1 M642.7,105.2l0.2-0.5l0.1-0.5l0.2-0.3
	l0.1-0.2l0.1-0.1h0.1 M653.1,172.7v0.8l-0.1,0.8l-0.2,0.8l-0.2,0.7l-0.4,0.7l-0.1,0.2 M593.6,254.2v0.9v0.8l-0.2,0.7l-0.3,0.7
	l-0.3,0.7l-0.4,0.6 M593.6,254.2l-2.7,4.2l-2.9,4.2l-3.1,4l-3.3,4.1l-3.1,3.4l-3.3,3.5l-3.5,3.2 M309.2,405v26.1 M386.2,340.9
	l39.9-20l19.4-9.7 M388.3,275.3l-23.6,16.4 M367,296.2l29.7-20.6 M367.3,217.2l-0.2,0.1 M291.3,413l-47,31.7 M291.3,413v0.7
	l-0.2,0.5l-0.3,0.3l-0.1,0.1 M242.1,440.8l-5.3,3.1 M244.3,444.7l-0.1,0.7l-0.2,0.5l-0.3,0.3l-0.5,0.2h-0.6l-0.7-0.1l-1.2-0.4
	l-1.2-0.5l-1.4-0.7l-1.3-0.8 M337.8,394l-2.2,0.5l-2.3,0.6l-2.6,0.8l-2.8,0.9l-2.9,1l-4,1.4l-4.1,1.6l-4,1.6 M337.8,394l0.2,0.9
	l0.1,0.7v0.4l0.1,0.3v0.1 M312.9,402.4l-3.7,1.6l-3.6,1.6l-3.4,1.5l-3.2,1.6l-2.3,1.1l-2,1.1l-1.8,1.1l-1.6,1 M312.9,402.4l-0.2,0.7
	l-0.2,0.4h-0.2 M238,448l-13.8,5.5 M181.6,470.6l-0.1,0.8l-0.2,0.6l-0.2,0.4l-0.3,0.3h-0.5l-0.4-0.1l-0.4-0.3l-0.3-0.2l-0.3-0.2
	 M234.5,449.4l-0.2-0.1l-1.2-0.7l-1.1-0.8l-1-0.8 M238,448l-0.1,0.9l-0.3,0.6l-0.4,0.3l-0.2,0.1 M181.6,470.7l-2.7,1.2 M231,447
	l-7.5,3.6 M215.4,444l6.7,4.9 M215.4,444l-5.1,1.9l-4.7,1.9l-4.3,2l-4,1.9l-3.6,2l-3.3,2.1l-2.8,2l-2.5,2l-2.2,2l-1.8,2.1l-1.6,2.1
	 M179.5,466l0.4,0.3l0.4,0.4l0.3,0.5l0.3,0.5l0.3,0.6l0.2,0.6l0.1,0.6l0.1,0.6v0.5 M224.2,453.5l-42.6,17.1 M222.1,448.9l0.4,0.3
	l0.4,0.4l0.3,0.5l0.3,0.5l0.3,0.6l0.2,0.6l0.1,0.6l0.1,0.6v0.5 M178.9,471.9l-1.7-1.4 M193.4,414.2l40.6,31.4 M181.6,470.7l-2.7,1.2
	 M234,445.6l-10.5,5 M177.2,470.5l16.2-56.3 M193.4,414.2l68.6-7.6 M193.4,414.2l40.6,31.4 M234,445.6l8.1-4.8 M226.3,430.4l9.7,6.3
	l4.8,3.2l0.8,0.5l0.8,0.6l0.7,0.8l0.6,1l0.4,0.9l0.2,1 M273.4,398.9l-47.1,31.5 M291.3,413l-0.2-1l-0.4-1l-0.6-0.9l-0.7-0.8
	l-0.8-0.6l-0.8-0.5l-4.8-3.1l-9.6-6.2 M244.3,444.7l47-31.7 M333.8,377.7l1.8,7.1l1,3.6l0.1,0.5l0.1,0.5l0.2,0.6l0.1,0.8l0.3,1.1
	l0.2,1.1l0.2,1 M337.8,394l-2,0.4l-2.1,0.6l-2.4,0.7l-2.5,0.8l-2.6,0.9l-2.7,0.9L319,400l-4.5,1.8l-4.4,1.8l-2.9,1.3l-2.8,1.2
	l-2.7,1.3l-2.5,1.2l-2.4,1.2l-2.1,1.1l-1.8,1.1l-1.6,1 M290.2,410.3l-0.1-0.2l-0.7-0.8l-0.8-0.6l-0.8-0.5l-4.8-3.1l-9.6-6.2
	 M291.3,413l-0.2-1l-0.4-1l-0.1-0.2 M273.4,398.9l3-1.9l2.9-1.8l2.8-1.7l2.8-1.5l2.7-1.5l2.7-1.3l2.6-1.2l2.6-1.1l4-1.5l3.8-1.4
	l3.7-1.1l3.7-1l2.8-0.7l2.7-0.6l2.7-0.5l2.7-0.5l2.5-0.4l2-0.3l2-0.3l1.9-0.3l1.9-0.3l1.9-0.3 M191,409.7l173.6-117.9 M191,398v11.7
	 M364.6,280.1L191,398 M364.6,291.8v-11.7 M191,409.7l173.6-117.9 M364.6,291.8l0.1,0.8l0.2,0.6l0.3,0.6l0.4,0.5l0.5,0.6l0.4,0.7
	l0.4,0.7 M191,409.7l0.1,0.8l0.2,0.6l0.3,0.6l0.4,0.5l0.5,0.6l0.4,0.6l0.5,0.8 M193.4,414.2l173.5-117.9 M366.9,296.3L321,379.7
	 M366.9,296.3L193.4,414.2 M193.4,414.2l68.6-7.6 M366.9,296.3L321,379.7 M366.9,296.3l18.8,43.6 M385.7,339.9l-45.4,36.4
	 M370.7,365.7l-11.5,6.7 M396.9,350.5l-1.7-0.6l-1.5-0.6l-1.3-0.6l-1.1-0.6l-1-0.8l-0.9-0.9l-0.8-0.9l-0.7-1.1l-0.7-1.3l-0.7-1.5
	l-0.8-1.7 M385.7,339.9l-45.4,36.4 M396.9,350.5l26.6,8.4 M370.7,365.7l-11.5,6.7 M453.3,358.6l-12.1-3.4 M333.8,377.7l1.8,7.1
	l1,3.6l0.1,0.5l0.1,0.5l0.2,0.6l0.1,0.8l0.3,1.1l0.2,1.1l0.2,1 M337.8,394l118-24.8 M455.8,369.2l-0.2-1l-0.2-1.1l-0.3-1.1l-0.2-1
	l-0.2-0.7l-0.1-0.6l-1-3.6l-0.3-1.5 M441.2,355.2l-107.4,22.5 M338.2,396.3L338.2,396.3v-0.1l-0.1-0.2v-0.5l-0.2-0.6l-0.1-0.9
	 M337.8,394l118-24.8 M455.6,373.2L455.6,373.2l0.1-0.3v-0.6l0.1-0.7v-1.1v-1.3 M455.8,369.2l-0.1-0.5l-0.1-0.6l-0.2-0.7l-0.1-0.6
	l-0.1-0.6l-0.2-0.6l-0.1-0.6l-0.1-0.4l-0.1-0.4 M454.7,364.2l-1.4-5.6 M453.3,358.6l1.6,0.4l1.6,0.1l1.6-0.1l1.5-0.4l1.5-0.5
	l1.3-0.8l1-0.9l0.9-1.1l0.7-1.2l0.4-1.4l0.2-1.4 M467.2,353.4v-0.2l-0.2-0.6l-0.2-0.5l-0.5-0.5l-0.7-0.3 M468.9,355.6l-0.9-0.4
	l-0.5-0.6v-0.1 M455.6,373.2L455.6,373.2l0.1-0.3v-0.6l0.1-0.7v-1.1v-1.3 M467.7,368.5l0.9-0.5l1.6-1.2l1.3-1.4l1-1.6l0.9-1.8
	l0.6-2.1l0.4-2.2l0.1-2.5 M474.5,355.2l-0.4,0.2l-0.5,0.3l-0.5,0.2l-0.6,0.1l-0.6,0.1h-0.7h-0.6L470,356l-0.6-0.2l-0.5-0.2
	 M455.8,369.2l1.7-0.4l1.6-0.6l1.5-0.8l1.5-0.9l1.3-1l1.3-1.1l1.1-1.2l1-1.5l0.9-1.4l0.6-1.6l0.4-1.5l0.2-1.6 M474.5,355.2l-0.9,0.5
	l-1.1,0.3l-1.2,0.1l-0.9-0.1l-0.9-0.1l-0.8-0.3l-0.6-0.4l-0.5-0.5l-0.2-0.5l-0.2-0.6l-0.1-0.7l-0.2-0.6l-0.5-0.6l-0.8-0.4
	 M465.6,326.1v-5.9 M465.6,345.1v-9.4 M465.6,351.3v-0.5 M465.6,319.9l0.8,0.5l0.5,0.6l0.2,0.6l0.1,0.6l0.2,0.7l0.2,0.5l0.5,0.5
	l0.6,0.4l0.8,0.2l0.9,0.2l0.9,0.1l1.2-0.1l1.1-0.3l0.9-0.5 M474.5,323.9v31.3 M453.3,358.6l-6.1-1.7l-6-1.7 M441.2,355.2l0.5,0.1
	h0.4l0.5-0.1l0.4-0.3l0.3-0.3l0.4-0.4l0.3-0.5l0.2-0.6l0.4-1.2l0.3-1.4l0.2-1.7l0.2-1.9l0.1-2.1l0.1-2.7l0.1-2.9v-3.3v-3.5v-3.8
	l-0.1-4v-4.2v-4.5v-4.7 M465.6,319.9l-10.1-4.3l-10-4.4 M465.6,351.3v-15.7v-15.7 M453.3,358.6l1.5,0.4l1.5,0.1l1.4-0.1l1.3-0.2
	l1.3-0.4l1.2-0.5l1-0.7l1-0.9l0.8-1l0.5-0.9l0.4-0.9l0.3-1.1l0.1-1.1 M445.4,277.6l0.1,2.7l0.1,3v3.2v3.6v3.7l-0.1,4v4.2v4.5v4.7
	 M465.6,319.9l-10.1-4.3l-10-4.4 M465.6,288.6v15.7v15.6 M464.7,284.4l0.1,0.4l0.4,1.3l0.3,1.3l0.1,1.2 M236.7,306.2l-12.5,6.6
	 M238,305.5l-0.2,0.1 M181.6,335.3l-0.1-0.7l-0.2-0.7l-0.2-0.7l-0.3-0.7l-0.5-0.6l-0.4-0.5l-0.4-0.4l-0.3-0.2l-0.3-0.1 M231,297
	l-52.1,33.7 M236.7,302.1L236.7,302.1l-0.7-0.9l-0.6-0.8l-1.1-1l-1.2-0.9l-1.1-0.8l-1-0.7 M238,305.5l-0.1-0.4 M178.9,330.7
	l-1.7-1.1 M193.4,270.5L234,295 M234,295l-55.1,35.7 M177.2,329.6l16.2-59.1 M223.6,314.4l0.2-0.2l0.2-0.2l0.1-0.3l0.1-0.4v-0.5
	 M224.2,312.8l-42.6,22.5 M179.5,336.6l0.4,0.2l0.4,0.2h0.3h0.3l0.3-0.2l0.2-0.2l0.1-0.4l0.1-0.4v-0.5 M181.4,334.1l-0.3,0.4
	l-1.6,2.1 M455.8,276.5l-0.1,0.5l-0.1,0.4l-0.2,0.3l-0.1,0.2l-0.1,0.1h-0.1 M464.6,284.4l0.4,0.9l0.4,1.7l0.2,1.6 M468.9,293
	l-0.9-0.5l-0.5-0.6l-0.2-0.7l-0.1-0.6L467,290l-0.2-0.5l-0.5-0.5l-0.7-0.4 M454.9,261.8l0.1,0.9l0.1,0.9l0.2,1.1l0.1,1.2l0.1,1.3
	l0.1,1.3v1.3l0.1,1.5v1.1l0.1,1.3v1.3v1.5 M454.9,261.8l2.7,1.7l2.5,1.8l2.4,2.1l2.2,2.2l2.1,2.4l1.8,2.5l1.6,2.6l1.3,2.5l1,2.6
	l0.9,2.5l0.6,2.6l0.4,2.6l0.1,2.6 M474.5,292.5l-0.4,0.3l-0.5,0.3l-0.5,0.1l-0.6,0.2l-0.6,0.1h-0.7l-0.6-0.1l-0.6-0.1l-0.6-0.1
	l-0.5-0.2 M455.8,276.5l1.7,0.2l1.6,0.6l1.5,0.9l1.5,1.2l1.3,1.3l1.3,1.5l1.1,1.7l1,1.9l0.9,1.9l0.6,1.9l0.4,1.8l0.2,1.6
	 M467.2,290.8l-0.1-0.5l-0.2-0.6l-0.5-0.6l-0.8-0.5 M474.5,292.5l-0.9,0.5l-1.1,0.4l-1.2,0.1l-0.9-0.1l-0.9-0.2l-0.8-0.3l-0.6-0.3
	l-0.5-0.5 M465.6,313.8v5.9 M465.6,294.8v9.4 M465.6,288.6v0.5 M465.6,319.9l0.8,0.5l0.5,0.6l0.2,0.6l0.1,0.6l0.2,0.7l0.2,0.5
	l0.5,0.5l0.6,0.4l0.8,0.2l0.9,0.2l0.9,0.1l1.2-0.1l1.1-0.3l0.9-0.5 M474.5,323.9v-31.4 M191,271.8l2.2-0.6 M365.4,217.1h0.2h0.5h0.4
	l0.4,0.2 M191,271.8v-0.2 M357.1,220.3l9.8-3 M193.4,270.5l43-13.2 M191,271.8l2.2-0.6 M191,279.1v-7.3 M337.8,271.7l-2.2-0.1
	l-2.3,0.1l-2.6,0.1l-2.8,0.3l-2.9,0.2l-4,0.5l-4.1,0.6l-4,0.7 M337.8,271.7l0.2-1.1l0.1-0.9v-0.9l0.1-0.8v-0.7l-0.1-0.6l-0.1-0.9
	l-0.1-0.8l-0.1-0.7 M337.8,264.3l-28.7,0.7 M312.9,274.1l-3.7,0.6l-3.6,0.8l-3.4,0.8l-3.2,0.8l-2.3,0.6l-2,0.7l-1.8,0.6l-1.6,0.7
	 M291.3,279.7v-0.9l-0.2-0.8l-0.3-0.8l-0.4-0.8l-0.6-0.8l-0.7-0.8l-0.8-0.7l-0.8-0.5 M309.1,265l-21.6,8.6 M312.9,274.1l-0.2-1.4
	l-0.2-1.2l-0.3-1.2l-0.5-1.1l-0.4-1l-0.7-1.2l-0.8-1.1l-0.7-0.9 M360.1,244.4l-51,20.6 M393.8,227.8l-0.1-0.1l-1.3-0.6l-1.1-0.6
	l-1-0.5l-0.9-0.4l-0.8-0.3l-0.7-0.3l-0.7-0.3l-0.7-0.3l-0.8-0.2 M310.2,264.4l-1.1,0.6 M385.7,224.2l-13.4,7.1 M337.8,264.3l0.1,0.7
	l0.1,0.7l0.1,0.8l0.1,1v0.7l-0.1,0.7v0.9l-0.2,0.9l-0.1,1 M337.8,271.7l118,4.8 M454.9,261.8l0.1,0.9l0.1,0.9l0.2,1.1l0.1,1.2
	l0.1,1.3l0.1,1.3v1.3l0.1,1.5v1.1l0.1,1.3v1.3v1.5 M337.8,264.3l117.1-2.5 M291.3,279.7l-47,22.6 M244.3,302.3l-0.1-0.9l-0.2-0.8
	l-0.3-0.9l-0.5-0.8l-0.6-0.7l-0.7-0.8l-0.8-0.7 M287.5,273.6L253,287.4 M291.3,279.7v-0.9l-0.2-0.8l-0.3-0.8l-0.4-0.8l-0.6-0.8
	l-0.7-0.8l-0.8-0.7l-0.8-0.5 M396.9,229.5l58,32.3 M360.1,244.4l-51,20.6 M309.1,265l145.8-3.2 M308.7,265h0.4 M193.4,270.5
	l43.3-2.1 M193.4,270.5L234,295 M253,287.4l56.1-22.4 M234,295l2.7-1.1 M309.4,264.7l-0.3,0.3 M366.9,217.3l-7.3,6 M236.4,257.3
	l-43,13.2 M366.9,217.3l-9.8,3 M308.7,265h0.4 M193.4,270.5l43.3-2.1 M309.4,264.7l-0.3,0.3 M366.9,217.3l-7.3,6 M366.9,217.3
	l18.8,6.9 M310.2,264.4l-1.1,0.6 M385.7,224.2l-13.4,7.1 M337.1,273.2l0.3-0.2l0.2-0.5l0.2-0.8 M337.8,271.7l-2-0.1l-2.1,0.1
	l-2.4,0.1l-2.5,0.2l-2.6,0.2l-2.7,0.3l-4.5,0.6l-4.5,0.7l-4.4,0.8l-2.9,0.5l-2.8,0.6l-2.7,0.7l-2.5,0.6l-2.4,0.7l-2.1,0.7l-1.8,0.6
	l-1.6,0.7 M337.4,273l0.2-0.5l0.2-0.8 M337.1,273.2L337.1,273.2 M337.8,271.7l118,4.8 M455.8,276.5l-0.2,0.8l-0.2,0.5l-0.3,0.2
	 M238.8,302.6l2,1l0.8,0.3l0.8,0.3h0.7l0.6-0.4l0.4-0.6l0.2-0.9 M236.2,301.4l0.5,0.2 M244.3,302.3l47-22.6 M291.3,279.7l-0.2,0.9
	l-0.4,0.6l-0.5,0.3 M580.4,96.3l-1.3,0.1l-1.2,0.2l-1.1,0.2l-1.2,0.3 M579.6,96.8l0.2-0.2l0.3-0.2l0.3-0.1 M575.6,97.1l0.7-0.1h0.7
	h0.6l0.5,0.2l0.6,0.3 M515.7,242.6L515.7,242.6 M474,287.2L474,287.2 M468.6,292.9L468.6,292.9 M653.1,119v-1l-0.1-1l-0.2-1l-0.2-1
	l-0.4-1l-0.4-1l-0.6-1l-0.6-0.9l-0.6-0.9l-0.8-0.9l-0.8-0.8l-0.8-0.7l-0.9-0.7l-1-0.6l-1-0.5l-1-0.5l-1-0.3 M593.6,175.4v-1v-1.1
	l-0.2-1l-0.3-1l-0.3-1.1l-0.4-1l-0.5-1l-0.6-1l-0.6-0.9l-0.8-0.9l-0.7-0.8l-0.9-0.8l-0.8-0.7l-0.9-0.6l-1-0.6l-1-0.5l-1-0.4
	 M515.5,328.8l0.5-0.6l0.9-1.4l0.7-1.7l0.5-1.7l0.2-1.8l0.1-1.9 M571.7,280.8L571.7,280.8L571.7,280.8 M459.6,181.8l120-85
	 M459.4,182.3L459.4,182.3l0.2-0.5 M581,96.2l-0.5,0.2l-0.5,0.2l-0.4,0.2 M586.5,96.8l-0.7-0.2l-0.7-0.2l-0.7-0.2l-0.7-0.1L583,96
	h-0.7l-0.7,0.1l-0.6,0.1 M464.9,191.1l-1.1-0.2l-0.9-0.2l-0.9-0.3l-0.8-0.3l-0.7-0.2l-0.7-0.3l-0.6-0.4l-0.5-0.3l-0.4-0.4l-0.4-0.4
	l-0.3-0.4l-0.2-0.4l-0.2-0.4v-0.5V186l0.1-0.5l0.2-0.5l0.2-0.5l0.3-0.6l0.4-0.5l0.5-0.6l0.5-0.5 M465,182.9l-0.7-0.3l-0.7-0.2
	l-0.8-0.1l-0.7-0.1l-0.7-0.1h-0.7l-0.6,0.1l-0.7,0.1 M463.9,189l0.1,0.3l0.1,0.2l0.2,0.2l0.1,0.3l0.1,0.2l0.1,0.3l0.1,0.3l0.2,0.3
	 M549.4,183.4l-0.1-0.3l-0.1-0.3l-0.1-0.2l-0.2-0.3l-0.1-0.2l-0.1-0.3l-0.1-0.2l-0.2-0.2 M583.6,161l11.9-10.3l11.5-10.4l11.2-10.5
	l10.9-10.7l6.9-6.9l6.7-7 M548.4,181.4l1.2-0.2l1.6-0.3l1.5-0.5l1.4-0.5l2.5-1.1l2.5-1.1l2.3-1.2l3.9-2.2l3.7-2.3l3.6-2.4l3.8-2.8
	l3.7-2.8l3.5-3 M463.9,189l84.5-7.6 M465,182.9l-0.8,0.6l-0.8,0.6l-0.7,0.5l-0.6,0.5l-0.5,0.5l-0.4,0.4l-0.4,0.4l-0.3,0.4l-0.3,0.4
	l-0.1,0.3l-0.1,0.3v0.3v0.2l0.2,0.3l0.2,0.1l0.2,0.2l0.4,0.1l0.4,0.1h0.5h0.6h0.7l0.7-0.1 M586.5,96.8L465,182.9 M642.7,105.2
	l-56.2-8.4 M518.4,254.4v65.3 M653.1,119l-6.8,7.1l-6.9,7l-11,10.7l-11.3,10.6l-11.6,10.5l-11.9,10.5 M657.9,139.7l-3.5-14.9
	l-1.3-5.8 M657.9,139.7l-3.5,23.8l-1.3,9.2 M653.1,172.7l-10.5,15.5l-5.8,8.3l-5.9,8.3l-6,8.3l-6,8.3l-6.2,8.2l-6.3,8.2l-6.3,8.2
	l-6.5,8.2 M593.6,254.2l-11.3,10.6l-11.6,10.5l-12.6,11.2l-12.9,11.1l-13.3,11.1l-13.5,11 M463.1,192.1l42.2,36 M464.9,191.1l-1.8,1
	 M549.4,183.4l-84.5,7.7 M518.4,254.4l-0.1-2.2L518,250l-0.5-2.4l-0.7-2.4l-0.9-2.3l-1.1-2.4l-1.2-2.3l-1.4-2.3l-1.5-2.1l-1.7-2.1
	l-1.8-1.9l-1.9-1.7 M505.3,228.1l7.5-7.1l9.3-9.3l9.3-9.3l9.1-9.5l8.9-9.5 M593.6,175.4l-2.7,1.3l-2.9,1.2l-3.1,1.1l-3.3,1.1
	l-3.1,0.9l-3.3,0.9l-3.5,0.7l-3.7,0.6l-2.3,0.3l-2.5,0.2l-2.5,0.2l-2.6,0.1h-2.2l-2.2-0.1l-2.3-0.2l-2-0.3 M593.6,175.4l-12.1,13.8
	l-12.7,14.1l-13.1,14L542.3,231l-13.7,13.6l-10.2,9.8 M359.5,372.3l8.2-4.9l9.6-5.6l9.7-5.6l9.9-5.7 M359.1,392.3l-1.3,1.6l-1.3,1.5
	l-1.4,1.4l-0.7,0.7 M268.6,363.1l-5,3.4l-5,3.4l-5,3.4l-5.1,3.5l-5.3,3.6l-5.5,3.7l-3.3,2.2l-3.4,2.4l-3.6,2.4l-3.7,2.5l-3.9,2.7
	l-4.2,2.8l-4.2,2.9l-4.4,3l-5.7,3.8l-5.9,4l-2.3,1.6l-2.5,1.2l-2.4,1.3l-2.5,1.3l-6,3.1l-6.1,3.2l-6.2,3.2l-8.6,4.5l-8.6,4.5
	l-8.8,4.5l-8.7,4.5 M132.7,445.7v6.3v6.2v6.3v6.1v6v5.8v4.9v4.7v4.5v1.5v1.5v1.4v1.4v1.4v1.4l0.1,1.3l0.3,1.2l0.6,1.1l0.8,0.8l1,0.6
	l0.9,0.5l1.1,0.3l2,0.6l2,0.3l2,0.3l1.3,0.2l1.4,0.2l1.5,0.1l1.6,0.2l1.8,0.1l1.7,0.2l1.9,0.2l2,0.2l2.1,0.2l2.2,0.2l5.1,0.4
	l5.4,0.6l5.8,0.5l6.1,0.6l6.2,0.5l6.2,0.6l6.2,0.6l5.9,0.5l4.3,0.4l4.2,0.4l4,0.4l3.7,0.4l1.5,0.1l1.4-0.1l1.4-0.2l1.3-0.3l1.1-0.6
	l1-0.6l0.9-0.8l0.7-0.9l0.8-1.5l0.7-1.5l0.5-1.6l0.4-1.7l0.3-1.6l0.4-3.3l0.2-3.5v-3.5v-3.6v-3.5v-35.7 M236.7,455.4l0.9-1.4
	l0.7-1.2l0.7-1.3l0.6-1.1l0.5-1.1l0.5-1.1l0.6-1.1l0.5-0.9 M309.2,431.1L309.2,431.1l-0.1,2.2l-0.1,2.2l-0.3,2.1l-0.4,1.9l-0.6,1.8
	l-0.4,0.8l-0.4,0.7l-0.5,0.6l-0.1,0.1 M309.2,264.8l10.1-4.2l9.9-4l9.7-3.9l9.7-3.8l9.6-3.8l7.3-2.9 M396.9,229.5V229v-0.5l-0.2-0.4
	l-0.2-0.3l-0.4-0.2l-0.3-0.2h-0.4h-0.5l-0.5,0.2 M394.4,227.6l-0.6,0.2l-2.4,1l-2.4,0.8l-3.2,0.9l-3.2,0.7l-3,0.4l-3,0.2l-2.9-0.2
	l-2.7-0.5l-2.5-0.9l-2.4-1.1l-2.1-1.4 M364,227.7L364,227.7l-1.2-1l-1.2-1.2l-1.2-1.4l-1.3-1.4l-1.3-1.5l-1.3-1.6l-1.4-1.6l-1.4-1.5
	l-1.7-1.7l-1.9-1.6l-1.9-1.5l-2.2-1.3l-1.8-0.8l-1.9-0.6l-1.9-0.4h-2l-1.1,0.1 M236.4,257.3l-2,0.6l-3.4,1l-3.6,1.1l-3.7,1.2
	l-3.9,1.2l-4.2,1.3l-4.2,1.3l-4.4,1.3l-5.7,1.8l-5.9,1.7l-2.3,0.8l-2.5,1.1l-2.4,1.2l-2.5,1.1l-6,2.8l-6.1,2.9l-6.2,2.9l-8.6,4
	l-8.6,4l-8.8,4.1l-8.7,4.1 M132.7,298.8v-6.3v-6.3V280v-6.2v-5.9v-5.8v-4.9v-4.7v-4.6v-1.4V245v-1.4v-1.5v-1.4v-1.4l0.1-1.2l0.3-1.2
	l0.6-0.9l0.8-0.7l1-0.4l0.9-0.3l1.1-0.2l2-0.2h2l2,0.1l1.3,0.1l1.4,0.1l1.5,0.1l1.6,0.2l1.8,0.1l1.7,0.2l1.9,0.2l2,0.1l2.1,0.2
	l2.2,0.2l5.1,0.5l5.4,0.5l5.8,0.6l6.1,0.5l6.2,0.6l6.2,0.6l6.2,0.6l5.9,0.5l4.3,0.4l4.2,0.4l4,0.4l3.7,0.3l1.5,0.2l1.4,0.3l1.4,0.4
	l1.3,0.6l1.1,0.8l1,0.8l0.9,1l0.7,1l0.8,1.6l0.7,1.7l0.5,1.7l0.4,1.7l0.3,1.7l0.4,3.4l0.2,3.5v3.5v3.6v3.6v35.6 M236.7,308.4
	l0.9-2.3l0.7-2.1l0.7-1.8l0.6-1.7l0.5-1.5l0.5-1.4l0.6-1.2l0.7-1.4l0.9-1.3l0.9-1.1l1.2-1l1.1-0.8l1.3-0.7l1.5-0.8l1.7-0.8l2-0.9
	l2.2-0.9l2.6-1l2.8-1.2l2.8-1.1l46.3-18.6 M309.2,264.8v-29.4 M299.7,213.4l-6.1,0.3 M309.2,235.4L309.2,235.4l-0.1-2.3l-0.1-2.4
	l-0.3-2.5l-0.4-2.5l-0.6-2.6l-0.4-1.3l-0.4-1.3l-0.5-1.3l-0.6-1.3l-0.8-1.2l-0.8-1.1l-0.9-0.9l-0.9-0.6l-0.9-0.4l-0.9-0.2l-0.9-0.1
	 M386.2,340.9l-0.3-0.5l-0.2-0.5 M385.7,339.9l59.8-29.9 M396.9,350.5l-1.6-0.6l-1.5-0.5l-1.2-0.6l-1.1-0.6l-1-0.7l-0.8-0.8l-1-1.1
	l-0.8-1.3l-0.9-1.5l-0.8-1.9 M456.8,183.5l2-1.1 M459.4,182.3l-0.6,0.1 M463.1,192.1l1.8-1 M464.9,191.1l-1.5-0.3l-1.4-0.4l-1.4-0.5
	l-1.2-0.5l-0.9-0.7l-0.7-0.6l-0.4-0.7l-0.2-0.7v-0.9l0.3-1l0.5-0.9l0.7-0.8l0.7-0.8 M457.4,183.4l1.1-0.6l0.9-0.5 M386.2,224.3
	l-0.3-0.1h-0.2 M385.7,224.2l71.1-40.7 M457.4,183.4l-0.3,0.1h-0.3 M393.8,227.8l-1.2-0.6l-1.1-0.6l-1-0.5l-0.8-0.4l-1-0.4l-0.8-0.3
	l-0.9-0.4l-0.8-0.3 M463.1,192.1l-1.5-0.3l-1.4-0.4l-1.4-0.5l-1.1-0.5l-1-0.6l-0.6-0.7l-0.5-0.7l-0.2-0.6v-1l0.3-0.9l0.4-0.9
	l0.6-0.8l0.7-0.8 M386.2,224.3l39.9-22.9l31.3-18 M396.9,350.5l26.6,8.4 M472.9,363l0.2-0.3l0.7-1.8l0.4-1.8l0.3-1.9v-2
	 M467.3,368.7l1.1-0.6l1.5-1.1l0.2-0.1 M474.5,355.2v-31.3 M514.7,329.6l0.3-0.3l1-1.1l0.8-1.3l0.7-1.5l0.5-1.7l0.3-1.9l0.1-2.1
	 M518.4,319.7v-32.6 M396.9,350.5l48.6-23.8 M396.9,229.5l58,32.3 M454.9,261.8l1.8,1.1l1.7,1.1l2.2,1.7l2.1,1.9l2.1,2l1.9,2.3
	l1.7,2.3l1.5,2.5l1.4,2.5l1,2.3l0.8,2.3l0.7,2.3l0.4,2.3l0.3,2.1v2 M474.5,292.5v31.4 M463.1,192.1l42.2,36 M505.3,228.1l1.3,1.1
	l1.2,1.2l1.6,1.9l1.6,2l1.5,2.1l1.3,2.2l1.2,2.2l1,2.4l0.8,2.2l0.7,2.3l0.5,2.3l0.3,2.2l0.1,2.2 M518.4,254.4v32.7 M463.1,192.1
	l-66.2,37.4 M518.4,287.1l-43.9,36.8 M367,296.2l-0.5-1l-0.6-0.8l-0.5-0.7l-0.4-0.6l-0.2-0.7l-0.1-0.7 M525.2,120.5l-0.8-0.2h-0.7
	l-0.5,0.1 M364.7,291.7l0.1-17.4 M385.7,339.9L367,296.2 M445.6,289.8l-12.3-12.7 M541.2,124l-16-3.5 M525.2,120.5l-106.8,61.6
	 M367.6,217.3l-0.6-0.1l-0.5-0.1h-0.1 M418.4,182.1h-0.9h-0.6l-0.5,0.1h-0.1 M384.4,223.7l-16.8-6.4 M386.5,224.5l-0.8-0.3
	 M418.4,182.1l-50.8,35.2 M458.1,182.7l-39.7-0.6 M243.8,446.2l8.1-5.5l10.2-6.9l28.6-19.2 M312.3,403.6l3-1l3.3-1.1l3.6-1.1
	l3.8-1.1l4-1l4.1-1l4.1-0.9 M290.7,414.6l2.4-1.4l2.7-1.6l3-1.5l3.1-1.6l3.4-1.7l3.5-1.6l3.5-1.7 M180.8,472.7l3.9-1.7l3.6-1.5
	l3.4-1.4l3.2-1.3l3-1.2l2.7-1.1l2.3-1l2.1-0.8l1.9-0.8l1.8-0.7l1.6-0.7l1.6-0.6l1.4-0.6l1.3-0.5l0.7-0.3l0.7-0.3l0.8-0.3l1.1-0.4
	l1.5-0.6l1.7-0.7l2-0.8l2.2-0.9l2.5-1l2.8-1.1l3.1-1.2l3.3-1.3 M338.2,396.4l5.5-1.1l5.2-1l4.9-1l4.7-0.9l4.3-0.9l4-0.8l3.8-0.7
	l3.4-0.7l3.9-0.8l3.9-0.7l3.8-0.8l3.8-0.7l3.7-0.8l3-0.6l3-0.5l3-0.6l3.1-0.6l3.4-0.7l3.7-0.7l4-0.8l4.4-0.9l4.9-1l5.3-1l5.7-1.1
	l6-1.2l6.3-1.2l6.7-1.3 M455.6,373.3l1.5-0.2l1.2-0.3l1-0.2l0.7-0.2l0.6-0.2l0.4-0.1l0.4-0.2l0.4-0.2l0.7-0.2l0.7-0.4l0.8-0.4
	l1.1-0.6l1.2-0.8l1.4-0.8 M181.1,336.8l1.2-0.8l1-0.7l0.9-0.5l0.9-0.5l0.9-0.5l0.8-0.5l1.1-0.6l1.2-0.6l1.4-0.8l0.8-0.5l1-0.5
	l0.9-0.5l0.8-0.4l0.6-0.3l0.4-0.2l0.4-0.2l0.5-0.3l0.5-0.2l0.9-0.5l1.2-0.6l1.3-0.7l1.6-0.9l1.9-0.9l2.1-1.1l2.3-1.2l2.7-1.3
	l2.8-1.5l3.2-1.6l3.5-1.7l3.7-1.8 M455.1,278l1.2,0.1l1,0.2l0.8,0.3l0.9,0.4l0.8,0.5l1,0.7l0.8,0.6l0.8,0.8l0.9,1l0.9,1.1l0.8,1.2
	l0.7,1.1l0.5,1l0.4,1l0.2,0.6l0.1,0.2v0.1v0.1 M365.4,217.1l-8.7,2.7 M290.4,281.5l1.2-0.6l1.1-0.4l1.1-0.4l0.9-0.3l0.7-0.2l0.4-0.1
	l0.4-0.1l0.3-0.1l0.4-0.1l0.4-0.1l0.9-0.3l1.1-0.2l1.1-0.3l1.2-0.2l3-0.6l3.3-0.6l3.5-0.5l3.4-0.5l3.3-0.4l3.4-0.5l3.3-0.3l2.2-0.3
	l2.5-0.3l2.5-0.3l2.6-0.3l2.5-0.3 M337.1,273.2l118,4.8 M243.3,304.1l47.1-22.6 M652.1,176.7l0.4-0.6l0.3-0.6l0.3-0.7l0.3-0.6
	l0.2-0.7l0.2-0.6l0.2-0.7l0.1-0.7 M659,136.7v-0.3V136l-0.1-0.3v-0.4V135l-0.1-0.4l-0.1-0.3v-0.4 M658.9,138.5v-0.2v-0.2v-0.3
	l0.1-0.2v-0.2v-0.2v-0.3v-0.2 M654.1,171.5l0.9-6.1l3.8-26.9 M582.5,95.4l-6.6,1.6 M587.3,95.2l-0.6-0.1h-0.6h-0.6h-0.6h-0.6
	l-0.6,0.1l-0.6,0.1l-0.6,0.1 M658.7,133.9l-4.7-20.2l-0.1-0.5 M653.9,113.2l-0.3-1.1l-0.4-1.1l-0.6-1.1L652,109l-0.7-1l-0.7-0.8
	l-0.9-0.8l-0.9-0.7l-1-0.6l-1-0.6l-1.1-0.4l-1.1-0.3l-1.1-0.2 M643.5,103.6l-56.2-8.4 M592.4,258.6l5.6-7.2l6-7.6l5.9-7.7l5.8-7.7
	l5.7-7.8l5.6-7.7l5.6-7.8l5.4-7.8l5.5-7.8l5.3-7.8l3.3-5 M571.7,280.9l1.1-1.1l2.2-2l2.1-2.1l2.2-2.2l2.3-2.4l2.4-2.6l2.6-3l2.6-3
	l2.5-3l0.7-0.9 M514.6,329.7l3.8-3.1l6.9-5.7l6.8-5.6l6.7-5.6l6.6-5.7l6.6-5.7l6.5-5.6l6.4-5.7l6.3-5.7l0.5-0.5 M306.5,443.3
	l1.9-1.8l1.6-1.7l1.5-1.4l1.2-1.2l1-1l0.8-0.7l0.6-0.6l0.4-0.4l0.5-0.4l1-1l1.2-1.1l1.5-1.6l1.8-1.7l1.9-1.8l1.2-1.2l1.1-1l0.9-0.9
	l0.7-0.6l0.5-0.5l0.7-0.6l0.8-0.8l0.9-0.9l0.9-0.8l1-1l1-1l1.2-1.2l1.3-1.2l1.4-1.2l1.1-1.1l1.4-1.3l1.3-1.2l1.3-1.3l1.3-1.2
	l1.4-1.4l1.5-1.4l1.4-1.3l1.4-1.3l0.7-0.6l0.6-0.6l0.6-0.6l0.9-0.8l1.1-1.1l1.5-1.3 M236.3,507.5l0.1-0.5v-0.5l0.1-0.3V506v-0.1
	v-0.1l0.1-0.1l-0.1,0.1v0.1v0.2l-0.1,0.1v0.1l-0.1,0.2l-0.1,0.2v0.2l-0.1,0.1v0.1H236v0.1l0.1-0.1l0.1-0.2l0.3-0.4l0.3-0.3l0.4-0.4
	l0.4-0.5l0.7-0.7l0.8-0.7l1-1l1.1-0.9l1.3-1.1l1.4-1.2l1.7-1.4l1.8-1.6l1.9-1.6l1.4-1.3l1.5-1.3l1.4-1.3l1.4-1.4l1.3-1.2l0.8-0.8
	l0.6-0.6l0.5-0.5l0.4-0.4l0.4-0.4l0.6-0.5l0.9-0.9l1.3-1.2l1.4-1.4l1.5-1.4l2.2-2l2-1.9l1.6-1.5l1.5-1.3l1.3-1.3l1.3-1.1l1.5-1.3
	l1.3-1.3l1.5-1.3l1.6-1.4l1.6-1.5l1.7-1.5l1.6-1.4l1.7-1.5l1.8-1.6l2-1.8l2.2-1.9l2.3-2l3.8-3.2l3.6-3.2l3.5-3 M337.3,208.7
	l-2.2,0.3l-1.9,0.2l-1.8,0.2l-1.5,0.2l-1.4,0.2l-1.2,0.2l-1.1,0.1l-0.8,0.1l-0.6,0.1h-0.5l-0.5,0.1l-0.9,0.1l-1.1,0.2l-1.2,0.1
	l-1,0.1l-0.9,0.1l-0.8,0.1l-0.8,0.2l-1.1,0.1l-1.3,0.2l-1.2,0.1l-1,0.1l-0.9,0.1l-1.3,0.2l-1.5,0.2l-1.5,0.1l-1.4,0.2l-1.4,0.1
	l-1.3,0.2l-1.3,0.1l-1.2,0.1l-1.3,0.1l-1.2,0.1l-1.4,0.1l-0.8,0.1l-0.7,0.1h-0.7l-0.7,0.1h-0.7h-0.8l-0.7,0.1 M293.6,213.7l-1.2,0.1
	h-1h-0.6l-1.4,0.1h-1.3h-1.3h-1.4h-1.2h-1.4h-1h-0.9h-0.7h-0.9l-0.8-0.1h-0.7h-0.7l-0.7-0.1h-0.7l-0.9-0.1H274l-0.8-0.1h-0.7
	l-0.9-0.1l-1.7-0.2l-0.8-0.1h-0.6l-0.6-0.1l-0.7-0.1l-0.9-0.1l-0.7-0.1H265l-0.5-0.1l-0.7-0.1l-1.3-0.1l-1.1-0.2l-1.1-0.1l-1.3-0.2
	l-2.3-0.3l-2.2-0.3l-2.1-0.3l-1.9-0.2l-3.3-0.5l-3.5-0.4l-3.4-0.5L237,209l-3.4-0.4l-3.7-0.5l-1.3-0.1l-0.9-0.1l-0.8-0.1l-0.8-0.1
	l-0.8-0.1h-0.9l-1.1-0.1l-1.2-0.1h-2l-1.7,0.1l-1.4,0.1l-1.3,0.1l-1.4,0.2l-1.7,0.2l-1.8,0.3l-1.9,0.3l-2,0.4l-2.1,0.4l-2,0.5
	l-2.1,0.4l-1.9,0.5l-1.5,0.4l-1.3,0.3l-1.3,0.3l-1.2,0.3l-1.1,0.4l-1.4,0.3l-1.5,0.5l-2,0.6l-2.2,0.6l-2,0.6l-2.1,0.7l-2.1,0.7
	l-1.9,0.6l-1.4,0.5l-1.3,0.4l-1.1,0.4l-1.1,0.4l-1.2,0.4l-1.3,0.4l-1.1,0.4l-1.2,0.5l-1.3,0.4l-1.1,0.5l-0.9,0.3l-0.7,0.2l-0.9,0.4
	l-1.2,0.5l-1.3,0.5l-1.4,0.5l-1.3,0.5l-1.2,0.5l-1.1,0.5l-0.9,0.3l-1.1,0.5l-1.3,0.5l-1.3,0.6l-1.6,0.7l-1.7,0.8l-1.4,0.6l-1.4,0.6
	l-1.2,0.6l-1.2,0.6l-1.2,0.6l-1.2,0.6l-1.1,0.6l-0.5,0.3l-0.6,0.3l-0.9,0.5l-0.9,0.5l-1.1,0.7 M469.9,367.1l2.9-2.5l2.8-2.3l2.6-2.2
	l2.5-2.1l2.3-1.9l2.1-1.8l1.8-1.5l1.7-1.4l1.6-1.3l1.3-1.2l1.3-1l1.2-1l1.4-1.2l1.6-1.3l1.7-1.4l1.9-1.6l2.1-1.7l2.1-1.8l2.2-1.9
	l2.4-2l2.6-2.1l2.7-2.3 M523.2,120.4l-48.3,28l-58.6,33.8 M416.3,182.2l-50.2,34.9"/>
</svg>
