<?xml version="1.0" encoding="utf-8"?>
<!-- Generator: Adobe Illustrator 21.1.0, SVG Export Plug-In . SVG Version: 6.00 Build 0)  -->
<svg version="1.1" id="Layer_1" xmlns="http://www.w3.org/2000/svg" xmlns:xlink="http://www.w3.org/1999/xlink" x="0px" y="0px"
	 viewBox="0 0 792 612" style="enable-background:new 0 0 792 612;" xml:space="preserve">
<style type="text/css">
	.st0{fill:none;stroke:#010101;stroke-width:5;stroke-linecap:round;stroke-linejoin:round;stroke-miterlimit:10;}
</style>
<path class="st0" d="M301.4,220.2l-1.8-2.2l-1.4-2.5l-0.9-2.7l-0.4-2.8l0-2.9l0.5-2.8l1-2.7l1.4-2.5l1.8-2.1l2.2-1.8l2.5-1.5l2.7-1
	l2.8-0.5l2.9,0l2.8,0.5l2.7,0.9l2.5,1.3l2.2,1.8l1.9,2.1 M367.8,432.4l-1,2.7l-1.5,2.4l-1.9,2.1l-2.2,1.8l-2.5,1.4l-2.7,0.9
	l-2.8,0.5h-2.9l-2.8-0.5l-2.7-0.9l-2.5-1.4l-2.2-1.8l-1.9-2.2l-1.4-2.5l-1-2.6l-0.5-2.8l0-2.9l0.4-2.8l0.9-2.7 M273.3,345.5
	l-2.8,0.4l-2.9,0l-2.8-0.5l-2.7-1l-2.5-1.5l-2.1-1.8l-1.8-2.2l-1.4-2.5l-0.9-2.7l-0.5-2.8V328l0.5-2.8l0.9-2.7l1.4-2.5l1.8-2.2
	l2.2-1.9l2.4-1.5l2.7-1l2.8-0.5 M267.6,313l-0.1-3.5v-3.6l0-3.5l0.2-3.5l0.3-3.5l0.4-3.5l0.5-3.5l0.5-3.5 M260.1,283.2l9.3,1.6
	 M260.1,283.2l-1.2-0.4l-1.2-0.6l-1-0.8l-0.8-1l-0.6-1.2l-0.4-1.2l-0.1-1.3l0.1-1.3 M254.9,275.4l1.1-4.5l1.2-4.5l1.4-4.4l1.5-4.4
	l1.6-4.3l1.8-4.3l1.9-4.2l2.1-4.1 M267.5,240.8l0.7-1.1l0.9-0.9l1.1-0.7l1.2-0.5l1.2-0.3l1.3,0l1.3,0.3l1.2,0.5 M284.6,242.9
	l-8.2-4.8 M284.6,242.9l1.8-3l1.9-3l2-2.9l2.1-2.9l2.1-2.8l2.2-2.8l2.3-2.7l2.4-2.6 M326.6,199l3-1.9l3-1.8l3.1-1.7l3.1-1.6l3.2-1.5
	l3.2-1.4l3.3-1.4l3.3-1.2 M348.7,177.5l3.2,8.9 M348.7,177.5l-0.3-1.2l-0.1-1.3l0.2-1.2l0.4-1.2l0.7-1.1l0.9-0.9l1-0.8l1.2-0.5
	 M352.8,169.2l4.5-1.3l4.5-1.2l4.5-1l4.5-0.8l4.5-0.8l4.6-0.6l4.6-0.4l4.6-0.3 M389.1,162.8l1.3,0.1l1.2,0.3l1.2,0.6l1,0.8l0.8,1
	l0.6,1.1l0.4,1.2l0.1,1.3 M395.8,178.7v-9.5 M395.8,178.7l3.6,0l3.5,0.1l3.5,0.2l3.5,0.4l3.5,0.4l3.5,0.5l3.2,0.6 M424.3,180.5
	l0.6-1.3l1.5-2.5l1.9-2.1l2.2-1.8l2.5-1.4l2.7-0.9l2.8-0.5l2.9,0l2.8,0.5l2.7,1l2.5,1.4l2.2,1.8l1.9,2.2l1.4,2.5l1,2.6l0.5,2.8
	l0,2.9l-0.4,2.8l-0.9,2.7 M454.9,193.1l3.1,1.7l3.1,1.7l3,1.8l2.9,1.9l2.9,2l2.9,2.1l2.8,2.1l2.8,2.2 M484.5,201.5l-6.1,7.3
	 M484.5,201.5l0.9-0.9l1.1-0.7l1.2-0.5l1.2-0.2l1.3,0l1.2,0.3l1.2,0.6l1,0.8 M493.7,200.9l3.3,3.2l3.3,3.3l3.2,3.4l3,3.5l2.9,3.6
	l2.8,3.7l2.7,3.7l2.5,3.9 M517.4,229.1l0.6,1.2l0.4,1.2l0.1,1.3l-0.2,1.3l-0.4,1.2l-0.7,1.1l-0.9,0.9l-1,0.8 M507.1,242.9l8.2-4.8
	 M507.1,242.9l1.7,3.1l1.6,3.1l1.6,3.2l1.5,3.2l1.4,3.3l1.2,3.3l1.2,3.3l1.1,3.3 M518.4,268.7l2.8-0.4l2.9,0l2.8,0.5l2.7,1l2.5,1.5
	l2.1,1.8l1.8,2.2l1.4,2.5l0.9,2.7l0.5,2.8v2.9l-0.5,2.8l-1,2.7l-1.4,2.5l-1.8,2.2l-2.2,1.8l-2.4,1.5l-2.7,1l-2.8,0.5 M524.1,301.2
	l0.1,3.6v3.5l0,3.5l-0.2,3.5l-0.3,3.5l-0.4,3.5l-0.5,3.5l-0.5,3.5 M531.6,331.1l-9.3-1.6 M531.6,331.1l1.2,0.4l1.2,0.6l1,0.8l0.8,1
	l0.6,1.1l0.4,1.2l0.1,1.3l-0.1,1.3 M536.8,338.8l-1.1,4.5l-1.2,4.5l-1.4,4.4l-1.5,4.4l-1.6,4.3l-1.8,4.2l-1.9,4.2l-2.1,4.1
	 M524.2,373.4l-0.7,1.1l-0.9,0.9l-1.1,0.7l-1.2,0.5l-1.2,0.3l-1.3,0l-1.3-0.3l-1.2-0.5 M507.1,371.3l8.2,4.7 M507.1,371.3l-1.8,3
	l-1.9,3l-2,2.9l-2.1,2.9l-2.1,2.8l-2.2,2.8l-2.3,2.7l-2.4,2.6 M490.3,394l1.8,2.2l1.4,2.5l0.9,2.7l0.4,2.8l0,2.9l-0.5,2.8l-1,2.7
	l-1.4,2.5l-1.8,2.2l-2.2,1.8l-2.5,1.4l-2.7,1l-2.8,0.5l-2.9,0l-2.8-0.4l-2.7-0.9l-2.5-1.4l-2.2-1.8l-1.9-2.1 M465.1,415.3l-3,1.8
	l-3,1.8l-3.1,1.7l-3.1,1.6l-3.2,1.5l-3.2,1.5l-3.3,1.3l-3.3,1.2 M443,436.7l-3.3-8.9 M443,436.7l0.3,1.2l0.1,1.3l-0.2,1.3l-0.4,1.2
	l-0.7,1.1l-0.9,0.9l-1,0.8l-1.2,0.5 M438.9,445l-4.5,1.3l-4.5,1.2l-4.5,1l-4.5,0.8l-4.5,0.8l-4.6,0.6l-4.6,0.4l-4.6,0.3
	 M402.6,451.4l-1.3,0L400,451l-1.2-0.6l-1-0.8l-0.8-1l-0.6-1.1l-0.4-1.2l-0.1-1.3 M395.8,435.5v9.5 M395.8,435.5l-3.5,0l-3.5-0.2
	l-3.5-0.2l-3.5-0.4l-3.5-0.4l-3.5-0.5l-3.5-0.6l-3.4-0.7 M336.8,421.1l-3.1-1.7l-3.1-1.7l-3-1.8l-2.9-1.9l-2.9-2l-2.9-2.1l-2.8-2.1
	l-2.8-2.2 M307.2,412.7l6.1-7.3 M307.2,412.7l-0.9,0.9l-1.1,0.7l-1.2,0.4l-1.3,0.2l-1.3,0l-1.2-0.3l-1.2-0.6l-1-0.8 M298,413.3
	l-3.3-3.2l-3.3-3.3l-3.2-3.4l-3-3.5l-2.9-3.6l-2.8-3.7l-2.7-3.7l-2.5-3.9 M274.3,385l-0.6-1.2l-0.4-1.2l-0.1-1.3l0.2-1.2l0.4-1.2
	l0.7-1.1l0.9-0.9l1-0.8 M284.6,371.3l-8.2,4.7 M284.6,371.3l-1.7-3.1l-1.6-3.1l-1.6-3.2l-1.5-3.2l-1.4-3.3l-1.2-3.3l-1.2-3.3
	l-1.1-3.4 M336.5,105.8l-0.3,1.7l-0.7,1.6l-1.1,1.3l-1.4,0.9l-1.6,0.5h-1.7l-1.6-0.5l-1.5-0.9l-1.1-1.3l-0.7-1.6l-0.2-1.7l0.2-1.7
	l0.7-1.6l1.1-1.3l1.5-0.9l1.6-0.5h1.7l1.6,0.5l1.4,0.9l1.1,1.3l0.7,1.6L336.5,105.8 M401.8,95.5l-0.2,1.7l-0.7,1.6l-1.1,1.3
	l-1.4,0.9l-1.6,0.5H395l-1.6-0.5l-1.4-0.9l-1.1-1.3l-0.7-1.6l-0.3-1.7l0.3-1.7l0.7-1.6l1.1-1.3l1.4-0.9l1.6-0.5h1.7l1.6,0.5l1.4,0.9
	l1.1,1.3l0.7,1.6L401.8,95.5 M375.8,142.3l-0.2-1.7l-0.7-1.6l-1.2-1.3l-1.4-0.9l-1.6-0.5h-1.7l-1.6,0.5l-1.4,0.9l-1.1,1.3l-0.7,1.6
	l-0.3,1.7l0.3,1.7l0.7,1.5l1.1,1.3l1.4,0.9l1.6,0.5h1.7l1.6-0.5l1.4-0.9l1.2-1.3l0.7-1.5L375.8,142.3 M629.8,307.1l-0.2-10.4
	l-0.7-10.3l-1.2-10.3l-1.6-10.3l-2.1-10.1l-2.5-10.1l-2.9-9.9l-3.4-9.8l-3.8-9.6l-4.2-9.5l-4.6-9.2l-5-9l-5.4-8.8l-5.8-8.6l-6.2-8.3
	l-6.6-8l-6.9-7.7l-7.2-7.4l-7.6-7l-7.8-6.7l-8.2-6.4l-8.4-6l-8.7-5.7l-8.9-5.2l-9.2-4.9l-9.4-4.4l-9.5-4l-9.7-3.6l-9.9-3.2l-10-2.7
	l-10.1-2.3l-10.2-1.8l-10.3-1.4l-10.3-0.9L401,73.2h-10.4l-10.3,0.4L370,74.5l-10.3,1.4l-10.2,1.8L339.5,80l-10,2.7l-9.9,3.2
	l-9.7,3.6l-9.5,4l-9.4,4.4l-9.2,4.9l-8.9,5.2l-8.7,5.7l-8.4,6l-8.2,6.4l-7.8,6.7l-7.6,7l-7.2,7.4l-6.9,7.7l-6.6,8l-6.2,8.3l-5.8,8.6
	l-5.4,8.8l-5,9l-4.6,9.2l-4.2,9.5l-3.8,9.6l-3.4,9.8l-2.9,9.9l-2.5,10.1l-2.1,10.1l-1.6,10.3l-1.2,10.3l-0.7,10.3l-0.2,10.4
	l0.2,10.3l0.7,10.3l1.2,10.3l1.6,10.3l2.1,10.1l2.5,10.1l2.9,9.9l3.4,9.8l3.8,9.6l4.2,9.5l4.6,9.3l5,9l5.4,8.8l5.8,8.6l6.2,8.3
	l6.6,8l6.9,7.7l7.2,7.4l7.6,7.1l7.8,6.7l8.2,6.4l8.4,6l8.7,5.7l8.9,5.2l9.2,4.9l9.4,4.4l9.5,4.1l9.7,3.6l9.9,3.2l10,2.7l10.1,2.3
	l10.2,1.8l10.3,1.3l10.3,0.9l10.3,0.4H401l10.3-0.4l10.3-0.9l10.3-1.3l10.2-1.8l10.1-2.3l10-2.7l9.9-3.2l9.7-3.6l9.5-4.1l9.4-4.4
	l9.2-4.9l8.9-5.2l8.7-5.7l8.4-6l8.2-6.4l7.8-6.7l7.6-7.1l7.2-7.4l6.9-7.7l6.6-8l6.2-8.3l5.8-8.6l5.4-8.8l5-9l4.6-9.3l4.2-9.5
	l3.8-9.6l3.4-9.8l2.9-9.9l2.5-10.1l2.1-10.1l1.6-10.3l1.2-10.3l0.7-10.3L629.8,307.1 M387,118.4l-0.2-1.7l-0.7-1.6l-1.1-1.3
	l-1.4-0.9l-1.6-0.4h-1.7l-1.6,0.4l-1.4,0.9l-1.1,1.3l-0.7,1.6l-0.3,1.7l0.3,1.7l0.7,1.6l1.1,1.3l1.4,0.9l1.6,0.5h1.7l1.6-0.5
	l1.4-0.9l1.1-1.3l0.7-1.6L387,118.4 M277.2,134.1l0.3,1.7l-0.2,1.7l-0.7,1.6l-1.1,1.3l-1.4,1l-1.6,0.5l-1.7,0l-1.6-0.4l-1.5-0.9
	l-1.2-1.2l-0.8-1.6l-0.3-1.7l0.2-1.7l0.7-1.6l1.1-1.3l1.4-1l1.6-0.5l1.7,0l1.6,0.4l1.5,0.9l1.2,1.2L277.2,134.1 M325.8,156.6
	l-0.8-1.6l-1.2-1.2l-1.5-0.9l-1.6-0.4l-1.7,0l-1.6,0.5l-1.4,1l-1.1,1.3l-0.7,1.6l-0.2,1.7l0.3,1.7l0.8,1.5l1.2,1.3l1.5,0.9l1.6,0.4
	l1.7,0l1.6-0.5l1.4-0.9l1.1-1.3l0.7-1.6l0.2-1.7L325.8,156.6 M329.2,130.4l-0.8-1.6l-1.2-1.2l-1.5-0.9l-1.6-0.4l-1.7,0l-1.6,0.5
	l-1.4,1l-1.1,1.3l-0.7,1.6l-0.2,1.7l0.3,1.7l0.8,1.5l1.2,1.3l1.5,0.9l1.6,0.4l1.7,0l1.6-0.5l1.4-0.9l1.1-1.3l0.7-1.6l0.2-1.7
	L329.2,130.4 M229.5,179.2l0.8,1.5l0.3,1.7l-0.1,1.7l-0.6,1.6l-1.1,1.3l-1.4,1l-1.6,0.6l-1.7,0.1l-1.7-0.4l-1.5-0.8l-1.2-1.2
	l-0.8-1.5l-0.3-1.7l0.1-1.7l0.6-1.6l1-1.3l1.4-1l1.6-0.6l1.7-0.1l1.6,0.4l1.5,0.8L229.5,179.2 M282.8,185.6l-1.2-1.2l-1.5-0.8
	l-1.6-0.4l-1.7,0.1l-1.6,0.6l-1.4,1l-1,1.3l-0.6,1.6l-0.1,1.7l0.3,1.7l0.8,1.5l1.2,1.2l1.5,0.8l1.7,0.4l1.7-0.1l1.6-0.6l1.4-1
	l1.1-1.3l0.6-1.6l0.1-1.7l-0.4-1.7L282.8,185.6 M277.8,159.7l-1.2-1.2l-1.5-0.8l-1.6-0.4l-1.7,0.1l-1.6,0.6l-1.4,1l-1.1,1.4
	l-0.6,1.6l-0.1,1.7l0.4,1.6l0.8,1.5l1.2,1.2l1.5,0.8l1.6,0.4l1.7-0.1l1.6-0.5l1.4-1l1.1-1.3l0.6-1.6l0.2-1.7l-0.4-1.6L277.8,159.7
	 M198.2,236.9l1.2,1.2l0.8,1.5l0.4,1.6l-0.1,1.7l-0.6,1.6l-1,1.4l-1.3,1l-1.6,0.6l-1.7,0.2l-1.6-0.4l-1.5-0.8l-1.2-1.2l-0.8-1.5
	l-0.4-1.7l0.1-1.7l0.6-1.6l1-1.4l1.4-1.1l1.6-0.6l1.7-0.1l1.7,0.4L198.2,236.9 M250.8,226.5l-1.5-0.8l-1.7-0.4l-1.7,0.1l-1.6,0.6
	l-1.4,1.1l-1,1.4l-0.6,1.6l-0.1,1.7l0.4,1.7l0.8,1.5l1.2,1.2l1.5,0.8l1.6,0.3l1.7-0.1l1.6-0.6l1.3-1l1-1.4l0.5-1.6l0.1-1.7l-0.4-1.6
	l-0.8-1.5L250.8,226.5 M238.1,203.4l-1.5-0.8l-1.7-0.4l-1.7,0.1l-1.6,0.6l-1.3,1.1l-1,1.4l-0.6,1.6l-0.1,1.7l0.4,1.7l0.8,1.5
	l1.2,1.2l1.5,0.8l1.7,0.4l1.7-0.2l1.6-0.6l1.3-1l1-1.4l0.6-1.6l0.1-1.7l-0.4-1.6l-0.8-1.5L238.1,203.4 M186.1,301.4l1.5,0.8l1.2,1.2
	l0.9,1.5l0.4,1.6l0,1.7l-0.5,1.6l-1,1.4l-1.3,1.1l-1.6,0.7l-1.7,0.2l-1.7-0.3l-1.5-0.8l-1.3-1.2l-0.8-1.5l-0.4-1.6l0-1.7l0.5-1.6
	l0.9-1.4l1.3-1.1l1.6-0.7l1.7-0.2L186.1,301.4 M232.9,275.3l-1.7-0.3l-1.7,0.2l-1.6,0.7l-1.3,1.1l-1,1.4l-0.5,1.6l0,1.7l0.4,1.6
	l0.9,1.5l1.2,1.2l1.6,0.8l1.7,0.3l1.7-0.2l1.6-0.7l1.3-1.1l1-1.4l0.5-1.6l0-1.7l-0.4-1.6l-0.9-1.5l-1.2-1.2L232.9,275.3
	 M213.7,257.2l-1.7-0.3l-1.7,0.2l-1.6,0.7l-1.3,1.1l-1,1.4l-0.5,1.6l0,1.7l0.4,1.6l0.9,1.5l1.2,1.2l1.6,0.8l1.7,0.3l1.7-0.2l1.6-0.7
	l1.3-1.1l1-1.4l0.5-1.6l0-1.7l-0.4-1.6l-0.9-1.5l-1.2-1.2L213.7,257.2 M194.6,366.4l1.7,0.3l1.6,0.7l1.3,1.1l0.9,1.4l0.5,1.6v1.7
	l-0.5,1.6l-0.9,1.5l-1.3,1.1l-1.6,0.7l-1.7,0.2l-1.7-0.2l-1.6-0.7l-1.3-1.1l-0.9-1.5l-0.4-1.6v-1.7l0.4-1.6l0.9-1.4l1.3-1.1l1.6-0.7
	L194.6,366.4 M231.1,327.2l-1.7,0.2l-1.6,0.7l-1.3,1.2l-0.9,1.4l-0.5,1.6v1.7l0.5,1.6l0.9,1.4l1.3,1.2l1.6,0.7l1.7,0.2l1.7-0.2
	l1.6-0.7l1.3-1.2l0.9-1.4l0.5-1.6v-1.7l-0.5-1.6l-0.9-1.4l-1.3-1.2l-1.6-0.7L231.1,327.2 M207.2,315.9l-1.7,0.2l-1.6,0.7l-1.3,1.1
	l-0.9,1.5l-0.4,1.6v1.7l0.4,1.6l0.9,1.4l1.3,1.1l1.6,0.7l1.7,0.3l1.7-0.3l1.6-0.7l1.3-1.1l0.9-1.4l0.5-1.6v-1.7l-0.5-1.6l-0.9-1.5
	l-1.3-1.1l-1.6-0.7L207.2,315.9 M222.8,425.7l1.7-0.3l1.7,0.2l1.6,0.7l1.3,1.1l1,1.4l0.5,1.6l0.1,1.7l-0.4,1.6l-0.9,1.5l-1.2,1.2
	l-1.6,0.8l-1.7,0.3l-1.7-0.2l-1.6-0.7l-1.3-1.1l-1-1.4l-0.5-1.6l0-1.7l0.4-1.6l0.9-1.5l1.2-1.2L222.8,425.7 M245.3,377.1l-1.5,0.8
	l-1.2,1.2l-0.9,1.5l-0.4,1.6l0,1.7l0.5,1.6l1,1.4l1.3,1.1l1.6,0.7l1.7,0.2l1.7-0.3l1.5-0.8l1.3-1.2l0.9-1.5l0.4-1.6l0-1.7l-0.5-1.6
	l-0.9-1.4l-1.3-1.1l-1.6-0.7l-1.7-0.2L245.3,377.1 M219.2,373.8l-1.5,0.8l-1.2,1.2l-0.9,1.5l-0.4,1.6l0,1.7l0.5,1.6l1,1.4l1.3,1.1
	l1.6,0.7l1.7,0.2l1.7-0.3l1.5-0.8l1.3-1.2l0.9-1.5l0.4-1.6l0-1.7l-0.5-1.6l-0.9-1.4l-1.3-1.1l-1.6-0.7l-1.7-0.2L219.2,373.8
	 M267.9,473.4l1.5-0.8l1.7-0.4l1.7,0.1l1.6,0.6l1.3,1.1l1,1.4l0.6,1.6l0.1,1.7l-0.4,1.7l-0.8,1.5l-1.2,1.2l-1.5,0.8l-1.7,0.3
	l-1.7-0.1l-1.6-0.6l-1.3-1l-1-1.4l-0.6-1.6l-0.1-1.7l0.4-1.6l0.8-1.5L267.9,473.4 M274.3,420.2l-1.2,1.2l-0.8,1.5l-0.4,1.6l0.1,1.7
	l0.6,1.6l1,1.4l1.3,1l1.6,0.6l1.7,0.2l1.7-0.4l1.5-0.8l1.2-1.2l0.8-1.5l0.4-1.7l-0.1-1.7l-0.6-1.6l-1-1.4l-1.3-1.1l-1.6-0.6
	l-1.7-0.1l-1.7,0.4L274.3,420.2 M248.4,425.1l-1.2,1.2l-0.8,1.5l-0.4,1.7l0.1,1.7l0.6,1.6l1,1.4l1.4,1.1l1.6,0.6l1.7,0.1l1.6-0.4
	l1.5-0.8l1.2-1.2l0.8-1.5l0.4-1.6l-0.1-1.7l-0.6-1.6l-1-1.4l-1.4-1l-1.6-0.6l-1.7-0.2l-1.6,0.4L248.4,425.1 M325.6,504.8l1.2-1.2
	l1.5-0.8l1.6-0.4l1.7,0.1l1.6,0.5l1.4,1l1,1.3l0.6,1.6l0.1,1.7l-0.3,1.6l-0.8,1.5l-1.2,1.2l-1.5,0.8l-1.7,0.4l-1.7-0.1l-1.6-0.6
	l-1.4-1l-1.1-1.4l-0.6-1.6l-0.1-1.7l0.4-1.6L325.6,504.8 M315.2,452.2l-0.8,1.5l-0.3,1.6l0.1,1.7l0.6,1.6l1,1.4l1.4,1l1.6,0.6
	l1.7,0.1l1.7-0.4l1.5-0.8l1.2-1.2l0.8-1.5l0.3-1.6l-0.1-1.7l-0.6-1.6l-1-1.4l-1.4-1l-1.6-0.6l-1.7-0.1l-1.6,0.4l-1.5,0.8
	L315.2,452.2 M292.1,464.9l-0.8,1.5l-0.4,1.7l0.1,1.7l0.6,1.6l1.1,1.3l1.4,1l1.6,0.6l1.7,0.1l1.7-0.4l1.5-0.8l1.2-1.2l0.8-1.5
	l0.4-1.7l-0.2-1.7l-0.6-1.6l-1-1.3l-1.4-1l-1.6-0.6l-1.7-0.1l-1.6,0.4l-1.5,0.8L292.1,464.9 M390.1,516.8l0.8-1.5l1.2-1.2l1.5-0.9
	l1.6-0.4l1.7,0l1.6,0.5l1.4,1l1.1,1.3l0.7,1.6l0.2,1.7l-0.3,1.7l-0.8,1.5l-1.2,1.3l-1.5,0.9l-1.6,0.4l-1.7,0l-1.6-0.5l-1.4-0.9
	l-1.1-1.3l-0.7-1.6l-0.2-1.7L390.1,516.8 M364,470l-0.3,1.7l0.2,1.7l0.6,1.6l1.1,1.3l1.4,1l1.6,0.5l1.7,0l1.7-0.4l1.5-0.9l1.2-1.2
	l0.7-1.6l0.3-1.6l-0.2-1.7l-0.7-1.6l-1.1-1.3l-1.4-0.9l-1.6-0.5l-1.7,0l-1.6,0.4l-1.5,0.9l-1.2,1.3L364,470 M345.9,489.2l-0.3,1.7
	l0.2,1.7l0.7,1.6l1.1,1.3l1.4,1l1.6,0.5l1.7,0l1.6-0.4l1.5-0.9l1.2-1.2l0.8-1.6l0.3-1.6l-0.2-1.7l-0.7-1.6l-1.1-1.3l-1.4-0.9
	l-1.6-0.5l-1.7,0l-1.6,0.4l-1.5,0.9l-1.2,1.3L345.9,489.2 M455.2,508.3l0.3-1.7l0.7-1.6l1.1-1.3l1.4-0.9l1.6-0.5h1.7l1.6,0.5
	l1.5,0.9l1.1,1.3l0.7,1.6l0.2,1.7L467,510l-0.7,1.6l-1.1,1.3l-1.5,0.9l-1.6,0.5h-1.7l-1.6-0.5l-1.4-0.9l-1.1-1.3l-0.7-1.6
	L455.2,508.3 M415.9,471.9l0.2,1.7l0.7,1.6l1.1,1.3l1.5,0.9l1.6,0.4h1.7l1.6-0.4l1.4-0.9l1.1-1.3l0.7-1.6l0.3-1.7l-0.3-1.7l-0.7-1.6
	l-1.1-1.3l-1.4-0.9l-1.6-0.5h-1.7l-1.6,0.5l-1.5,0.9l-1.1,1.3l-0.7,1.6L415.9,471.9 M404.7,495.7l0.3,1.7l0.7,1.6l1.1,1.3l1.4,0.9
	l1.6,0.5h1.7l1.6-0.5l1.4-0.9l1.1-1.3l0.7-1.6l0.2-1.7l-0.2-1.7l-0.7-1.6l-1.1-1.3l-1.4-0.9l-1.6-0.5h-1.7l-1.6,0.5l-1.4,0.9
	l-1.1,1.3l-0.7,1.6L404.7,495.7 M514.5,480.1l-0.3-1.6l0.2-1.7l0.7-1.6l1.1-1.3l1.4-0.9l1.6-0.5l1.7,0l1.6,0.4l1.5,0.9l1.2,1.2
	l0.8,1.6l0.3,1.7l-0.2,1.7l-0.7,1.6l-1.1,1.3l-1.4,1l-1.6,0.5l-1.7,0l-1.6-0.4l-1.5-0.9l-1.2-1.2L514.5,480.1 M465.9,457.6l0.8,1.5
	l1.2,1.2l1.5,0.9l1.6,0.4l1.7,0l1.6-0.5l1.4-1l1.1-1.3l0.7-1.6l0.2-1.7l-0.3-1.7l-0.8-1.5l-1.2-1.3l-1.5-0.8l-1.6-0.4l-1.7,0
	l-1.6,0.5l-1.4,0.9l-1.1,1.3l-0.7,1.6l-0.2,1.7L465.9,457.6 M462.5,483.8l0.8,1.5l1.2,1.2l1.5,0.9l1.6,0.4l1.7,0l1.6-0.5l1.4-1
	l1.1-1.3l0.7-1.6l0.2-1.7L474,480l-0.8-1.5l-1.2-1.3l-1.5-0.8l-1.6-0.4l-1.7,0l-1.6,0.5l-1.4,0.9l-1.1,1.3l-0.7,1.6l-0.2,1.7
	L462.5,483.8 M562.2,435l-0.8-1.5l-0.3-1.7l0.1-1.7l0.6-1.6l1-1.3l1.4-1l1.6-0.6l1.7-0.1l1.7,0.4l1.5,0.8l1.2,1.2l0.8,1.5l0.3,1.7
	l-0.1,1.7l-0.6,1.6l-1,1.3l-1.4,1l-1.6,0.6l-1.7,0.1l-1.6-0.4l-1.5-0.8L562.2,435 M508.9,428.6l1.2,1.2l1.5,0.8l1.6,0.4l1.7-0.1
	l1.6-0.6l1.4-1l1-1.4l0.6-1.6l0.1-1.7l-0.3-1.7l-0.8-1.5l-1.2-1.2l-1.5-0.8l-1.7-0.4l-1.7,0.1l-1.6,0.6l-1.4,1l-1.1,1.3l-0.6,1.6
	l-0.1,1.7l0.3,1.7L508.9,428.6 M513.9,454.5l1.2,1.2l1.5,0.8l1.6,0.4l1.7-0.1l1.6-0.6l1.4-1l1.1-1.4l0.6-1.6l0.2-1.7l-0.4-1.6
	l-0.8-1.5l-1.2-1.2l-1.5-0.8l-1.6-0.4l-1.7,0.1l-1.6,0.6l-1.4,1l-1.1,1.4l-0.6,1.6l-0.2,1.7l0.4,1.6L513.9,454.5 M593.5,377.4
	l-1.2-1.2l-0.8-1.5l-0.4-1.6l0.1-1.7l0.6-1.6l1-1.4l1.3-1l1.6-0.6l1.7-0.1l1.7,0.3l1.5,0.8l1.2,1.2l0.8,1.5l0.4,1.7l-0.1,1.7
	l-0.6,1.6l-1,1.4l-1.4,1.1l-1.6,0.6l-1.7,0.1l-1.7-0.3L593.5,377.4 M540.9,387.7l1.5,0.8l1.7,0.3l1.7-0.1l1.6-0.6l1.4-1l1-1.4
	l0.6-1.6l0.1-1.7l-0.4-1.6l-0.8-1.5L548,378l-1.5-0.8l-1.6-0.3l-1.7,0.1l-1.6,0.6l-1.3,1l-1,1.4l-0.6,1.6l-0.1,1.7l0.4,1.6l0.8,1.5
	L540.9,387.7 M553.6,410.9l1.5,0.8l1.7,0.4l1.7-0.1l1.6-0.6l1.3-1.1l1-1.4l0.6-1.6l0.1-1.7l-0.4-1.7l-0.8-1.5l-1.2-1.2l-1.5-0.8
	l-1.7-0.3l-1.7,0.1l-1.6,0.6l-1.3,1l-1,1.4l-0.6,1.6l-0.1,1.7l0.4,1.6l0.8,1.5L553.6,410.9 M605.6,312.8l-1.5-0.8l-1.2-1.2l-0.9-1.5
	l-0.4-1.6l0-1.7l0.5-1.6l1-1.4l1.3-1.1l1.6-0.7l1.7-0.2l1.7,0.3l1.5,0.8l1.3,1.2l0.8,1.5l0.4,1.6l0,1.7l-0.5,1.6l-0.9,1.4l-1.3,1.1
	l-1.6,0.7l-1.7,0.2L605.6,312.8 M558.8,338.9l1.7,0.3l1.7-0.2l1.6-0.7l1.3-1.1l1-1.4l0.5-1.6l0-1.7l-0.4-1.7l-0.9-1.4l-1.2-1.2
	l-1.6-0.8l-1.7-0.3l-1.7,0.2l-1.6,0.7l-1.3,1.1l-1,1.4l-0.5,1.6l-0.1,1.7l0.4,1.7l0.9,1.4l1.2,1.2L558.8,338.9 M578,357l1.7,0.3
	l1.7-0.2l1.6-0.7l1.3-1.1l1-1.4l0.5-1.6l0-1.7l-0.4-1.6l-0.9-1.5l-1.2-1.2l-1.6-0.8l-1.7-0.3l-1.7,0.2l-1.6,0.7l-1.3,1.1l-1,1.4
	l-0.5,1.6l-0.1,1.7l0.4,1.6l0.9,1.5l1.2,1.2L578,357 M597.1,247.7l-1.7-0.3l-1.6-0.7l-1.3-1.1l-0.9-1.4l-0.5-1.6v-1.7l0.5-1.6
	l0.9-1.5l1.3-1.1l1.6-0.7l1.7-0.2l1.7,0.2l1.6,0.7l1.3,1.1l0.9,1.5l0.4,1.6v1.7l-0.4,1.6l-0.9,1.4l-1.3,1.1l-1.6,0.7L597.1,247.7
	 M560.6,287l1.7-0.2l1.6-0.7l1.3-1.1l0.9-1.5l0.5-1.6v-1.7l-0.5-1.6l-0.9-1.4l-1.3-1.1l-1.6-0.7l-1.7-0.3l-1.7,0.3l-1.6,0.7
	l-1.3,1.1l-0.9,1.4l-0.5,1.6v1.7l0.5,1.6l0.9,1.5l1.3,1.1l1.6,0.7L560.6,287 M584.5,298.3l1.7-0.3l1.6-0.7l1.3-1.1l0.9-1.4l0.4-1.6
	v-1.7l-0.4-1.6l-0.9-1.5l-1.3-1.1l-1.6-0.7l-1.7-0.2l-1.7,0.2l-1.6,0.7l-1.3,1.1l-0.9,1.5l-0.5,1.6v1.7l0.5,1.6l0.9,1.4l1.3,1.1
	l1.6,0.7L584.5,298.3 M568.9,188.4l-1.7,0.3l-1.7-0.2l-1.6-0.7l-1.3-1.1l-1-1.4l-0.5-1.6L561,182l0.4-1.6l0.9-1.5l1.2-1.2l1.6-0.8
	l1.7-0.3l1.7,0.2l1.6,0.7l1.3,1.1l1,1.4l0.5,1.6l0,1.7l-0.4,1.6l-0.9,1.5l-1.2,1.2L568.9,188.4 M546.4,237.1l1.5-0.8l1.2-1.2
	l0.9-1.5l0.4-1.6l0-1.7l-0.5-1.6l-1-1.4l-1.3-1.1l-1.6-0.7l-1.7-0.2l-1.7,0.3l-1.5,0.8l-1.3,1.2l-0.9,1.5l-0.4,1.6l0,1.7l0.5,1.6
	l0.9,1.4l1.3,1.1l1.6,0.7l1.7,0.2L546.4,237.1 M572.5,240.4l1.5-0.8l1.2-1.2l0.9-1.5l0.4-1.6l0-1.7l-0.5-1.6l-1-1.4l-1.3-1.1
	l-1.6-0.7l-1.7-0.2l-1.7,0.3l-1.5,0.8l-1.3,1.2l-0.9,1.5l-0.4,1.6l0,1.7l0.5,1.6l0.9,1.4l1.3,1.1l1.6,0.7l1.7,0.2L572.5,240.4
	 M523.8,140.8l-1.5,0.8l-1.7,0.3l-1.7-0.1l-1.6-0.6l-1.3-1l-1-1.4l-0.6-1.6l-0.1-1.7l0.4-1.6l0.8-1.5l1.2-1.2l1.5-0.8l1.7-0.3
	l1.7,0.1l1.6,0.6l1.3,1l1,1.4l0.6,1.6l0.1,1.7l-0.4,1.6l-0.8,1.5L523.8,140.8 M517.4,194l1.2-1.2l0.8-1.5l0.4-1.6l-0.1-1.7l-0.6-1.6
	l-1-1.4l-1.3-1l-1.6-0.6l-1.7-0.1l-1.7,0.3l-1.5,0.8l-1.2,1.2l-0.8,1.5l-0.4,1.7l0.1,1.7l0.6,1.6l1,1.4l1.3,1l1.6,0.6l1.7,0.1
	l1.7-0.3L517.4,194 M543.3,189.1l1.2-1.2l0.8-1.5l0.4-1.6l-0.1-1.7l-0.6-1.6l-1-1.4l-1.4-1l-1.6-0.6l-1.7-0.2l-1.6,0.4l-1.5,0.8
	l-1.2,1.2l-0.8,1.5l-0.4,1.7l0.1,1.7l0.6,1.6l1,1.4l1.4,1.1l1.6,0.6l1.7,0.1l1.6-0.4L543.3,189.1 M466.1,109.4l-1.2,1.2l-1.5,0.8
	l-1.6,0.4l-1.7-0.1l-1.6-0.6l-1.4-1l-1-1.3l-0.6-1.6l-0.2-1.7l0.4-1.7l0.8-1.5l1.2-1.2l1.5-0.8l1.7-0.4l1.7,0.1l1.6,0.6l1.4,1
	l1.1,1.4l0.6,1.6l0.1,1.7l-0.4,1.7L466.1,109.4 M476.5,162l0.8-1.5l0.3-1.7l-0.1-1.7l-0.6-1.6l-1.1-1.4l-1.4-1l-1.6-0.6l-1.7-0.1
	l-1.7,0.4l-1.5,0.8l-1.2,1.2l-0.8,1.5l-0.3,1.7l0.1,1.7l0.6,1.6l1,1.3l1.4,1l1.6,0.6l1.7,0.1l1.6-0.4l1.5-0.8L476.5,162
	 M499.6,149.3l0.8-1.5l0.4-1.7l-0.1-1.7l-0.6-1.6l-1.1-1.3l-1.4-1l-1.6-0.6l-1.7-0.1l-1.7,0.4l-1.5,0.8l-1.2,1.2l-0.8,1.5l-0.4,1.7
	l0.2,1.7l0.6,1.6l1,1.3l1.4,1l1.6,0.6l1.7,0.1l1.6-0.4l1.5-0.8L499.6,149.3 M427.7,144.2l0.3-1.7l-0.2-1.7l-0.7-1.6l-1.1-1.3l-1.4-1
	l-1.6-0.5l-1.7,0l-1.7,0.4l-1.5,0.9l-1.2,1.2l-0.8,1.6l-0.3,1.7l0.2,1.7l0.7,1.6l1.1,1.3l1.4,1l1.6,0.5l1.7,0.1l1.6-0.4l1.5-0.9
	l1.2-1.2L427.7,144.2 M445.8,125l0.3-1.7l-0.2-1.7l-0.7-1.6l-1.1-1.3l-1.4-1l-1.6-0.5l-1.7,0l-1.6,0.4l-1.5,0.9l-1.2,1.2l-0.8,1.6
	L434,123l0.2,1.7l0.7,1.6l1.1,1.3l1.4,1l1.6,0.5l1.7,0.1l1.6-0.4l1.5-0.9l1.2-1.2L445.8,125 M443.8,197.9l-0.5-3l-1-2.9l-1.4-2.7
	L439,187l-2.1-2.1l-2.5-1.7l-2.7-1.3l-2.9-0.9l-3-0.4l-3,0l-3,0.5l-2.9,1l-2.6,1.4l-2.4,1.8l-2.1,2.2L408,190l-1.3,2.7l-0.8,2.9
	l-0.4,3l0.1,3l0.5,3l1,2.9l1.4,2.7l1.8,2.4l2.2,2.1l2.5,1.7l2.7,1.3l2.9,0.9l3,0.4l3,0l3-0.5l2.9-1l2.7-1.4l2.4-1.8l2.1-2.2l1.7-2.5
	l1.3-2.7l0.9-2.9l0.4-3L443.8,197.9"/>
</svg>
