<?xml version="1.0" encoding="utf-8"?>
<!-- Generator: Adobe Illustrator 22.0.1, SVG Export Plug-In . SVG Version: 6.00 Build 0)  -->
<svg version="1.1" xmlns="http://www.w3.org/2000/svg" xmlns:xlink="http://www.w3.org/1999/xlink" x="0px" y="0px"
	 viewBox="0 0 500 500" style="enable-background:new 0 0 500 500;" xml:space="preserve">
<style type="text/css">
	.st0{display:none;}
	.st1{display:inline;}
	.st2{fill:#F8D31B;}
	.st3{fill:none;stroke:#FFFFFF;stroke-width:16;stroke-miterlimit:10;}
	.st4{display:inline;fill:#00AEEF;}
	.st5{display:inline;fill:#FFDE17;}
	.st6{display:inline;fill:#39B54A;}
	.st7{display:inline;fill:#ED1C24;}
	.st8{display:inline;fill:#F26522;}
	.st9{display:inline;fill:#662D91;}
	.st10{fill:#00AEEF;}
	.st11{fill:#ED1C24;}
	.st12{fill:#39B54A;}
	.st13{fill:#FFDE17;}
	.st14{fill:#F26522;}
	.st15{fill:#662D91;}
	.st16{fill:none;stroke:#00AEEF;stroke-width:0.5;stroke-linecap:round;stroke-linejoin:round;}
	.st17{fill:none;stroke:#00AEEF;stroke-width:3;stroke-miterlimit:1;}
	.st18{fill:none;stroke:#ED1C24;stroke-width:0.5;stroke-linecap:round;stroke-linejoin:round;}
	.st19{fill:none;stroke:#ED1C24;stroke-width:3;stroke-miterlimit:1;}
	.st20{fill:none;stroke:#39B54A;stroke-width:0.5;stroke-linecap:round;stroke-linejoin:round;}
	.st21{fill:none;stroke:#39B54A;stroke-width:3;stroke-miterlimit:1;}
	.st22{fill:none;stroke:#FFDE17;stroke-width:0.5;stroke-linecap:round;stroke-linejoin:round;}
	.st23{fill:none;stroke:#FFDE17;stroke-width:3;stroke-miterlimit:1;}
	.st24{fill:none;stroke:#F26522;stroke-width:0.5;stroke-linecap:round;stroke-linejoin:round;}
	.st25{fill:none;stroke:#662D91;stroke-width:0.5;stroke-linecap:round;stroke-linejoin:round;}
	.st26{fill:none;stroke:#662D91;stroke-width:3;stroke-miterlimit:1;}
</style>
<g id="Layer_1" class="st0">
	<g id="mZ8wtB.tif" class="st1">
		
			<image style="overflow:visible;" width="645" height="960" id="Layer_0_1_" xlink:href="AFA1B8284B4AD2C9.png"  transform="matrix(0.4979 0 0 0.4979 89.4219 11)">
		</image>
	</g>
</g>
<g id="Layer_2" class="st0">
	<g class="st1">
		<g>
			<path class="st2" d="M302.8,221.2c-25.7-25.6-51.4-51.1-77.2-76.7c-6.4-6.3-12.7-12.6-19.1-19c-1.8-1.8-3.5-3.5-5.3-5.3
				c-0.3-0.3-0.9-1.2-1.4-1.4c-1.4-0.6,1.1,0.9,0.3,1.3c0.9-0.3,0-15,0-16.2c0-11,0-21.9,0-32.9c0-18.7,0-37.4,0-56.1
				c-1.4,0.6-2.8,1.2-4.3,1.8c25.7,25.6,51.4,51.1,77.2,76.7c6.4,6.3,12.7,12.6,19.1,19c1.8,1.8,3.5,3.5,5.3,5.3
				c0.3,0.3,0.9,1.2,1.4,1.4c1.4,0.6-1.1-0.9-0.3-1.3c-0.9,0.3,0,15,0,16.2c0,11,0,21.9,0,32.9c0,18.7,0,37.4,0,56.1
				c0,3.2,5,3.2,5,0c0-15.9,0-31.8,0-47.7c0-11.8,0-23.6,0-35.5c0-6.9,0.4-14,0-21c-0.2-3.1-2.1-4.3-4.2-6.4
				c-5.4-5.3-10.8-10.7-16.1-16c-16.6-16.5-33.2-33-49.8-49.5c-11.3-11.2-22.6-22.5-33.9-33.7c-1.5-1.5-4.3-0.4-4.3,1.8
				c0,15.9,0,31.8,0,47.7c0,11.8,0,23.6,0,35.5c0,6.9-0.4,14,0,21c0.2,3.1,2.1,4.3,4.2,6.4c5.4,5.3,10.8,10.7,16.1,16
				c16.6,16.5,33.2,33,49.8,49.5c11.3,11.2,22.6,22.5,33.9,33.7C301.5,227,305.1,223.5,302.8,221.2z"/>
		</g>
	</g>
	<g class="st1">
		<g>
			<path class="st2" d="M406.1,325.2c-25.7-25.6-51.4-51.1-77.2-76.7c-6.4-6.3-12.7-12.6-19.1-19c-1.8-1.8-3.5-3.5-5.3-5.3
				c-0.3-0.3-0.9-1.2-1.4-1.4c-1.4-0.6,1.1,0.9,0.3,1.3c0.9-0.3,0-15,0-16.2c0-11,0-21.9,0-32.9c0-18.7,0-37.4,0-56.1
				c-1.4,0.6-2.8,1.2-4.3,1.8c25.7,25.6,51.4,51.1,77.2,76.7c6.3,6.3,12.6,12.5,18.9,18.8c1.8,1.8,3.7,3.6,5.5,5.5
				c0.3,0.3,0.9,1.1,1.3,1.3c2,0.9-3.9-0.4-0.3-1.3c-0.6,0.2,0,15,0,16c0,11,0,22.1,0,33.1c0,18.7,0,37.4,0,56.2c0,3.2,5,3.2,5,0
				c0-15.9,0-31.8,0-47.7c0-18.8,1-37.8,0-56.6c-0.2-3-2.2-4.4-4.3-6.4c-5.4-5.4-10.9-10.8-16.3-16.2c-16.6-16.5-33.2-33-49.9-49.5
				c-11.2-11.1-22.4-22.3-33.6-33.4c-1.5-1.5-4.3-0.4-4.3,1.8c0,15.9,0,31.8,0,47.7c0,11.8,0,23.6,0,35.5c0,6.9-0.4,14,0,21
				c0.2,3.1,2.1,4.3,4.2,6.4c5.4,5.3,10.8,10.7,16.1,16c16.6,16.5,33.2,33,49.8,49.5c11.3,11.2,22.6,22.5,33.9,33.7
				C404.9,331,408.4,327.5,406.1,325.2z"/>
		</g>
	</g>
	<g class="st1">
		<g>
			<path class="st2" d="M302.8,429.2c-25.7-25.6-51.4-51.1-77.2-76.7c-6.4-6.3-12.7-12.6-19.1-19c-1.8-1.8-3.5-3.5-5.3-5.3
				c-0.3-0.3-0.9-1.2-1.4-1.4c-1.4-0.6,1.1,0.9,0.3,1.3c0.9-0.3,0-15,0-16.2c0-11,0-21.9,0-32.9c0-18.7,0-37.4,0-56.1
				c-1.4,0.6-2.8,1.2-4.3,1.8c25.7,25.6,51.4,51.1,77.2,76.7c6.4,6.3,12.7,12.6,19.1,19c1.8,1.8,3.5,3.5,5.3,5.3
				c0.3,0.3,0.9,1.2,1.4,1.4c1.4,0.6-1.1-0.9-0.3-1.3c-0.9,0.3,0,15,0,16.2c0,11,0,21.9,0,32.9c0,18.7,0,37.4,0,56.1
				c0,3.2,5,3.2,5,0c0-15.9,0-31.8,0-47.7c0-11.8,0-23.6,0-35.5c0-6.9,0.4-14,0-21c-0.2-3.1-2.1-4.3-4.2-6.4
				c-5.4-5.3-10.8-10.7-16.1-16c-16.6-16.5-33.2-33-49.8-49.5c-11.3-11.2-22.6-22.5-33.9-33.7c-1.5-1.5-4.3-0.4-4.3,1.8
				c0,15.9,0,31.8,0,47.7c0,11.8,0,23.6,0,35.5c0,6.9-0.4,14,0,21c0.2,3.1,2.1,4.3,4.2,6.4c5.4,5.3,10.8,10.7,16.1,16
				c16.6,16.5,33.2,33,49.8,49.5c11.3,11.2,22.6,22.5,33.9,33.7C301.5,435,305.1,431.5,302.8,429.2z"/>
		</g>
	</g>
	<g class="st1">
		<g>
			<path class="st2" d="M199.4,325.2c-25.7-25.6-51.4-51.1-77.2-76.7c-6.4-6.3-12.7-12.6-19.1-19c-1.8-1.8-3.5-3.5-5.3-5.3
				c-0.3-0.3-0.9-1.2-1.4-1.4c-1.4-0.6,1.1,0.9,0.3,1.3c0.9-0.3,0-15,0-16.2c0-11,0-21.9,0-32.9c0-18.7,0-37.4,0-56.1
				c-1.4,0.6-2.8,1.2-4.3,1.8c25.7,25.6,51.4,51.1,77.2,76.7c6.4,6.3,12.7,12.6,19.1,19c1.8,1.8,3.5,3.5,5.3,5.3
				c0.3,0.3,0.9,1.2,1.4,1.4c1.4,0.6-1.1-0.9-0.3-1.3c-0.9,0.3,0,15,0,16.2c0,11,0,21.9,0,32.9c0,18.7,0,37.4,0,56.1
				c0,3.2,5,3.2,5,0c0-15.9,0-31.8,0-47.7c0-11.8,0-23.6,0-35.5c0-6.9,0.4-14,0-21c-0.2-3.1-2.1-4.3-4.2-6.4
				c-5.4-5.3-10.8-10.7-16.1-16c-16.6-16.5-33.2-33-49.8-49.5c-11.3-11.2-22.6-22.5-33.9-33.7c-1.5-1.5-4.3-0.4-4.3,1.8
				c0,15.9,0,31.8,0,47.7c0,11.8,0,23.6,0,35.5c0,6.9-0.4,14,0,21c0.2,3.1,2.1,4.3,4.2,6.4c5.4,5.3,10.8,10.7,16.1,16
				c16.6,16.5,33.2,33,49.8,49.5c11.3,11.2,22.6,22.5,33.9,33.7C198.2,331,201.7,327.5,199.4,325.2z"/>
		</g>
	</g>
	<g class="st1">
		<g>
			<path class="st2" d="M96.1,224.8c26-25.9,52.1-51.7,78.1-77.6c6.2-6.2,12.5-12.4,18.7-18.6c2.1-2.1,6.6-5.1,7.2-8.2
				c0.9-4.6,0-10.3,0-15c0-11.1,0-22.1,0-33.2c0-19.1,0-38.1,0-57.2c0-2.2-2.7-3.3-4.3-1.8c-26.1,26-52.3,51.9-78.4,77.9
				c-6.2,6.2-12.4,12.3-18.6,18.5c-2.1,2.1-6.4,5-7.1,8.1c-1,4.6,0,10.5,0,15.2c0,11,0,22,0,33c0,19,0,38.1,0,57.1c0,3.2,5,3.2,5,0
				c0-15.7,0-31.5,0-47.2c0-11.6,0-23.1,0-34.7c0-7.2,0.5-14.6,0-21.7c0-0.1,0.1-1.6,0-1.6c1.7,0.6-1.8,1.7-0.4,1.3
				c1.1-0.3,2.9-2.9,3.7-3.6c5.6-5.5,11.1-11.1,16.7-16.6c16.4-16.3,32.9-32.7,49.3-49c11.1-11,22.2-22,33.3-33.1
				c-1.4-0.6-2.8-1.2-4.3-1.8c0,15.7,0,31.5,0,47.2c0,11.6,0,23.3,0,34.9c0,7.1-0.9,14.8,0,21.8c0,0.1-0.1,1.3,0,1.4
				c-3-1.6,2.1-1.9,0.3-1.3c-1.2,0.4-2.9,2.9-3.8,3.7c-5.5,5.5-11,11-16.6,16.5c-16.6,16.4-33.1,32.9-49.7,49.3
				c-11,10.9-22,21.8-32.9,32.7C90.3,223.5,93.8,227,96.1,224.8z"/>
		</g>
	</g>
	<g class="st1">
		<g>
			<path class="st2" d="M199.4,328.8c26-25.9,52.1-51.7,78.1-77.6c6.2-6.2,12.5-12.4,18.7-18.6c2.1-2.1,6.6-5.1,7.2-8.2
				c0.9-4.6,0-10.3,0-15c0-11.1,0-22.1,0-33.2c0-19.1,0-38.1,0-57.2c0-2.2-2.7-3.3-4.3-1.8c-26,25.9-52.1,51.7-78.1,77.6
				c-6.2,6.2-12.5,12.4-18.7,18.6c-2.1,2.1-6.6,5.1-7.2,8.2c-0.9,4.6,0,10.3,0,15c0,11.1,0,22.1,0,33.2c0,19.1,0,38.1,0,57.2
				c0,3.2,5,3.2,5,0c0-15.7,0-31.5,0-47.2c0-11.6,0-23.3,0-34.9c0-7.1,0.9-14.8,0-21.8c0-0.1,0.1-1.3,0-1.4c3,1.6-2.1,1.9-0.3,1.3
				c1.2-0.4,2.9-2.9,3.8-3.7c5.5-5.5,11-11,16.6-16.5c16.6-16.4,33.1-32.9,49.7-49.3c11-10.9,22-21.8,32.9-32.7
				c-1.4-0.6-2.8-1.2-4.3-1.8c0,15.7,0,31.5,0,47.2c0,11.6,0,23.3,0,34.9c0,7.1-0.9,14.8,0,21.8c0,0.1-0.1,1.3,0,1.4
				c-3-1.6,2.1-1.9,0.3-1.3c-1.2,0.4-2.9,2.9-3.8,3.7c-5.5,5.5-11,11-16.6,16.5c-16.6,16.4-33.1,32.9-49.7,49.3
				c-11,10.9-22,21.8-32.9,32.7C193.6,327.5,197.1,331,199.4,328.8z"/>
		</g>
	</g>
	<g class="st1">
		<g>
			<path class="st2" d="M302.8,432.8c26-25.9,52.1-51.7,78.1-77.6c6.2-6.2,12.5-12.4,18.7-18.6c2.1-2.1,6.6-5.1,7.2-8.2
				c0.9-4.6,0-10.3,0-15c0-11.1,0-22.1,0-33.2c0-19.1,0-38.1,0-57.2c0-2.2-2.7-3.3-4.3-1.8c-26.1,26-52.3,51.9-78.4,77.9
				c-6.2,6.2-12.4,12.3-18.6,18.5c-2.1,2.1-6.4,5-7.1,8.1c-1,4.6,0,10.5,0,15.2c0,11,0,22,0,33c0,19,0,38.1,0,57.1c0,3.2,5,3.2,5,0
				c0-15.7,0-31.5,0-47.2c0-11.6,0-23.1,0-34.7c0-7.2,0.5-14.6,0-21.7c0-0.1,0.1-1.6,0-1.6c1.7,0.6-1.8,1.7-0.4,1.3
				c1.1-0.3,2.9-2.9,3.7-3.6c5.6-5.5,11.1-11.1,16.7-16.6c16.4-16.3,32.9-32.7,49.3-49c11.1-11,22.2-22,33.3-33.1
				c-1.4-0.6-2.8-1.2-4.3-1.8c0,15.7,0,31.5,0,47.2c0,11.6,0,23.3,0,34.9c0,7.1-0.9,14.8,0,21.8c0,0.1-0.1,1.3,0,1.4
				c-3-1.6,2.1-1.9,0.3-1.3c-1.2,0.4-2.9,2.9-3.8,3.7c-5.5,5.5-11,11-16.6,16.5c-16.6,16.4-33.1,32.9-49.7,49.3
				c-11,10.9-22,21.8-32.9,32.7C296.9,431.5,300.5,435,302.8,432.8z"/>
		</g>
	</g>
</g>
<g id="Layer_6">
	<polygon class="st3" points="301,431 94.3,224.3 94.3,119 197.7,15 404.3,223 404.3,328.3 	"/>
	<polyline class="st3" points="301,119 301,224.3 197.7,327 	"/>
	<polyline class="st3" points="197.7,327 197.7,223 301,119 	"/>
	<polyline class="st3" points="94.3,224.3 197.7,120.3 197.7,15 197.7,120.3 404.3,328.3 	"/>
	<polyline class="st3" points="404.3,223 301,325.7 301,431 301,325.7 94.3,119 	"/>
	<path class="st3" d="M444.5,229.5"/>
</g>
<g id="Stroked" class="st0">
	<g class="st1">
		<g class="st0">
			<polygon class="st4" points="197.7,15 94.3,117.7 94.3,119 146.7,171 197.7,120.3 			"/>
			<g class="st1">
				<path d="M195.9,13.2c-22.5,22.3-44.9,44.6-67.4,66.9c-11.1,11.1-22.3,22.1-33.4,33.2c-2.2,2.2-4.7,4.3-2.4,7.6
					c3.4,4.8,9,8.9,13.1,13c13,12.9,26.1,25.9,39.1,38.8c1,1,2.6,1,3.5,0c8.1-8.1,16.3-16.2,24.4-24.3c5.7-5.7,11.5-11.4,17.2-17.1
					c2.9-2.9,6.9-5.8,9.2-9.2c1.3-1.9,0.8-4.3,0.8-6.5c0-5.8,0-11.6,0-17.4c0-16.7,0-33.5,0-50.2c0-11,0-22.1,0-33.1
					c0-3.2-5-3.2-5,0c0,25.5,0,50.9,0,76.4c0,6.5,0,13.1,0,19.6c0,0.7-0.6,8.9,0,9.2c-0.5-0.3,1.7-2.7-0.7-0.2
					c-1.7,1.6-3.3,3.3-5,4.9c-5.3,5.3-10.6,10.5-15.9,15.8c-9.6,9.5-19.1,19-28.7,28.5c1.2,0,2.4,0,3.5,0
					c-10.8-10.8-21.7-21.5-32.5-32.3c-5.9-5.8-11.7-11.6-17.6-17.5c-0.5-0.5-1.1-1.4-1.8-1.8c-0.2-0.1-0.3-0.3-0.4-0.4
					c-0.3-0.3,0.6,0.4,0.3,0.6c0.1,0,0.7,0.5-0.4,1.5c0.6-0.6,1.2-1.2,1.8-1.8c24.9-24.8,49.8-49.5,74.8-74.3
					c8.9-8.9,17.9-17.7,26.8-26.6C201.7,14.5,198.2,11,195.9,13.2z"/>
			</g>
		</g>
		<g class="st0">
			<polygon class="st5" points="94.3,224.3 197.7,327 197.7,221.7 146.7,171 94.3,223 			"/>
			<g class="st1">
				<path d="M92.6,226.1c30.2,30,60.4,60,90.6,90c4.2,4.2,8.5,8.4,12.7,12.6c1.5,1.5,4.3,0.4,4.3-1.8c0-25.9,0-51.7,0-77.6
					c0-6.5,0-12.9,0-19.4c0-2.6,0.5-5.8,0-8.4c-0.6-2.8-4.3-5.3-6.2-7.2c-5.4-5.3-10.8-10.7-16.1-16c-9.8-9.7-19.6-19.5-29.4-29.2
					c-1-1-2.6-1-3.5,0c-9.3,9.3-18.6,18.5-27.9,27.8c-6,6-12.1,12-18.1,18c-2.6,2.6-7,5.4-7,9.3c0,3.2,5,3.2,5,0
					c0-1.8-1.4,1.2-0.3,0c0.5-0.5,1-1,1.5-1.5c1.9-1.9,3.9-3.8,5.8-5.8c6-6,12-11.9,18-17.9c8.8-8.8,17.7-17.6,26.5-26.4
					c-1.2,0-2.4,0-3.5,0c8,8,16.1,16,24.1,23.9c5.8,5.7,11.5,11.5,17.3,17.2c2.1,2.1,4.2,4.1,6.2,6.2c0.6,0.6,2.3,3,3.1,3.1
					c-0.3,0-0.1-2.5-0.5-0.4c-0.2,1.5,0,3.2,0,4.6c0,5.9,0,11.8,0,17.7c0,16.5,0,33.1,0,49.6c0,10.8,0,21.5,0,32.3
					c1.4-0.6,2.8-1.2,4.3-1.8c-30.2-30-60.4-60-90.6-90c-4.2-4.2-8.5-8.4-12.7-12.6C93.8,220.3,90.3,223.8,92.6,226.1z"/>
			</g>
		</g>
		<g class="st0">
			<polygon class="st6" points="94.3,223 146.7,171 94.3,119 			"/>
			<g class="st1">
				<path d="M96.1,224.8c17.4-17.3,34.9-34.7,52.3-52c1-0.9,1-2.6,0-3.5c-17.4-17.3-34.9-34.7-52.3-52c-1.5-1.5-4.3-0.4-4.3,1.8
					c0,30.3,0,60.7,0,91c0,4.3,0,8.7,0,13c0,3.2,5,3.2,5,0c0-30.3,0-60.7,0-91c0-4.3,0-8.7,0-13c-1.4,0.6-2.8,1.2-4.3,1.8
					c17.4,17.3,34.9,34.7,52.3,52c0-1.2,0-2.4,0-3.5c-17.4,17.3-34.9,34.7-52.3,52C90.3,223.5,93.8,227,96.1,224.8z"/>
			</g>
		</g>
		<g class="st0">
			<polygon class="st4" points="250.7,275 197.7,328.3 301,431 301,325.7 			"/>
			<g class="st1">
				<path d="M248.9,273.2c-17.7,17.8-35.3,35.6-53,53.3c-0.9,1-1,2.6,0,3.5c30.2,30,60.4,60,90.6,90c4.2,4.2,8.5,8.4,12.7,12.6
					c1.5,1.5,4.3,0.4,4.3-1.8c0-25.9,0-51.7,0-77.6c0-6.5,0-12.9,0-19.4c0-2.6,0.5-5.8,0-8.4c-0.6-2.8-4.2-5.3-6.1-7.2
					c-5.3-5.3-10.6-10.7-15.9-16c-9.7-9.7-19.3-19.5-29-29.2c-2.3-2.3-5.8,1.2-3.5,3.5c7.9,8,15.8,16,23.8,23.9
					c5.7,5.7,11.4,11.5,17.1,17.2c2,2.1,4.1,4.1,6.1,6.2c0.6,0.6,2.3,3,3.1,3.1c-0.3-0.1-0.1-2.5-0.5-0.4c-0.2,1.5,0,3.2,0,4.6
					c0,5.9,0,11.8,0,17.7c0,16.5,0,33.1,0,49.6c0,10.8,0,21.5,0,32.3c1.4-0.6,2.8-1.2,4.3-1.8c-30.2-30-60.4-60-90.6-90
					c-4.2-4.2-8.5-8.4-12.7-12.6c0,1.2,0,2.4,0,3.5c17.7-17.8,35.3-35.6,53-53.3C254.7,274.5,251.2,270.9,248.9,273.2z"/>
			</g>
		</g>
		<g class="st0">
			<polygon class="st7" points="301,117.7 197.7,15 197.7,120.3 248.7,171 301,119 			"/>
			<g class="st1">
				<path d="M302.8,115.9c-30.2-30-60.4-60-90.6-90c-4.2-4.2-8.5-8.4-12.7-12.6c-1.5-1.5-4.3-0.4-4.3,1.8c0,25.9,0,51.8,0,77.7
					c0,6.5,0,13,0,19.4c0,2.5-0.5,5.7,0,8.2c0.6,2.9,4.5,5.5,6.5,7.5c5.4,5.4,10.8,10.8,16.2,16.1c9.7,9.6,19.4,19.2,29,28.8
					c1,1,2.6,1,3.5,0c9.4-9.4,18.9-18.7,28.3-28.1c6-6,12-11.9,18-17.9c2.6-2.6,6.8-5.2,6.8-9.1c0-3.2-5-3.2-5,0
					c0,1.9,1.2-0.2,0.4-0.1c-0.4,0-1.1,1.1-1.4,1.4c-1.9,1.8-3.7,3.7-5.6,5.5c-6.1,6-12.1,12-18.2,18.1c-9,8.9-17.9,17.8-26.9,26.7
					c1.2,0,2.4,0,3.5,0c-7.9-7.9-15.8-15.7-23.7-23.6c-5.8-5.7-11.6-11.5-17.4-17.2c-2.1-2.1-4.2-4.2-6.3-6.3
					c-0.6-0.6-2.5-3.2-3.3-3.3c0.2,0,0.1,2.5,0.5,0.5c0.3-1.4,0-3.1,0-4.6c0-5.9,0-11.8,0-17.7c0-16.5,0-33,0-49.4
					c0-10.9,0-21.8,0-32.6c-1.4,0.6-2.8,1.2-4.3,1.8c30.2,30,60.4,60,90.6,90c4.2,4.2,8.5,8.4,12.7,12.6
					C301.5,121.7,305.1,118.2,302.8,115.9z"/>
			</g>
		</g>
		<g class="st0">
			<polygon class="st5" points="301,223 248.7,171 197.7,221.7 250.7,275 301,224.3 			"/>
			<g class="st1">
				<path d="M302.8,221.2c-17.4-17.3-34.9-34.7-52.3-52c-1-1-2.6-1-3.5,0c-17,16.9-34,33.8-51,50.7c-1,1-1,2.6,0,3.5
					c17.7,17.8,35.3,35.6,53,53.3c0.9,1,2.6,1,3.5,0c9-9,17.9-18.1,26.9-27.1c5.8-5.8,11.5-11.6,17.3-17.4c2.6-2.6,6.8-5.3,6.8-9.3
					c0-3.2-5-3.2-5,0c0,1.8,1.4-1.2,0.3,0c-0.5,0.6-1,1.1-1.6,1.6c-1.8,1.8-3.6,3.6-5.3,5.4c-5.8,5.9-11.6,11.7-17.5,17.6
					c-8.5,8.6-17,17.1-25.5,25.7c1.2,0,2.4,0,3.5,0c-17.7-17.8-35.3-35.6-53-53.3c0,1.2,0,2.4,0,3.5c17-16.9,34-33.8,51-50.7
					c-1.2,0-2.4,0-3.5,0c17.4,17.3,34.9,34.7,52.3,52C301.5,227,305.1,223.5,302.8,221.2z"/>
			</g>
		</g>
		<g class="st0">
			<polygon class="st5" points="301,224.3 351.7,274.7 404.3,221.7 301,119 301,223 			"/>
			<g class="st1">
				<path d="M299.2,226.1c16.9,16.8,33.8,33.6,50.7,50.3c1,0.9,2.6,1,3.5,0c17.6-17.7,35.1-35.3,52.7-53c0.9-1,1-2.6,0-3.5
					c-30.2-30-60.4-60-90.6-90c-4.2-4.2-8.5-8.4-12.7-12.6c-1.5-1.5-4.3-0.4-4.3,1.8c0,30.7,0,61.3,0,92c0,4.4,0,8.9,0,13.3
					c0,3.2,5,3.2,5,0c0-30.7,0-61.3,0-92c0-4.5,0-8.9,0-13.4c-1.4,0.6-2.8,1.2-4.3,1.8c30.2,30,60.4,60,90.6,90
					c4.2,4.2,8.5,8.4,12.7,12.6c0-1.2,0-2.4,0-3.5c-17.6,17.7-35.1,35.3-52.7,53c1.2,0,2.4,0,3.5,0c-16.9-16.8-33.8-33.6-50.7-50.3
					C300.5,220.3,296.9,223.8,299.2,226.1z"/>
			</g>
		</g>
		<g class="st0">
			<polygon class="st6" points="351.7,274.7 301,224.3 250.7,275 301,325.7 			"/>
			<g class="st1">
				<path d="M353.4,272.9c-16.9-16.8-33.8-33.6-50.7-50.3c-1-0.9-2.6-1-3.5,0c-16.8,16.9-33.6,33.8-50.3,50.7c-1,1-1,2.6,0,3.5
					c16.8,16.9,33.6,33.8,50.3,50.7c0.9,1,2.6,1,3.5,0c16.9-17,33.8-34,50.7-51c2.3-2.3-1.3-5.8-3.5-3.5c-16.9,17-33.8,34-50.7,51
					c1.2,0,2.4,0,3.5,0c-16.8-16.9-33.6-33.8-50.3-50.7c0,1.2,0,2.4,0,3.5c16.8-16.9,33.6-33.8,50.3-50.7c-1.2,0-2.4,0-3.5,0
					c16.9,16.8,33.8,33.6,50.7,50.3C352.2,278.7,355.7,275.2,353.4,272.9z"/>
			</g>
		</g>
		<g class="st0">
			<polygon class="st8" points="301,119 248.7,171 301,223 			"/>
			<g class="st1">
				<path d="M299.2,117.2c-17.4,17.3-34.9,34.7-52.3,52c-1,0.9-1,2.6,0,3.5c17.4,17.3,34.9,34.7,52.3,52c1.5,1.5,4.3,0.4,4.3-1.8
					c0-30.3,0-60.7,0-91c0-4.3,0-8.7,0-13c0-3.2-5-3.2-5,0c0,30.3,0,60.7,0,91c0,4.3,0,8.7,0,13c1.4-0.6,2.8-1.2,4.3-1.8
					c-17.4-17.3-34.9-34.7-52.3-52c0,1.2,0,2.4,0,3.5c17.4-17.3,34.9-34.7,52.3-52C305.1,118.5,301.5,115,299.2,117.2z"/>
			</g>
		</g>
		<g class="st0">
			<polygon class="st7" points="404.3,327 404.3,223 352,275 			"/>
			<g class="st1">
				<path d="M406.8,327c0-30.3,0-60.7,0-91c0-4.3,0-8.7,0-13c0-2.2-2.7-3.3-4.3-1.8c-17.4,17.3-34.9,34.7-52.3,52
					c-1,0.9-1,2.6,0,3.5c17.4,17.3,34.9,34.7,52.3,52c2.3,2.3,5.8-1.3,3.5-3.5c-17.4-17.3-34.9-34.7-52.3-52c0,1.2,0,2.4,0,3.5
					c17.4-17.3,34.9-34.7,52.3-52c-1.4-0.6-2.8-1.2-4.3-1.8c0,30.3,0,60.7,0,91c0,4.3,0,8.7,0,13C401.8,330.2,406.8,330.2,406.8,327
					z"/>
			</g>
		</g>
		<g class="st0">
			<polygon class="st9" points="301,325.7 301,431 404.3,327 352,275 			"/>
			<g class="st1">
				<path d="M298.5,325.7c0,30.8,0,61.5,0,92.3c0,4.4,0,8.7,0,13.1c0,2.2,2.7,3.3,4.3,1.8c30.2-30.4,60.3-60.7,90.5-91.1
					c4.3-4.3,8.6-8.6,12.9-12.9c0.9-1,1-2.6,0-3.5c-17.4-17.3-34.9-34.7-52.3-52c-1-1-2.6-1-3.5,0c-17,16.9-34,33.8-51,50.7
					c-2.3,2.3,1.2,5.8,3.5,3.5c17-16.9,34-33.8,51-50.7c-1.2,0-2.4,0-3.5,0c17.4,17.3,34.9,34.7,52.3,52c0-1.2,0-2.4,0-3.5
					c-30.2,30.4-60.3,60.7-90.5,91.1c-4.3,4.3-8.6,8.6-12.9,12.9c1.4,0.6,2.8,1.2,4.3,1.8c0-30.8,0-61.5,0-92.3c0-4.4,0-8.7,0-13.1
					C303.5,322.4,298.5,322.4,298.5,325.7z"/>
			</g>
		</g>
	</g>
	<g class="st1">
		<path class="st10" d="M182.7,51.4v62.7l-36,35.8l-31.1-30.9L182.7,51.4 M197.7,15L94.3,119l52.3,52l51-50.7V15L197.7,15z"/>
	</g>
	<g class="st1">
		<path class="st11" d="M212.7,51.4l67.1,67.6l-31.1,30.9l-36-35.8V51.4 M197.7,15v105.3l51,50.7l52.3-52L197.7,15L197.7,15z"/>
	</g>
	<g class="st1">
		<path class="st12" d="M109.3,155l16.1,16l-16.1,16V155 M94.3,119v104l52.3-52L94.3,119L94.3,119z"/>
	</g>
	<g class="st1">
		<path class="st13" d="M146.7,192.1l36,35.8v63.7l-67.2-68.5L146.7,192.1 M146.7,171l-52.3,52l103.3,105.3V221.7L146.7,171
			L146.7,171z"/>
	</g>
	<g class="st1">
		<path class="st13" d="M248.7,192.1l31.3,31.1l-29.4,30.4l-31.6-31.8L248.7,192.1 M248.7,171l-51,50.7l53,53.3l50.3-52L248.7,171
			L248.7,171z"/>
	</g>
	<g class="st1">
		<path class="st14" d="M286,155V187l-16.1-16L286,155 M301,119l-52.3,52l52.3,52V119L301,119z"/>
	</g>
	<g class="st1">
		<path class="st10" d="M250.7,296.3l35.3,35.6V395l-67.1-66.7L250.7,296.3 M250.7,275l-53,53.3L301,431V325.7L250.7,275L250.7,275z
			"/>
	</g>
	<g class="st1">
		<path class="st12" d="M301.1,244.5l29.8,30.4l-29.8,29.6l-29.4-29.6L301.1,244.5 M301,223l-50.3,52l50.3,50.7l51-50.7L301,223
			L301,223z"/>
	</g>
	<g class="st1">
		<path class="st15" d="M352,296.1l31.1,30.9L316,394.6v-62.7L352,296.1 M352,275l-51,50.7V431l103.3-104L352,275L352,275z"/>
	</g>
	<g class="st1">
		<path class="st13" d="M316,155.4l67.1,67.6l-31,30.8L316,216.9V155.4 M301,119v104l51,52l52.3-52L301,119L301,119z"/>
	</g>
	<g class="st1">
		<path class="st11" d="M389.3,259V291l-16.1-16L389.3,259 M404.3,223L352,275l52.3,52V223L404.3,223z"/>
	</g>
</g>
<g id="Stroked_copy" class="st0">
	<g class="st1">
		<g class="st0">
			<polygon class="st4" points="197.7,15 94.3,117.7 94.3,119 146.7,171 197.7,120.3 			"/>
			<g class="st1">
				<path d="M195.9,13.2c-22.5,22.3-44.9,44.6-67.4,66.9c-11.1,11.1-22.3,22.1-33.4,33.2c-2.2,2.2-4.7,4.3-2.4,7.6
					c3.4,4.8,9,8.9,13.1,13c13,12.9,26.1,25.9,39.1,38.8c1,1,2.6,1,3.5,0c8.1-8.1,16.3-16.2,24.4-24.3c5.7-5.7,11.5-11.4,17.2-17.1
					c2.9-2.9,6.9-5.8,9.2-9.2c1.3-1.9,0.8-4.3,0.8-6.5c0-5.8,0-11.6,0-17.4c0-16.7,0-33.5,0-50.2c0-11,0-22.1,0-33.1
					c0-3.2-5-3.2-5,0c0,25.5,0,50.9,0,76.4c0,6.5,0,13.1,0,19.6c0,0.7-0.6,8.9,0,9.2c-0.5-0.3,1.7-2.7-0.7-0.2
					c-1.7,1.6-3.3,3.3-5,4.9c-5.3,5.3-10.6,10.5-15.9,15.8c-9.6,9.5-19.1,19-28.7,28.5c1.2,0,2.4,0,3.5,0
					c-10.8-10.8-21.7-21.5-32.5-32.3c-5.9-5.8-11.7-11.6-17.6-17.5c-0.5-0.5-1.1-1.4-1.8-1.8c-0.2-0.1-0.3-0.3-0.4-0.4
					c-0.3-0.3,0.6,0.4,0.3,0.6c0.1,0,0.7,0.5-0.4,1.5c0.6-0.6,1.2-1.2,1.8-1.8c24.9-24.8,49.8-49.5,74.8-74.3
					c8.9-8.9,17.9-17.7,26.8-26.6C201.7,14.5,198.2,11,195.9,13.2z"/>
			</g>
		</g>
		<g class="st0">
			<polygon class="st5" points="94.3,224.3 197.7,327 197.7,221.7 146.7,171 94.3,223 			"/>
			<g class="st1">
				<path d="M92.6,226.1c30.2,30,60.4,60,90.6,90c4.2,4.2,8.5,8.4,12.7,12.6c1.5,1.5,4.3,0.4,4.3-1.8c0-25.9,0-51.7,0-77.6
					c0-6.5,0-12.9,0-19.4c0-2.6,0.5-5.8,0-8.4c-0.6-2.8-4.3-5.3-6.2-7.2c-5.4-5.3-10.8-10.7-16.1-16c-9.8-9.7-19.6-19.5-29.4-29.2
					c-1-1-2.6-1-3.5,0c-9.3,9.3-18.6,18.5-27.9,27.8c-6,6-12.1,12-18.1,18c-2.6,2.6-7,5.4-7,9.3c0,3.2,5,3.2,5,0
					c0-1.8-1.4,1.2-0.3,0c0.5-0.5,1-1,1.5-1.5c1.9-1.9,3.9-3.8,5.8-5.8c6-6,12-11.9,18-17.9c8.8-8.8,17.7-17.6,26.5-26.4
					c-1.2,0-2.4,0-3.5,0c8,8,16.1,16,24.1,23.9c5.8,5.7,11.5,11.5,17.3,17.2c2.1,2.1,4.2,4.1,6.2,6.2c0.6,0.6,2.3,3,3.1,3.1
					c-0.3,0-0.1-2.5-0.5-0.4c-0.2,1.5,0,3.2,0,4.6c0,5.9,0,11.8,0,17.7c0,16.5,0,33.1,0,49.6c0,10.8,0,21.5,0,32.3
					c1.4-0.6,2.8-1.2,4.3-1.8c-30.2-30-60.4-60-90.6-90c-4.2-4.2-8.5-8.4-12.7-12.6C93.8,220.3,90.3,223.8,92.6,226.1z"/>
			</g>
		</g>
		<g class="st0">
			<polygon class="st6" points="94.3,223 146.7,171 94.3,119 			"/>
			<g class="st1">
				<path d="M96.1,224.8c17.4-17.3,34.9-34.7,52.3-52c1-0.9,1-2.6,0-3.5c-17.4-17.3-34.9-34.7-52.3-52c-1.5-1.5-4.3-0.4-4.3,1.8
					c0,30.3,0,60.7,0,91c0,4.3,0,8.7,0,13c0,3.2,5,3.2,5,0c0-30.3,0-60.7,0-91c0-4.3,0-8.7,0-13c-1.4,0.6-2.8,1.2-4.3,1.8
					c17.4,17.3,34.9,34.7,52.3,52c0-1.2,0-2.4,0-3.5c-17.4,17.3-34.9,34.7-52.3,52C90.3,223.5,93.8,227,96.1,224.8z"/>
			</g>
		</g>
		<g class="st0">
			<polygon class="st4" points="250.7,275 197.7,328.3 301,431 301,325.7 			"/>
			<g class="st1">
				<path d="M248.9,273.2c-17.7,17.8-35.3,35.6-53,53.3c-0.9,1-1,2.6,0,3.5c30.2,30,60.4,60,90.6,90c4.2,4.2,8.5,8.4,12.7,12.6
					c1.5,1.5,4.3,0.4,4.3-1.8c0-25.9,0-51.7,0-77.6c0-6.5,0-12.9,0-19.4c0-2.6,0.5-5.8,0-8.4c-0.6-2.8-4.2-5.3-6.1-7.2
					c-5.3-5.3-10.6-10.7-15.9-16c-9.7-9.7-19.3-19.5-29-29.2c-2.3-2.3-5.8,1.2-3.5,3.5c7.9,8,15.8,16,23.8,23.9
					c5.7,5.7,11.4,11.5,17.1,17.2c2,2.1,4.1,4.1,6.1,6.2c0.6,0.6,2.3,3,3.1,3.1c-0.3-0.1-0.1-2.5-0.5-0.4c-0.2,1.5,0,3.2,0,4.6
					c0,5.9,0,11.8,0,17.7c0,16.5,0,33.1,0,49.6c0,10.8,0,21.5,0,32.3c1.4-0.6,2.8-1.2,4.3-1.8c-30.2-30-60.4-60-90.6-90
					c-4.2-4.2-8.5-8.4-12.7-12.6c0,1.2,0,2.4,0,3.5c17.7-17.8,35.3-35.6,53-53.3C254.7,274.5,251.2,270.9,248.9,273.2z"/>
			</g>
		</g>
		<g class="st0">
			<polygon class="st7" points="301,117.7 197.7,15 197.7,120.3 248.7,171 301,119 			"/>
			<g class="st1">
				<path d="M302.8,115.9c-30.2-30-60.4-60-90.6-90c-4.2-4.2-8.5-8.4-12.7-12.6c-1.5-1.5-4.3-0.4-4.3,1.8c0,25.9,0,51.8,0,77.7
					c0,6.5,0,13,0,19.4c0,2.5-0.5,5.7,0,8.2c0.6,2.9,4.5,5.5,6.5,7.5c5.4,5.4,10.8,10.8,16.2,16.1c9.7,9.6,19.4,19.2,29,28.8
					c1,1,2.6,1,3.5,0c9.4-9.4,18.9-18.7,28.3-28.1c6-6,12-11.9,18-17.9c2.6-2.6,6.8-5.2,6.8-9.1c0-3.2-5-3.2-5,0
					c0,1.9,1.2-0.2,0.4-0.1c-0.4,0-1.1,1.1-1.4,1.4c-1.9,1.8-3.7,3.7-5.6,5.5c-6.1,6-12.1,12-18.2,18.1c-9,8.9-17.9,17.8-26.9,26.7
					c1.2,0,2.4,0,3.5,0c-7.9-7.9-15.8-15.7-23.7-23.6c-5.8-5.7-11.6-11.5-17.4-17.2c-2.1-2.1-4.2-4.2-6.3-6.3
					c-0.6-0.6-2.5-3.2-3.3-3.3c0.2,0,0.1,2.5,0.5,0.5c0.3-1.4,0-3.1,0-4.6c0-5.9,0-11.8,0-17.7c0-16.5,0-33,0-49.4
					c0-10.9,0-21.8,0-32.6c-1.4,0.6-2.8,1.2-4.3,1.8c30.2,30,60.4,60,90.6,90c4.2,4.2,8.5,8.4,12.7,12.6
					C301.5,121.7,305.1,118.2,302.8,115.9z"/>
			</g>
		</g>
		<g class="st0">
			<polygon class="st5" points="301,223 248.7,171 197.7,221.7 250.7,275 301,224.3 			"/>
			<g class="st1">
				<path d="M302.8,221.2c-17.4-17.3-34.9-34.7-52.3-52c-1-1-2.6-1-3.5,0c-17,16.9-34,33.8-51,50.7c-1,1-1,2.6,0,3.5
					c17.7,17.8,35.3,35.6,53,53.3c0.9,1,2.6,1,3.5,0c9-9,17.9-18.1,26.9-27.1c5.8-5.8,11.5-11.6,17.3-17.4c2.6-2.6,6.8-5.3,6.8-9.3
					c0-3.2-5-3.2-5,0c0,1.8,1.4-1.2,0.3,0c-0.5,0.6-1,1.1-1.6,1.6c-1.8,1.8-3.6,3.6-5.3,5.4c-5.8,5.9-11.6,11.7-17.5,17.6
					c-8.5,8.6-17,17.1-25.5,25.7c1.2,0,2.4,0,3.5,0c-17.7-17.8-35.3-35.6-53-53.3c0,1.2,0,2.4,0,3.5c17-16.9,34-33.8,51-50.7
					c-1.2,0-2.4,0-3.5,0c17.4,17.3,34.9,34.7,52.3,52C301.5,227,305.1,223.5,302.8,221.2z"/>
			</g>
		</g>
		<g class="st0">
			<polygon class="st5" points="301,224.3 351.7,274.7 404.3,221.7 301,119 301,223 			"/>
			<g class="st1">
				<path d="M299.2,226.1c16.9,16.8,33.8,33.6,50.7,50.3c1,0.9,2.6,1,3.5,0c17.6-17.7,35.1-35.3,52.7-53c0.9-1,1-2.6,0-3.5
					c-30.2-30-60.4-60-90.6-90c-4.2-4.2-8.5-8.4-12.7-12.6c-1.5-1.5-4.3-0.4-4.3,1.8c0,30.7,0,61.3,0,92c0,4.4,0,8.9,0,13.3
					c0,3.2,5,3.2,5,0c0-30.7,0-61.3,0-92c0-4.5,0-8.9,0-13.4c-1.4,0.6-2.8,1.2-4.3,1.8c30.2,30,60.4,60,90.6,90
					c4.2,4.2,8.5,8.4,12.7,12.6c0-1.2,0-2.4,0-3.5c-17.6,17.7-35.1,35.3-52.7,53c1.2,0,2.4,0,3.5,0c-16.9-16.8-33.8-33.6-50.7-50.3
					C300.5,220.3,296.9,223.8,299.2,226.1z"/>
			</g>
		</g>
		<g class="st0">
			<polygon class="st6" points="351.7,274.7 301,224.3 250.7,275 301,325.7 			"/>
			<g class="st1">
				<path d="M353.4,272.9c-16.9-16.8-33.8-33.6-50.7-50.3c-1-0.9-2.6-1-3.5,0c-16.8,16.9-33.6,33.8-50.3,50.7c-1,1-1,2.6,0,3.5
					c16.8,16.9,33.6,33.8,50.3,50.7c0.9,1,2.6,1,3.5,0c16.9-17,33.8-34,50.7-51c2.3-2.3-1.3-5.8-3.5-3.5c-16.9,17-33.8,34-50.7,51
					c1.2,0,2.4,0,3.5,0c-16.8-16.9-33.6-33.8-50.3-50.7c0,1.2,0,2.4,0,3.5c16.8-16.9,33.6-33.8,50.3-50.7c-1.2,0-2.4,0-3.5,0
					c16.9,16.8,33.8,33.6,50.7,50.3C352.2,278.7,355.7,275.2,353.4,272.9z"/>
			</g>
		</g>
		<g class="st0">
			<polygon class="st8" points="301,119 248.7,171 301,223 			"/>
			<g class="st1">
				<path d="M299.2,117.2c-17.4,17.3-34.9,34.7-52.3,52c-1,0.9-1,2.6,0,3.5c17.4,17.3,34.9,34.7,52.3,52c1.5,1.5,4.3,0.4,4.3-1.8
					c0-30.3,0-60.7,0-91c0-4.3,0-8.7,0-13c0-3.2-5-3.2-5,0c0,30.3,0,60.7,0,91c0,4.3,0,8.7,0,13c1.4-0.6,2.8-1.2,4.3-1.8
					c-17.4-17.3-34.9-34.7-52.3-52c0,1.2,0,2.4,0,3.5c17.4-17.3,34.9-34.7,52.3-52C305.1,118.5,301.5,115,299.2,117.2z"/>
			</g>
		</g>
		<g class="st0">
			<polygon class="st7" points="404.3,327 404.3,223 352,275 			"/>
			<g class="st1">
				<path d="M406.8,327c0-30.3,0-60.7,0-91c0-4.3,0-8.7,0-13c0-2.2-2.7-3.3-4.3-1.8c-17.4,17.3-34.9,34.7-52.3,52
					c-1,0.9-1,2.6,0,3.5c17.4,17.3,34.9,34.7,52.3,52c2.3,2.3,5.8-1.3,3.5-3.5c-17.4-17.3-34.9-34.7-52.3-52c0,1.2,0,2.4,0,3.5
					c17.4-17.3,34.9-34.7,52.3-52c-1.4-0.6-2.8-1.2-4.3-1.8c0,30.3,0,60.7,0,91c0,4.3,0,8.7,0,13C401.8,330.2,406.8,330.2,406.8,327
					z"/>
			</g>
		</g>
		<g class="st0">
			<polygon class="st9" points="301,325.7 301,431 404.3,327 352,275 			"/>
			<g class="st1">
				<path d="M298.5,325.7c0,30.8,0,61.5,0,92.3c0,4.4,0,8.7,0,13.1c0,2.2,2.7,3.3,4.3,1.8c30.2-30.4,60.3-60.7,90.5-91.1
					c4.3-4.3,8.6-8.6,12.9-12.9c0.9-1,1-2.6,0-3.5c-17.4-17.3-34.9-34.7-52.3-52c-1-1-2.6-1-3.5,0c-17,16.9-34,33.8-51,50.7
					c-2.3,2.3,1.2,5.8,3.5,3.5c17-16.9,34-33.8,51-50.7c-1.2,0-2.4,0-3.5,0c17.4,17.3,34.9,34.7,52.3,52c0-1.2,0-2.4,0-3.5
					c-30.2,30.4-60.3,60.7-90.5,91.1c-4.3,4.3-8.6,8.6-12.9,12.9c1.4,0.6,2.8,1.2,4.3,1.8c0-30.8,0-61.5,0-92.3c0-4.4,0-8.7,0-13.1
					C303.5,322.4,298.5,322.4,298.5,325.7z"/>
			</g>
		</g>
	</g>
	<g class="st1">
		<g>
			<path class="st16" d="M238.6,194.8c0,0.1,1.9-1.1,2-1.1c0.1,0.2-2.6,3.4-2.6,3.4c0.1,0.1,3.4-2,3.4-2c0.1,0.1-2.9,3.2-2.8,3.3
				c0,0,1.9-1.2,2-1.1c0,0-1.5,2-1.5,2c0,0.1,2-1.2,2-1.2c0.1,0.1-2.3,1.5-2.3,1.6c0,0,2.1-1.2,2.1-1.2c0,0.1-2.1,2.4-2,2.5
				c0.1,0.1,2.8-1.7,2.8-1.6c0,0-2.8,2-2.7,2.1c0.1,0.1,1-0.6,1-0.6c0,0.1-1.1,1-1,1.1c0.1,0.1,1.3-0.8,1.3-0.8
				c0.1,0.2-2.3,3.4-2.3,3.5c0,0.1,3.1-1.9,3.2-1.8c0,0-4.3,3.6-4.3,3.7c0,0,4.7-2.8,4.7-2.7c0.1,0.2-6.4,3.6-6.3,3.9
				c0,0,4.6-2.8,4.6-2.7c0,0-6.9,5.1-6.8,5.3c0.2,0.4,7.9-4.7,8-4.6"/>
			<path class="st16" d="M239.7,189.7c0,0,1.7-1,1.7-1c0,0.1-4.2,3.7-4.1,3.8c0,0,4.2-2.5,4.2-2.4c0.1,0.2-8.5,6.1-8.4,6.3
				c0.1,0.2,6.7-4.3,6.9-4c0.2,0.3-7.5,4.7-7.3,4.9c0,0,7.9-5.1,8.1-4.7c0.3,0.4-10.7,7.2-10.7,7.2c0.2,0.4,6.5-4,6.6-3.8
				c0.1,0.2-7.4,4.1-7.3,4.4c0.2,0.3,8-4.8,8.1-4.7c0.1,0.1-8.4,5-8.4,5c0.2,0.3,6.8-4.3,7-4c0.1,0.1-11.8,9-11.7,9
				c0.1,0.2,6.4-3.8,6.5-3.7c0.1,0.2-6.2,5-6.1,5.3c0,0.1,1.8-1.2,1.9-1.1c0,0-1.3,0.8-1.2,0.8c0,0,2.1-1.3,2.2-1.3
				c0,0-2.2,1.6-2.2,1.6c0,0.1,1.5-0.8,1.5-0.8c0,0-1.2,2.2-1.2,2.3c0,0.1,3.6-2.2,3.6-2.1c0,0-2.2,2.2-2.1,2.3
				c0,0.1,2.2-1.4,2.2-1.3c0,0-0.9,1.8-0.9,1.8c0,0,0.9-0.6,1-0.6c0,0-0.5,0.5-0.5,0.5c0,0.1,1-0.7,1-0.6c0,0.1-1.5,2.5-1.4,2.6
				c0,0.1,2.8-1.6,2.8-1.6c0,0.1-0.7,2.4-0.7,2.4c0.1,0.2,9-5.4,9.1-5.2c0.1,0.1-8.5,5.7-8.3,5.9c0,0,4.9-3,5-2.9
				c0.1,0.2-4.8,3.4-4.8,3.5c0.1,0.1,3.9-2.4,4-2.3c0.1,0.1-2.7,2.2-2.6,2.4c0,0,0.6-0.4,0.6-0.3c0,0-1.2,0.7-1.2,0.8
				c0,0,0.8-0.5,0.8-0.5"/>
		</g>
		<path class="st17" d="M238.4,194.8v10.3l-5.9,5.9l-5.1-5.1L238.4,194.8 M240.8,188.8l-17,17.1l8.6,8.6l8.4-8.3V188.8L240.8,188.8z
			"/>
	</g>
	<g class="st1">
		<g>
			<path class="st18" d="M244.1,194.4c0.1,0.1,2-1.2,2-1.2c0.1,0.1-2.9,1.9-2.8,2c0,0.1,2.6-1.6,2.6-1.5c0,0-1.6,1.9-1.5,2
				c0,0.1,2.2-1.3,2.2-1.3c0.1,0.1-2,1.6-1.9,1.7c0,0.1,1.6-1,1.7-1c0,0.1-1.1,2.3-1.1,2.3c0.1,0.1,3.3-2,3.3-1.9
				c0,0.1-2.7,1.6-2.7,1.7c0,0.1,2.9-1.8,3-1.7c0,0-3.1,1.8-3.1,1.8c0,0,2.2-1.3,2.2-1.3c0,0-0.9,1.6-0.9,1.6
				c0.1,0.1,1.1-0.7,1.2-0.7c0,0-1.1,1.6-1,1.7c0,0,1.6-1,1.6-0.9c0,0-0.3,2.2-0.2,2.3c0,0,3-1.8,3-1.7c0,0-1.5,2.3-1.4,2.4
				c0,0.1,1.8-1.1,1.9-1.1c0,0-1,1.7-1,1.7c0,0,1.6-1,1.6-0.9c0,0.1-1.9,1.7-1.9,1.8c0,0,1.8-1.1,1.8-1c0,0.1-0.3,2.3-0.2,2.3
				c0.1,0.1,2.6-1.6,2.7-1.5c0,0-3.5,1.9-3.5,2.1c0,0.1,2.8-1.7,2.8-1.6c0,0.1-0.5,2-0.5,2.1c0,0,1.4-0.9,1.4-0.8
				c0,0-2.2,1.7-2.2,1.8c0,0.1,1.9-1.2,2-1.1c0,0-2.8,3.2-2.7,3.4c0,0,4.7-2.9,4.8-2.8c0,0-8.1,6-8.1,6.1c0.1,0.1,8.2-5.1,8.4-4.8"
				/>
			<path class="st18" d="M240.7,189.2C240.7,189.2,240.8,189.1,240.7,189.2c0,0,0.5,1.9,0.5,1.9c0,0,1.5-0.9,1.5-0.9
				c0,0-2.4,2.4-2.4,2.4c0.1,0.1,2.3-1.4,2.4-1.4c0,0.1-1.7,1.1-1.7,1.1c0,0,1.4-0.8,1.4-0.8c0,0.1-1.9,1.2-1.9,1.2
				c0.1,0.1,2.5-1.6,2.6-1.5c0,0.1-2.3,2.5-2.3,2.6c0,0.1,3.6-2.2,3.7-2.1c0.1,0.1-3.9,4.1-3.8,4.2c0,0,4.9-3,5-2.9
				c0.1,0.1-4.5,2.9-4.4,3.1c0,0,1.5-0.9,1.5-0.9c0,0-2,1.6-1.9,1.7c0,0,2.3-1.5,2.4-1.4c0,0-2.4,2.3-2.3,2.4c0,0,2.4-1.5,2.5-1.4
				c0.1,0.2-3.1,3.4-3,3.4c0,0,3.1-1.9,3.1-1.8c0.1,0.1-3.2,3.1-3.2,3.1c0.1,0.1,3.2-2,3.2-1.9c0.1,0.2-3,3.7-3,3.8
				c0,0,3.3-1.9,3.3-1.9c0,0.1-3,2.3-3,2.3c0,0.1,2.8-1.7,2.8-1.6c0,0-3.3,1.8-3.2,2c0,0,3.2-1.9,3.3-1.9c0,0.1-2.6,2.1-2.5,2.2
				c0,0.1,1.6-1,1.6-0.9c0,0.1-2.5,3.2-2.5,3.3c0,0,2.6-1.6,2.7-1.5c0,0-2,2-1.9,2.1c0.1,0.1,2.6-1.6,2.7-1.5c0,0-1.5,0.9-1.5,1
				c0,0.1,1.6-1,1.6-0.9c0,0.1-1.2,1.1-1.2,1.2c0,0,0.4-0.4,0.5-0.3c0,0-0.1,1.5,0,1.5c0,0.1,2.7-1.6,2.7-1.6c0,0.1-2.5,1.8-2.5,1.8
				c0,0.1,2.1-1.3,2.1-1.2c0,0-2.1,1.7-2.1,1.7c0,0.1,2.7-1.7,2.8-1.6c0,0-3,1.7-3,1.8c0,0.1,2.3-1.4,2.4-1.4c0,0.1-1.8,1.1-1.7,1.1
				c0,0,1.4-0.9,1.5-0.8c0,0-1.3,1.2-1.3,1.3c0,0.1,1.9-1.1,1.9-1.1c0,0.1-2,2.2-1.9,2.3c0.1,0.1,3-1.9,3.1-1.8c0,0-1.9,1.4-1.9,1.4
				c0,0.1,1.3-0.8,1.3-0.8c0,0.1-0.8,2.4-0.7,2.4c0,0.1,1.9-1.2,2-1.1c0,0-0.1,1.2-0.1,1.3c0,0,0.8-0.5,0.8-0.5c0,0-1.9,1.5-1.9,1.6
				c0.3,0.5,9.5-6,9.7-5.6c0,0.1-8.1,5.4-8,5.6c0.2,0.3,6.2-3.7,6.3-3.6c0,0-6.5,4.6-6.4,4.8c0,0.1,2.6-1.6,2.7-1.5
				c0,0-2.4,1.5-2.4,1.6c0,0.1,2.1-1.3,2.2-1.2c0,0.1-0.9,1.2-0.9,1.3c0,0,0.4-0.2,0.4-0.2"/>
		</g>
		<path class="st19" d="M243.3,194.8l11,11.1l-5.1,5.1l-5.9-5.9V194.8 M240.8,188.8v17.3l8.4,8.3l8.6-8.6L240.8,188.8L240.8,188.8z"
			/>
	</g>
	<g class="st1">
		<g>
			<path class="st20" d="M226.3,211.9c0.1,0.1,2.6-1.6,2.6-1.5c0,0-0.4,2.3-0.3,2.4c0.1,0.1,1.5-0.9,1.5-0.9c0,0-2.5,1.6-2.5,1.8
				c0.1,0.1,1.6-1.1,1.7-1c0,0.1-0.4,1.8-0.4,1.8c0,0.1,1.3-0.8,1.3-0.8c0,0-4.1,3.1-4,3.2c0.1,0.1,4.8-3,4.9-2.9"/>
			<path class="st20" d="M223.9,206.2C223.9,206.2,224,206.1,223.9,206.2c0.1,0-0.3,1.8-0.2,1.9c0,0,1.9-1.2,1.9-1.1
				c0,0-0.8,0.7-0.8,0.7c0,0,1-0.6,1-0.6c0,0-1.4,1.8-1.3,1.9c0,0,2.3-1.4,2.3-1.3c0,0-2.8,2-2.8,2.1c0,0,2.9-1.8,2.9-1.7
				c0,0.1-2.5,2.4-2.4,2.5c0,0,3-1.8,3-1.7c0.1,0.2-4.4,3.8-4.4,3.9c0,0,4.1-2.4,4.1-2.4c0,0-3,1.9-2.9,2c0.1,0.1,3-1.9,3.1-1.8
				c0,0-3.3,3.2-3.2,3.3c0.1,0.1,1.8-1.2,1.8-1.1c0.1,0.1-2.3,3.2-2.2,3.3c0.1,0.1,2.7-1.6,2.8-1.6c0.1,0.1-2.2,1.4-2.1,1.4
				c0,0,2.1-1.3,2.1-1.2c0,0-2.5,3.1-2.4,3.2c0,0.1,1.4-0.9,1.4-0.8c0,0-1.7,2.3-1.7,2.4c0.2,0.3,8.8-5.3,8.9-5.1
				c0.2,0.4-8.9,6-8.9,6c0,0.1,6.8-4,6.8-3.9c0.1,0.2-6.5,5.7-6.3,5.9c0,0,0.6-0.4,0.6-0.3c0,0-1,0.8-1,0.8c0,0,0.4-0.3,0.4-0.3"/>
		</g>
		<path class="st21" d="M226.3,211.8l2.6,2.6l-2.6,2.6V211.8 M223.8,205.9V223l8.6-8.6L223.8,205.9L223.8,205.9z"/>
	</g>
	<g class="st1">
		<g>
			<path class="st22" d="M232.8,217.8c0,0.1,1.9-1.2,1.9-1.1c0.1,0.1-2.1,2.1-2.1,2.2c0,0,1.9-1.2,2-1.1c0,0.1-0.3,2.3-0.3,2.3
				c0,0.1,1.9-1.2,1.9-1.1c0,0-0.4,1.3-0.3,1.3c0,0.1,2-1.2,2-1.2c0,0-1.8,2.5-1.8,2.6c0,0,1.5-0.9,1.5-0.9c0,0-0.3,1.3-0.3,1.3
				c0,0.1,0.9-0.5,0.9-0.5c0,0-0.9,1.6-0.9,1.7c0,0.1,2.4-1.4,2.4-1.4c0.1,0.1-2.1,2.7-2.1,2.9c0,0.1,2.5-1.5,2.5-1.5
				c0.1,0.1-2.8,2.4-2.7,2.5c0,0,2.3-1.4,2.3-1.3c0.1,0.1-2.1,1.9-2.1,1.9c0.1,0.1,2.9-1.8,2.9-1.7c0,0-2.8,2.4-2.7,2.5
				c0,0.1,1.9-1.1,1.9-1.1c0,0.1-1.4,1.2-1.4,1.2c0.1,0.1,2.3-1.4,2.3-1.4c0.1,0.1-2.5,1.5-2.5,1.5c0,0,2.8-1.7,2.8-1.6
				c0,0.1-2.3,1.7-2.3,1.8c0.1,0.1,2.4-1.5,2.4-1.4c0.1,0.1-3.7,3-3.7,3c0.1,0.1,3.7-2.1,3.7-2.1c0.1,0.1-3.2,3.2-3.1,3.3
				c0,0,2.7-1.6,2.8-1.6c0,0-2,2.9-2,2.9c0,0,1.4-0.9,1.5-0.8c0.1,0.1-1.8,3.2-1.7,3.3c0,0,1.9-1.2,1.9-1.1"/>
			<path class="st22" d="M231.5,215.2c0,0,0.2-0.2,0.2-0.1c0,0-0.6,0.8-0.6,0.8c0,0,1.2-0.7,1.2-0.7c0.1,0.2-7,5.9-6.9,6
				c0.2,0.4,7.7-4.8,7.8-4.5c0.1,0.2-9.7,5.8-9.5,6.1c0,0.1,11-6.7,11.2-6.5c0,0.1-9.8,7.6-9.7,7.9c0,0,2.5-1.5,2.6-1.5
				c0,0.1-0.9,2.7-0.9,2.8c0,0.1,2.4-1.5,2.4-1.4c0.1,0.1-2.8,2.2-2.7,2.3c0,0.1,2.9-1.8,2.9-1.7c0,0-2.7,2.7-2.7,2.7
				c0.1,0.1,2.4-1.5,2.5-1.4c0,0.1-2.2,1.6-2.2,1.7c0,0,2.6-1.6,2.7-1.5c0,0-1.2,2.5-1.2,2.6c0.1,0.1,1.9-1.2,2-1.1
				c0,0.1-0.5,1.3-0.5,1.4c0,0,1-0.6,1-0.6c0,0-0.4,0.7-0.4,0.7c0,0.1,1.8-1.1,1.8-1c0,0-1.8,2.4-1.8,2.5c0,0,2.1-1.3,2.1-1.2
				c0,0-0.8,1.6-0.8,1.6c0,0.1,2.1-1.3,2.1-1.2c0.1,0.1-2.4,2.3-2.4,2.3c0,0,1.9-1.2,1.9-1.1c0,0-1.6,1.3-1.6,1.3
				c0,0.1,2.5-1.5,2.5-1.5c0,0-1.1,1.4-1.1,1.4c0,0.1,1.7-1,1.8-1c0.1,0.1-1.1,2.1-1.1,2.2c0,0,1.6-1,1.6-0.9c0,0.1-2.1,1.9-2.1,1.9
				c0,0,3.5-2.1,3.6-2.1c0,0.1-2.8,2.7-2.7,2.9c0.1,0.1,2.7-1.6,2.7-1.6c0.1,0.1-2,1.8-2,1.8c0,0,2.3-1.4,2.3-1.4
				c0,0-0.4,2.3-0.4,2.3c0.1,0.1,3.7-2.2,3.7-2.2c0.1,0.2-3.9,3.4-3.7,3.6c0,0,4-2.4,4-2.3c0.1,0.2-3.5,2.6-3.5,2.6
				c0.1,0.1,2.6-1.6,2.7-1.5c0,0.1-1.7,2.9-1.6,3c0,0,0.9-0.6,0.9-0.5c0,0,0,0.4,0,0.4c0,0,0.8-0.5,0.8-0.5c0,0-0.9,0.9-0.9,0.9
				c0,0,0.5-0.3,0.5-0.3c0,0-0.6,1.1-0.6,1.1c0,0,0.5-0.3,0.5-0.3"/>
		</g>
		<path class="st23" d="M232.4,217.9l5.9,5.9v10.5L227.3,223L232.4,217.9 M232.4,214.4l-8.6,8.6l17,17.3v-17.5L232.4,214.4
			L232.4,214.4z"/>
	</g>
	<g class="st1">
		<g>
			<path class="st22" d="M248.9,218.3c0,0.1,3.3-1.9,3.3-1.9c0,0.1-2.1,3.2-2,3.3c0,0.1,3.4-2.1,3.5-2c0,0.1-2.4,3.1-2.3,3.2
				c0,0.1,3.2-2,3.2-1.9c0,0-2.3,1.7-2.3,1.7c0,0,1.6-1,1.7-1c0,0.1-1.5,1.8-1.5,1.9c0,0,1.7-1,1.7-1c0,0-0.7,1.3-0.7,1.3
				c0.1,0.1,2.7-1.7,2.7-1.6c0,0.1-2.5,3.1-2.4,3.3c0,0.1,3.4-2.1,3.4-2c0,0.1-4.7,2.8-4.6,2.9c0.1,0.2,3.8-2.4,3.9-2.3
				c0,0-6,4.4-5.9,4.4c0,0,7.6-4.8,7.8-4.5c0.1,0.2-9.2,5.8-9.1,5.9c0.1,0.1,8.1-4.7,8.1-4.7"/>
			<path class="st22" d="M248.9,214.9c0,0,0.4-0.3,0.4-0.3c0.1,0.2-4.3,3.9-4.2,4c0,0,4.5-2.7,4.5-2.6c0.1,0.1-8.2,6.4-8.1,6.5
				c0.2,0.3,7.2-4.4,7.3-4.2c0,0.1-6.3,5.6-6.2,5.8c0,0.1,1.3-0.9,1.4-0.8c0,0.1-0.7,2-0.7,2.1c0,0,2.5-1.5,2.5-1.4
				c0,0.1-1.1,2.6-1.1,2.7c0.1,0.1,2.5-1.5,2.5-1.5c0.1,0.1-1.7,2.5-1.7,2.5c0,0,1.4-1,1.5-0.9c0,0.1-0.9,2.5-0.9,2.5
				c0,0,2.6-1.6,2.6-1.5c0.1,0.1-2.1,1.7-2.1,1.7c0,0,2.5-1.5,2.5-1.4c0,0.1-2.1,1.7-2.1,1.7c0.1,0.1,8.6-5.1,8.7-5
				c0.2,0.3-7.7,6.3-7.7,6.4c0,0.1,4.2-2.6,4.2-2.5c0.1,0.2-3.8,2.3-3.8,2.3c0,0.1,3.5-2,3.5-2c0.1,0.1-2.4,2.2-2.4,2.3
				c0,0,0.2-0.1,0.2-0.1c0,0.1-1.1,0.7-1.1,0.7c0,0,1.3-0.8,1.3-0.8"/>
		</g>
		<path class="st23" d="M249.2,217.9l5.1,5.1l-4.8,5l-5.2-5.2L249.2,217.9 M249.2,214.4l-8.4,8.3l8.7,8.8l8.3-8.6L249.2,214.4
			L249.2,214.4z"/>
	</g>
	<g class="st1">
		<g>
			<path class="st24" d="M256.1,211.5c0.1,0.1,2.2-1.4,2.3-1.3c0,0.1-2.7,2.8-2.6,3c0.1,0.1,1.6-1,1.7-1c0,0-2.9,3.6-2.9,3.6
				c0,0,3.3-2,3.4-1.9c0,0.1-2.8,2.1-2.7,2.2c0,0,1.8-1.1,1.8-1.1c0,0-1.6,2-1.6,2c0,0.1,2.7-1.6,2.7-1.6"/>
			<path class="st24" d="M257.3,206.5c0,0,0.3-0.2,0.3-0.2c0.1,0.1-3.2,2.6-3.2,2.8c0,0,3.2-2,3.2-1.9c0,0-6.7,5.5-6.6,5.7
				c0,0.1,6.5-3.8,6.5-3.7c0.1,0.1-7.3,4.4-7.3,4.4c0.2,0.3,6.5-4.2,6.7-3.9c0.2,0.3-7.1,4.2-7,4.3c0.1,0.2,7.5-4.4,7.6-4.4
				c0,0-8.7,5.3-8.6,5.4c0,0,9.4-5.5,9.4-5.4c0.1,0.2-7.9,4.8-7.7,5.2c0,0,4.2-2.5,4.3-2.5c0,0.1-4.5,3.4-4.4,3.6c0,0,2-1.1,2-1.1
				c0,0-0.5,1.6-0.5,1.6c0,0,1.6-1,1.6-0.9c0,0.1-1.1,1.9-1.1,1.9c0.1,0.1,2.6-1.6,2.6-1.5c0.1,0.1-1.6,1.8-1.5,1.8
				c0,0.1,1.7-1,1.7-1c0,0-1.2,1.9-1.2,1.9c0.1,0.1,3.6-2.3,3.7-2.1c0,0-3.1,2.3-3.1,2.4c0.1,0.2,3.9-2.3,3.9-2.3
				c0,0.1-4.7,3.4-4.7,3.4c0,0,4-2.5,4.1-2.4c0.1,0.1-2.6,3-2.5,3.2c0,0.1,1.6-1,1.6-0.9c0,0-1,1.6-1,1.6c0,0,1.8-1,1.8-1
				c0,0-0.5,1.8-0.5,1.8c0,0,1.1-0.7,1.1-0.7c0,0-0.9,1.2-0.9,1.3c0,0,0.9-0.5,0.9-0.5"/>
			<g>
				<path class="st24" d="M256.3,217.3c0,0.1,2.6-1.6,2.6-1.5c0,0.1-2.5,2-2.4,2c0,0,3.5-2.1,3.5-2c0.1,0.1-4.5,2.7-4.5,2.8
					c0,0.1,3.5-2.1,3.5-2c0,0.1-3.4,3.3-3.4,3.3c0,0,3.3-1.9,3.3-1.9"/>
				<path class="st24" d="M256.3,209.7c0.1,0.1,2.7-1.7,2.7-1.6c0,0-3,3.5-2.9,3.6c0.1,0.1,2.6-1.5,2.6-1.5"/>
				<path class="st24" d="M252.5,213.8c0.1,0.2,4.3-2.7,4.4-2.6c0.1,0.1-4.9,3.1-4.8,3.3c0.2,0.4,6.8-4.1,6.9-4"/>
				<path class="st24" d="M256.3,205.3c0,0,0.4-0.3,0.4-0.3c0.1,0.1-3.4,2.7-3.3,2.9c0,0,4.2-2.7,4.3-2.5c0,0-7.8,6.2-7.7,6.3
					c0,0.1,8.9-5.2,9-5.2c0.1,0.1-9.8,5.8-9.8,5.8c0.2,0.4,8.9-5.7,9.2-5.3c0.3,0.5-9.5,5.6-9.5,5.7c0.1,0.2,10-5.9,10.1-5.8
					c0,0-11.4,6.8-11.3,6.9c0,0,12.1-7.1,12.1-7c0.2,0.3-11.1,6.5-10.9,7c0,0,6.8-4,6.8-3.9c0.1,0.1-7.8,5.2-7.7,5.5
					c0.1,0.1,7-4.1,7-4c0.1,0.2-5.6,4.5-5.6,4.5c0,0,2-1.3,2.1-1.2c0.1,0.1-1.6,2.2-1.6,2.2c0.3,0.5,9.8-6,9.9-5.7
					c0.3,0.5-9,5.8-8.9,6.1c0.1,0.2,8.3-5,8.4-4.9c0.1,0.1-7.9,5.8-7.9,5.8c0.1,0.3,7.4-4.7,7.6-4.4c0,0-7.1,4.4-7,4.6
					c0.2,0.3,7.9-4.6,7.9-4.6c0.1,0.1-8.6,5.6-8.6,5.7c0,0,7.9-5,8.1-4.7c0.2,0.3-6.6,5.1-6.4,5.4c0.1,0.1,2-1.2,2-1.2
					c0,0-1.5,1.8-1.5,1.8c0.1,0.1,5.7-3.3,5.7-3.3c0,0.1-4.5,4-4.5,4c0.1,0.1,5.1-3,5.1-2.9c0.1,0.1-4.5,3.8-4.4,4
					c0.1,0.2,4.3-2.7,4.4-2.5c0,0-1.4,2.7-1.4,2.8c0,0,0.9-0.6,1-0.6"/>
			</g>
		</g>
	</g>
	<g class="st1">
		<g>
			<path class="st16" d="M249.8,235c0,0.1,2.7-1.7,2.8-1.6c0.1,0.1-1.5,2.9-1.4,3c0,0,1.8-1.1,1.8-1c0,0-1.2,1.4-1.2,1.4
				c0,0,2.7-1.7,2.7-1.6c0.1,0.1-2.2,2.5-2.2,2.5c0,0,2.5-1.5,2.5-1.5c0,0.1-1.6,2.9-1.6,3c0,0,2.2-1.4,2.3-1.3
				c0,0.1-1.1,2.1-1.1,2.1c0.1,0.1,1.3-0.8,1.3-0.8c0,0-1.7,0.9-1.7,1c0,0.1,1.8-1,1.8-1c0,0-2,1.1-1.9,1.1c0,0.1,2.5-1.4,2.5-1.4
				c0,0.1-1.7,1.5-1.7,1.6c0,0.1,2.9-1.7,2.9-1.7c0,0-1.7,2.1-1.6,2.1c0.1,0.1,2-1.2,2-1.2c0.1,0.1-3.3,3.1-3.3,3.1
				c0,0.1,2.1-1.2,2.1-1.2c0,0.1-2,2.6-2,2.6c0,0,2.7-1.6,2.7-1.6c0,0.1-2.2,1.4-2.2,1.5c0,0.1,2.8-1.6,2.8-1.6c0,0-3.5,3.5-3.5,3.6
				c0,0,3.2-1.9,3.2-1.8c0.1,0.2-3.5,1.9-3.4,2c0.1,0.1,4-2.3,4-2.3c0.1,0.2-4.1,2.3-4.1,2.4c0,0.1,3-1.9,3.1-1.8
				c0,0-2.9,1.8-2.9,1.9c0.1,0.1,3.5-2.1,3.5-2c0,0.1-2.1,2-2.1,2c0,0,1.8-1.2,1.9-1.1c0,0-3.3,3.8-3.2,3.9c0,0,3.1-1.8,3.2-1.8
				c0.1,0.1-3,3.3-2.9,3.5c0.1,0.1,2-1.2,2-1.2c0,0-1.4,1.1-1.4,1.2c0.1,0.1,2.2-1.4,2.2-1.3"/>
			<path class="st16" d="M248.5,232.4c0,0,1.1-0.6,1.1-0.6c0.1,0.2-3.7,3.6-3.6,3.8c0.1,0.2,4.6-2.9,4.7-2.7c0,0.1-7.1,4.5-7,4.6
				c0.1,0.2,7.7-4.7,7.8-4.5c0.2,0.3-9.4,5.8-9.2,6.1c0.2,0.4,9.4-5.9,9.6-5.5c0.2,0.3-10.9,6.7-10.9,6.7c0,0,6.8-4.4,7-4.1
				c0.1,0.2-7.1,4.3-7.1,4.4c0.2,0.3,7.8-4.7,7.9-4.6c0.1,0.1-7.2,5.6-7,6c0,0,2.3-1.4,2.3-1.4c0,0.1-1.4,2.6-1.4,2.6
				c0,0,2.6-1.7,2.7-1.6c0,0-2,1.2-2,1.3c0,0.1,1.8-1.1,1.8-1c0,0-0.9,0.5-0.9,0.6c0.1,0.1,1.1-0.7,1.1-0.6c0,0-0.9,1.8-0.9,1.8
				c0,0,1.2-0.8,1.2-0.7c0,0.1-0.4,1.7-0.4,1.7c0.1,0.1,2.2-1.3,2.2-1.3c0.1,0.1-1.3,2.4-1.3,2.4c0,0,2.1-1.3,2.1-1.2
				c0.1,0.1-2.7,1.5-2.6,1.6c0.1,0.1,2.9-1.8,2.9-1.7c0,0-2.7,1.5-2.7,1.6c0,0,2.2-1.4,2.2-1.3c0,0.1-0.3,1.4-0.2,1.4
				c0,0,1.1-0.7,1.1-0.7c0,0-1.6,2.3-1.5,2.4c0,0,2.1-1.2,2.1-1.2c0,0.1,0.8,1.9,0.8,1.9c0,0,1.5-1,1.6-0.9c0,0-1.6,1.1-1.5,1.2
				c0,0,2-1.2,2-1.2c0,0-1.1,2.4-1.1,2.5c0,0,2.1-1.3,2.2-1.3c0.1,0.1-2.7,1.6-2.7,1.6c0,0,2.4-1.5,2.4-1.4c0,0-1.4,1.7-1.4,1.7
				c0,0,2.2-1.4,2.3-1.3c0,0.1-1.4,1.4-1.4,1.5c0,0.1,2.2-1.3,2.2-1.3c0,0-2.5,1.4-2.5,1.5c0,0,2.3-1.4,2.3-1.3c0,0.1-2.1,1.9-2,2
				c0,0.1,1.9-1.2,2-1.1c0,0-1,2.1-0.9,2.2c0.1,0.1,4.3-2.7,4.4-2.5c0,0-3.7,3-3.6,3c0,0,2.3-1.6,2.4-1.4c0.1,0.1-1.9,2.9-1.9,2.9
				c0,0.1,2.6-1.6,2.7-1.5c0.1,0.1-2.4,2.6-2.4,2.6c0,0,1.9-1.1,1.9-1.1c0,0,0.6,1.1,0.7,1.2c0,0,0.5-0.3,0.5-0.3c0,0-1,1-1,1.1
				c0,0,0.7-0.4,0.7-0.4"/>
		</g>
		<path class="st17" d="M249.6,235.1l5.8,5.9v10.4l-11-11L249.6,235.1 M249.6,231.6l-8.7,8.8l17,16.9v-17.3L249.6,231.6L249.6,231.6
			z"/>
	</g>
	<g class="st1">
		<g>
			<path class="st20" d="M257.3,227c0.1,0.1,2.4-1.4,2.4-1.4c0,0-1.5,1.4-1.5,1.4c0,0.1,2.6-1.5,2.7-1.5c0.1,0.1-2.1,1.8-2.1,1.8
				c0,0,1.8-1.2,1.9-1.1c0,0.1-1.8,1.3-1.8,1.3c0,0,1.2-0.8,1.3-0.7c0,0.1,0.6,1.8,0.6,1.8c0,0,2.3-1.4,2.3-1.3c0,0.1-2.5,2-2.5,2.1
				c0,0,2.2-1.3,2.3-1.3c0,0.1-2.8,1.8-2.8,1.8c0.1,0.1,3.5-2.1,3.5-2c0,0.1-2.1,2.5-2.1,2.5c0,0.1,2.6-1.6,2.7-1.5
				c0.1,0.1-2.3,2-2.3,2.1c0,0,2.9-1.8,3-1.7c0,0.1-2.3,1.8-2.3,1.9c0,0.1,2.6-1.6,2.6-1.5c0.1,0.2-4.4,3.6-4.3,3.8
				c0,0.1,4.2-2.6,4.2-2.4c0.1,0.2-6.4,4.7-6.3,4.9c0.2,0.4,6.7-4.4,6.9-4"/>
			<path class="st20" d="M257.8,223.3c0,0,0.7-0.4,0.7-0.4c0,0-0.4,0.3-0.4,0.3c0,0,0.5-0.3,0.6-0.3c0.1,0.1-2.7,2-2.7,2
				c0,0.1,1.7-1.1,1.8-1c0.1,0.2-6,5.2-5.8,5.5c0.2,0.3,8.5-5.1,8.5-4.9c0.2,0.3-9.3,5.9-9.3,6c0.2,0.4,6.7-3.9,6.7-3.9
				c0.1,0.2-7.5,5.7-7.3,6c0,0,3.3-2.1,3.4-2c0.1,0.1-2.8,3.7-2.7,3.7c0,0.1,2.2-1.4,2.3-1.3c0,0.1-1.3,1.5-1.3,1.6
				c0,0,2.8-1.7,2.9-1.6c0.1,0.1-2.6,1.7-2.6,1.7c0,0,1.7-1.1,1.8-1c0,0-0.4,1.9-0.3,2c0,0.1,1.9-1.2,1.9-1.1c0,0-0.7,1.7-0.7,1.8
				c0.1,0.1,1.3-0.8,1.3-0.8c0.1,0.1-1.1,2.8-1.1,2.8c0.1,0.2,9.5-5.7,9.6-5.5c0.2,0.4-8,6.2-7.7,6.6c0,0,3-1.9,3.1-1.8
				c0,0-3,2.3-2.9,2.5c0,0,0.8-0.5,0.9-0.5"/>
		</g>
		<path class="st21" d="M257.8,226.5l4.9,5l-4.9,4.9l-4.8-4.9L257.8,226.5 M257.8,223l-8.3,8.6l8.3,8.3l8.4-8.3L257.8,223L257.8,223
			z"/>
	</g>
	<g class="st1">
		<g>
			<path class="st25" d="M266.6,235c0,0.1,2.6-1.5,2.6-1.5c0,0-2.6,2.4-2.6,2.5c0,0.1,3.3-1.9,3.3-1.9c0,0-2.2,2.2-2.1,2.3
				c0.1,0.1,1.8-1.2,1.9-1.1c0,0-1.7,1.4-1.7,1.5c0,0,1.9-1.2,1.9-1.1c0,0-1,1.3-1,1.3c0,0,1.4-1,1.5-0.9c0,0-1.9,2.2-1.9,2.3
				c0,0,3.1-1.8,3.1-1.8c0,0.1-1.6,1.6-1.6,1.7c0,0,1.6-1,1.6-0.9c0,0.1-2,2.2-1.9,2.3c0,0,2.2-1.3,2.2-1.3c0,0-0.6,0.9-0.6,1
				c0,0.1,1.6-0.9,1.6-0.9c0,0.1-4.1,3.8-4,4c0.1,0.1,4.3-2.7,4.4-2.6c0,0-6.5,4.6-6.5,4.7c0,0.1,8.4-5.1,8.5-4.9
				c0.2,0.4-8.9,5.3-8.7,5.6c0.1,0.2,6.6-3.8,6.6-3.8c0.1,0.2-13.1,9-12.8,9.6c0.2,0.4,8.6-5.1,8.6-5c0.1,0.1-9.4,5.3-9.3,5.5
				c0.1,0.1,8.4-5.4,8.6-5"/>
			<path class="st25" d="M265.2,232.3c0,0,0.9-0.6,1-0.6c0,0-1.2,1.1-1.2,1.2c0,0,0.8-0.6,0.9-0.5c0.1,0.2-3.8,2.8-3.7,3
				c0,0,4.4-2.7,4.4-2.6c0,0-4,2.3-4,2.4c0,0,4.2-2.5,4.2-2.4c0.1,0.1-7.5,5.4-7.3,5.7c0.3,0.5,9.4-5.5,9.4-5.5
				c0.3,0.5-11.2,6-11,6.4c0,0.1,10.2-6,10.2-5.9c0.1,0.1-10,6.2-10,6.2c0.2,0.4,7.8-4.8,8-4.6c0.2,0.4-9.3,5.4-9.1,5.9
				c0.1,0.2,6.6-4.1,6.7-3.9c0,0.1-5.4,3-5.3,3.2c0.1,0.2,6-3.8,6.2-3.6c0.1,0.2-7.5,4.4-7.3,4.8c0.1,0.1,5.7-3.6,5.8-3.4
				c0.1,0.2-5.1,4-5.1,4c0.1,0.1,2.9-1.7,2.9-1.7c0,0-3.7,2.7-3.6,2.8c0,0,2.5-1.5,2.5-1.5c0.1,0.1-2.6,2.8-2.6,2.8
				c0.1,0.1,2.7-1.6,2.7-1.6c0,0-3,2.2-2.9,2.3c0,0,3.2-1.8,3.2-1.8c0,0-2.8,2.9-2.7,2.9c0,0.1,2.9-1.8,3-1.7
				c0.1,0.1-3.3,2.6-3.2,2.7c0,0.1,3.7-2.2,3.7-2.1c0.1,0.2-2.5,2.9-2.4,3c0,0,1.1-0.8,1.2-0.7c0,0.1-1.5,1.8-1.5,1.8
				c0,0,2.5-1.5,2.5-1.4c0,0-2.4,3.2-2.4,3.2c0,0,1.5-0.9,1.6-0.9c0,0.1-1.4,1.3-1.4,1.4c0,0.1,2.4-1.4,2.5-1.4
				c0.1,0.1-2.6,1.6-2.6,1.6c0,0.1,1.7-1,1.7-1c0.1,0.2-2.9,3.3-2.9,3.3c0.2,0.3,8.7-5,8.7-5c0.1,0.2-9,7.2-8.9,7.4
				c0,0,2.5-1.6,2.6-1.5c0,0-2.4,2.1-2.3,2.2c0,0,1.8-1,1.8-1"/>
		</g>
		<path class="st26" d="M266.2,235l5.1,5.1l-11,11.1v-10.3L266.2,235 M266.2,231.6l-8.4,8.3v17.3l17-17.1L266.2,231.6L266.2,231.6z"
			/>
	</g>
	<g class="st1">
		<g>
			<path class="st22" d="M261.1,211.5c0,0.1,2-1.2,2.1-1.2c0,0-1,2.3-0.9,2.4c0.1,0.1,1-0.7,1.1-0.6c0,0-0.8,1.1-0.7,1.2
				c0,0,1.6-1,1.7-1c0.1,0.1-2.5,2.1-2.4,2.1c0,0.1,3-1.8,3-1.7c0,0.1-1.6,1.6-1.6,1.7c0,0.1,1.6-1.1,1.7-1c0,0-0.9,1.5-0.9,1.6
				c0,0,2.2-1.3,2.2-1.3c0.1,0.1-2.7,2.5-2.7,2.5c0,0,2.8-1.7,2.9-1.7c0,0-1.8,1.1-1.8,1.1c0.1,0.1,2-1.3,2.1-1.2c0,0.1-2.9,2-2.9,2
				c0.1,0.1,3.5-2,3.5-2c0,0-1.8,2.8-1.8,2.8c0.1,0.1,2.2-1.4,2.3-1.3c0,0-1.9,1.9-1.9,2c0.1,0.1,2.7-1.6,2.7-1.5c0,0-0.8,2-0.8,2
				c0.1,0.1,1-0.7,1.1-0.6c0,0-1.5,1.2-1.5,1.2c0,0.1,2.5-1.5,2.5-1.5c0,0.1-1.3,2.8-1.3,2.8c0,0.1,2.5-1.5,2.5-1.4
				c0,0-1.1,2.2-1.1,2.2c0.1,0.1,2.3-1.3,2.3-1.3c0,0-1,2.5-0.9,2.6c0.1,0.1,2.1-1.3,2.1-1.2c0.1,0.2-3.8,2.9-3.7,3.1
				c0,0.1,4.9-2.9,4.9-2.8c0.1,0.2-7.8,5.7-7.7,5.8c0.2,0.3,7.8-4.7,7.9-4.6c0.1,0.2-8.3,4.9-8.2,5c0.2,0.4,7.8-4.9,7.9-4.6"/>
			<path class="st22" d="M257.7,206.3C257.7,206.3,257.8,206.2,257.7,206.3c0.1,0-0.2,1.5-0.2,1.5c0,0,1.2-0.7,1.2-0.7
				c0,0-0.8,1.1-0.8,1.1c0,0,1-0.6,1-0.6c0,0-1.5,1.1-1.5,1.1c0,0,2-1.2,2.1-1.2c0,0.1-1.1,2-1.1,2.1c0,0.1,1-0.8,1.1-0.6
				c0,0-1.3,2.8-1.2,2.9c0,0,3.7-2.2,3.7-2.2c0,0-4.9,3.3-4.8,3.4c0,0,5.4-3.3,5.5-3.2c0.1,0.2-4.7,4.3-4.6,4.4
				c0,0.1,2.4-1.5,2.5-1.4c0,0-3.4,4-3.3,4.1c0.1,0.1,2.5-1.5,2.5-1.5c0,0-2,1.7-1.9,1.8c0.1,0.1,1.7-1.1,1.8-1
				c0,0.1-1.4,1.7-1.3,1.8c0,0.1,2.2-1.3,2.2-1.3c0.1,0.1-3.4,3.3-3.3,3.5c0,0.1,2.7-1.5,2.7-1.5c0.1,0.2-2.4,3.1-2.4,3.1
				c0,0.1,2.2-1.3,2.3-1.3c0,0-2.2,1.8-2.2,1.8c0,0,2.6-1.6,2.6-1.5c0,0.1-1.2,2.2-1.2,2.3c0,0.1,2.4-1.5,2.4-1.4
				c0.1,0.1-2.3,2.2-2.2,2.3c0,0,2.1-1.3,2.1-1.2c0.1,0.1-1.3,2.9-1.3,3c0.1,0.1,2.2-1.4,2.2-1.3c0,0.1-1.6,1.5-1.6,1.5
				c0,0.1,2.4-1.4,2.4-1.4c0.1,0.1-1.8,2.5-1.7,2.5c0,0,2.9-1.8,2.9-1.7c0,0-2.2,2.9-2.2,3c0,0,3-1.9,3.1-1.8c0,0-1.5,1.4-1.4,1.4
				c0,0,1-0.6,1-0.6c0,0,0.2,2,0.2,2c0.1,0.1,8-4.6,8-4.6c0.2,0.4-7.7,6.2-7.5,6.5c0,0.1,2.3-1.4,2.3-1.3c0,0.1-1.6,1.3-1.6,1.3
				c0,0,0.3-0.2,0.3-0.2"/>
		</g>
		<path class="st23" d="M260.3,211.9l11,11.1l-5.1,5.1l-5.9-6.1V211.9 M257.8,205.9V223l8.4,8.6l8.6-8.6L257.8,205.9L257.8,205.9z"
			/>
	</g>
	<g class="st1">
		<g>
			<path class="st18" d="M273,228.7c0.1,0.1,2.4-1.4,2.4-1.4c0.1,0.1-3.9,3.1-3.8,3.3c0,0,3.2-1.9,3.2-1.9c0,0-3,3-3,3.1
				c0,0,3.5-2.1,3.6-2.1c0.1,0.2-3.6,3.9-3.5,4c0,0.1,3.3-2,3.3-1.9c0.1,0.1-3.7,2.6-3.6,2.6c0,0.1,3.7-2.1,3.7-2.1
				c0,0.1-2.3,1.4-2.3,1.5c0.1,0.1,1.1-0.7,1.1-0.7"/>
			<path class="st18" d="M274.1,223.7c0,0,0.4-0.3,0.5-0.3c0.1,0.1-1.8,1.6-1.8,1.6c0,0.1,2.2-1.4,2.3-1.3c0,0-4.6,3.6-4.4,3.8
				c0,0.1,4.3-2.8,4.4-2.5c0.1,0.2-9.2,6.3-9,6.7c0,0.1,9.1-5.3,9.1-5.2c0.1,0.2-8.8,6.1-8.7,6.3c0,0.1,4.8-2.8,4.8-2.8
				c0.1,0.1-2.9,2.9-2.9,2.9c0.1,0.1,0.7-0.5,0.8-0.4c0,0,0.2,1.2,0.2,1.2c0,0.1,0.9-0.6,1-0.6c0,0.1-1.3,1-1.3,1.1
				c0.1,0.1,2.1-1.3,2.1-1.2c0.1,0.1-1.4,3-1.4,3c0.1,0.1,4.8-2.8,4.8-2.8c0.1,0.1-3.9,3.2-3.9,3.2c0.1,0.2,3.3-2,3.4-1.9
				c0,0-3.5,1.9-3.4,2c0,0,4.2-2.7,4.3-2.5c0,0.1-4.3,3.4-4.2,3.5c0.1,0.1,4.1-2.5,4.2-2.4c0,0.1-1.5,2.4-1.5,2.5
				c0,0.1,1.5-1,1.6-0.9c0,0.1-1,2.6-1,2.6c0,0,0.9-0.6,0.9-0.5c0,0-0.6,1.3-0.5,1.3c0,0,1.1-0.6,1.1-0.6"/>
		</g>
		<path class="st19" d="M272.4,228.9v5.2l-2.6-2.6L272.4,228.9 M274.8,223l-8.6,8.6l8.6,8.6V223L274.8,223z"/>
	</g>
</g>
<g id="Default" class="st0">
	<g class="st1">
		<g>
			<g>
				<polygon class="st13" points="94.3,224.3 197.7,327 197.7,221.7 146.7,171 94.3,223 				"/>
			</g>
			<g>
				<polygon class="st10" points="197.7,15 94.3,117.7 94.3,119 146.7,171 197.7,120.3 				"/>
			</g>
			<g>
				<polygon class="st12" points="94.3,223 146.7,171 94.3,119 				"/>
			</g>
		</g>
		<g>
			<g>
				<polygon class="st10" points="250.7,275 197.7,328.3 301,431 301,325.7 				"/>
			</g>
			<g>
				<polygon class="st10" points="352,275 351.7,274.7 301,325.7 				"/>
			</g>
			<g>
				<polygon class="st11" points="301,117.7 197.7,15 197.7,120.3 248.7,171 301,119 				"/>
			</g>
			<g>
				<polygon class="st13" points="351.7,274.7 404.3,221.7 301,119 301,223 248.7,171 197.7,221.7 250.7,275 301,224.3 				"/>
			</g>
			<g>
				<polygon class="st12" points="351.7,274.7 301,224.3 250.7,275 301,325.7 				"/>
			</g>
			<g>
				<polygon class="st14" points="301,119 248.7,171 301,223 				"/>
			</g>
			<g>
				<polygon class="st11" points="404.3,327 404.3,223 352,275 				"/>
			</g>
			<g>
				<polygon class="st11" points="404.3,328.3 404.3,327 301,431 				"/>
			</g>
			<g>
				<polygon class="st15" points="301,325.7 301,431 404.3,327 352,275 				"/>
			</g>
		</g>
	</g>
</g>
</svg>
