<?xml version="1.0" encoding="utf-8"?>
<!-- Generator: Adobe Illustrator 21.1.0, SVG Export Plug-In . SVG Version: 6.00 Build 0)  -->
<svg version="1.1" id="Layer_1" xmlns="http://www.w3.org/2000/svg" xmlns:xlink="http://www.w3.org/1999/xlink" x="0px" y="0px"
	 viewBox="0 0 792 612" style="enable-background:new 0 0 792 612;" xml:space="preserve">
<style type="text/css">
	.st0{fill:none;stroke:#010101;stroke-width:2;stroke-linecap:round;stroke-linejoin:round;stroke-miterlimit:10;}
</style>
<path class="st0" d="M548.4,119.3L548.4,119.3 M502.7,102.2l0.8-1.2l0.8-1.1l0.7-1l0.6-0.8l0.5-0.7l0.3-0.4l0.1-0.1 M499,107.5
	l0.1-0.1l0.3-0.4l0.5-0.7l0.6-0.8l0.7-1l0.8-1.2l0.8-1.2 M506.3,96.7l-0.1,0.1l-0.3,0.4l-0.4,0.7l-0.6,0.8l-0.7,1l-0.8,1.1l-0.8,1.2
	 M502.6,102.1l-0.8,1.2l-0.8,1.2l-0.7,1l-0.6,0.8l-0.5,0.7l-0.3,0.4l-0.1,0.1 M417.9,243.3l1.1-2.2l1-2l1-1.8l0.8-1.6l1-1.7l0.7-1.4
	l0.5-1l0.4-0.7h-0.1 M396,284.3l0.2-0.4l0.7-1.2l1.1-2.2l1.6-2.9l2-3.7l2.3-4.4l2.6-5l2.9-5.4l3-5.5l1.4-2.7l1.4-2.7l1.3-2.5
	l1.3-2.4 M230.3,391h0.2h0.5h0.9h1.2h1.4h1.6h1.7 M462.9,517.3v-9.7 M316.8,446.4v-14.9 M529.6,351.8l-33.9-0.1 M531.7,344.6
	l0.7-0.3l1.2-0.7l1-1l0.7-1.2l0.4-1.3l0.1-1.4l-0.1-0.7 M527.5,333.3l-1.1,0.6l-1,0.9l-0.8,1.1l-0.6,1.3l-0.2,1.4l0.1,1.2
	 M523.6,310.8l1.2,2.2l1.8,3.1l2.3,4.2l0.8,1.7l0.8,1.7l1.1,1.5l1.9,1.2l2,1 M535.6,327.3l1.8,1.2l1.6,1.4l1.4,1.6l1,1.9l0.7,2
	l0.4,2.2l0.1,2.2l-0.3,2.2l-0.7,2l-1,1.9l-1.4,1.8l-1.6,1.4l-1.8,1.2l-2,0.9l-2.1,0.5l-2.2,0.1 M376.3,262.4l-7.5-1.9l-10.5-2.5
	l-10.6-2.2l-10.6-1.9l-10.7-1.4l-10.8-0.7l-10.8,0.2l-7.4,0.7l-7.4,1.4l-7.2,2l-6.9,2.7l-7.2,3.7l-6.9,4.4l-6.6,4.8l-0.5,0.4
	 M213.3,320.6l-0.6,4.5l-0.3,6.1l0.5,6.2l1.1,6l2,6.6l2.5,6.3l3.1,6.1l3.3,6l6.2,10l3.9,5.5 M244.7,397l0.5,0.5 M476.7,385.9
	l0.7-2.5 M253,426.7l-1.7-1.5l-1.5-1.8l-0.9-1.8l-0.7-1.8l-0.5-2.9l-0.1-2.9V411l-0.4-2.8l-0.8-2.7l-0.9-3.1l-0.4-3.3l0.1-2.2
	 M246.4,383.6l0.1-0.8l-0.2-6.6l-1-6.5l-1.5-5.1l-2.3-4.7l-2.4-3.2l-2.8-2.8l-5.7-5.1l-5.3-5.5l-4.9-5.9l-1.8-2.7l-1.3-2.9
	 M217.3,331.6l-5.9-16.5 M211.4,315.1l-0.2-0.8l-0.1-0.8l-0.2-1.8l-0.1-1.2 M210.8,310.5l-13.1-37 M372.5,345.4l-2.9-4.4l-3.2-4.2
	l-3.5-4l-3.7-3.8l-3.9-3.6l-4.1-3.3l-4.3-3l-4.6-2.8l-0.6-0.4 M330.5,310.4l-2.6-1 M560.2,148.8L541.7,136 M279,517.3h0.2h0.9
	 M502.7,102.2L502.7,102.2l-0.1-0.1 M503.5,97.3l-0.1,0.1l-0.3,0.3l-0.3,0.5l-0.4,0.6l-0.8,1.2l-0.7,1 M501,101l-0.7,1l-0.8,1.2
	l-0.4,0.5l-0.3,0.5l-0.2,0.3l-0.1,0.1 M502.6,102.1l-0.3-0.2l-0.3-0.3l-0.3-0.2l-0.3-0.1l-0.2-0.1l-0.1-0.1L501,101l0,0
	 M230.4,389.7v-3.3 M230.4,386.4h0.4h1.2l0,0 M510.5,114.7l0.1-0.1l0.3-0.4l0.5-0.7l0.6-0.8l0.7-1l0.8-1.1l0.8-1.2l0.8-1.1l0.7-1
	l0.6-0.8l0.5-0.7l0.3-0.5l0.1-0.1 M509.3,117.3l0.1-0.1l0.3-0.5l0.5-0.7l0.6-0.8l0.8-1.1l0.8-1.2l0.9-1.3l1-1.4l1-1.4l0.9-1.4
	l0.8-1.2l0.7-1l0.6-0.9l0.5-0.7l0.3-0.4l0.1-0.1 M512.3,119.3l0.1-0.1l0.3-0.4l0.5-0.7l0.7-0.9l0.7-1l0.8-1.2l0.9-1.4l1-1.4l1-1.4
	l0.9-1.4l0.8-1.2l0.7-1.1l0.7-0.8l0.5-0.7l0.3-0.4l0.1-0.1 M525,103.1L525,103.1l-0.2,0.3l-0.3,0.5l-0.5,0.8l-0.7,1l-0.8,1.2
	l-0.9,1.4l-1,1.4l-1,1.6l-1.1,1.6l-1.2,1.6l-1,1.6l-1,1.5 M548.4,119.3L548.4,119.3 M548.4,119.3l-0.2,0.3l-0.7,1l-1,1.5l-1.4,2
	l-1.6,2.4l-1.8,2.5l-1.7,2.5l-1.6,2.4 M548.4,119.3l2.4,2.2 M550.9,121.5l1.9,2.9l0.9,2.7l0.4,2.3l-0.1,2.2l-0.1,0.7l-0.2,0.8
	l-0.2,0.6l-0.2,0.7l-0.3,0.5l-0.3,0.5l-0.2,0.4l-0.5,0.8l-0.6,0.7l-0.7,0.8l-0.8,0.7l-1.2,0.8l-1,0.6 M396.8,196.5l-1.5-2.5l-2-2
	l-2.2-1l-2.4-0.2l-2.2,0.8l-2,1.6l-1.6,2.4l-1,2.9 M397.6,196.4l-1.6-2.9l-2.4-2.4l-2.7-1.2l-2.8-0.1l-2.6,1.2l-2.2,2.4l-1.6,3.3
	l-0.8,3.8 M351.2,218.2l-0.3,0.1l-1.7-0.2l-1.7-0.7l-1.6-1.1l-1.4-1.5l-1.2-1.9l-1-2.2l-0.7-2.4l-0.3-2.4 M341.2,206l-0.1-0.7
	 M341.2,205.4l0.1-2.5l0.5-2.4l0.7-2.2l1-2l1.2-1.6l1.5-1.2l1.6-0.8l1.4-0.3 M290.1,517.3h-0.2h-0.5h-0.9h-1.2h-2h-2.3h-1.4h-0.8
	h-0.3l0,0 M549.7,141.5l-7.9-5.5 M377.3,260.4l-2.4,0.3l-1.7,0.3l-1,0.1l-0.4,0.1 M366.8,207l-5.2,7.6 M369,204l-2.2,2.9
	 M369.6,203.3L369,204 M369.6,203.3l3.7-3.7 M373.4,199.6l2.5-0.3l3.4-0.5 M379.3,198.8l1.7,1.5 M381,200.3l1.1-1.9 M382.1,198.4
	l2.9-0.3l2.9-0.4l2.7-0.4l2.5-0.3l2-0.3l1.6-0.2l0.9-0.1h0.3 M361.6,214.5l0.1-0.1l0.5-0.1l0.8-0.1l1.1-0.2l1.4-0.1l1.7-0.3l2-0.3
	l2.2-0.3l2.4-0.3l2.5-0.3l2.7-0.3l2.8-0.4l2.8-0.4l2.9-0.3l2.9-0.4l2.8-0.4l2.7-0.3l2.6-0.4l2.4-0.3l2.2-0.3l2.1-0.3l1.8-0.3
	l1.5-0.2l1.2-0.1l0.9-0.1l0.6-0.1l0.3-0.1l0,0 M363,225.3h0.2l0.5-0.1l0.8-0.1l1.1-0.1l1.4-0.2l1.7-0.2l1.9-0.3l2.2-0.3l2.4-0.3
	l2.5-0.3l2.7-0.4l2.7-0.3l2.8-0.4l2.9-0.4l2.9-0.3l2.7-0.4l2.7-0.3l2.6-0.4l2.4-0.3l2.3-0.3l2-0.3l1.8-0.3l1.5-0.2l1.3-0.1l0.9-0.1
	l0.7-0.1h0.3h0.1 M395.6,225.9l-1,2l-1.2,2.3 M413,225.1l-0.3,0.3l-1,0.3l-1.6,0.3l-2.2,0.3l-1.8,0.1l-2,0.1h-2l-2.2-0.1l-2.2-0.2
	l-2.2-0.3 M393.3,230.3l-1.2,2.4l-1.4,2.5l-1.4,2.7l-1.5,2.7l-2,3.7l-2,3.7l-1.9,3.5l-2.6,5l-2.4,4.4l-1.4,2.6l-1.2,2.2l-1,1.8
	l-1.2,2.2l-0.7,1.3l-0.2,0.3 M393.3,230.3l24.5,13 M437.5,253.7l-19.7-10.4 M247.4,397h-9.7 M248.5,391h-10.7 M237.8,391v6
	 M237.8,397h-2.9h-2.4h-1.6h-0.6 M237.8,391v-2.9v-2.4v-1.6v-0.6 M466.3,517.3L466.3,517.3h-0.5h-0.7h-1h-1.2 M360.2,357.7l-2-0.1
	l-1.8-0.5l-1.7-0.7l-1.5-1l-1.4-1.2l-1.2-1.4l-2-3.1l-1.5-3.5l-0.9-3.6l-0.5-3.6l-0.6-3.7 M360.2,357.9v-0.2 M305.4,302.6l-1.7,0.1
	 M307.3,302.7l-1.9-0.1 M345,335.5l-0.7-2.4 M330.5,311.4l-3.5-2.5l-4.9-2.6l-5.2-2 M273.7,506.5l-2.3-0.5l-2-1.3l-1.3-2l-0.5-2.3
	 M279.7,500.5l-0.5,2.3l-1.3,2l-2,1.3l-2.3,0.5 M273.7,494.5l2.3,0.5l2,1.3l1.3,2l0.5,2.3 M267.7,500.5l0.5-2.3l1.3-2l2-1.3l2.3-0.5
	 M289.7,514.9h-16 M259.2,501l0.4,2.7l0.8,2.6l1.4,2.4l1.8,2.1l2.2,1.8l2.4,1.2l2.7,0.8l2.7,0.3 M257,440.3l2.2,60.7 M256.7,436.6
	l0.3,3.7 M314.8,283.7h-5.4 M314.8,287.8v-4.1 M317.4,283.7h-2.6 M317.4,283.7v4.1 M306.8,283.7v4.1 M309.4,283.7h-2.7 M309.4,283.7
	v4.1 M462.9,517.3h-1.3h-1.2h-1h-0.8h-0.7h-0.5l0,0 M306.1,287.8h0.5h1.3h2h2.3 M312.1,287.8h2.3h2h1.3h0.5 M307.3,308.3v-5.6
	 M316.9,304.3v15 M316.9,319.2H316h-1h-1.2h-1.3 M354.5,517.3h-6.2 M348.3,517.3h-36.9 M311.4,517.3l-1.2-4.2l-1.1-4.2l-1-4.2
	l-1-4.4l-0.8-4.3l-0.7-4.4l-0.5-4.4l-0.3-4.4l-0.1-5.9l0.5-5.8l0.9-5.8l1.2-4.3l1.6-4.1l2.2-3.9l2.7-3.5 M348.5,442.4l7.4,3.6
	 M355.9,502.9l-2.4,2.8l-2.2,3.1l-1.7,3.3l-1.1,3.7 M348.5,515.7l-0.3,1.6 M351.2,373.8h-6.9 M316.8,446.4l2.2-1.6l2.4-1.5l2.6-1.4
	l1.7-0.7l1.7-0.6l2.2-0.6l2.5-0.5l3.3-0.2l2.7,0.1l2.4,0.4l2.8,0.7l2.7,0.9l2.6,1 M299.8,517.3h-1.4h-1.5h-1.5H294h-1.4h-1.2h-0.9
	h-0.7h-0.3h-0.1 M289.7,514.9v-22.1 M289.7,479.7v-44.7 M311.4,517.3h-2.7H306h-1.6h-1.6h-2.9 M299.8,436v81.3 M313.6,449.4l1.6-1.6
	l1.6-1.5 M225.3,282.4l0.5,0.1l0.5,0.1l0.5,0.3l0.4,0.3 M222.5,285.8l-0.1-0.6l0.1-0.6l0.2-0.6l0.3-0.5l0.5-0.5l0.5-0.3l0.6-0.2
	l0.7-0.1 M231.5,334.6l-9-48.8 M238.3,343.5l-0.9,0.2l-0.8-0.1l-0.7-0.3l-0.6-0.5l-0.9-1.2l-0.8-1.4l-1-1.8l-0.7-1.8l-0.5-2
	 M246,338.6l-2.4,0.3l-2.2,1l-1.8,1.6l-1.4,2 M253,342.4l-1.4-1.6l-1.7-1.2l-1.9-0.7l-2.1-0.3 M256.7,338.5l-0.2,1.7l-0.3,0.7
	l-0.4,0.6l-0.5,0.4l-0.7,0.3l-1.6,0.2 M256.7,310.8v27.7 M227.2,283.2l29.5,27.6 M260,343.5V324 M276.5,343.5H260 M276.5,329.4v14.2
	 M266.3,319.8l10.3,9.5 M266.3,319.8l-0.3-0.2l-0.4-0.2l-0.4-0.1h-0.4 M263.2,320.1l0.3-0.3l0.4-0.3l0.5-0.1l0.5-0.1 M260,324
	l3.2-3.9 M246,351.4l-1.6-0.3l-1.4-0.9l-0.9-1.4l-0.3-1.6l0.3-1.6l0.9-1.4l1.4-0.9l1.6-0.3 M246,343.1l1.6,0.3l1.3,0.9l0.9,1.4
	l0.3,1.6l-0.3,1.6l-0.9,1.4l-1.3,0.9l-1.6,0.3 M267.4,310.6L226,272 M273.7,305l0.1,1.3l-0.1,1.3l-0.1,0.7l-0.3,0.6l-0.3,0.5
	l-0.5,0.4l-1.2,0.6l-1.3,0.5l-0.6,0.1l-0.7,0.1L268,311l-0.7-0.3 M297.6,332.2v-14.3 M297.6,339.9v-4.8 M293.6,358.7l4-18.7
	 M276.8,436.6l1.4-6.4 M256.7,436.6h20.1 M226.9,333.7l0.7,3.4l1,3.3l1.4,3.2l1.8,2.9l2.8,3.7l3.2,3.5l3.2,3.4l1.5,1.8l1.3,1.8
	l1.2,2l1.5,3.2l1.1,3.3l0.9,4.5l0.5,4.5l0.2,4.8l0.1,3.5l-0.6,3.4l-0.9,3.4l-0.5,3.5l0.3,3.5l0.8,3.4l0.8,3.4l0.5,4.5v4.7l0.3,4.4
	l0.7,2.8l1.6,2.4l1.8,2.4l1.3,2.5l0.7,2.8l0.5,2.9 M219.6,293.9l7.3,39.8 M214.6,286.8l1.8,1.4l1.5,1.7l1,2l0.7,2.1 M205.3,281.3
	l9.3,5.5 M284.4,283l-70.2-25.9 M291,288.4l-1.3-1.7l-1.5-1.6l-1.8-1.2l-2-0.9 M291,288.4l0.7,1.1 M273.7,284.3l1.3,0.8l0.5,0.5
	l0.4,0.6l0.6,1.4l0.3,1.4l0.3,1.5l0.2,1.5v1.4l-0.3,1.4 M228.7,267.7l45,16.6 M228.7,267.7l-0.9-0.1 M226,272l-0.5-0.6l-0.3-0.7
	l-0.1-0.8l0.2-0.7l0.3-0.7l0.6-0.5l0.7-0.4l0.7-0.1 M209.7,275l-2.2-0.4l-1.8-1.3l-1.3-1.8l-0.4-2.2l0.4-2.2l1.3-1.9l1.8-1.2
	l2.2-0.5 M209.7,263.4l2.2,0.5l1.9,1.2l1.2,1.9l0.5,2.2l-0.5,2.2l-1.2,1.8l-1.9,1.3l-2.2,0.4 M196.9,269.2l0.2,2l0.5,2l0.8,1.9
	l1.1,1.8l1.4,1.6l1.6,1.3l1.8,1l1.9,0.7l2,0.4l2.1,0.1l2.1-0.3l2-0.6l1.9-0.9l1.7-1.2l1.5-1.4l1.2-1.6l0.9-1.8l0.7-2l0.4-2v-2.1
	l-0.4-2l-0.7-2l-0.9-1.8l-1.2-1.6l-1.5-1.4l-1.7-1.2l-1.9-0.9l-2-0.5l-2.1-0.3l-2.1,0.1l-2,0.4l-1.9,0.8l-1.8,1l-1.6,1.3l-1.4,1.5
	l-1.1,1.8l-0.8,1.9l-0.5,2L196.9,269.2 M298.7,436l4.4-0.3l4.4-0.7l4.2-1.2l4-1.8l3.9-2.2l3.6-2.5l3.3-3l2.9-3.3 M259.8,397.2l0.3,5
	l1,5l1.7,4.8l2.2,4.6l2.8,4.2l3.4,3.9l3.8,3.3l4.2,2.8l4.6,2.3l4.8,1.6l5,1l5,0.3 M298.7,358.3l-5,0.4l-5,1l-4.8,1.6l-4.6,2.2
	l-4.2,2.8l-3.8,3.4l-3.4,3.8l-2.8,4.2l-2.2,4.6l-1.7,4.8l-1,5l-0.3,5.1 M328,371.7l-2.9-3l-3.2-2.7l-3.5-2.3l-3.7-2l-3.9-1.5l-4-1.1
	l-4.1-0.7l-4.2-0.3 M518.2,440.7v0.1v0.4v0.7v1.2v1.6v2.2v2v2.4v2.7v3.1v3.3v3.6v3.8v3.9v3.9v3.7v3.6v3.4v3v2.7v2.4v2v2.2v1.6v1.2
	v0.7v0.4v0.1 M509.2,507.6l2.1-1.7l2.5-0.8l1.3-0.2l1.3-0.3l1.1-0.8l0.4-0.6l0.2-0.7 M518.2,440.7L518,440l-0.4-0.6l-1.1-0.8
	l-1.3-0.4l-1.3-0.1l-1.8-0.5l-1.6-0.8l-1.3-1.2 M509.2,435.6v0.2v0.5v0.8v1.1v1.4v1.7v2v2.3v2.5v2.7v2.9v3.1v3.1v3.3v3.3v3.5v3.4
	v3.4v3.4v3.3v3.2v3v2.9v2.7v2.5v2.2v2v1.7v1.4v1.1v0.8v0.5v0.1 M460.8,507.6l-1.7-0.1l-1.2-0.1l-0.6-0.3 M341.7,310h-5.6 M341.7,310
	v9.3 M330.5,319.2V310 M336.1,310h-5.6 M336.1,310v9.3 M327.7,319.2h0.7h1.8h2.7h3.2 M336.1,319.2h3.2h2.7h1.8h0.6 M344.4,421h-0.6
	h-1.8h-2.7h-3.2 M336.1,421h-2.7H331h-1.8H328 M328,421v-6 M328,379.3v-7.6 M579.5,304.4l-0.1,0.1l-0.3,0.3l-0.5,0.5l-0.6,0.6
	l-0.7,0.6l-0.5,0.5l-0.3,0.4l-0.1,0.1 M579.5,303.8l-0.3,0.3l-0.5,0.5l-0.7,0.7l-0.7,0.7l-0.7,0.7l-0.5,0.5l-0.4,0.4l-0.1,0.1
	 M567.1,291.4L567.1,291.4l-0.3,0.3l-0.5,0.5l-0.6,0.6l-0.7,0.7l-0.7,0.7l-0.6,0.6l-0.3,0.3l-0.1,0.1 M298.7,425.6l-5.5-0.6
	l-5.4-1.6l-4.9-2.6l-4.3-3.5l-3.5-4.3l-2.6-4.9l-1.6-5.3l-0.5-5.5l0.5-5.5l1.6-5.4l2.6-4.9l3.5-4.3l4.3-3.5l4.9-2.6l5.4-1.6l5.5-0.5
	 M298.7,368.8l5.5,0.5l5.4,1.6l4.9,2.6l4.3,3.5l3.5,4.3l2.6,4.9l1.6,5.4l0.5,5.5l-0.5,5.5l-1.6,5.3l-2.6,4.9l-3.5,4.3l-4.3,3.5
	l-4.9,2.6l-5.4,1.6l-5.5,0.6 M298.7,368.1l-5.6,0.5l-5.5,1.6l-5,2.7l-4.4,3.6l-3.7,4.4l-2.7,5l-1.6,5.5l-0.6,5.7l0.6,5.7l1.6,5.4
	l2.7,5l3.7,4.4l4.4,3.7l5,2.7l5.5,1.6l5.6,0.6 M298.7,426.2l5.7-0.6l5.5-1.6l5-2.7l4.4-3.7l3.7-4.4l2.7-5l1.6-5.4l0.6-5.7l-0.6-5.7
	l-1.6-5.5l-2.7-5l-3.7-4.4l-4.4-3.6l-5-2.7l-5.5-1.6l-5.7-0.5 M328,415l-2.5,3.6l-3,3.3l-3.3,2.9l-3.7,2.4l-3.9,1.9l-4.2,1.4
	l-4.3,0.8l-4.4,0.3 M298.7,431.5l-4.4-0.3l-4.4-0.9l-4.2-1.4l-4-2l-3.7-2.5l-3.4-2.9l-2.9-3.4l-2.5-3.7l-2-4l-1.4-4.2l-0.8-4.4
	l-0.3-4.4l0.3-4.5l0.8-4.4l1.4-4.2l2-4l2.5-3.8l2.9-3.4l3.4-2.9l3.7-2.5l4-2l4.2-1.4l4.4-0.8l4.4-0.3 M298.7,362.8l4.4,0.3l4.3,0.8
	l4.2,1.4l3.9,1.9l3.7,2.4l3.3,2.8l3,3.3l2.5,3.6 M328,415l0.5-1.4l0.5-1.6l0.5-1.8l0.7-2.1l0.7-3.2l0.5-3.6l0.2-4l-0.2-4l-0.5-3.7
	l-0.7-3.3l-0.7-2.1l-0.5-1.9l-0.5-1.6l-0.5-1.4 M298.7,429l6.3-0.6l5.9-1.8l5.5-2.9l4.8-4l4-4.8l2.9-5.5l1.8-5.9l0.7-6.2l-0.7-6.2
	l-1.8-6l-2.9-5.5l-4-4.8l-4.8-3.9l-5.5-2.9l-5.9-1.8l-6.3-0.7 M298.7,365.3l-6.2,0.7l-5.9,1.8l-5.5,2.9l-4.8,3.9l-4,4.8l-2.9,5.5
	l-1.8,6l-0.7,6.2l0.7,6.2l1.8,5.9l2.9,5.5l4,4.8l4.8,4l5.5,2.9l5.9,1.8l6.2,0.6 M569.3,288l-0.3,0.4l-1,1l-1.5,1.6l-1.8,1.8
	l-1.8,1.8l-1.5,1.5l-1,1l-0.3,0.3 M569.1,285.9l-0.3,0.3l-0.5,0.4l-0.7,0.7l-0.8,0.8l-1,1l-1,1.1l-1.2,1.1l-1.1,1.2l-1.1,1.1l-1,1
	l-0.9,0.9l-0.7,0.8l-0.6,0.5l-0.3,0.4l-0.1,0.1 M558.3,276.1l0.2-0.2l0.3-0.3 M560.2,148.8L543,137 M560.2,148.8l-15.8,22.8
	 M298.7,416.2l3.7-0.3l3.6-1.1l3.3-1.8l2.9-2.4l2.4-2.9l1.8-3.3l1.1-3.5l0.3-3.7l-0.3-3.7l-1.1-3.6l-1.8-3.3l-2.4-2.9l-2.9-2.4
	l-3.3-1.8l-3.6-1.1l-3.7-0.3 M298.7,378.1l-3.7,0.3l-3.6,1.1l-3.3,1.8l-2.9,2.4l-2.4,2.9l-1.8,3.3l-1.1,3.6l-0.3,3.7l0.3,3.7
	l1.1,3.5l1.8,3.3l2.4,2.9l2.9,2.4l3.3,1.8l3.6,1.1l3.7,0.3 M298.7,414.4l3.4-0.3l3.2-1l3-1.6l2.6-2.2l2.1-2.6l1.6-3l1-3.2l0.3-3.3
	l-0.3-3.4l-1-3.2l-1.6-3l-2.1-2.6l-2.6-2.1l-3-1.6l-3.2-1l-3.4-0.3 M298.7,380l-3.3,0.3l-3.2,1l-3,1.6l-2.6,2.1l-2.1,2.6l-1.6,3
	l-1,3.2l-0.3,3.4l0.3,3.3l1,3.2l1.6,3l2.1,2.6l2.6,2.2l3,1.6l3.2,1l3.3,0.3 M457.4,517.3h-0.2h-1h-1.6h-1.2h-0.8h-0.1 M457.4,492.4
	l-0.1-1.2l-0.1-1.6l-0.1-1.6v-0.1v-0.1l-0.1-0.5l-0.1-0.3v-0.3l-0.1-0.6l-0.1-0.7l-0.2-2.7l-0.3-3.7l-0.2-3.7l-0.1-3.7l0.1-3.7
	l0.2-3.7l0.3-3.7l0.2-2.5l0.3-2.6v-0.1v-0.1l0.1-0.5v-0.4l0.1-0.4l0.1-0.5v-0.5l0.1-1.3v-1 M431,517.3h-32.1 M288.7,319.4l4-0.6
	l3.8-1.6 M288.7,289.3l-2.9,0.3l-2.8,0.9l-2.6,1.4l-2.3,1.9l-1.9,2.3l-1.4,2.6l-0.8,2.8l-0.3,2.9l0.3,2.9l0.8,2.8l1.4,2.6l1.9,2.3
	l2.3,1.9l2.6,1.4l2.8,0.9l2.9,0.3 M303.7,306.3l0.1-3.2l-0.6-3.1l-1.2-2.9l-1.9-2.6l-2.4-2.2l-2.7-1.6l-3-1l-3.2-0.3 M514.3,117.1
	l0.2,0.1l0.7,0.5l1,0.7l1.4,1l1.8,1.2l2,1.4l2.2,1.4l2.2,1.6 M498.5,139.9l0.2,0.1l0.7,0.5l1,0.7l1.4,1 M498.5,139.9l15.8-22.9
	 M543,137l-1.8-1.2l-1.6-1l-1.4-1l-1.1-0.8 M543,137l-15.8,22.8 M525.7,125l-15.8,22.9 M537.2,132.9l-11.5-8 M537.2,132.9
	l-15.8,22.9 M378.1,517.3h-0.3H377h-2.5H372h-1.9h-1.9h-2.4h-1.5h-1.8h-1.8h-2h-2.1h-2.2 M354.5,504.5v12.8 M355.9,446l2.4,1.4
	l2.2,1.5l1.3,1l1.4,1.2l1,0.8l1.5,1.5l1.2,1.4l1,1.3l0.9,1.3l1.2,2l1.1,2.3l1,2.6l0.7,2.2l0.5,2.4l0.3,2.7l0.1,2.7l-0.1,2.7
	l-0.5,2.6l-0.6,2.3l-0.7,2.1l-1.1,2.3l-1.2,2l-1.2,1.8l-1,1.2l-1.1,1.3l-1.4,1.4l-1.6,1.6l-1.8,1.6l-1.8,1.8l-2,1.9l-1.8,1.9
	 M354.5,427.2v18.1 M292.6,314.2l2.9-1.7l2.2-2.5l1.3-3.1l0.3-3.3 M292.6,314.2l1.5,1.2l1.6,1.2l1.6,1.2l1.7,1.1l1.8,0.9l1.8,0.7
	l1.9,0.5l2,0.5 M299.3,303.6l11.5,6.7 M306.4,321.4l2.2,0.1l2-0.7l1.6-1.3l1.1-1.8l0.4-2.1l-0.3-2.1l-1-1.8l-1.6-1.4 M440.2,517.3
	h-0.8h-1h-1.1h-1.1h-1.2h-1.3h-1.3H431 M431,517.3v-57.7 M292.2,484.2l0.9,0.1l0.7,0.5l0.5,0.7l0.2,0.9l-0.2,0.9l-0.5,0.7l-0.7,0.5
	l-0.9,0.1l-0.8-0.1l-0.8-0.5l-0.5-0.7l-0.1-0.9l0.1-0.9l0.5-0.7l0.8-0.5L292.2,484.2 M292.2,490.2l-1.4-0.3l-1.2-0.8l-0.8-1.2
	l-0.3-1.4 M295.9,486.5l-0.3,1.4l-0.8,1.2l-1.2,0.8l-1.4,0.3 M292.2,482.8l1.4,0.3l1.2,0.8l0.8,1.2l0.3,1.4 M288.5,486.5l0.3-1.4
	l0.8-1.2l1.2-0.8l1.4-0.3 M290.3,493.6l-5.4-6.5 M292.2,479.1l-1.5,0.2l-1.4,0.5l-1.3,0.7l-1.2,1l-0.9,1.2l-0.6,1.4l-0.4,1.5v1.5
	 M297.4,481.2l-1.1-0.8l-1.2-0.7l-1.4-0.5l-1.4-0.1 M297.4,481.2l1.4,8.6 M290.3,493.6l2.5,0.2l2.5-0.6l2.1-1.4l1.4-2 M398.9,517.3
	h-1.2h-1.2h-1.2H394h-1.1h-1h-1h-0.8 M398.9,460.9v56.4 M311.8,336.1l-0.8-0.2l-0.8-0.5l-0.5-0.8l-0.1-0.8l0.1-0.9l0.5-0.7l0.8-0.5
	l0.8-0.2 M311.8,331.5l0.9,0.2l0.7,0.5l0.5,0.7l0.2,0.9l-0.2,0.8l-0.5,0.8l-0.7,0.5l-0.9,0.2 M318.4,330.9l-1.1-1.8l-1.6-1.4
	l-1.9-0.9l-2-0.3 M325.6,347.2l-0.9-0.6l-1-0.7l-0.8-0.8l-0.7-0.9l-1.1-2l-0.3-1.1l-0.3-1.2l-0.5-3.1l-0.5-3l-1.1-2.9 M352.7,370.5
	l-8.2-8.7l-9.1-7.8l-9.9-6.9 M351.3,373.9l-3.5-3.9l-3.5-4l-3.7-3.9l-1.7-1.7l-1.8-1.8l-1.9-1.6l-1.9-1.6l-2-1.5l-2-1.4l-2.1-1.3
	l-2.2-1.2l-1-0.6l-1-0.5l-1-0.7l-0.8-0.7l-0.7-0.8l-0.7-0.9l-0.3-0.5l-0.3-0.5l-0.3-0.5l-0.1-0.3l-0.1-0.1v-0.1v-0.1l-0.5-1l-0.6-1
	l-0.8-0.8l-0.9-0.7l-1.1-0.3l-0.5-0.1l-0.6,0.1l-1.1,0.1l-1.1,0.1l-1.1-0.1l-1.1-0.4l-0.9-0.6l-0.8-0.8l-0.7-0.8l-0.7-0.8l-0.8-0.8
	l-1-0.6l-1-0.2h-1.2l-0.7,0.1l-0.8,0.1l-0.7,0.1l-2.2-0.1l-0.6-0.1l-0.5-0.2l-0.5-0.3l-0.5-0.3 M281.1,326.6l14.6,7.7 M282.4,321.4
	l-0.9,0.1l-0.8,0.5l-0.7,0.7l-0.3,0.8l-0.1,0.9l0.3,0.8l0.5,0.8l0.7,0.6 M285.1,324.3v-0.6l-0.1-0.5l-0.3-0.5l-0.3-0.5l-0.5-0.4
	l-0.5-0.3l-0.6-0.2h-0.5 M306.5,329l-0.7,0.7l-0.7,0.8l-0.8,0.7l-1.4,0.8l-1.5,0.5l-1.6,0.1l-1.6-0.2l-1.5-0.5l-1.5-0.7l-2.1-1.1
	l-2.2-1.2l-1.8-0.9l-1.8-1l-1.6-1.2l-0.4-0.7l-0.1-0.4l-0.1-0.4 M311.8,326.6l-1.4,0.1l-1.4,0.5l-1.3,0.7l-1.1,1 M302.3,315.7
	l2.7-4.6 M305,320.3l-2.7-4.6 M305,311.1h5.4 M310.3,320.3H305 M313,315.7l-2.6,4.6 M310.3,311.1l2.6,4.6 M452.7,517.3h-0.3h-0.6
	h-0.9h-1.2h-1.3h-1.5h-1.5h-1.5h-1.4h-1.2h-1 M440.2,517.3V456 M390.1,517.3H389h-1.3h-1.4h-1.5h-1.6h-1.4h-1.3h-1.1h-0.8h-0.5h-0.2
	l0,0 M390.1,458.3v59 M524.2,310.2l-1.3,1.4l-1.2,1.1l-0.7,0.8l-0.3,0.3 M524.2,310.2l1.9-1.8 M521.4,307.4l2.8,2.8 M294,410v-1.5
	 M294,410l2.9,0.7 M297.6,409.4l-0.7,1.3 M306.6,408.4l-1.2-0.8 M306.6,408.4l2.3-2 M308.1,405l0.7,1.4 M288.5,406.3l2.3,2
	 M288.5,406.3l0.7-1.4 M292.1,407.5l-1.2,0.8 M306.4,385.9l-2.7-1.4 M306.4,385.9l-0.4,1.4 M302.6,385.6l1-1.1 M296.8,385.1l0.3-1.4
	 M300.2,383.6l-0.4-0.1h-0.4h-0.4h-0.4h-0.3h-0.4h-0.4l-0.4,0.1 M300.2,383.6l0.3,1.4 M288.4,388.2l-1.8,2.5 M288.4,388.2l1.4,0.5
	 M287.6,391.8l-1-1.1 M293.8,384.5l-2.7,1.4 M293.8,384.5l1,1.1 M291.4,387.3l-0.4-1.4 M310.8,403.4l1.1-2.8 M310.8,403.4l-1.4-0.1
	 M310.7,399.7l1.2,0.9 M310.7,390.7l-1.8-2.5 M310.7,390.7l-1,1.1 M307.6,388.7l1.4-0.5 M286.5,397.6l-1.4-0.5 M285.4,394.1l-0.4,3
	 M285.4,394.1l1.5-0.2 M312,397.2l-1.1,0.4 M310.5,393.9l1.5,0.2 M312.4,397.1l-0.4-3 M312.4,397.1l-0.3,0.1 M312,397.2h-1.1
	 M288,403.3l-1.4,0.1 M285.5,400.6l1.1,2.8 M285.5,400.6l1.2-0.9 M300.5,410.7l2.9-0.7 M300.5,410.7l-0.7-1.3 M303.4,408.5v1.5
	 M298.7,393l1.2,0.2l1,0.5l0.9,0.8l0.7,1l0.3,1.2v1.2l-0.3,1.2l-0.7,1l-0.9,0.8l-1,0.5l-1.2,0.1l-1.2-0.1l-1-0.5l-0.9-0.8l-0.7-1
	l-0.3-1.2v-1.2l0.3-1.2l0.7-1l0.9-0.8l1-0.5L298.7,393 M298.7,390.1l-2.7,0.5l-2.3,1.6l-1.6,2.3l-0.5,2.7l0.5,2.7l1.6,2.3l2.3,1.6
	l2.7,0.5 M298.7,404.2l2.7-0.5l2.3-1.6l1.6-2.3l0.5-2.7l-0.5-2.7l-1.6-2.3l-2.3-1.6l-2.7-0.5 M298.7,409.4l2.4-0.2l2.3-0.7l2.2-1.1
	l1.8-1.6l1.6-1.8l1.1-2.1l0.7-2.4l0.2-2.4l-0.2-2.4l-0.7-2.3l-1.1-2.2l-1.6-1.8l-1.8-1.5l-2.2-1.2l-2.3-0.7l-2.4-0.3 M298.7,384.9
	l-2.4,0.3l-2.3,0.7l-2.2,1.2l-1.8,1.5l-1.6,1.8l-1.1,2.2l-0.7,2.3l-0.2,2.4l0.2,2.4l0.7,2.4l1.1,2.1l1.6,1.8l1.8,1.6l2.2,1.1
	l2.3,0.7l2.4,0.2 M423.8,216.1L423.8,216.1L423.8,216.1l0.1-0.1l0.1-0.1h0.1l0.1-0.1l0.2-0.1l0.2-0.1 M423.8,216.1l15,41.3
	 M288.7,311l1.5-0.2l1.4-0.5l1.2-0.8l1-1l0.8-1.2l0.5-1.4l0.1-1.4l-0.1-1.4l-0.5-1.4l-0.8-1.2l-1-1l-1.2-0.8l-1.4-0.5l-1.5-0.2
	l-1.4,0.2l-1.4,0.5l-1.2,0.8l-1,1l-0.8,1.2l-0.5,1.4l-0.2,1.4l0.2,1.4l0.5,1.4l0.8,1.2l1,1l1.2,0.8l1.4,0.5L288.7,311 M462.1,202.1
	l1.6-0.6l1.4-0.5l1.2-0.5l1-0.3l0.8-0.3l0.5-0.2l0.3-0.1l0.1-0.1 M469,199.6l1.2,3.4 M288.7,309.6l1.3-0.2l1.2-0.5l1-0.8l0.8-1
	l0.6-1.2l0.3-1.3l-0.1-1.3l-0.5-1.2l-0.7-1.2l-0.9-0.8l-1.2-0.7l-1.3-0.3h-1.3l-1.3,0.3l-1.1,0.7l-1,0.8l-0.7,1.2l-0.4,1.2l-0.1,1.3
	l0.3,1.3l0.6,1.2l0.8,1l1,0.8l1.2,0.5L288.7,309.6 M558,276.3l-0.1,0.1l-0.3,0.4l-0.6,0.5l-0.8,0.8l-1,1l-1.2,1.2l-1.4,1.4l-1.5,1.6
	l-1.7,1.6l-1.8,1.8l-1.8,1.8l-2,1.9l-2,2l-1.9,2l-2,1.9l-1.8,1.9 M526.1,308.3l-3.3-3.3 M556.9,326.9l-0.1,0.1l-0.4,0.4l-0.5,0.5
	l-0.6,0.6l-0.6,0.6l-0.5,0.5l-0.4,0.3l-0.1,0.1 M556.9,326.3L556.9,326.3l-0.3,0.3l-0.5,0.5l-0.7,0.6l-0.7,0.7l-0.7,0.7l-0.6,0.6
	l-0.4,0.3l-0.1,0.1 M544.5,314l-0.3,0.3l-0.5,0.5l-0.6,0.7l-0.7,0.7l-0.7,0.7l-0.5,0.5l-0.4,0.4l-0.1,0.1 M288.7,309.5l1.3-0.2
	l1.2-0.5l1-0.8l0.8-1l0.5-1.2l0.1-1.3l-0.1-1.3l-0.5-1.2l-0.8-1l-1-0.8l-1.2-0.5l-1.3-0.2l-1.3,0.2l-1.2,0.5l-1,0.8l-0.8,1l-0.5,1.2
	l-0.2,1.3l0.2,1.3l0.5,1.2l0.8,1l1,0.8l1.2,0.5L288.7,309.5 M288.7,308.3l1.6-0.3l1.2-0.9l0.9-1.3l0.3-1.5 M284.8,304.4l0.3,1.5
	l0.8,1.3l1.3,0.9l1.5,0.3 M288.7,300.4l-1.5,0.3l-1.3,0.9l-0.8,1.3l-0.3,1.5 M292.7,304.4l-0.3-1.5l-0.9-1.3l-1.2-0.9l-1.6-0.3
	 M546.8,310.6l-0.3,0.4l-1,1l-1.5,1.5l-1.8,1.8l-1.8,1.8l-1.5,1.5l-1,1l-0.4,0.3 M524.9,309.5l0.5-0.4l1.2-1.2l1.8-1.8l2.2-2.2
	l2.2-2.2l1.8-1.8l1.2-1.2l0.4-0.5 M546.6,308.4L546.6,308.4l-0.3,0.3l-0.5,0.5l-0.7,0.7l-0.8,0.8l-1,1l-1.1,1l-1.1,1.2l-1.2,1.1
	l-1.1,1.1l-1,1L537,318l-0.7,0.8l-0.6,0.5l-0.3,0.3l-0.1,0.1 M508.8,323.2l2.1,0.3 M522.9,330.1l-1.2,0.1l-1.2,0.5l-1,0.8l-0.8,1
	 M527.2,337.5l0.5-1.2l0.2-1.3l-0.2-1.2l-0.5-1.2l-0.8-1l-1-0.8l-1.2-0.5l-1.3-0.1 M522.9,339.9l1.3-0.2l1.2-0.5l1-0.8l0.8-1
	 M518.7,332.6l-0.5,1.2L518,335l0.1,1.3l0.5,1.2l0.8,1l1,0.8l1.2,0.5l1.2,0.2 M424.7,215.8l8-2.9 M424.7,215.8l14.8,40.5
	 M441.6,209.6l20.5-7.5 M462.1,202.1l3.4,9.2 M432.6,212.8l0.6-0.2l0.8-0.3l1.1-0.4l1.2-0.5l1.4-0.5l1.4-0.5l1.3-0.5l1.1-0.4
	 M432.6,212.8l12.3,33.9 M441.6,209.6l9.6,26.4 M510.1,320.9l-11.9,20.6 M492.2,341.4l-0.4-0.1l-0.3-0.2l-0.3-0.3l-0.3-0.3l-0.1-0.4
	l-0.1-0.4l0.1-0.4l0.2-0.4 M507,316.5l1.6,1.8l1.3,2l0.8,2.2l0.3,2.3l-0.3,2.3l-0.7,2.2l-1.1,2.2l-1.3,2l-1.4,2l-1.5,1.9l-1.6,1.6
	l-1.8,1.4l-2.1,0.9l-2.3,0.5l-2.4,0.1l-2.4-0.3 M507,316.5l-0.7-0.4l-0.8-0.1 M503.7,317l0.3-0.5l0.5-0.3l0.5-0.2l0.5-0.1
	 M491.1,338.9l12.6-21.9 M482.6,348h40.3 M445.4,272.6l-11.5-6.7 M433.9,266l40.3-69.7 M474.2,196.2v-28.8 M474.2,167.5l22.3-24.7
	 M501.8,142.1l-0.7-0.3l-0.7-0.3l-0.7-0.1l-0.7,0.1l-0.7,0.1l-0.7,0.3l-0.7,0.4l-0.5,0.5 M501.8,142.1l90.4,62.7 M593.7,209.9
	l0.3-0.7l0.1-0.7v-0.7l-0.1-0.7l-0.3-0.7l-0.4-0.6l-0.5-0.5l-0.6-0.5 M593.7,209.9L582.2,237 M582.2,237l-26.6,11.1 M555.6,248.1
	l-38.2,66.1 M531,324.8l-13.6-10.6 M471,368.2l11.6-20.2 M494.5,348l-18.9,32.8 M398.4,333.2l38-65.7 M445.4,272.6l-34.1,59.1
	 M522.9,341.4l-1.6-0.2l-1.6-0.7l-1.4-1l-1-1.3l-0.7-1.6l-0.2-1.7l0.2-1.6l0.7-1.6 M528.5,338.2l-1,1.3l-1.3,1l-1.6,0.7l-1.7,0.2
	 M522.9,328.6l1.7,0.2l1.6,0.7l1.3,1l1,1.4l0.7,1.6l0.2,1.6l-0.2,1.7l-0.7,1.6 M517.4,331.8l1-1.4l1.4-1l1.6-0.7l1.6-0.2
	 M522.9,322.1l-2.5,0.3L518,323l-2.2,1.2l-2,1.6l-1.6,2L511,330l-0.7,2.5L510,335l0.3,2.5l0.7,2.4l1.2,2.3l1.6,2l2,1.6l2.2,1.2
	l2.5,0.7l2.5,0.3 M522.9,348l2.5-0.3l2.4-0.7l2.3-1.2l2-1.6l1.6-2l1.2-2.3l0.7-2.4l0.3-2.5l-0.3-2.5l-0.7-2.5l-1.2-2.2l-1.6-2
	l-2-1.6l-2.3-1.2l-2.4-0.7l-2.5-0.3 M412.4,331.7l-4.6,0.2l-4.6,0.5l-4.5,0.8l-4.5,1.1l-4.4,1.4l-4.2,1.8l-4.1,2l-4,2.3l-3.8,2.6
	l-3.7,2.9l-3.4,3.1l-3.1,3.3l-2.9,3.5l-2.7,3.8l-2.4,3.9l-2.1,4.1l-1.8,4.2l-1.5,4.3l-1.2,4.4l-0.8,4.6l-0.6,4.6l-0.3,4.6l0.1,4.6
	l0.4,4.6l0.7,4.6l1,4.4l1.4,4.4l1.6,4.2l2,4.2l2.2,4l2.5,3.9l2.8,3.7l3,3.5l3.3,3.2l3.5,3l3.7,2.7l3.9,2.4l4,2.2l4.2,1.9l4.3,1.6
	l4.4,1.3l4.5,1l4.6,0.7l4.6,0.3h4.6l4.6-0.3l4.6-0.7l4.5-1l4.4-1.3l4.3-1.6l4.2-1.9l4.1-2.2l3.9-2.4l3.7-2.7l3.5-3l3.3-3.2l3.1-3.5
	l2.7-3.7l2.5-3.9l2.3-4l2-4.2l1.7-4.2l1.3-4.4l1-4.4l0.8-4.6l0.4-4.6l0.1-4.6l-0.3-4.6l-0.5-4.6l-0.9-4.6l-1.2-4.4l-1.6-4.3
	l-1.8-4.2l-2.1-4.1l-2.4-3.9l-2.6-3.8l-2.9-3.5l-3.2-3.3l-3.4-3.1l-3.6-2.9l-3.8-2.6l-4-2.3l-4.1-2l-4.3-1.8l-4.4-1.4l-4.4-1.1
	l-4.6-0.8l-4.6-0.5L412.4,331.7 M412.4,427.1l5.9-0.6l5.6-1.7l5.2-2.8l4.6-3.7l3.7-4.6l2.8-5.2l1.7-5.6l0.6-5.9l-0.6-5.9l-1.7-5.7
	l-2.8-5.2l-3.7-4.6l-4.6-3.7l-5.2-2.8l-5.6-1.7l-5.9-0.6 M412.4,366.9l-5.9,0.6l-5.7,1.7l-5.2,2.8l-4.6,3.7l-3.8,4.6l-2.7,5.2
	l-1.7,5.7l-0.6,5.9l0.6,5.9l1.7,5.6l2.7,5.2l3.8,4.6l4.6,3.7l5.2,2.8l5.7,1.7l5.9,0.6 M278.9,497.7v5.5 M278.9,514.9v2.4 M551,121.6
	l-2.4-2.2 M547.8,140.2l0.8-0.3l1.6-1l1-0.9l0.8-0.9l1.3-2.2l0.7-2.5l0.1-1.8l-0.1-1.6l-0.3-1.3l-0.3-1.1l-0.5-1.2l-0.8-1.7l-1.4-2
	 M499,107.5l11.5,7.2 M517.2,105l-10.8-8.2 M506.3,96.7l-0.7-0.3l-0.4-0.1h-0.4l-0.4,0.1l-0.4,0.2l-0.5,0.5 M498.4,104.6l-0.3,0.7
	l-0.1,0.4l0.1,0.4l0.1,0.4l0.2,0.4l0.5,0.5 M519.2,103.1l-2,2 M510.5,114.7l-1.2,2.6 M522.1,105.1l-2.9-2 M509.3,117.3l3,2
	 M525,103.1l-2.9,2 M512.3,119.3l-0.3,0.9 M548.4,119.3L525,103.1 M351.2,218.3l10.8-0.8 M389,189.6l-39.8,2.9 M280.4,514.9v2.4
	 M363,225.3l8.9,35.8 M413,225.1l-0.1-6.3 M411.5,207.9l-13.6-11.6 M361.6,214.5l1.4,10.8 M413,218.8l-1.4-10.8 M430.3,234.1
	l-5.9-3.1 M424.4,231l-11.4-6.1 M371.5,271.3l24.5,13 M396,284.3l20.9,11.1 M249.3,383.6h-11.6 M230.3,391v6 M237.8,383.6l-1.4,0.1
	l-1.4,0.5l-1.2,0.7l-1.2,0.9l-0.9,1.2l-0.7,1.2l-0.5,1.4l-0.1,1.5 M466.3,435.6v-1.9 M466.3,517.3v-9.7 M306.1,287.8v14.8
	 M318.1,304.7v-16.9 M289.5,514.9v2.4 M509.2,435.6h-44.3 M460.8,507.6h48.4 M327.7,319.2v29.3 M344.4,361.7v-42.5 M327.7,351.4v20
	 M344.4,421.1v-55 M575.7,307.6h0.6 M579.5,304.4v-0.6 M563.3,295.2l12.3,12.4 M579.5,303.8l-12.3-12.4 M562.4,295l1,0.1
	 M567.1,291.4l-0.1-0.9 M557.8,297.2l2.2,0.2 M569.3,288.1l-0.2-2.2 M547.5,286.9l10.3,10.3 M569.1,285.9l-10.3-10.3 M457.4,444.9
	v-0.6 M457.4,450.7v-5.9 M457.4,517.3v-24.9 M452.7,517.3v-68.9 M377.7,452.3v65 M518.8,311.8l1.9,1.9 M433.9,266l-39.4,68.3
	 M476.5,385l21.4-37 M558,276.3l-11.9-11.9 M553.1,330.1h0.7 M556.9,326.9v-0.6 M540.7,317.7l12.3,12.3 M556.9,326.3L544.5,314
	 M539.8,317.6l1,0.1 M544.5,314l-0.1-1 M535.2,319.8l2.2,0.2 M546.8,310.6l-0.2-2.2 M524.9,309.5l10.3,10.3 M546.6,308.4l-10.3-10.3
	"/>
</svg>
