<?xml version="1.0" encoding="utf-8"?>
<!-- Generator: Adobe Illustrator 21.1.0, SVG Export Plug-In . SVG Version: 6.00 Build 0)  -->
<svg version="1.1" id="Layer_1" xmlns="http://www.w3.org/2000/svg" xmlns:xlink="http://www.w3.org/1999/xlink" x="0px" y="0px"
	 viewBox="0 0 792 612" style="enable-background:new 0 0 792 612;" xml:space="preserve">
<style type="text/css">
	.st0{fill:none;stroke:#010101;stroke-width:0.709;stroke-linecap:round;stroke-linejoin:round;stroke-miterlimit:10;}
</style>
<path class="st0" d="M169.2,502.1l-4.6,2.9 M202.1,481.7l-27.3,17 M236.3,460.4l-27.8,17.3 M248.7,463.3l-0.2,0.1 M192,353
	l-26.7,16.6 M201.4,347.2l-2,1.2 M236.3,325.5l-28.8,17.9 M169.2,372l-2.3,1.4 M182.3,363.9l-7.3,4.5 M195.5,355.6l-11.6,7.2
	 M238.3,329l-29.8,18.6 M169.6,372.9l-2.4,1.4 M182,365.2l-6,3.7 M196.3,356.3l-10.3,6.3 M241.7,328.1l-33.5,20.8 M172.7,375.9
	l-3.3,2.1 M182,370.1l-1.9,1.2 M191.6,364.1l-2.4,1.6 M242.4,332.5l-30.3,18.9 M300.4,290.5l0.3,0.1l0.3,0.1l0.4-0.1l0.4-0.2
	l0.4-0.2l0.4-0.3l0.4-0.4l0.4-0.5l0.4-0.5l0.3-0.5l0.3-0.6l0.2-0.5l0.2-0.6l0.2-0.5l0.1-0.6 M305.1,285.2v-0.4v-0.2 M303.9,427.2
	h0.2l0.3,0.3l0.2,0.3l0.2,0.4l0.2,0.4l0.1,0.5v0.6l-0.1,0.6l-0.1,0.6l-0.2,0.6l-0.2,0.6l-0.3,0.5l-0.3,0.6l-0.4,0.4l-0.4,0.4
	l-0.4,0.4l-0.4,0.2l-0.4,0.1l-0.4,0.1h-0.4l-0.1-0.1 M297.3,288.1l0.2-0.1l0.4-0.4l0.2-0.3 M134.8,255.4h0.2h0.5l0.4-0.2l0.4-0.2
	 M136.3,255l0.4-0.3l0.4-0.4l0.3-0.5l0.3-0.5l0.2-0.6l0.2-0.6l0.1-0.6l0.1-0.6v-0.6l-0.1-0.6l-0.1-0.6l-0.2-0.5l-0.3-0.4l-0.3-0.3
	l-0.4-0.3l-0.4-0.1l-0.1-0.1 M120.7,261.1v-0.3l0.1-0.4l0.3-0.3l0.3-0.4l0.4-0.2l0.5-0.3l0.6-0.2l0.5-0.1l0.7-0.1h0.6h0.6l0.7,0.1
	l0.5,0.1l0.6,0.2l0.5,0.3l0.4,0.2l0.3,0.4l0.3,0.3l0.1,0.4l0.1,0.3 M120.7,284.6v-0.3l0.1-0.4l0.3-0.3l0.3-0.3l0.4-0.3 M121.8,283
	l0.5-0.3l0.6-0.1l0.5-0.2l0.7-0.1h0.6h0.6l0.7,0.1l0.5,0.2l0.6,0.1l0.5,0.3l0.4,0.3l0.3,0.3l0.3,0.3l0.1,0.4l0.1,0.3 M133.1,308.1
	l0.1,0.1l0.3,0.1l0.3-0.1l0.3-0.1l0.4-0.1l0.4-0.3 M134.9,307.7l0.4-0.3l0.4-0.4l0.4-0.4l0.4-0.5l0.4-0.5l0.4-0.5l0.3-0.6l0.3-0.5
	l0.2-0.5l0.1-0.4l0.1-0.4v-0.4l-0.1-0.3l-0.1-0.2l-0.1-0.1 M297.2,428.8l-0.2,0.3l-0.5,0.4l-0.4,0.4l-0.4,0.3l-0.4,0.3l-0.4,0.2
	l-0.3,0.1h-0.2 M457.8,214L457.8,214L457.8,214l-0.2,0.2l-0.1,0.2l-0.2,0.3L457,215l-0.3,0.4l-0.3,0.4l-0.4,0.5l-0.3,0.5l-0.4,0.5
	l-0.4,0.5l-0.4,0.5l-0.3,0.5l-0.3,0.4l-0.3,0.4l-0.3,0.3l-0.1,0.3l-0.2,0.1l-0.1,0.1v0.1 M442.3,211l-0.2,0.1l-0.5,0.2l-0.5,0.2
	h-0.5h-0.5l-0.4-0.2l-0.3-0.1 M398.4,184.5l-0.2,0.1l-0.5,0.2l-0.5,0.2h-0.5h-0.4l-0.5-0.2l-0.2-0.1 M456.4,329.4L456.4,329.4
	l0.4-0.2 M456.8,329.2l0.3-0.3l0.3-0.3l0.2-0.5l0.1-0.5l0.1-0.5v-0.6l-0.1-0.6l-0.1-0.6l-0.1-0.7l-0.2-0.6l-0.3-0.5l-0.3-0.5
	l-0.3-0.5l-0.4-0.3l-0.3-0.3l-0.4-0.2l-0.4-0.1h-0.4h-0.1 M381.3,190.6v-0.1l0.1-0.3l0.1-0.4l0.3-0.3l0.4-0.3l0.4-0.3 M382.6,188.9
	l0.5-0.2l0.6-0.2l0.6-0.1l0.6-0.1h0.6l0.7,0.1l0.6,0.1l0.6,0.1l0.5,0.2l0.4,0.3l0.4,0.3l0.3,0.3l0.2,0.3l0.1,0.4l0.1,0.2 M438.8,325
	l0.1,0.1l0.3,0.2l0.4,0.1h0.4h0.5l0.5-0.2 M441,325.2l0.5-0.2l0.5-0.3l0.5-0.3l0.5-0.5l0.4-0.4l0.4-0.5l0.3-0.5l0.3-0.6l0.1-0.2
	 M381.3,253.3v-0.2l0.1-0.3l0.1-0.4l0.3-0.3l0.4-0.3l0.4-0.3 M382.6,251.5l0.5-0.2l0.6-0.2l0.6-0.1h0.6l0.6-0.1l0.7,0.1l0.6,0.1
	l0.6,0.2l0.5,0.2l0.4,0.2l0.4,0.3l0.3,0.3l0.2,0.4l0.1,0.3l0.1,0.3 M394.9,284.5l0.1,0.1l0.4,0.2l0.3,0.1h0.5h0.4l0.5-0.2
	 M397.1,284.7l0.5-0.2l0.6-0.3l0.4-0.3l0.5-0.4l0.5-0.5l0.4-0.5l0.3-0.5l0.3-0.5l0.2-0.6l0.1-0.5v-0.5v-0.4l-0.1-0.4l-0.2-0.3
	l-0.2-0.2 M254.4,464.6l-0.2,0.2 M231,482l-33.7,24.7 M254.2,465l-3.1,2.3 M205.1,495.5l-12.1,8.8 M210.1,491.8l-0.5,0.4
	 M219.9,484.6l-5.6,4.2 M246.7,465l-11.4,8.4 M249.3,463.1l-0.3,0.3 M201.2,497.2l-8.4,6.1 M217.6,485.2l-3.3,2.4 M236.1,471.7
	l-0.9,0.6 M619.5,222.5v18.8 M619.5,206.8v7.6 M619.5,190.4v8.5 M612.6,203.8v40.7 M612.6,190.1v5.8 M615.7,205.1v38 M615.7,188.3v9
	 M616.4,220.7v22.1 M616.4,205.4v10.8 M616.4,188.6v9 M642.8,209l20.6-11.9 M619.4,222.4l15.6-9 M635.1,205.7l28.3-16.4
	 M616.1,216.6l11.2-6.5 M639.5,207.5l23.9-13.8 M616.5,220.8l15.2-8.8 M638.4,207.1l25-14.5 M616.1,220l14.5-8.4 M249.7,372.5
	l4.5-3.3 M250.2,372.7l4.2-3.1 M254.2,374.5l0.2-0.1 M236.2,376.5l6.2-4.5 M214.3,392.5l15.1-11 M192.8,408.2l10.8-7.8 M249.6,378.1
	l4.6-3.3 M225.3,395.9l11.1-8.1 M197.3,416.4l17.4-12.7 M240.2,379.6l2.2-1.7 M192.7,414.3l40.7-29.8 M239.4,379l3-2.2 M211.5,399.4
	l20.5-15 M190.8,414.5l16-11.7 M549,189.5l0.4-0.2 M548.2,190l0.2-0.1 M540.1,189.1l1.1-0.6 M474.9,227.5l54.4-32 M546.2,196.2
	l1.7-1 M540.3,199.7l1.7-1 M493.2,227.5l37-21.8 M540,194l1.9-1.2 M473.1,233.4l63.3-37.3 M546.3,191.4l1.8-1.1 M473.5,234.2
	l70.4-41.4 M549.4,276.7l0.2-0.2 M548.2,277.9l1.6-0.9 M552.3,280.3l0.2-0.2 M540,277.1l1.2-0.7 M473.1,316.5l55.9-33 M539.4,283.3
	l8.7-5.1 M475.3,321.1l63.3-37.3 M540.1,281.8l2-1.2 M474.9,320.2l61.4-36.2 M557.7,291.3l-54.2,26.1 M547.8,285.8l-19.1,9.2
	 M501.3,314l-1.5,0.8 M555.9,287.8l-47.6,22.9 M500.1,313.6l-1.3,0.6 M554.5,287.4L512,307.8 M503.5,253l52.9-25.5 M510.6,239.4
	l43.7-21.1 M498.8,245l1-0.5 M236.2,325.7v0.5 M236.2,328.5v0.5 M242.4,325.4l-0.2,0.3l-0.4,0.5l-0.4,0.5l-0.5,0.5l-0.5,0.4
	l-0.6,0.4l-0.5,0.3l-0.5,0.3l-0.5,0.3l-0.5,0.1l-0.5,0.1l-0.4,0.1l-0.4-0.1l-0.3-0.1 M236.2,325.7l0.3-0.6l0.4-0.5l0.4-0.5l0.5-0.4
	l0.5-0.5l0.5-0.4l0.5-0.4l0.5-0.3l0.6-0.2l0.5-0.2l0.5-0.2h0.4h0.4h0.2 M346.3,317.9l-1,0.4l-1.1,0.2l-1,0.3l-0.9,0.2l-0.9,0.2
	l-0.8,0.2h-0.1 M346.5,317l-0.1,0.3l-0.1,0.5 M344.4,315.9l0.8,0.4l1.3,0.7 M242.4,324.9l-0.1,0.2l-0.3,0.4l-0.3,0.5l-0.5,0.5
	l-0.4,0.4l-0.5,0.4l-0.5,0.4l-0.5,0.3l-0.5,0.3l-0.4,0.2l-0.5,0.2l-0.4,0.1h-0.4l-0.4-0.1l-0.3-0.1l-0.2-0.1 M236.2,326.2l0.2-0.4
	l0.3-0.5l0.4-0.5l0.4-0.5l0.4-0.4l0.5-0.4l0.4-0.4l0.5-0.4l0.5-0.3l0.5-0.2l0.5-0.2l0.4-0.1h0.5h0.3l0.3,0.1h0.1 M236.2,326.2v0.4
	v0.3v0.3v0.3v0.3v0.2v0.3v0.2 M236.2,461.2v-0.6 M236.2,464v-0.6 M236.2,460.6l0.3-0.5l0.4-0.5l0.4-0.5l0.5-0.5l0.5-0.5l0.5-0.4
	l0.5-0.3l0.5-0.3l0.6-0.3l0.5-0.2l0.5-0.1l0.4-0.1h0.4l0.4,0.1l0.3,0.1l0.2,0.2l0.2,0.3l0.1,0.3v0.4v0.4l-0.1,0.4l-0.2,0.5l-0.2,0.5
	l-0.3,0.5l-0.4,0.5l-0.4,0.5l-0.4,0.5l-0.5,0.5l-0.5,0.4l-0.6,0.4l-0.5,0.4l-0.5,0.2l-0.5,0.3l-0.5,0.1l-0.5,0.2h-0.4h-0.4l-0.3-0.1
	 M346.4,452.5v0.2 M236.2,461.2l0.2-0.5l0.3-0.5l0.4-0.5l0.4-0.4l0.4-0.5l0.5-0.4l0.4-0.4l0.5-0.3l0.5-0.3l0.5-0.3l0.5-0.2l0.4-0.1
	h0.5h0.3l0.3,0.1l0.3,0.1l0.2,0.2l0.1,0.3l0.1,0.3v0.4l-0.1,0.4l-0.1,0.4l-0.2,0.5l-0.3,0.5l-0.3,0.5l-0.3,0.4l-0.5,0.5l-0.4,0.4
	l-0.5,0.5l-0.5,0.3l-0.5,0.4l-0.5,0.2l-0.4,0.2l-0.5,0.2l-0.4,0.1h-0.4h-0.4l-0.3-0.1l-0.2-0.2 M236.2,463.4v-0.2V463v-0.3v-0.3
	v-0.3v-0.3v-0.3v-0.3 M348.1,452.7l0.5-0.2l0.5-0.2l0.6-0.2h0.6l0.6-0.1l0.6,0.1l0.6,0.1l0.6,0.1l0.5,0.2l0.5,0.3l0.4,0.2l0.3,0.4
	l0.2,0.3l0.1,0.4v0.3l-0.1,0.4l-0.1,0.3l-0.3,0.4l-0.4,0.3l-0.4,0.2l-0.5,0.2l-0.6,0.2l-0.6,0.1h-0.6h-0.7h-0.6l-0.6-0.2l-0.5-0.1
	l-0.5-0.3l-0.4-0.2l-0.4-0.3l-0.2-0.4l-0.2-0.3l-0.1-0.4l0.1-0.3l0.1-0.4l0.2-0.3l0.4-0.3L348.1,452.7 M347.9,308.6l0.3-0.1l0.5-0.2
	l0.1-0.1 M347.7,452.5l0.5-0.3l0.5-0.2l0.7-0.2l0.6-0.1h0.7h0.6l0.7,0.1l0.6,0.1l0.6,0.2l0.6,0.2l0.4,0.3l0.4,0.3l0.4,0.4l0.2,0.3
	l0.1,0.4v0.4v0.4l-0.2,0.3l-0.3,0.4l-0.3,0.3l-0.5,0.3l-0.5,0.3l-0.6,0.2l-0.6,0.1l-0.6,0.1l-0.7,0.1h-0.7l-0.6-0.1l-0.7-0.1
	l-0.6-0.2l-0.5-0.2l-0.5-0.3l-0.4-0.3l-0.3-0.4l-0.2-0.3l-0.1-0.4l-0.1-0.4l0.1-0.4l0.2-0.4l0.3-0.3l0.3-0.4L347.7,452.5 M502.5,241
	l-0.3-0.2l-0.5-0.2l-0.6-0.2l-0.6-0.2l-0.6-0.1h-0.7h-0.7l-0.6,0.1l-0.7,0.1l-0.6,0.2l-0.5,0.2l-0.5,0.3l-0.4,0.3l-0.3,0.3l-0.1,0.2
	 M502,320.1l-0.5-0.3l-0.6-0.2l-0.6-0.1l-0.6-0.1H499h-0.6l-0.7,0.1l-0.6,0.1l-0.5,0.2l-0.5,0.3l-0.4,0.2l-0.4,0.4l-0.2,0.3
	l-0.2,0.4v0.3v0.4l0.2,0.4l0.2,0.3l0.4,0.4l0.4,0.2l0.5,0.3l0.5,0.2l0.6,0.1l0.7,0.1h0.6h0.7l0.6-0.1l0.6-0.1l0.6-0.2l0.5-0.3
	l0.4-0.2l0.3-0.4l0.3-0.3l0.1-0.4l0.1-0.4l-0.1-0.3L503,321l-0.3-0.3l-0.3-0.4L502,320.1 M502.2,319.9l-0.5-0.2l-0.6-0.3l-0.6-0.1
	l-0.6-0.1l-0.7-0.1l-0.7,0.1h-0.6l-0.7,0.2l-0.6,0.1l-0.5,0.3l-0.5,0.2l-0.4,0.4l-0.3,0.3l-0.2,0.4l-0.1,0.4l-0.1,0.3l0.1,0.4
	l0.2,0.4l0.2,0.4l0.4,0.3l0.4,0.3l0.6,0.2l0.5,0.2l0.6,0.2l0.7,0.1h0.7h0.6h0.7l0.6-0.2l0.6-0.2l0.6-0.2l0.4-0.3l0.4-0.3l0.3-0.3
	l0.3-0.4l0.1-0.4v-0.4l-0.1-0.3l-0.1-0.4l-0.3-0.4l-0.4-0.3L502.2,319.9 M592.1,102.9v-0.2l0.1-0.3l0.2-0.4l0.3-0.3l0.4-0.2
	 M593.1,101.5l0.5-0.3l0.5-0.1l0.6-0.2h0.6h0.6h0.6l0.6,0.1l0.5,0.2l0.5,0.2l0.4,0.3l0.4,0.3l0.2,0.3l0.1,0.3l0.1,0.3 M593.5,195.7
	l0.4-0.2l0.5-0.1l0.5-0.2h0.6h0.5l0.6,0.1l0.5,0.1l0.5,0.2l0.4,0.2l0.3,0.2l0.3,0.3l0.2,0.3v0.4v0.3l-0.2,0.3l-0.2,0.3l-0.3,0.3
	l-0.4,0.2l-0.5,0.2l-0.5,0.1l-0.5,0.1h-0.6h-0.5l-0.6-0.1l-0.5-0.2l-0.4-0.2l-0.4-0.2l-0.3-0.3l-0.2-0.3l-0.1-0.3v-0.3l0.1-0.3
	l0.1-0.3l0.3-0.3L593.5,195.7 M593.1,195.5l0.5-0.2l0.5-0.2l0.6-0.1l0.6-0.1h0.6l0.6,0.1l0.6,0.1l0.5,0.2l0.5,0.2l0.4,0.2l0.4,0.3
	l0.2,0.4l0.1,0.3l0.1,0.3l-0.1,0.4l-0.1,0.3l-0.3,0.4l-0.4,0.2l-0.4,0.3l-0.5,0.2l-0.5,0.1l-0.6,0.1l-0.6,0.1h-0.6l-0.6-0.1
	l-0.6-0.2l-0.5-0.2l-0.5-0.2l-0.3-0.3l-0.3-0.3l-0.2-0.3l-0.1-0.4v-0.3l0.1-0.4l0.2-0.3l0.3-0.3L593.1,195.5 M670.6,154.5v-0.1
	l-0.1-0.4l-0.2-0.3l-0.3-0.3l-0.4-0.3l-0.4-0.2l-0.5-0.2l-0.6-0.2h-0.6l-0.6-0.1l-0.6,0.1l-0.6,0.1l-0.6,0.1l-0.4,0.2 M669.2,229
	l0.3-0.3l0.3-0.2l0.2-0.3l0.1-0.4v-0.3l-0.1-0.3l-0.2-0.3l-0.3-0.3l-0.4-0.2l-0.5-0.2l-0.5-0.2l-0.5-0.1H667h-0.5l-0.6,0.1l-0.5,0.1
	l-0.4,0.2l-0.4,0.3l-0.4,0.2l-0.2,0.3l-0.1,0.3l-0.1,0.4l0.1,0.3l0.2,0.3l0.2,0.3l0.4,0.2l0.4,0.3l0.4,0.1l0.6,0.1l0.5,0.1h0.6h0.5
	l0.6-0.1l0.4-0.2L669.2,229 M669.5,229.2l0.4-0.3l0.3-0.3l0.2-0.3l0.1-0.4l0.1-0.3l-0.1-0.4l-0.2-0.3l-0.3-0.3l-0.4-0.3l-0.4-0.2
	l-0.5-0.2l-0.6-0.2h-0.6l-0.6-0.1l-0.6,0.1l-0.6,0.1l-0.6,0.1l-0.5,0.2l-0.4,0.3l-0.3,0.3l-0.3,0.3l-0.2,0.3v0.4v0.3l0.1,0.4
	l0.3,0.3l0.3,0.3l0.4,0.2l0.5,0.3l0.6,0.1l0.5,0.1l0.6,0.1h0.6l0.6-0.1l0.6-0.1l0.5-0.2L669.5,229.2 M170.8,510.5L170.8,510.5
	l-0.1,0.2l-0.2,0.3l-0.3,0.1l-0.4,0.2h-0.4h-0.5h-0.4l-0.4-0.1l-0.3-0.2 M167.8,511l-0.3-0.2l-0.2-0.2v-0.1 M176.9,506.6v0.1
	l-0.1,0.2l-0.2,0.2l-0.3,0.2l-0.4,0.2h-0.4h-0.4h-0.5l-0.4-0.1l-0.3-0.2 M173.9,507.2l-0.3-0.2l-0.2-0.2v-0.2 M201,491.7v0.1
	l-0.2,0.2l-0.2,0.2l-0.3,0.2l-0.4,0.1l-0.4,0.1h-0.4h-0.4l-0.4-0.1l-0.4-0.2 M197.9,492.3l-0.2-0.2l-0.2-0.2l-0.1-0.2 M212,484.9
	L212,484.9l-0.1,0.2l-0.3,0.3l-0.3,0.1l-0.3,0.2h-0.5l-0.4,0.1l-0.4-0.1l-0.4-0.1l-0.3-0.2 M209,485.4l-0.3-0.1l-0.2-0.3l-0.1-0.1
	 M164.7,504.7h-0.1v0.1v0.1v0.1 M164.6,505v4.8 M169.6,511.3v-1.7 M169.4,512.9L169.4,512.9l0.1,0.1l0.1-0.1h0.1 M247.8,463l0.7,0.4
	 M248.5,463.7h0.1l0.1,0.1l0.1-0.1h0.1l0.1-0.1v-0.1v-0.1 M249,463.4v-0.3 M248.7,463.3v-0.2 M248.5,463.4h0.1h0.1v-0.1 M238.3,464
	l-73.7,45.8 M164.6,509.8v0.1v0.1v0.1l0.1,0.1l0.1,0.2h0.1l0.1,0.1l0.1,0.1 M241.7,463l-76.6,47.6 M165.1,510.6l4.3,2.3
	 M248.5,463.7l-79.1,49.2 M246.5,462.6l2,1.1 M173.9,507.5l0.3,0.2l0.4,0.1h0.5h0.4l0.4-0.1l0.4-0.1l0.3-0.2l0.2-0.2l0.1-0.2
	l0.1-0.3l-0.1-0.2l-0.2-0.2l-0.3-0.2l-0.3-0.2l-0.4-0.1h-0.4h-0.5h-0.4l-0.3,0.2l-0.4,0.2l-0.2,0.2l-0.1,0.2v0.3v0.2l0.2,0.2
	L173.9,507.5 M167.8,511.3l0.3,0.2l0.4,0.1h0.4h0.5l0.4-0.1l0.4-0.1l0.3-0.2l0.2-0.2l0.1-0.2v-0.3v-0.2l-0.2-0.2l-0.3-0.2l-0.3-0.2
	l-0.4-0.1h-0.4h-0.5l-0.4,0.1l-0.4,0.1l-0.3,0.2l-0.2,0.2l-0.1,0.2l-0.1,0.3l0.1,0.2l0.2,0.2L167.8,511.3 M197.9,492.6l0.4,0.1
	l0.4,0.1l0.4,0.1h0.4l0.4-0.1l0.4-0.1l0.3-0.2l0.2-0.2l0.2-0.3v-0.2l-0.1-0.3l-0.2-0.2l-0.2-0.2l-0.4-0.1l-0.4-0.1l-0.4-0.1h-0.4
	l-0.4,0.1l-0.4,0.1l-0.3,0.2l-0.2,0.2l-0.2,0.3v0.2l0.1,0.3l0.2,0.2L197.9,492.6 M209,485.7l0.3,0.2l0.4,0.1h0.4h0.4l0.5-0.1
	l0.3-0.1l0.3-0.2l0.3-0.2l0.1-0.2v-0.3l-0.1-0.2l-0.1-0.2l-0.3-0.2l-0.3-0.2l-0.4-0.1h-0.5h-0.4l-0.4,0.1l-0.4,0.1l-0.3,0.2
	l-0.2,0.2l-0.1,0.2l-0.1,0.3l0.1,0.2l0.2,0.2L209,485.7 M241.7,463l4.5-0.4 M246.4,462.5l0.5,0.3l0.4,0.1l0.5,0.1 M238.3,464
	l0.2-0.1l0.9-0.2l1-0.3l1.2-0.4h0.1 M170.8,375.5v0.1l-0.1,0.2l-0.2,0.2l-0.3,0.2l-0.4,0.1l-0.4,0.1h-0.5h-0.4l-0.4-0.1l-0.1-0.1
	 M212,349.9v0.1l-0.1,0.2l-0.3,0.2l-0.3,0.2l-0.3,0.1l-0.5,0.1h-0.4h-0.4l-0.4-0.1l-0.3-0.2 M209,350.5l-0.3-0.2l-0.2-0.2l-0.1-0.2
	 M169.6,376.4v-1.7 M169.4,378L169.4,378h0.1h0.1h0.1 M168.5,377.5l0.9,0.5 M209,350.8l-0.3-0.2l-0.2-0.2l-0.1-0.3l0.1-0.2l0.1-0.3
	l0.2-0.2l0.3-0.1l0.4-0.2h0.4l0.4-0.1l0.5,0.1l0.4,0.1l0.3,0.1l0.3,0.2l0.1,0.3l0.1,0.2v0.3l-0.1,0.2l-0.3,0.2l-0.3,0.2L211,351
	l-0.5,0.1h-0.4h-0.4l-0.4-0.1L209,350.8 M167.5,375.1l0.1-0.1l0.3-0.1l0.4-0.2h0.4l0.5-0.1l0.4,0.1l0.4,0.1l0.3,0.1l0.3,0.2l0.2,0.3
	v0.2v0.3l-0.1,0.2l-0.2,0.2l-0.3,0.2l-0.4,0.1l-0.4,0.1h-0.5h-0.4l-0.4-0.1 M238.3,329h0.2l0.9-0.2l1-0.3l1.2-0.4h0.1 M242.4,328
	l-0.7,0.1 M349.3,315l-0.4,0.3l-0.5,0.3l-0.4,0.3l-0.5,0.3l-0.3,0.2l-0.5,0.4l-0.2,0.1 M350,449.9L350,449.9l-0.8,0.7l-0.5,0.3
	l-0.5,0.4l-0.4,0.3l-0.4,0.3l-0.6,0.3l-0.3,0.2l-0.1,0.1 M498.5,247.4l-0.1,0.1l-0.3,0.4l-0.4,0.3l-0.5,0.4l-0.6,0.5l-0.5,0.4
	l-0.5,0.5l-0.3,0.3 M496.8,243.3l0.6,0.5l0.7,0.9l0.5,0.9l0.1,0.4 M495.3,250.3l-0.3,0.3l-0.3,0.4l-0.1,0.2l-0.1,0.3 M498.7,313.2
	v0.1l-0.4,1l-0.6,0.9l-0.6,1l-0.8,1.1l-0.6,0.8l-0.3,0.4l-0.2,0.4l-0.4,0.4l-0.2,0.3l-0.1,0.1 M246.3,455.1l-0.2,0.3 M246,455.2h0.1
	l0.2-0.1 M212.5,401.2v0.1v0.1v0.1h0.1v0.1 M216.1,402.7l-0.2,0.1l-0.2,0.2h-0.5h-0.6l-0.7-0.1l-0.5-0.3l-0.5-0.4l-0.3-0.6
	 M213.6,403.8H213h-0.6h-0.5l-0.4-0.1l-0.3-0.1l-0.2-0.2l-0.1-0.2V403v-0.2l0.2-0.3l0.2-0.3l0.3-0.3l0.4-0.4l0.5-0.4 M226.5,395.7
	l-0.4-0.1 M214,400.2l0.7-0.4l0.8-0.4l0.8-0.4l0.9-0.4l0.9-0.4l1-0.3l0.9-0.4l1-0.3l0.9-0.3l1-0.3l0.9-0.3l1-0.2l0.8-0.2l0.9-0.2
	 M214,400.2l0.6,0.5l0.4,0.4l0.4,0.5l0.3,0.4l0.3,0.5l0.1,0.3v0.2l-0.2,0.2l-0.4,0.1H215h-0.6l-0.6-0.2l-0.6-0.3l-0.4-0.4l-0.2-0.6
	l-0.1-0.6v-0.1 M246.2,397.8l-0.2,0.6l-0.1,0.5v0.3 M243.3,395.8l0.2,0.2l0.4,0.3l0.5,0.4l0.5,0.4l0.6,0.4l0.7,0.3 M248.1,463h1
	 M248.1,463l0.3,0.1h0.3h0.3 M297.8,344.7h-0.2l-0.4-0.1 M249.6,326.7l1.2,0.1l1.3,0.1l1.1,0.1h1.2l1.1,0.1h1h0.9h0.9h0.8l0.8-0.1
	h0.4 M354.6,316.7h-0.1h-0.3l-0.4-0.1 M353.8,316.6l-0.2-0.2l-0.1-0.3l0.1-0.4l0.1-0.3l0.3-0.3l0.5-0.3l0.5-0.3l1.2-0.6l1.3-0.3
	l1.3-0.3l0.8-0.1l0.7-0.1h0.3 M450,313.1L450,313.1l-0.1,0.2l-0.1,0.3v0.3 M449.8,313.9l-0.4,0.3l-0.3,0.3l-0.3,0.3l-0.1,0.1
	 M451.7,316.4L451.7,316.4l-0.3-0.1l-0.2-0.1l-0.3-0.1l-0.2-0.2l-0.2-0.2l-0.2-0.3l-0.2-0.3l-0.1-0.3l-0.1-0.3l-0.1-0.3v-0.3
	 M449.8,313.9l0.4-0.3l0.5-0.2l0.4-0.2l0.5-0.2l0.5-0.1l0.4-0.1h0.4 M494.5,253.4v-0.1 M493.9,253.9L493.9,253.9l0.3-0.4l0.3-0.1
	 M450.5,322.6l0.1,0.3l0.1,0.4v0.5l-0.1,0.4l-0.4,0.6l-0.5,0.3l-0.5,0.1l-0.5-0.1l-0.4-0.2l-0.8-0.4l-0.7-0.5l-1.3-1.2l-1-1
	 M444.5,321.8l-2.1-2.4l-1-1.2l-0.9-1.3l-1-1.3l-0.6-0.7l-0.5-0.7l-0.2-0.4l-0.2-0.3l-0.1-0.1 M422,275l0.6,0.4l0.6,0.3l0.7,0.3
	l0.5,0.2l0.6,0.1l0.5,0.1l0.4,0.1 M420,276.1h0.1l0.3-0.1l0.3-0.1l0.4-0.2l0.4-0.3l0.5-0.4 M449.9,208.7l0.3,0.4l0.4,0.7l0.1,0.5
	v0.5l-0.1,0.6l-0.1,0.5l-0.3,0.5l-0.3,0.5l-0.4,0.5l-0.5,0.4l-0.5,0.3l-0.5,0.3l-0.9,0.1l-0.6-0.1l-0.6-0.2l-0.4-0.2l-0.4-0.2
	l-0.4-0.4l-0.5-0.4l-0.7-0.7l-1-1.1 M421.7,186.2l0.6,0.2l0.7,0.2h0.6l0.2,0.1 M420.7,186.4h0.2h0.4l0.4-0.2 M271.2,331.9l0.4-0.4
	l0.3-0.5 M271.3,332.7v-0.2l-0.1-0.6 M305.2,345.9l-0.7,0.2h-0.8H303l-0.8-0.1l-0.6-0.1l-0.7-0.2 M303.9,339.1L303.9,339.1l0.3,0.2
	l0.1,0.2l0.2,0.3l0.1,0.4l0.2,0.5l0.1,0.4l0.1,0.6l0.2,0.5v0.6l0.1,0.6v0.6v0.5v0.5v0.5l-0.1,0.4 M193.1,504.5l-0.5,0.5l-0.4,0.3
	l-0.3,0.2l-0.3,0.1l-0.1,0.1 M192.8,503.9l0.1,0.2l0.1,0.2l0.1,0.2 M191.9,502L191.9,502h0.3l0.2,0.1l0.1,0.2l0.2,0.1v0.3l0.1,0.2
	v0.3v0.3v0.4 M172.8,376.2L172.8,376.2l-0.1-0.3 M190.8,411.6l-0.2-0.2v-0.1 M192.8,407.7v0.3v0.3v0.3l-0.1,0.4v0.4l-0.2,0.3
	l-0.1,0.4l-0.2,0.3l-0.2,0.4l-0.2,0.2l-0.2,0.3l-0.2,0.1l-0.2,0.1l-0.2,0.1h-0.2 M192.9,408L192.9,408l-0.1-0.3 M209.2,491.8
	l0.3,0.3l0.2,0.3l0.1,0.3v0.3l-0.1,0.2l-0.2,0.3l-0.3,0.2l-0.4,0.2 M209.4,491.5l-0.1,0.1v0.1l-0.1,0.1 M208.3,490.7l0.3,0.3
	l0.4,0.3l0.4,0.2 M207.4,402.9l1.3-0.9 M208.7,402l0.1-0.1l0.1-0.1v-0.1 M171.6,375l-0.1-0.1l-0.3-0.3l-0.2-0.3 M207.4,402.9h-0.3
	l-0.3-0.1l-0.3-0.1l-0.1-0.1 M208.9,401.7l-0.5,0.2l-0.4,0.2l-0.3,0.2l-0.2,0.3l-0.1,0.3 M207.5,397v0.4l0.1,0.6l0.2,0.6l0.2,0.8
	l0.3,0.7l0.3,0.8l0.3,0.8 M252.6,466.6l0.1-0.2 M253.4,466.3l0.1-0.4v-0.1 M244.4,471.4l0.2-0.2l0.4-0.3l0.4-0.3l0.5-0.4l0.5-0.4
	l0.7-0.4l0.7-0.4l0.8-0.4l0.8-0.5l1-0.4l0.9-0.5l1-0.5l1.1-0.4 M246.3,455.2l0.1-0.1l0.3-0.3l0.4-0.2l0.5-0.1h0.1 M235.1,386.4
	l-0.1-0.2l-0.2-0.3l-0.1-0.3v-0.1 M247.3,396.8l-0.2,0.1l-0.4,0.4l-0.3,0.3l-0.2,0.2 M210.5,495.4l-0.1,0.2l-0.1,0.2L210,496
	l-0.3,0.2l-0.4,0.1h-0.5h-0.4l-0.4-0.1l-0.4-0.1l-0.3-0.2l-0.2-0.2l-0.1-0.2l-0.1-0.1 M216.1,491.3l-0.1,0.2l-0.2,0.2l-0.2,0.2
	l-0.4,0.2l-0.4,0.1h-0.4H214l-0.4-0.1l-0.4-0.1l-0.3-0.2l-0.2-0.2h-0.1 M244.2,470.8l-0.1,0.1l-0.1,0.3l-0.3,0.2l-0.4,0.1l-0.4,0.1
	l-0.4,0.1h-0.4l-0.4-0.1l-0.4-0.1l-0.3-0.2l-0.2-0.2l-0.2-0.3 M249.8,466.7l-0.1,0.2l-0.2,0.2l-0.2,0.2l-0.4,0.1l-0.4,0.2h-0.4h-0.4
	l-0.5-0.1l-0.3-0.1l-0.3-0.2l-0.3-0.2l-0.1-0.3 M190.8,501.6v0.5 M246.7,466.1l-0.3,0.2l-0.1,0.2l-0.1,0.3v0.2l0.1,0.3l0.3,0.2
	l0.3,0.2l0.3,0.1l0.5,0.1h0.4l0.4-0.1l0.4-0.1l0.4-0.1l0.2-0.2l0.2-0.2l0.1-0.3v-0.2l-0.2-0.3l-0.2-0.2l-0.3-0.2l-0.4-0.1l-0.4-0.1
	h-0.4l-0.4,0.1l-0.4,0.1L246.7,466.1 M243.8,471.6l0.2-0.1l0.1-0.3l0.1-0.2v-0.3l-0.1-0.2l-0.3-0.2l-0.3-0.2l-0.4-0.1l-0.4-0.1h-0.4
	h-0.4l-0.4,0.1l-0.4,0.2 M241.1,470.2l-0.2,0.2l-0.2,0.2l-0.1,0.3v0.2l0.2,0.3l0.2,0.2l0.3,0.1l0.4,0.2h0.4l0.1,0.1 M212.5,491.6
	v0.1l0.2,0.2l0.2,0.2l0.3,0.2l0.4,0.1l0.4,0.1h0.4h0.4l0.4-0.1l0.4-0.2l0.2-0.2l0.2-0.2l0.1-0.3v-0.2l-0.2-0.2l-0.2-0.3l-0.3-0.1
	l-0.4-0.2h-0.4l-0.4-0.1l-0.4,0.1h-0.1 M207.4,494.8l-0.2,0.2l-0.2,0.3l-0.1,0.2l0.1,0.3l0.1,0.2l0.2,0.2l0.3,0.2l0.4,0.1l0.4,0.1
	h0.4h0.5l0.4-0.1l0.3-0.2l0.3-0.2l0.1-0.2l0.1-0.3v-0.2l-0.1-0.3l-0.3-0.2l-0.3-0.2l-0.3-0.1l-0.5-0.1h-0.4l-0.4,0.1l-0.4,0.1
	L207.4,494.8 M197.3,506.6l-0.1-0.3l-0.1-0.3l-0.2-0.4l-0.4-0.3l-0.4-0.2l-0.5-0.3l-0.5-0.1l-0.6-0.1l-0.6-0.1h-0.6h-0.2 M250,463.1
	l4.2,1.9 M254.2,465l0.1,0.1h0.1h0.1h0.1V465l0.1-0.1v-0.1v-0.1 M254.7,464.7V463 M254.4,464.6V463 M254.2,464.8L254.2,464.8h0.1
	h0.1v-0.1v-0.1 M250.6,463.1l3.6,1.7 M246.5,462.6h-0.2l-0.1-0.1v-0.1 M246.5,462.6h0.1v0.1 M252.3,460.1l-0.2,0.1l-0.6,0.4
	l-0.8,0.4l-0.7,0.4l-0.8,0.3l-0.9,0.4l-0.8,0.3l-0.9,0.3 M246.1,462.4l-0.3-0.4l-0.3-0.5l-0.3-0.5l-0.2-0.5l-0.2-0.6l-0.2-0.6
	l-0.1-0.6l-0.1-0.5v-0.5l0.1-0.5l0.1-0.4l0.1-0.3l0.2-0.2l0.1-0.1 M246.1,462.4L246.1,462.4L246.1,462.4 M294.4,430.8l0.2,0.2
	l0.5,0.4l0.3,0.2l0.2,0.2l0.2,0.2 M292.6,429.6l0.2,0.2l0.6,0.4l0.6,0.4l0.4,0.2 M208.7,478v0.2l0.1,0.4v0.4v0.5l-0.2,0.6l-0.2,0.5
	l-0.2,0.6l-0.3,0.6l-0.4,0.5l-0.3,0.5l-0.5,0.5l-0.4,0.4l-0.4,0.3l-0.5,0.3l-0.4,0.2l-0.4,0.1h-0.4h-0.3l-0.3-0.2l-0.2-0.2l-0.1-0.3
	 M133.4,308.4h0.1l0.6,0.4l0.7,0.4l0.5,0.3l0.4,0.3l0.5,0.5l0.6,0.4l1,0.9l1.8,1.5 M189.2,450v-0.7l-0.1-0.7v-0.1 M202.9,483.1
	l-0.1-0.1l-0.2-0.3l-0.3-0.4l-0.1-0.2 M175.2,498.1h-0.1 M182,439.2v-0.1l0.1-0.1 M182.1,439l-0.1,0.9v1v0.4 M175.6,497.9l-0.3-0.1
	 M175.3,497.8l-0.5,0.9l-0.6,0.8l-0.5,0.8l-0.5,0.8l-0.5,0.7l-0.5,0.6l-0.4,0.6l-0.5,0.5l-0.4,0.5l-0.4,0.3l-0.4,0.3l-0.3,0.2
	l-0.2,0.1h-0.3h-0.2l-0.1-0.2l-0.1-0.2v-0.3v-0.4v-0.5l0.1-0.3 M396.4,271.7L396.4,271.7l-0.8,0.3l-0.9,0.3l-0.9,0.3 M393.8,272.6
	l-0.4-0.1l-0.6-0.1l-0.6-0.1l-0.7-0.3l-0.7-0.3l-0.5-0.5l-0.4-0.6l-0.1-0.6v-0.5l0.1-0.5l0.2-0.8l0.3-0.6l0.2-0.6l0.3-0.4l0.5-0.6
	l0.2-0.1l0.1-0.1 M592.1,190.1L592.1,190.1h0.3l0.3,0.1l0.3,0.2l0.3,0.2l0.5,0.2 M592.3,197.7L592.3,197.7l-0.6,0.2l-0.4,0.2
	 M593.8,190.8l-0.5,0.7l-0.3,0.6l-0.4,0.6l-0.2,0.7l-0.2,0.6l-0.1,0.6v0.5 M547.7,277.6l-0.7,0.5l-0.6,0.4l-0.7,0.5l-0.6,0.3
	l-0.7,0.4l-0.6,0.3l-0.6,0.3l-0.6,0.2l-0.6,0.1l-0.5,0.1l-0.5,0.1h-0.3 M549.2,277l-0.1,0.1l-0.3,0.3l-0.3,0.2h-0.4h-0.4
	 M663.4,225.7v0.3 M663.3,225.6l0.1,0.1 M663.8,228.7l-1.2,0.6l-1.3,0.6l-0.7,0.3 M552.8,279.8l-0.4-0.1l-0.5-0.2l-0.4-0.3l-0.4-0.4
	l-0.4-0.4l-0.4-0.5l-0.3-0.5l-0.3-0.6l-0.1-0.4 M563.6,222.7L563.6,222.7h-0.1l-0.1-0.1l-0.2-0.1l-0.3-0.2l-0.3-0.2l-0.4-0.2
	l-0.5-0.2l-0.4-0.3l-0.5-0.3l-0.5-0.3l-0.5-0.3l-0.3-0.1 M599.3,194.4v-0.1l-0.1-0.6l-0.1-0.7l-0.2-0.6l-0.3-0.7l-0.4-0.6
	 M598.2,191.1l0.4-0.2l0.2-0.2l0.2-0.2l0.2-0.1l0.1-0.1v-0.1 M669.5,221.8l-0.4,0.3l-0.4,0.3l-0.4,0.3l-0.5,0.3l-0.5,0.3l-0.5,0.4
	l-0.4,0.3l-0.5,0.3l-0.5,0.3l-0.4,0.2l-0.4,0.3l-0.3,0.2l-0.3,0.1l-0.3,0.2h-0.2l-0.1,0.1 M666.7,219.3l0.4,0.2l0.5,0.3l0.6,0.4
	l0.4,0.5l0.5,0.5l0.4,0.6 M619.5,190.4h0.1h0.1 M612.4,190.4v-0.2l0.1-0.1h0.1 M616.4,188.6l0.3,0.5l0.4,0.4l0.4,0.4l0.5,0.3
	l0.4,0.2l0.4,0.1h0.4l0.3-0.1 M612.6,190.1l3.1-1.8 M615.7,188.3l0.1-0.1h0.1l0.1,0.1l0.2,0.1l0.2,0.2 M616.1,216.6v-0.1v-0.1
	l0.1-0.1 M619.7,222.5L619.7,222.5L619.7,222.5h-0.2l-0.1-0.1 M619.4,222.4l-2.9-1.6 M616.1,216.6v3.4 M616.5,220.8l-0.1-0.1
	l-0.1-0.1v-0.1l-0.1-0.1l-0.1-0.1v-0.1v-0.1V220 M663.4,189.1L663.4,189.1L663.4,189.1v0.2 M663.4,189.3v3.3 M663.4,192.6
	L663.4,192.6v0.2v0.2v0.1 M210.5,405.2L210.5,405.2l-0.1,0.3l-0.3,0.2l-0.3,0.2l-0.3,0.1l-0.5,0.1h-0.4l-0.4-0.1l-0.4-0.1l-0.4-0.1
	 M207.4,405.8l-0.2-0.2l-0.2-0.3l-0.1-0.1 M215.5,401.7l-0.1,0.1l-0.4,0.1l-0.4,0.1h-0.4l-0.4-0.1l-0.4-0.1l-0.4-0.1 M213,401.7
	l-0.2-0.2l-0.2-0.2l-0.1-0.2 M249.8,370.9l-0.1,0.1l-0.1,0.1 M249.6,371.4l0.2-0.2V371l-0.1-0.3l-0.1-0.1 M249.8,376.5L249.8,376.5
	l-0.2,0.2 M190.8,414.5v-2.9 M249.6,376.2l0.1,0.1l0.1,0.2v0.3l-0.2,0.2 M240.9,380.1l0.1-0.1l0.3-0.1l0.4-0.2h0.4l0.3-0.1
	 M215.7,401.9l-0.3,0.2l-0.4,0.1l-0.4,0.1h-0.4l-0.4-0.1l-0.4-0.1L213,402 M213,402l-0.2-0.2l-0.2-0.2l-0.1-0.3v-0.2l0.2-0.3
	l0.2-0.2l0.3-0.2l0.4-0.1l0.4-0.1 M207.4,406.1l-0.2-0.2l-0.2-0.3l-0.1-0.2l0.1-0.3l0.1-0.2l0.2-0.2l0.3-0.2l0.4-0.1l0.4-0.1h0.4
	h0.5l0.4,0.1l0.3,0.2l0.3,0.2l0.1,0.2l0.1,0.3v0.2l-0.1,0.2l-0.3,0.3l-0.3,0.1l-0.3,0.2H209l-0.4,0.1l-0.4-0.1l-0.4-0.1L207.4,406.1
	 M197.3,416.3l-0.1-0.2l-0.1-0.4l-0.2-0.3l-0.4-0.3l-0.4-0.3l-0.5-0.2l-0.5-0.2l-0.6-0.1h-0.6h-0.6h-0.6 M192.7,414.3l-0.7,0.1h-0.4
	l-0.4,0.1h-0.4 M254.2,374.8l-4.6-2.1 M254.7,374.5v0.1v0.1l-0.1,0.1h-0.1h-0.1h-0.1h-0.1 M254.7,369.7v4.8 M254.2,368.9l0.1,0.1
	l0.1,0.1h0.1l0.1,0.1v0.2l0.1,0.1v0.1v0.1 M249.6,366.8l4.6,2.1 M249.6,367.1l4.6,2.1 M254.2,369.2L254.2,369.2l0.1,0.1l0.1,0.1v0.1
	v0.1 M254.4,369.6v4.8 M254.4,374.4L254.4,374.4v0.1h-0.1h-0.1 M254.2,374.5l-4.6-2.1 M592.1,112.4l-0.4,0.2l-0.4,0.1 M593.8,105.6
	l-0.5,0.6l-0.3,0.6l-0.3,0.7l-0.3,0.6l-0.2,0.6l-0.1,0.6v0.5 M592.1,104.8L592.1,104.8l0.3,0.1l0.2,0.1l0.4,0.1l0.3,0.2l0.5,0.3
	 M392.3,182.8v-0.6l-0.1-0.3l-0.1-0.5l-0.2-0.8l-0.4-0.9l-0.4-0.8l-0.5-0.8l-0.4-0.7l-0.3-0.4l-0.1-0.3v-0.2l0.2-0.2h0.1
	 M396.3,181.7l-0.3,0.1l-0.9,0.3l-0.9,0.2l-0.9,0.3l-1,0.2 M175.5,368.6l0.3,0.2 M169.4,372.4l-0.2-0.5l-0.1-0.4l-0.2-0.4v-0.4v-0.4
	v-0.4l0.1-0.3l0.1-0.3l0.2-0.3l0.3-0.3l0.3-0.3l0.3-0.2l0.4-0.1l0.4-0.2h0.4l0.5-0.1h0.5h0.5l0.5,0.1l0.5,0.1l0.5,0.2l0.6,0.2
	l0.5,0.2 M170.6,374.1L170.6,374.1l-0.4-0.3l-0.3-0.3l-0.2-0.3l-0.2-0.4l-0.1-0.4 M182,376.8v0.2v0.4l0.1,0.5 M182.1,377.9l-0.1,0.6
	v0.3 M209.1,351l-0.1-0.2 M209,350.8L209,350.8l-0.2-0.1l-0.1-0.1h-0.1v-0.1l-0.1-0.1v-0.1l-0.1-0.1 M187.3,376.7l0.2-0.9l0.3-0.9
	l0.2-0.8l0.2-0.8l0.2-0.8l0.2-0.7l0.1-0.7l0.2-0.6l0.1-0.5l0.1-0.5V369l0.1-0.3v-0.3 M189.2,379.2l-0.1-0.3l-0.1-0.4l-0.1-0.4
	l-0.3-0.4l-0.4-0.4l-0.4-0.3l-0.5-0.3 M209.1,351l-0.1,0.6l-0.1,0.6l-0.2,0.6l-0.2,0.4l-0.2,0.4l-0.1,0.1 M209.1,351l-0.2,0.1
	l-0.1,0.1l-0.1-0.1h-0.1V351l-0.1-0.2v-0.3l-0.1-0.3 M208.3,350.1L208.3,350.1L208.3,350.1 M202.9,349.2l0.1,0.2l0.2,0.1l0.2,0.1
	l0.3,0.1l0.3,0.1l0.4,0.1l0.4,0.1l0.5,0.1h0.4h0.5l0.6,0.1h0.5h0.5l0.5-0.1 M208.4,344.7l0.2,0.3l0.2,0.4v0.4v0.5l-0.1,0.5l-0.1,0.5
	l-0.2,0.5l-0.3,0.6 M208.1,348.4l0.1,0.5l0.1,0.6v0.5v0.1 M135.5,255.5L135.5,255.5l0.8,0.1l0.5,0.1l0.4,0.1l0.6,0.1l0.5,0.2l1,0.2
	h0.2 M213.8,486.1l0.2,0.3l0.2,0.4l0.1,0.4v0.5v0.4 M209.6,491.6l-0.2-0.1 M214.3,488.1v0.5l-0.1,0.5l-0.1,0.5L214,490l-0.2,0.4
	l-0.3,0.4l-0.3,0.3l-0.3,0.3l-0.4,0.2l-0.4,0.2l-0.4,0.1l-0.4,0.1h-0.4l-0.5-0.1l-0.4-0.1l-0.4-0.2 M208.7,402l1.7-1.3 M210.4,400.7
	l-0.4,0.2l-0.3,0.2l-0.4,0.2l-0.3,0.3l-0.3,0.4 M214.3,392.1v0.3v0.5l-0.1,0.6l-0.2,0.6l-0.2,0.7l-0.2,0.7l-0.3,0.7l-0.4,0.7
	l-0.3,0.8l-0.4,0.7l-0.5,0.6l-0.4,0.6l-0.4,0.6l-0.5,0.5 M235.2,472.2v0.1L235,473 M235,473l0.3,0.3l0.2,0.3 M210.9,351l-0.3,0.1
	h-0.2h-0.3h-0.2h-0.3l-0.2-0.1l-0.2-0.1l-0.2-0.1 M232.7,384.4l0.3-0.2 M212.5,351.5v-0.1 M210.9,351l0.6,0.2l0.6,0.2l0.6,0.2
	 M210.9,351l-0.2,0.4l-0.2,0.2l-0.3,0.1H210l-0.3-0.1l-0.3-0.2l-0.4-0.6 M212.7,351.6v-0.3 M232.9,384.1l-0.2,0.3 M232.7,384.4h-0.3
	h-0.3l-0.3-0.2l-0.2-0.2 M272.3,425.1L272.3,425.1L272,425l-0.3-0.2l-0.4-0.2l-0.4-0.2l-0.4-0.3l-0.4-0.4l-0.4-0.3l-0.4-0.5
	l-0.4-0.4 M271.2,331.9l-0.1-0.1l-0.2-0.1l-0.3-0.2l-0.4-0.2l-0.4-0.2h-0.1 M289.1,289.9l0.1-0.3l0.5-0.7l0.6-0.8l0.3-0.5
	 M297.4,288.1l0.3,0.1l0.2,0.3l0.2,0.3v0.2l-0.1,0.2 M293.2,288.1l0.6,0.1h0.6h0.9l0.8-0.1h0.8h0.5 M253.3,323.7l-0.2,0.2l-0.5,0.4
	l-0.7,0.4l-0.7,0.4l-0.7,0.4l-0.8,0.5h-0.1 M268.9,422.5h-0.5l-0.4,0.1l-0.4-0.1h-0.4l-0.3-0.1l-0.2-0.1l-0.2-0.1v-0.1 M272.1,417.6
	L272.1,417.6l-0.1,0.1v0.1l-0.1,0.1l-0.1,0.2l-0.1,0.2l-0.2,0.2l-0.2,0.3l-0.2,0.3l-0.2,0.3l-0.2,0.3l-0.2,0.4l-0.2,0.3l-0.3,0.4
	l-0.2,0.3l-0.3,0.4l-0.2,0.3l-0.2,0.3l-0.2,0.4 M249.6,278.4l0.4,0.2l0.9,0.5l0.4,0.2l0.3,0.2l0.2,0.1 M269.7,331.1l-0.5,0.1
	l-0.5,0.1l-0.5,0.1l-0.6,0.1l-0.5,0.1l-0.5,0.1H266l-0.4,0.1h-0.4l-0.4,0.1h-0.3h-0.2l-0.2-0.1 M269.3,325.2l0.1,0.4l0.1,0.5
	l0.1,0.6l0.1,0.6l0.1,0.7v0.8v0.7l-0.1,0.8v0.8 M249.5,386.6l-0.2-0.1l-0.3-0.2l-0.4-0.2l-0.5-0.4l-0.7-0.6l-0.7-0.6l-0.2-0.2
	 M242.5,277.6L242.5,277.6l0.2-0.1l0.2-0.2l0.3-0.2l0.6-0.4l0.6-0.4l0.5-0.4l0.5-0.3l0.8-0.5l0.7-0.5l0.8-0.3l0.5-0.1l0.5,0.1
	l0.3,0.3l0.3,0.4l0.2,0.4l0.1,0.6v0.4 M212.4,486.4l0.2-0.1l0.6-0.2l0.6-0.3l0.6-0.4l0.6-0.3l0.7-0.4l0.6-0.5l0.6-0.4l0.6-0.5
	l0.3-0.3 M333.3,455.1h0.6l1.5-0.2l1.4-0.1l1.6-0.2l1.5-0.2l1.6-0.2l1.7-0.2l1.6-0.3l1.5-0.2 M214.2,485.2h0.1l0.6-0.3l0.6-0.4
	l0.5-0.4 M212.7,351.3L212.7,351.3 M340.5,319.4l-1.2,0.5l-1.1,0.4l-1.1,0.5l-1,0.4l-1,0.4l-0.9,0.3l-0.9,0.3l-0.7,0.3l-0.7,0.3
	l-0.6,0.3l-0.6,0.2l-0.4,0.1l-0.4,0.2l-0.3,0.1h-0.2l-0.1,0.1 M333.3,320.2l1.1-0.1l1.5-0.2l1.5-0.1l1.5-0.2l1.6-0.2 M212.7,351.3
	l0.6-0.2l0.6-0.3l0.6-0.4l0.7-0.3l0.6-0.5l0.6-0.4l0.6-0.5l0.6-0.5l0.2-0.1 M213.3,351.3H213h-0.3 M214.2,350.3l0.2-0.1l0.6-0.3
	l0.6-0.4l0.4-0.3 M355.9,309.3v0.1v0.2l-0.2,0.3l-0.1,0.3l-0.2,0.4l-0.3,0.4l-0.2,0.4l-0.3,0.4l-0.4,0.5l-0.3,0.5l-0.4,0.5l-0.4,0.5
	l-0.4,0.6l-0.4,0.5l-0.5,0.6 M349.3,315l-0.2-0.4l-0.4-1l-0.3-1.2l-0.1-0.8l-0.1-0.8l0.1-0.5 M351.8,315.5l-1-0.1l-0.9-0.2l-0.6-0.2
	 M366.3,254.1l0.5,0.2l0.5,0.2h0.5h0.2 M362.9,256.8L362.9,256.8l0.4-0.2l0.4-0.3l0.4-0.2l0.4-0.4l0.4-0.3l0.4-0.4l0.5-0.5l0.5-0.4
	 M353.5,450.1l-0.7,0.1h-1l-1-0.1l-0.8-0.2 M355.8,444.4l-0.1,0.3l-0.1,0.5l-0.2,0.7l-0.3,0.6l-0.2,0.7l-0.3,0.7l-0.4,0.7l-0.3,0.7
	l-0.4,0.8 M350,449.9l-0.5-0.9l-0.5-1l-0.3-0.8l-0.3-0.8l-0.1-0.6l-0.1-0.5l0.1-0.2 M368.6,383.2l0.4-0.1l0.4-0.1 M367.2,383.2h0.5
	h0.5h0.4 M363.6,386.8v-0.1l0.4-0.2l0.4-0.4l0.4-0.4l0.5-0.4l0.4-0.5l0.5-0.5l0.5-0.5l0.5-0.6 M366.1,253.9l-0.5-0.3l-0.6-0.3
	l-0.4-0.4l-0.4-0.5l-0.4-0.5l-0.2-0.6l-0.2-0.6v-0.5v-0.5l0.1-0.4 M368.9,252.1l-0.5,0.4l-0.6,0.4l-0.5,0.4l-0.6,0.3l-0.6,0.3
	 M371.7,247.5L371.7,247.5l-0.2,0.4l-0.2,0.5l-0.2,0.5l-0.3,0.5l-0.3,0.6l-0.4,0.5l-0.4,0.5l-0.4,0.6l-0.4,0.5 M386.2,272.4v0.1
	l0.4,0.7l0.4,0.7l0.4,0.8l0.4,0.7l0.1,0.2 M366.6,382.8l-0.5-0.2l-0.6-0.3l-0.5-0.4l-0.5-0.4l-0.4-0.5l-0.3-0.5l-0.2-0.5l-0.2-0.5
	v-0.4v-0.4 M371.9,373.6l-0.1,0.1l-0.1,0.4l-0.1,0.4l-0.2,0.5l-0.3,0.5l-0.2,0.6l-0.3,0.6l-0.4,0.6l-0.4,0.7l-0.4,0.7l-0.4,0.7
	l-0.5,0.7l-0.4,0.7l-0.5,0.7l-0.5,0.7l-0.5,0.6 M444.8,328.8h0.1l0.7,0.3l0.7,0.2l0.7,0.1l0.5,0.1l0.4,0.2h0.2 M301.3,428.8
	l-0.5,0.2l-0.6,0.3l-0.6,0.1l-0.7,0.1l-0.8-0.1l-0.6-0.3l-0.3-0.3 M297.2,428.8l-0.2-0.3l-0.1-0.4l-0.2-0.6l-0.1-0.6v-0.7v-0.7v-0.6
	l0.1-0.5V424l0.1-0.4l0.1-0.5l0.1-0.1 M300.1,287H300l-0.9,0.3l-0.6,0.1l-0.3-0.1h-0.1 M298.1,287.3l-0.2-0.1l-0.2-0.2l-0.2-0.5
	l-0.2-0.4l-0.1-0.6l-0.1-0.7l-0.1-0.5l-0.1-0.5l-0.1-0.6v-0.5l-0.1-0.8l-0.1-0.6V281v-0.2l0.1-0.1v-0.1 M444,214.1l0.4,0.3l0.7,0.3
	l0.5,0.4l0.5,0.3l0.3,0.2l0.4,0.4l0.2,0.1 M494.5,320.6l-0.6,0.4l-0.9,0.4 M368.6,383.2l0.7-0.4l1.1-0.7l1-0.6l1-0.7l0.3-0.2
	 M491.5,249.4l0.4,0.3l0.8,0.5l0.8,0.6l0.9,0.5l0.1,0.1 M494.5,253.4h-0.4l-0.9,0.1l-0.9,0.1h-0.8l-0.8,0.1h-0.5 M494.5,251.4v0.3
	 M368.9,252.1l0.9-0.2l1-0.3l1.1-0.3l1-0.2l1-0.3l0.9-0.3l0.9-0.3l0.8-0.3l0.8-0.2l0.7-0.3l0.7-0.2l0.6-0.3l0.5-0.2 M366.3,254.1
	l-0.2-0.2 M355.2,450.7L355.2,450.7h-0.3l-0.4-0.1l-0.3-0.2l-0.4-0.2l-0.4-0.2 M355.1,317H355h-0.2l-0.5-0.1l-0.6-0.3l-0.4-0.2
	l-0.4-0.2l-0.8-0.5l-0.4-0.3 M396.7,274.5L396.7,274.5l-0.3-0.1l-0.3-0.2l-0.6-0.3l-0.7-0.5l-0.9-0.8l-0.2-0.1 M538.7,283.2l1.4,0.2
	l1.1,0.1l0.8,0.1l0.5,0.1l0.2,0.1h-0.1l-0.4,0.1h-0.7h-1l-1.2-0.1h-1.6 M540.7,280.8l-0.3,0.5l-0.4,0.6l-0.4,0.5l-0.5,0.4l-0.4,0.4
	 M540.5,277.6l-0.1,0.2l-0.1,0.3l-0.1,0.5l0.1,0.5l0.1,0.5l0.1,0.6l0.2,0.6 M540,277.1h0.4l0.2,0.1 M537.7,283.8l-0.5,0.1l-0.4,0.1
	h-0.4 M391.5,183.9v-0.1l0.2-0.1l0.3-0.3l0.2-0.4l0.1-0.3 M540.7,192.9l-0.3,0.5l-0.4,0.5l-0.4,0.5l-0.4,0.4l-0.5,0.4l-0.4,0.3
	l-0.5,0.3l-0.5,0.1l-0.4,0.1l-0.4,0.1h-0.1 M540.5,189.7l-0.1,0.2l-0.1,0.4l-0.1,0.4l0.1,0.5l0.1,0.6l0.1,0.5l0.2,0.6 M540,189.1
	L540,189.1l0.4,0.1l0.3,0.1 M478.5,233l-0.2-0.2v-0.1 M488.1,228.9v0.1l-0.1,0.2l-0.2,0.2l-0.3,0.2l-0.4,0.1l-0.4,0.1h-0.5h-0.4
	l-0.4-0.1l-0.3-0.2 M485.1,229.5l-0.3-0.2l-0.2-0.2v-0.2 M541.3,197.6L541.3,197.6l-0.1,0.3l-0.3,0.2l-0.3,0.2l-0.3,0.1l-0.5,0.1
	h-0.4H539l-0.4-0.1l-0.4-0.2 M538.2,198.2L538,198l-0.2-0.2l-0.1-0.2 M474.9,227.5v-0.1l0.1-0.1 M547.5,194.1L547.5,194.1l-0.3,0.3
	l-0.3,0.2l-0.3,0.1l-0.5,0.1h-0.4h-0.4l-0.4-0.1l-0.4-0.2 M544.5,194.5l-0.2-0.2l-0.2-0.2l-0.1-0.2 M473.1,233l0.4-0.3l0.3-0.4
	l0.4-0.5l0.3-0.5l0.2-0.5l0.2-0.6l0.1-0.6l0.1-0.5v-0.6V228l-0.2-0.5 M473.1,233.4V233 M478.3,233.1l-0.1-0.2l0.1-0.3l0.1-0.2
	l0.2-0.2l0.3-0.2l0.4-0.1l0.4-0.1h0.4h0.5l0.4,0.1l0.2,0.1 M486.2,230.1h-0.4l-0.4-0.1l-0.3-0.2 M485.1,229.8l-0.3-0.2l-0.2-0.2
	l-0.1-0.2l0.1-0.3l0.1-0.2l0.2-0.3l0.3-0.1l0.4-0.2h0.4h0.4h0.5l0.4,0.1l0.3,0.2l0.3,0.2l0.2,0.2v0.2v0.3v0.1 M547.6,194.3l-0.1,0.2
	l-0.3,0.2l-0.3,0.2l-0.3,0.1l-0.5,0.1h-0.4h-0.4l-0.4-0.2l-0.4-0.1 M544.8,193.2l0.3-0.1l0.4-0.1h0.4l0.5,0.1h0.2 M544.5,194.8
	l-0.2-0.2l-0.2-0.2l-0.1-0.3v-0.2 M538.2,198.5l-0.2-0.2l-0.2-0.2l-0.1-0.3v-0.2l0.2-0.3l0.2-0.2l0.3-0.1l0.4-0.2l0.4-0.1h0.4
	l0.5,0.1l0.3,0.1l0.4,0.1l0.3,0.2l0.1,0.3l0.1,0.2v0.3l-0.1,0.2l-0.3,0.2l-0.3,0.2l-0.3,0.1l-0.5,0.1h-0.4H539l-0.4-0.1L538.2,198.5
	 M475.2,234.3l-0.5,0.1l-0.2,0.1 M474.3,234.6l-0.8-0.4 M473.5,234.2L473.5,234.2l-0.2-0.2l-0.1-0.1l-0.1-0.2v-0.1v-0.1v-0.1
	 M548.1,190.3l-0.1-0.1l-0.1-0.1V190l-0.1-0.1 M550.2,191.4l-2.1-1.1 M551.2,186.1l0.9,0.6 M551,186.3l0.8,0.4 M549.9,191l-1.8-1
	 M548.1,190L548.1,190l-0.1-0.1 M481.8,320.5v0.1l-0.1,0.2l-0.2,0.2l-0.4,0.2l-0.3,0.2h-0.4h-0.5h-0.4l-0.4-0.1l-0.3-0.2
	 M478.8,321.1l-0.3-0.2l-0.2-0.2v-0.2 M488.1,316.8v0.1l-0.1,0.2l-0.2,0.2l-0.3,0.2l-0.4,0.1l-0.4,0.1h-0.5h-0.4l-0.4-0.1l-0.3-0.2
	 M485.1,317.4l-0.3-0.2l-0.2-0.2v-0.2 M541.3,285.5v0.1l-0.1,0.2l-0.3,0.2l-0.3,0.2l-0.3,0.1l-0.5,0.1h-0.4H539l-0.4-0.1l-0.4-0.2
	 M538.2,286.1l-0.2-0.2l-0.2-0.2l-0.1-0.2 M481.2,319.9l-0.1,0.2l-0.3,0.6l-0.3,0.7h-0.1 M473.1,316.5v-0.1v-0.1v-0.1h0.1
	 M478.1,324.5L478.1,324.5H478h-0.1h-0.1h-0.1 M547.6,281.8v0.1l-0.1,0.2l-0.3,0.2l-0.3,0.2l-0.3,0.1l-0.5,0.1h-0.4h-0.4l-0.4-0.1
	l-0.4-0.2 M544.5,282.4l-0.2-0.2l-0.2-0.2l-0.1-0.2 M474.9,320.2l0.2-0.6V319v-0.6l-0.1-0.5l-0.1-0.4l-0.2-0.3l-0.2-0.3l-0.3-0.1
	l-0.4-0.1h-0.3l-0.2,0.1 M473.1,316.8v-0.3 M478.8,321.4l-0.3-0.2l-0.2-0.2l-0.1-0.2l0.1-0.3l0.1-0.2l0.2-0.2l0.3-0.2l0.4-0.2h0.4
	h0.4h0.5l0.4,0.1l0.3,0.2l0.3,0.2l0.2,0.2v0.2v0.3l-0.1,0.2l-0.2,0.2l-0.4,0.2l-0.3,0.1l-0.4,0.1h-0.5h-0.4l-0.4-0.1L478.8,321.4
	 M485.1,317.7l-0.3-0.2l-0.2-0.2l-0.1-0.3l0.1-0.2l0.1-0.2l0.2-0.3l0.3-0.1l0.4-0.2h0.4l0.4-0.1l0.5,0.1l0.4,0.1l0.3,0.1l0.3,0.2
	l0.2,0.3v0.2v0.3l-0.1,0.2l-0.2,0.2l-0.3,0.2l-0.4,0.1l-0.4,0.1h-0.5h-0.4l-0.4-0.1L485.1,317.7 M544.5,282.7l-0.2-0.2l-0.2-0.2
	L544,282v-0.2l0.2-0.3l0.2-0.2l0.3-0.2l0.4-0.1l0.4-0.1h0.4l0.5,0.1l0.3,0.1l0.4,0.1l0.3,0.2l0.1,0.2l0.1,0.3v0.2l-0.1,0.3l-0.3,0.2
	l-0.3,0.2l-0.3,0.1l-0.5,0.1h-0.4l-0.4-0.1l-0.4-0.1L544.5,282.7 M538.2,286.4l-0.2-0.2l-0.2-0.2l-0.1-0.3v-0.2l0.2-0.3l0.2-0.2
	l0.3-0.2l0.4-0.1l0.4-0.1h0.4l0.5,0.1l0.3,0.1l0.4,0.1l0.3,0.2l0.1,0.3l0.1,0.2v0.3l-0.1,0.2l-0.3,0.2l-0.3,0.2l-0.3,0.1l-0.5,0.1
	h-0.4H539l-0.4-0.1L538.2,286.4 M477,324l0.2-0.2l0.2-0.2l0.1-0.3V323l-0.1-0.3l-0.3-0.3l-0.3-0.3l-0.4-0.4l-0.5-0.3l-0.6-0.3
	 M477.7,324.5L477,324 M477.7,324.5l74.6-44 M475.3,321.1l-0.2-0.1l-0.1-0.2l-0.1-0.2v-0.2v-0.2 M548.1,278.2l-0.1-0.1l-0.1-0.1
	v-0.1l-0.1-0.1l-0.1-0.1v-0.1 M552.3,280.5l-4.2-2.3 M552.8,280.3v0.1v0.1h-0.1v0.1h-0.1h-0.1h-0.1l-0.1-0.1 M552.8,279.8v0.5
	 M552.5,279.7v0.4 M552.5,280.1L552.5,280.1v0.2h-0.1h-0.1 M552.3,280.3l-4.2-2.4 M548.1,277.9L548.1,277.9l-0.1-0.1v-0.1h-0.1v-0.1
	 M540.2,198.7l-0.1,0.1h-0.2h-0.1h-0.2h-0.1h-0.2h-0.1H539 M498.5,247.4v-0.1v-0.4l0.1-0.5l0.1-0.4 M498.8,248l-0.2-0.4l-0.1-0.2
	 M508.9,241.6l-0.2,0.2l-0.4,0.4l-0.4,0.5l-0.5,0.5l-0.6,0.5l-0.6,0.5l-0.6,0.5l-0.6,0.5l-0.7,0.4l-0.7,0.5l-0.6,0.4l-0.7,0.3
	l-0.6,0.3l-0.6,0.3l-0.6,0.2l-0.5,0.2l-0.5,0.1l-0.4,0.1h-0.3 M498.8,245.9l0.1-0.2 M498.7,246l0.1-0.1 M540.2,198.7l0.1,0.2
	l0.1,0.2v0.3l-0.1,0.3l-0.1,0.3l-0.2,0.5 M540.2,198.7L540.2,198.7l-0.6,0.2l-0.6-0.1 M528.9,207l0.7-0.7l0.6-0.7l0.7-0.6l0.7-0.7
	l0.7-0.6l0.6-0.6l0.7-0.6l0.7-0.6l0.6-0.5l0.6-0.5l0.6-0.4l0.6-0.4l0.5-0.4l0.6-0.3l0.4-0.3l0.5-0.2l0.3-0.1 M529,206.6L529,206.6
	l-0.1,0.4 M540,200.5l0.5-0.6l0.2-0.2 M546.6,196.4v-0.2 M561.1,215.9L561.1,215.9L561,216l-0.1,0.2l-0.2,0.3l-0.1,0.4l-0.2,0.5
	l-0.2,0.5l-0.2,0.6l-0.2,0.6l-0.1,0.6l-0.2,0.7 M557.7,221l-0.4,0.1h-0.5h-0.4l-0.3-0.2l-0.3-0.3l-0.2-0.2 M559.5,220.4l-0.6,0.2
	l-0.6,0.2l-0.6,0.2 M542.7,195.4l0.7,0.2l0.6,0.1l0.7,0.1h0.6 M542.1,198.8l-0.1-0.2l-0.3-0.4l-0.2-0.4l-0.1-0.4V197v-0.4v-0.3
	l0.2-0.3l0.2-0.2l0.2-0.2l0.3-0.1l0.4-0.1 M546.7,196.5l0.2-0.4 M545.3,195.8l0.5,0.2l0.5,0.2l0.4,0.3 M498.7,313.3V313l-0.2-0.5
	 M498.8,313.3L498.8,313.3 M501.4,313.5h-0.6l-0.6,0.1l-0.6-0.1h-0.4l-0.4-0.2 M506.3,312.2l-0.3,0.2l-0.6,0.4l-0.5,0.4l-0.6,0.4
	l-0.5,0.3l-0.4,0.2l-0.4,0.3l-0.4,0.1l-0.3,0.1H502h-0.3h-0.1l-0.2-0.1l-0.1-0.2v-0.2v-0.3l0.1-0.3 M559.6,281.2l0.1,0.1l0.1,0.1
	l0.2,0.1l0.2,0.2l0.2,0.3l0.2,0.4l0.1,0.4l0.2,0.4l0.1,0.5l0.1,0.5l0.1,0.5l0.1,0.6v0.5 M561.3,285.8l-0.4,0.4l-0.5,0.3l-0.4,0.3
	l-0.5,0.3l-0.4,0.3l-0.5,0.2l-0.4,0.2l-0.4,0.1l-0.3,0.1h-0.3h-0.3h-0.1 M511.2,312.2l-0.1,0.2l-0.2,0.2l-0.2,0.2l-0.4,0.1l-0.4,0.1
	l-0.4,0.1h-0.4l-0.4-0.1l-0.4-0.1l-0.3-0.2l-0.2-0.2l-0.2-0.3 M518.1,308.9L518,309l-0.2,0.3l-0.2,0.2l-0.4,0.1l-0.4,0.1l-0.4,0.1
	H516l-0.4-0.1l-0.4-0.2l-0.3-0.1l-0.2-0.2l-0.2-0.3 M550,293.5v0.2l-0.2,0.2l-0.3,0.2l-0.3,0.1l-0.4,0.1l-0.4,0.1h-0.5l-0.4-0.1
	l-0.3-0.1l-0.4-0.2l-0.2-0.2l-0.1-0.3 M556.7,290.6l-0.2,0.2l-0.4,0.1l-0.4,0.1l-0.4,0.1l-0.4-0.1h-0.5l-0.3-0.2l-0.3-0.1l-0.3-0.3
	l-0.1-0.2 M556.8,290.7l-0.1,0.1l-0.2,0.2l-0.4,0.2l-0.4,0.1h-0.4h-0.4h-0.5l-0.3-0.2l-0.3-0.1l-0.3-0.3l-0.1-0.2v-0.3l0.1-0.2
	l0.1-0.2l0.3-0.2 M553.9,289.6l0.3-0.2l0.4-0.1h0.5h0.4l0.4,0.1l0.4,0.1l0.1,0.1 M547,292.9l0.3-0.2l0.4-0.1h0.5h0.4l0.4,0.1
	l0.4,0.1l0.3,0.2l0.2,0.2l0.1,0.2l0.1,0.3l-0.1,0.2l-0.2,0.3l-0.3,0.2l-0.3,0.1l-0.4,0.1l-0.4,0.1h-0.5l-0.4-0.1l-0.3-0.1l-0.4-0.2
	l-0.2-0.2l-0.1-0.3v-0.2v-0.3l0.2-0.2L547,292.9 M515,308.3l0.4-0.2l0.4-0.1h0.4h0.4l0.4,0.1l0.4,0.1l0.3,0.2l0.2,0.2l0.2,0.2v0.3
	l-0.1,0.2l-0.2,0.3l-0.2,0.2l-0.4,0.1l-0.4,0.1l-0.4,0.1L516,310h-0.4l-0.4-0.2l-0.3-0.1l-0.2-0.3l-0.2-0.2V309l0.1-0.3l0.2-0.2
	L515,308.3 M508.1,311.6l0.4-0.1l0.4-0.1l0.4-0.1h0.4l0.4,0.1l0.4,0.1l0.3,0.2l0.2,0.2l0.2,0.3v0.2l-0.1,0.3l-0.2,0.2l-0.2,0.2
	l-0.4,0.1l-0.4,0.1l-0.4,0.1h-0.4l-0.4-0.1l-0.4-0.1L508,313l-0.2-0.2l-0.2-0.3v-0.2l0.1-0.3l0.2-0.2L508.1,311.6 M503.5,317.4V317
	l-0.2-0.4l-0.2-0.4l-0.4-0.4l-0.5-0.3l-0.5-0.2l-0.6-0.3l-0.6-0.1l-0.7-0.1 M556.4,287.9v0.1 M498.8,314.2v-0.9 M499.8,314.8
	l-0.2-0.1l-0.4-0.1l-0.2-0.1l-0.1-0.1l-0.1-0.1v-0.1 M511.2,247.8l-0.1,0.2l-0.2,0.2l-0.2,0.2l-0.4,0.2l-0.4,0.1h-0.4h-0.4l-0.4-0.1
	l-0.4-0.1l-0.3-0.2l-0.2-0.2l-0.2-0.2v-0.1 M518.1,244.5l-0.1,0.2l-0.2,0.2l-0.2,0.2l-0.4,0.1l-0.4,0.1l-0.4,0.1H516l-0.4-0.1
	l-0.4-0.1l-0.3-0.2l-0.2-0.2l-0.2-0.3 M550,229.1v0.2l-0.2,0.2l-0.3,0.2l-0.3,0.2l-0.4,0.1h-0.4h-0.5l-0.4-0.1l-0.3-0.1l-0.4-0.2
	l-0.2-0.2l-0.1-0.2v-0.1 M556.4,226.4l-0.3,0.1l-0.4,0.1l-0.4,0.1h-0.4l-0.5-0.1l-0.3-0.1l-0.3-0.2l-0.3-0.2l-0.1-0.3 M498.8,245
	v-0.1l0.1-0.1l0.1-0.1l0.1-0.1 M556.4,226.7l-0.3,0.1l-0.4,0.1l-0.4,0.1h-0.4l-0.5-0.1l-0.3-0.1l-0.3-0.2l-0.3-0.2l-0.1-0.3v-0.2
	l0.1-0.3l0.1-0.2l0.3-0.2 M553.9,225.2l0.3-0.2l0.4-0.1h0.5h0.4l0.4,0.1l0.4,0.1l0.1,0.1 M547,228.5l0.3-0.1l0.4-0.1l0.5-0.1h0.4
	l0.4,0.1l0.4,0.1l0.3,0.2l0.2,0.2l0.1,0.3l0.1,0.2l-0.1,0.3l-0.2,0.2l-0.3,0.2l-0.3,0.2l-0.4,0.1h-0.4h-0.5l-0.4-0.1l-0.3-0.1
	l-0.4-0.2l-0.2-0.2l-0.1-0.3v-0.2V229l0.2-0.3L547,228.5 M515,243.9l0.4-0.1l0.4-0.2h0.4h0.4l0.4,0.1l0.4,0.1l0.3,0.2l0.2,0.2
	l0.2,0.3v0.2L518,245l-0.2,0.2l-0.2,0.2l-0.4,0.1l-0.4,0.1l-0.4,0.1H516l-0.4-0.1l-0.4-0.1l-0.3-0.2l-0.2-0.2l-0.2-0.3v-0.2l0.1-0.3
	l0.2-0.2L515,243.9 M508.1,247.2l0.4-0.1l0.4-0.1l0.4-0.1h0.4l0.4,0.1l0.4,0.2l0.3,0.1l0.2,0.2l0.2,0.3v0.2l-0.1,0.3l-0.2,0.2
	l-0.2,0.2l-0.4,0.2l-0.4,0.1h-0.4h-0.4l-0.4-0.1l-0.4-0.1l-0.3-0.2l-0.2-0.2l-0.2-0.2v-0.3l0.1-0.2l0.2-0.3L508.1,247.2 M503.5,253
	v-0.4l-0.2-0.4l-0.2-0.4l-0.4-0.3l-0.5-0.4l-0.5-0.2l-0.6-0.2l-0.6-0.2l-0.7-0.1 M556.5,223.1l-0.1,0.3v0.2 M498.8,249.8V248
	 M557.7,221.5V221 M498.8,245.9V245 M499.8,250.4h-0.3l-0.4-0.2l-0.2-0.1l-0.1-0.1v-0.2 M499.8,250.4l56.7-27.3 M557.7,221.5
	L557.7,221.5l-0.4,0.3l-0.3,0.4l-0.2,0.4l-0.3,0.5 M498.8,249.8l58.9-28.3 M544.1,194.4l-0.1-0.2v-0.1 M544.1,194.4l-0.1,0.1
	 M544.1,194.4l-0.1-0.3l0.1-0.3l0.3-0.3l0.1-0.1l0.5-0.3 M546.9,190.4l-0.7,1l-0.6,0.9l-0.6,0.8 M547.7,189.9l-0.3,0.2l-0.2,0.2
	l-0.3,0.1 M549.2,189.3l-0.3,0.3l-0.3,0.2l-0.5,0.1h-0.4 M544.3,192l-0.6,0.3l-0.6,0.2l-0.6,0.2l-0.6,0.1l-0.5,0.1H541h-0.3
	 M542.7,195.5l0.2-0.5l0.2-0.5l0.3-0.7l0.4-0.9l0.5-0.9 M544,194.5l-0.4,0.3l-0.5,0.4l-0.4,0.3 M546.8,194.9l-0.3,0.1l-0.4,0.1h-0.4
	h-0.4l-0.4-0.1l-0.3-0.2l-0.3-0.2l-0.2-0.2 M547.6,194.4l-0.1,0.1l-0.2,0.2l-0.5,0.2 M663.4,160.7v0.5 M662.6,160.2l0.2,0.2l0.6,0.3
	 M663.4,162l-1.3,0.5l-1.3,0.6l-1.3,0.5l-1.2,0.5l-1.3,0.5l-1.2,0.4l-1.2,0.5l-1.1,0.4l-1.1,0.4l-1.1,0.3l-0.9,0.4l-1,0.3l-0.9,0.3
	l-0.8,0.3l-0.7,0.2l-0.7,0.2l-0.6,0.2 M546.6,193.1l1.1-0.5l1.2-0.6l1.3-0.6 M546.6,193.1l0.5,0.5l0.3,0.4l0.2,0.4v0.2l-0.1,0.3
	l-0.4,0.2l-0.4,0.2h-0.6h-0.6l-0.6-0.1l-0.4-0.3l-0.3-0.4l-0.1-0.1 M542.7,195.4l0.2-0.1l0.3-0.3l0.4-0.3l0.5-0.3 M549.6,194.8
	l-1.1,0.3l-0.9,0.2l-0.9,0.2l-0.8,0.2l-0.6,0.1 M548.6,195.1l0.3-0.1l0.7-0.2 M550.2,191.4l-0.3-0.5l-0.3-0.6l-0.1-0.5l-0.1-0.6V189
	 M563.6,287.1L563.6,287.1h-0.1l-0.1-0.1l-0.3-0.2l-0.3-0.1l-0.3-0.2l-0.4-0.3l-0.5-0.2l-0.3-0.2 M559.5,281.2l0.1-0.1l0.4-0.2
	 M669.5,157.5l-0.4,0.1l-0.5,0.3l-0.4,0.2l-0.6,0.2l-0.5,0.3l-0.5,0.3l-0.6,0.3l-0.5,0.2l-0.5,0.3l-0.4,0.2l-0.4,0.3l-0.3,0.1
	l-0.2,0.2l-0.2,0.1l-0.1,0.1 M667.2,154.6l0.1,0.2l0.5,0.4l0.5,0.5l0.4,0.5l0.4,0.6l0.4,0.7 M599.3,109.7v-0.5l-0.1-0.6l-0.2-0.7
	l-0.2-0.7l-0.2-0.7l-0.4-0.6 M598.2,105.9l0.4-0.2l0.3-0.1l0.2-0.1h0.1h0.1 M253.1,449.9v-0.1l-0.1-0.4l-0.2-0.3l-0.3-0.3l-0.3-0.3
	l-0.5-0.3l-0.5-0.1l-0.6-0.2l-0.6-0.1h-0.6h-0.6l-0.6,0.1l-0.5,0.2l-0.5,0.2l-0.4,0.2l-0.4,0.3l-0.3,0.4l-0.1,0.3l-0.1,0.3v0.1
	 M192.7,407.6l0.6-0.1h0.3 M191.4,506.1l0.4-0.2l0.5-0.1l0.6-0.2h0.5h0.6l0.6,0.1l0.5,0.1l0.5,0.2l0.5,0.2l0.3,0.3l0.3,0.3l0.1,0.3
	l0.1,0.3v0.4l-0.2,0.3l-0.2,0.3l-0.3,0.3l-0.5,0.2l-0.4,0.2l-0.6,0.1l-0.5,0.1h-0.6H193l-0.5-0.1l-0.6-0.2l-0.4-0.2l-0.4-0.2
	l-0.3-0.3l-0.2-0.3l-0.2-0.3v-0.4l0.1-0.3l0.2-0.3l0.3-0.3L191.4,506.1 M191.1,506l0.5-0.2l0.5-0.2l0.6-0.1l0.6-0.1h0.6h0.6l0.6,0.1
	l0.5,0.2l0.5,0.2l0.4,0.3l0.3,0.3l0.3,0.3l0.1,0.3l0.1,0.4l-0.1,0.4l-0.2,0.3l-0.2,0.3l-0.4,0.3L196,509l-0.5,0.3l-0.6,0.1l-0.6,0.1
	h-0.6h-0.6l-0.6-0.1l-0.5-0.1l-0.5-0.2l-0.5-0.2l-0.4-0.3l-0.2-0.3l-0.2-0.4l-0.1-0.3v-0.4l0.1-0.3l0.2-0.3l0.3-0.3L191.1,506
	 M250.9,401.6l-0.2-0.1l-0.5-0.1h-0.6H249l-0.6,0.1l-0.5,0.1l-0.5,0.2L247,402l-0.3,0.3l-0.3,0.3l-0.1,0.3v0.4v0.3l0.2,0.3l0.3,0.3
	l0.3,0.3l0.4,0.2l0.5,0.2l0.6,0.1l0.5,0.1h0.6h0.6l0.6-0.2l0.5-0.1l0.4-0.2 M251.8,404.6l0.4-0.3l0.3-0.3l0.1-0.2 M250.7,401.3
	L250.7,401.3l-0.7-0.1h-0.6h-0.6l-0.6,0.1l-0.5,0.2l-0.5,0.2l-0.4,0.2l-0.4,0.3l-0.3,0.3l-0.1,0.3l-0.1,0.4l0.1,0.4l0.1,0.3l0.2,0.3
	l0.4,0.3l0.4,0.3l0.5,0.2l0.5,0.2l0.6,0.1h0.6h0.6l0.6-0.1l0.6-0.1l0.5-0.2l0.5-0.2 M252.1,404.7l0.4-0.3l0.3-0.3 M253.1,388.5v-0.1
	l-0.1-0.3l-0.2-0.4l-0.3-0.3l-0.3-0.3l-0.5-0.2l-0.5-0.2l-0.6-0.1l-0.6-0.1h-0.4 M265.4,332.4l0.4-0.2l0.5-0.2l0.6-0.1h0.5h0.6
	l0.6,0.1l0.5,0.1l0.5,0.2l0.5,0.2l0.3,0.2l0.3,0.3l0.1,0.4l0.1,0.3v0.3l-0.2,0.4l-0.2,0.3l-0.3,0.2l-0.5,0.3l-0.4,0.2l-0.6,0.1
	l-0.5,0.1h-0.6H267l-0.6-0.1l-0.5-0.2l-0.4-0.2l-0.4-0.2l-0.3-0.3l-0.3-0.3l-0.1-0.3v-0.4l0.1-0.3l0.2-0.3l0.3-0.3L265.4,332.4
	 M268.4,322.9L268.4,322.9 M265.1,332.3l0.5-0.2l0.5-0.2l0.6-0.2h0.6h0.6h0.6l0.6,0.1l0.5,0.2l0.5,0.2l0.4,0.3l0.3,0.3l0.3,0.3
	l0.1,0.3l0.1,0.4l-0.1,0.3l-0.2,0.4l-0.2,0.3l-0.4,0.3l-0.4,0.2l-0.5,0.2l-0.6,0.2l-0.6,0.1h-0.6h-0.6l-0.6-0.1l-0.5-0.1l-0.5-0.2
	l-0.5-0.2l-0.4-0.3l-0.3-0.3l-0.1-0.4l-0.1-0.3v-0.4l0.1-0.3l0.2-0.3l0.3-0.4L265.1,332.3 M273.6,418l-0.1-0.3l-0.2-0.4L273,417
	l-0.4-0.3l-0.4-0.2l-0.5-0.2l-0.6-0.1l-0.1-0.1 M272.3,430.1l0.3-0.3l0.3-0.3l0.2-0.3l0.1-0.3v-0.4l-0.1-0.3l-0.2-0.3l-0.4-0.3
	l-0.3-0.3l-0.5-0.2l-0.5-0.1l-0.6-0.1H270h-0.5l-0.6,0.1l-0.5,0.1l-0.5,0.2l-0.4,0.2l-0.4,0.3l-0.2,0.3l-0.1,0.3l-0.1,0.4l0.1,0.3
	l0.2,0.3l0.2,0.3l0.4,0.3l0.4,0.2l0.5,0.2l0.5,0.1l0.6,0.1h0.6l0.6-0.1l0.5-0.1l0.5-0.1L272.3,430.1 M272.5,430.2l0.4-0.3l0.3-0.3
	l0.2-0.3l0.1-0.4l0.1-0.3l-0.1-0.4l-0.2-0.3l-0.3-0.3l-0.4-0.3l-0.4-0.2l-0.5-0.2l-0.6-0.1l-0.6-0.1l-0.6-0.1l-0.6,0.1l-0.6,0.1
	l-0.6,0.1l-0.5,0.2l-0.4,0.3l-0.3,0.3l-0.3,0.3l-0.2,0.3v0.4v0.3l0.1,0.4l0.3,0.3l0.3,0.3l0.4,0.3l0.5,0.2l0.6,0.1l0.5,0.1l0.6,0.1
	h0.6l0.6-0.1l0.6-0.1l0.5-0.2L272.5,430.2 M189.2,364.7v-0.2l-0.1-0.3l-0.2-0.3l-0.3-0.4l-0.4-0.2l-0.4-0.3l-0.5-0.2l-0.6-0.1
	l-0.6-0.1h-0.6h-0.6l-0.6,0.1l-0.6,0.2l-0.5,0.2l-0.4,0.2l-0.3,0.3l-0.3,0.3l-0.2,0.4v0.3v0.1 M187.9,383.6l0.3-0.2l0.3-0.3l0.2-0.3
	l0.1-0.4v-0.3l-0.1-0.3l-0.2-0.3l-0.4-0.3l-0.3-0.3l-0.5-0.2l-0.5-0.1l-0.6-0.1l-0.6-0.1l-0.5,0.1h-0.6l-0.5,0.2l-0.5,0.2l-0.4,0.2
	l-0.4,0.3l-0.2,0.3l-0.1,0.3l-0.1,0.4l0.1,0.3l0.1,0.3l0.3,0.3l0.4,0.3l0.4,0.2l0.5,0.2l0.5,0.1l0.6,0.1h0.6l0.6-0.1l0.5-0.1
	l0.5-0.1L187.9,383.6 M188.1,383.8l0.4-0.3l0.3-0.3l0.2-0.3l0.1-0.4l0.1-0.3l-0.1-0.4l-0.2-0.3l-0.3-0.3l-0.4-0.3l-0.4-0.2l-0.5-0.2
	l-0.6-0.2h-0.6l-0.6-0.1l-0.6,0.1l-0.6,0.1l-0.6,0.1l-0.5,0.2l-0.4,0.3l-0.3,0.3l-0.3,0.3l-0.2,0.3v0.4v0.3l0.1,0.4l0.3,0.3l0.3,0.3
	l0.4,0.2l0.5,0.3l0.6,0.1l0.5,0.1l0.6,0.1h0.6l0.6-0.1l0.6-0.1l0.5-0.2L188.1,383.8 M189.2,429v-0.2l-0.1-0.3l-0.2-0.4l-0.3-0.3
	 M187.9,453.8l0.3-0.3l0.3-0.3l0.2-0.3l0.1-0.3v-0.3l-0.1-0.4l-0.2-0.3l-0.4-0.3l-0.3-0.2l-0.5-0.2l-0.5-0.2l-0.6-0.1h-0.6h-0.5
	l-0.6,0.1l-0.5,0.1l-0.5,0.2l-0.4,0.3l-0.4,0.2l-0.2,0.4l-0.1,0.3l-0.1,0.3l0.1,0.3l0.1,0.4l0.3,0.3l0.4,0.2l0.4,0.3l0.5,0.1
	l0.5,0.2h0.6h0.6h0.6l0.5-0.1l0.5-0.2L187.9,453.8 M188.1,453.9l0.4-0.2l0.3-0.3l0.2-0.4l0.1-0.3l0.1-0.4l-0.1-0.3l-0.2-0.3
	l-0.3-0.4l-0.4-0.2l-0.4-0.3l-0.5-0.2l-0.6-0.1l-0.6-0.1h-0.6h-0.6l-0.6,0.1l-0.6,0.2l-0.5,0.2l-0.4,0.2l-0.3,0.3l-0.3,0.3l-0.2,0.4
	v0.3v0.4l0.1,0.3l0.3,0.3l0.3,0.3l0.4,0.3l0.5,0.2l0.6,0.2l0.5,0.1h0.6h0.6h0.6l0.6-0.2l0.5-0.1L188.1,453.9 M557.7,288.4l0.5-0.2
	l0.5-0.2l0.5-0.1h0.6h0.6h0.6l0.5,0.2l0.5,0.2l0.4,0.2l0.4,0.2l0.2,0.3l0.2,0.4l0.1,0.3l-0.1,0.3l-0.1,0.4l-0.3,0.3l-0.3,0.2
	l-0.4,0.3l-0.5,0.2l-0.5,0.1l-0.6,0.1h-0.6h-0.5l-0.6-0.1l-0.5-0.2l-0.5-0.2l-0.4-0.2l-0.3-0.3l-0.2-0.3l-0.1-0.3v-0.4l0.1-0.3
	l0.2-0.3l0.2-0.3L557.7,288.4 M560,213.9h0.2h0.7l0.5,0.2l0.6,0.1l0.5,0.2l0.4,0.3l0.1,0.1 M557.5,288.3l0.4-0.3l0.6-0.1l0.5-0.2
	h0.6h0.6h0.7l0.5,0.1l0.6,0.2l0.5,0.2l0.4,0.3l0.3,0.3l0.2,0.3l0.2,0.3v0.4v0.3l-0.2,0.4l-0.3,0.3l-0.3,0.3l-0.5,0.2l-0.5,0.2
	l-0.5,0.2l-0.6,0.1h-0.6h-0.6l-0.6-0.1l-0.6-0.1l-0.5-0.2l-0.4-0.2l-0.4-0.3l-0.3-0.3l-0.2-0.4l-0.1-0.3v-0.4l0.2-0.3l0.2-0.4
	l0.3-0.3L557.5,288.3 M275.3,325.6l58-5.4 M260.3,327l1.9-0.2 M237.1,329.2l1.2-0.2 M242.4,321.4l-0.7,0.1 M259.5,319.8L258,320
	 M271.1,318.8l-4.1,0.3 M338.5,312.5l-58.4,5.4 M245.2,456.1l-3.5,0.3 M334.4,447.8l-73.6,6.8 M249.1,463l84.2-7.9 M247.9,463.1
	l0.3-0.1 M237.1,464.1l1.2-0.1 M346.3,452.6v1.7 M346.3,398.4v45.4 M346.3,317.7v72 M355.3,383.6v-66.7 M355.3,414.1v-21.8
	 M355.3,454.3v-3.7 M503.5,274.6V253 M503.5,298.3v-16.5 M503.5,321.7v-4.4 M494.5,319.7v2 M494.5,281.2v22.4 M494.5,251.6V274
	 M592.1,195.1v1.9 M592.1,109.8v80.3 M592.1,102.9v1.9 M599.3,105.5v-2.6 M599.3,190.2v-80.5 M599.3,197v-2.6 M670.6,227.7v-73.2
	 M663.4,226v1.7 M663.4,193.1v24.7 M663.4,161.2v27.9 M169.2,501.9l-4.5,2.8 M202,481.5l-27,16.8 M236.5,460.1l-28,17.4
	 M169.7,512.9l79.2-49.2 M191.9,352.9l-26.7,16.5 M201.2,347.1l-2,1.2 M236.5,325.1l-29.1,18.1 M212.4,351.5l30-18.7 M189.2,365.9
	l2.1-1.3 M180.3,371.4l1.7-1 M169.7,378l3.1-1.9 M297.9,289.3l0.8,0.4l0.9,0.4l0.8,0.4 M348.6,309l-42.8-24.7 M300.4,290.5
	l44.3,25.6 M301,434.7l45.3,17.8 M348.4,444.6l-44.5-17.4 M303.9,427.2l-0.1-0.1 M295.8,432L295.8,432l1.3,0.8l1.2,0.7l1.3,0.6
	l1.2,0.5l0.2,0.1 M296.8,280.6l-160.4-33.2 M251.8,279.6l41.4,8.5 M139.6,256.3l102.8,21.3 M134.8,255.3l0.7,0.2 M128.8,261.1v-0.4
	v-0.8l0.1-0.7l0.2-0.6l0.1-0.6l0.3-0.5l0.2-0.5l0.3-0.4l0.3-0.4l0.4-0.3l0.5-0.3l0.4-0.2l0.5-0.1l0.5-0.1h0.6h0.6l0.7,0.1h0.3
	 M136.4,247.4l-0.7-0.1l-1.1-0.2h-1.2h-1.1l-1.1,0.1l-1.1,0.2l-1,0.3l-1,0.4l-0.9,0.5l-0.9,0.5l-0.8,0.6l-0.7,0.7l-0.7,0.7l-0.7,0.8
	l-0.6,0.8l-0.5,1l-0.4,0.9l-0.4,1.1l-0.3,1l-0.3,1.2l-0.1,1.1l-0.1,1.3v0.8 M120.7,261.1v23.5 M128.8,284.6v-23.5 M138,301.7
	l-0.4-0.3l-0.8-0.7l-0.8-0.8l-0.8-0.8l-0.7-0.8l-0.8-0.9l-0.7-0.9l-0.6-1l-0.6-1l-0.6-1l-0.5-1l-0.4-1l-0.4-1l-0.4-1l-0.2-1l-0.3-1
	l-0.1-0.9l-0.1-0.9v-0.8v-0.3 M120.7,284.6v0.7v1.3l0.2,1.3l0.2,1.3l0.3,1.3l0.4,1.4l0.4,1.3l0.5,1.3l0.6,1.3l0.6,1.3l0.7,1.2
	l0.8,1.2l0.7,1.2l0.9,1.2l0.9,1.1l0.9,1.1l1,1.1l1,1l1,0.9l1.1,0.8l0.2,0.2 M139.6,313.1l153.1,116.6 M133.1,308.1l0.3,0.3
	 M246.6,384.4L138,301.7 M297.1,422.9l-47.7-36.3 M446.9,216.1l0.9,0.6l1.1,0.8l1.2,0.9l1.1,0.8l1.1,0.8l0.6,0.5 M439.4,211.2
	l0.5,0.3l0.8,0.5l0.9,0.6l1,0.6l1,0.6l0.6,0.5 M457.8,214l-0.6-0.5l-1.2-0.8l-1.2-0.9l-1.2-0.8l-1.1-0.9l-1.2-0.8l-1.1-0.8l-1.1-0.7
	 M475.2,227.1L457.8,214 M496.8,243.3l-8.4-6.3 M479.4,240.4l12.3,9.2 M452.9,220.5l19.7,14.7 M427.4,194.5l-14.4-8.7 M395.6,184.7
	l43.8,26.5 M394.7,184.2l0.4,0.2l0.5,0.3 M389.4,190.6v-0.5v-0.9l0.1-0.8l0.1-0.8l0.2-0.7l0.2-0.7l0.2-0.5l0.2-0.5l0.2-0.4l0.2-0.3
	l0.3-0.3l0.2-0.2l0.2-0.1 M392.1,175.5h-0.3l-1,0.1l-0.9,0.2l-0.9,0.3l-0.9,0.4l-0.8,0.4l-0.8,0.5l-0.7,0.6l-0.7,0.7l-0.6,0.7
	l-0.6,0.8l-0.5,0.9l-0.5,1l-0.4,1l-0.4,1.1l-0.3,1.1l-0.2,1.2l-0.2,1.3l-0.1,1.3v1.3v0.2 M479.8,323.5l14.7-3.8 M456.4,329.4
	l20.7-5.3 M473.3,316.8l-18.9,4.8 M454.4,321.6l-0.5,0.1l-1,0.2H452h-1h-0.9 M448.1,329.7l0.5,0.1l1.3,0.2l1.3,0.1l1.3-0.1l1.3-0.1
	l1.3-0.2l1.3-0.3 M438.8,325l0.6,0.5l1,0.9l1.1,0.7l1.1,0.7l1.1,0.6l1.2,0.4 M381.3,190.6v62.7 M389.4,253.3v-62.7 M394.9,284.5
	l43.9,40.5 M437.8,313.1l-37.4-34.5 M392,265.7l-0.3-1l-0.5-1.2l-0.4-1.3l-0.3-1.2l-0.3-1.2l-0.3-1.2l-0.2-1.2l-0.1-1.1l-0.2-1.1
	v-1.1v-0.8 M400.4,278.6l-0.3-0.4l-0.8-0.7l-0.7-0.8l-0.7-0.9l-0.7-0.9l-0.3-0.4 M387.9,275.6l0.6,1.1l0.9,1.2l0.8,1.2l0.9,1.2
	l0.9,1.1l0.9,1.1l1,1l0.9,0.9l0.1,0.1 M381.3,253.3v0.7v1.4l0.2,1.4l0.1,1.4l0.3,1.5l0.3,1.4l0.3,1.5l0.4,1.4l0.5,1.5l0.5,1.5
	l0.5,1.4l0.6,1.4l0.6,1.5l0.6,1.2 M246,455.2l-1,0.9 M213.6,403.8l32.3-2.5 M242.1,394.3l-15.9,1.3 M249,463.1l33.4-0.7
	 M269.1,335.7l28.1,8.9 M249.6,329.5l14.5,4.6 M377.1,313.1h-16.5 M425.6,312.9l-41.1,0.1 M437.7,312.8h-0.2 M450.3,312.8h-4.6
	 M447.4,316.4h0.2 M383.7,316.6l45.8-0.1 M354.6,316.7h21.8 M479.2,312.7l-26.3,0.1 M451.7,316.4l21.4-0.1 M415.1,360.3l-57.9,78
	 M427.1,343.9l-2.6,3.6 M440.3,326.3l-0.3,0.3 M448.7,314.9l-1.2,1.6 M474.7,279.8L450,313.1 M493.9,253.9L479.8,273 M484,273.3
	l10.5-14.2 M454.7,312.8l24.2-32.7 M449.3,320.1l2.8-3.7 M431.6,344l4.5-6.1 M369,428.4l53.2-71.7 M419.5,276.1l18.4,37.3
	 M450.5,322.6l-22.7-46 M420.1,186.4l22.4,24.8 M449.9,208.7l-19.3-21.5 M283.1,440.5l10.1,11.1 M273.2,429.7l4.9,5.4 M284.3,431.1
	l-3.6-3.8 M302.2,450.8l-13-14.3 M269.6,335.5l31.3,10.2 M303.9,339.1l-30.8-10 M179.5,506.8l12-1.1 M191.9,502l-2.5,0.2
	 M172.8,376.2l17.8,35.1 M192.9,408l-13.5-26.8 M181.2,505.8l27.6-11.9 M207.2,394.1l-18-14.3 M171.6,375l34.8,27.6 M258.9,462.9
	l-4.2,0.8 M295.6,344.1L254.3,369 M329.2,323.8l-25.4,15.3 M249.6,380.1l96.7-58.2 M246.1,455.4l-0.2,0.2 M235.1,386.4l8.2,9.4
	 M252.2,466.8l2.4-1.8 M197.3,507l34.3-25.1 M289.9,427.6L245,456.2 M252.3,460.1l43.8-27.9 M208.7,478l-64.6-161.5 M132.9,308
	l70.4,175.9 M188.5,453.7l13.7,28.4 M177.6,496.7l8.6-42.2 M182,439.2L169,503 M592.1,190.1l-200.4,75.7 M396.4,271.7l194.9-73.6
	 M587.3,199.6l-46.8,78 M549.2,277l46.8-77.9 M658.1,223.4l-106.3,49.3 M552.8,280.1l107.8-49.9 M586.2,201.4l-25.1,14.5 M641,169.8
	l-38.1,22 M619.7,190.4l43.7-25.2 M611.1,195.3l1.3-0.7 M591.4,206.7l11.9-6.9 M563.6,222.7l15-8.6 M666.7,219.3l-67.4-29.1
	 M598.9,197.9l64.4,27.7 M619.7,199v-8.6 M619.7,214.3v-7.5 M619.7,241.2v-18.7 M612.4,203.7v40.9 M612.4,190.4v5.5 M627.1,210
	l-10.9,6.3 M663.4,189.1l-28.5,16.5 M643,209l20.4-11.7 M619.7,222.5l15.5-9 M203.4,400.3l-10.6,7.7 M229.3,381.4l-15,10.9
	 M242.4,371.8l-6.3,4.6 M249.6,378.4l5-3.6 M225.8,395.8l10.7-7.8 M197.3,416.7l17.8-13 M396.3,181.7l195-69 M592.1,104.8l-202,71.4
	 M170.6,374.1l11.4,6.5 M182,372.3l-6.2-3.5 M197,356.8l-7.8,10.7 M202.7,349l-0.9,1.3 M207.5,354.6l0.7-0.9 M189.2,379.7l13.5-18.5
	 M208.4,344.7l-64-87.4 M133.9,255.2l69,94 M207.3,489.5l1,1.2 M214.3,392.1l-1.9-23.6 M204.7,362.6l2.8,34.4 M232.1,373.4
	l-18.5-22.2 M229.7,381.7l1.9,2.3 M279.2,419.4l-7.1-1.8 M272.3,425.1l15.3,3.9 M289.1,289.9L268.4,323 M271.9,331l26.1-41.8
	 M256.5,312l-6.9,5.5 M287.9,287l-25.5,20.3 M265.1,314.3l17.4-13.8 M253.3,323.7l5.9-4.7 M272.1,417.6l-6.4-8.5 M244.5,393l22,29.1
	 M249.6,293.8l14.5,38 M269.3,325.2l-17.4-45.6 M242.4,277.6v103.6 M249.6,386.7V276.5 M300.1,458.2l-68.6,16.3 M212.3,486.5
	l134.1-31.9 M242.4,337l-10.9,2.6 M260,332.8l-10.4,2.5 M300.1,323.3l-25.9,6.1 M287.3,333.7l42-9.9 M249.6,342.7l23.8-5.7
	 M213.3,351.3l29.1-6.9 M355.9,309.3l13.7-54.8 M361.4,257.5l-13.1,52.8 M355.8,444.4l14.1-61.7 M361.2,388.4l-13,56.7 M389.4,192.9
	l2.8-8.9 M371.7,247.5l9.6-29.6 M381.3,194.6l-17.8,54.7 M371.9,373.6l19.4-93.1 M385.8,271.6l-22.4,107.1 M372.7,380.6l75.5-50.9
	 M301.3,428.8l62.3-42 M363.6,378.1L297,422.9 M440.4,326.3l-68.3,46 M389.4,244.1l57.8-27.8 M379.8,248.7l1.5-0.7 M300.1,287
	l62.8-30.2 M363.8,248.4l-67.1,32.2 M381.3,240l-8.5,4.1 M440.2,211.7l-50.8,24.4 M465.4,327.1l-51,25.4 M369.4,383L493,321.4
	 M442,246.8l-52.6,0.4 M487.6,246.5l-24.9,0.2 M443.3,254l46.9-0.3 M389.4,254.4l33.2-0.3 M368,254.5l13.3-0.1 M477.6,329.1
	L356.9,439.4 M355.3,450.7L495,322.9 M380.2,298.1l-24.1,10.6 M400.2,289.4l-11.9,5.2 M421.5,280.1l-13.2,5.7 M429.1,276.7l-1,0.5
	 M481.6,253.7l-38.2,16.8 M458.9,271.5l32.5-14.2 M431.3,283.6l13.4-5.8 M414.1,291.2l10.6-4.7 M386.5,303.2l19.5-8.5 M364,313.1
	l14.4-6.3 M355.1,317l0.6-0.3 M540,277.1l-133.6-9.2 M425.9,276.5l110.5,7.5 M396.8,274.5l23.2,1.6 M540,189.1L406.7,178
	 M423.8,186.7l112.6,9.4 M391.3,184l29.4,2.4 M529,195.4l-54,31.9 M541.4,188.1l-1.7,1 M546.5,196.3l2.1-1.2 M540.2,200l1.9-1.1
	 M494.3,227l35.3-20.8 M528.7,283.5l-55.5,32.7 M541.4,276.1l-1.7,1 M478.1,324.5l74.6-43.9 M530.4,213.4l10.7-13.9 M508.9,241.6
	l13.3-17.4 M512.6,227.8l-13.7,17.9 M528.7,206.8l-7.8,10.2 M551.1,213.3l4.5,7.1 M542.1,198.8l5.1,8.2 M554.1,204.5l-5.8-9.3
	 M561.2,215.8l-3.2-5.1 M506.3,312.2l24.2-18.6 M559.6,281.2l-6-1.4 M544.9,285.1l11.9,2.9 M503.5,317.6l54.4-26.2 M547.5,285.7
	l-18,8.7 M503.5,253.2l52.9-25.5 M500.1,244.2l-1,0.4 M554.2,218.1L510.9,239 M587.2,114.2l-46.7,75.5 M549.2,189.3l42.9-69.3
	 M592.1,175.7l-41.6,11.4 M658.8,157.4l-59.5,16.3 M599.3,181.2l46.4-12.7 M549.3,194.9l42.8-11.7 M595.8,260.2L560,280.9
	 M563.6,287.1l100.6-58 M667.2,154.6l-67.9-49.1 M599.3,114.4l63.3,45.8 M253.1,451v-1.1 M245.9,449.9v5.4 M190.1,505.8v1.7
	 M190.1,502v0.2 M190.1,457v31.9 M190.1,410.3v21.2 M197.3,449.5v-33.2 M197.3,484.4v-12.6 M197.3,507.5v-0.9 M253.1,389.4v-0.9
	 M245.9,399.2v4 M264.1,331.8v1.9 M271.3,333.7v-1 M273.6,428.7v-3.3 M266.4,422v6.7 M189.2,368.4v-3.7 M189.2,382.3v-3.1
	 M182,378.8v3.5 M182,364.7v12.1 M189.2,429.2V429 M189.2,452.5V450 M182,441.3v11.2 M182,430.6v8.6 M556.4,288v1.7 M556.4,278.5v2
	 M556.4,265v5.5 M556.4,223.6V251 M563.6,239v-16.3 M563.6,267.2V253 M563.6,278.8v-3.7 M563.6,289.7v-2.6"/>
</svg>
