<?xml version="1.0" encoding="utf-8"?>
<!-- Generator: Adobe Illustrator 21.1.0, SVG Export Plug-In . SVG Version: 6.00 Build 0)  -->
<svg version="1.1" id="Layer_1" xmlns="http://www.w3.org/2000/svg" xmlns:xlink="http://www.w3.org/1999/xlink" x="0px" y="0px"
	 viewBox="0 0 792 612" style="enable-background:new 0 0 792 612;" xml:space="preserve">
<style type="text/css">
	.st0{fill:none;stroke:#010101;stroke-width:2;stroke-linecap:round;stroke-linejoin:round;stroke-miterlimit:10;}
</style>
<path class="st0" d="M334.5,400.7h-0.8 M417.7,360.4h21 M334.5,360.4h74.3 M603,397.5L603,397.5h-0.5h-1.4H600h-1.4 M563.1,281.3
	v-13.9 M242.1,268.8v35.7 M598.7,397.5v5.2v5.1v5.1v5v4.9v4.9v4.6v4.5v4.4v4.1v4v3.7v3.5v3.1v2.9v2.6v2.3v2v1.7v1.3v1v0.8v0.3
	 M598.7,397.5v-5.1v-5.1v-5.1v-5v-4.9v-4.8v-4.7v-4.5v-4.3v-4.2v-3.9v-3.8v-3.4v-3.2v-2.9v-2.6v-2.3v-2v-1.7v-1.4v-1v-0.7v-0.3v-0.1
	 M358.8,284.1l-1.2,1.4l-0.8,1.4l-0.4,1.4v0.8 M358.8,284.1V278 M379.2,278l-3.1,0.3l-4.4,0.8l-4.1,1l-2.7,0.8l-2.5,1l-2,1.1
	l-1.6,1.2 M426.8,292.6v-1.4l-0.9-3.1l-0.9-1.5l-1.1-1.4l-1.4-1.4l-1.8-1.2l-2.1-1.2l-2.5-1l-2.8-0.9l-3.1-0.7l-4.4-0.8l-3-0.3
	 M387.3,343.1v-4.9 M411.2,145.4l-0.1-0.1l-0.2-0.2l-0.3-0.1l-0.3-0.1l-0.3-0.1l-0.8,0.1 M406.1,141.7l0.3-0.1l0.7,0.4l0.9,1l1.2,2
	 M412.5,147.4L412.5,147.4l-0.1-0.1l-0.3-0.1h-0.2l-0.3,0.1l-0.6,0.2 M411.1,147.5l1,1l1,0.9l1.2,1l2.2,1.6l1.2,0.8l1.2,0.9l2.5,2
	l1.1,1.2l0.8,1.4l0.4,1.4v0.4 M398.6,154.6v-0.1l0.5-1.8l1.2-1.6l2-1.4l2.5-1.1l3-0.7l3.1-0.3 M417.9,195.2l-0.1-0.8l-0.5-0.8
	l-0.8-0.8l-1.1-0.6l-1.3-0.4l-1.4-0.3l-1.5-0.1l-1.5,0.1l-1.5,0.3l-1.2,0.4l-1.1,0.6l-0.8,0.8l-0.5,0.8l-0.2,0.7 M404.3,195.2
	l0.2-0.7l0.5-0.8l0.8-0.7l1.1-0.6l1.2-0.5l1.5-0.3l1.5-0.1l1.5,0.1l1.4,0.3l1.3,0.5l1.1,0.6l0.8,0.7l0.5,0.8l0.1,0.8 M273.9,394.6h7
	 M273.9,394.9v-0.3 M273.7,394.9l0.2-0.3 M273,396l0.8-1.1 M280.9,394.9h-7 M273.9,394.9l-1,1.6 M625,298.6v-1.4 M625,298.6h-3.9
	 M273.9,396.3h7 M280.9,398.1h-7 M273.9,398.1v-1.8 M273,397.3l1-1 M273.9,398.1l-1,1.4 M625,288.6v-7.4 M625,281.2h-3.9
	 M621.1,297.2h3.9 M625,297.2v-8.7 M625,288.6h-3.9 M273,399.5h8 M273,397.3v2.2 M273,396.5h0.8 M273,396v0.5 M272.3,408.9v-2.5V404
	v-2.3v-1.9v-1.6V397v-0.7V396 M272.3,412.4v-1v-2.5 M273,401.2l1-0.3 M273,401.2v3.5 M273.9,403.7v-2.8 M273.9,400.9h7 M280.9,403.7
	h-7 M273.9,403.7l-1,1 M273,404.7h8 M282.3,406.9H273 M273,410.9h9.4 M273.9,410.5l-1,0.4 M273,406.9l1,0.3 M273,406.9v0.5v0.5v0.5
	v0.5v0.5v0.5v0.5v0.5 M273.9,407.2h8.4 M273.9,410.5V410v-0.4v-0.3v-0.4v-0.4v-0.4v-0.4v-0.4 M282.3,410.5h-8.4 M298.2,442.2v-0.6
	v-1.9v-3.1V435 M307.4,449.5v-0.3v-1v-1.7v-2.4v-2.9v-3.5V435 M621.1,255.4L621.1,255.4v0.5v0.8v1.1v1.4v1.7v2v2.3v2.5v2.7v2.9v3.1
	v3.3v3.3v3.4v3.5 M621.1,289.9v3.4v3.4v3.3v3.2v3.1v2.9v2.8v2.5v2.3v2v1.7v1.4v1.1v0.8v0.5v0.1 M613.4,245v0.2v0.5v0.9v1.2v1.5v1.8
	v2.1v2.4v2.7v2.9v3.1v3.3v3.5v3.6v3.7v3.8v3.9v4 M613.4,289.9v3.9v3.9v3.8v3.7v3.6v3.5v3.3v3.1v2.9v2.7v2.4v2.1v1.8v1.5v1.2v0.9v0.5
	v0.2 M282.3,380.7v-10.3v-9.5v-8.6 M334.5,360.4v-0.6v-0.5v-1v-1.5v-2.1v-1.3v-1.4v-1.6v-1.7v-2v-2 M431.2,344.5h7.4 M334.5,344.5
	h58.8 M166.6,289.9v-6.1v-5.9v-5.5v-4.7v-4v-2.9V259v-0.5 M166.6,321.4v-0.5V319v-2.9v-4v-4.7V302V296v-6.1 M181.1,358.2
	L181.1,358.2v-0.3v-0.6v-0.9v-1.3v-1.6v-1.9v-2.2v-2.5v-2.8v-3v-3.3v-3.6v-3.8v-4v-4.1v-4.4v-4.4v-4.6v-4.6v-4.8v-4.8v-4.8
	 M181.1,289.9v-4.9v-4.8v-4.8v-4.6v-4.6v-4.4v-4.4v-4.1v-4v-3.8V242v-3.3v-3.1v-2.8v-2.5v-2.2v-1.9v-1.6v-1.3v-0.9v-0.6v-0.3
	 M334.5,352.3h-52.2 M282.3,388.3v-1.2v-0.5v-0.5v-0.3v-0.3v-1.2v-0.8v-0.9v-1v-1 M334.5,380.7h-52.2 M282.3,393.9V393v-2v-1.6v-1.1
	 M282.3,388.3h52.2 M575.4,153.6L575.4,153.6v0.3v0.6v1v1.2v1.5v1.7v2v2v2.2v2.1v2.2v2v2v1.7v1.5v1.2v1v0.6v0.3 M282.3,412.4v-1.4
	v-1.6v-1.6v-1.6v-1 M227,174.2v-2.7V169v-2.3v-2v-1.7v-1.2v-0.8v-0.3 M227,187.7v-0.2v-0.8v-1.2v-1.7v-2v-2.3v-2.5v-2.7
	 M282.3,428.8L282.3,428.8v-0.4v-0.6v-0.9v-0.7 M318.5,369.7l-0.7-3.3l-1.8-2.9l-2.9-1.8l-3.3-0.7 M309.8,378.5l3.3-0.7l2.9-1.8
	l1.8-2.9l0.7-3.3 M301.1,369.7l0.6,3.3l1.9,2.9l2.8,1.8l3.3,0.7 M309.8,361.1l-3.3,0.7l-2.8,1.8l-1.9,2.9l-0.6,3.3 M285.3,393.9
	h-4.4 M280.9,393.9v2.8 M285.3,396.7h-4.4 M280.9,396.7v5.5 M285.3,402.3h-4.4 M280.9,402.3v2.8 M285.3,405.1h-4.4 M285.3,396.2
	v-1.7v-1.1v-0.3 M303,369.7l3.4-5.9 M313.2,363.9l3.4,5.9 M316.6,369.7l-3.4,5.9 M313.2,375.6h-6.8 M306.4,363.9h6.8 M306.4,375.6
	l-3.4-5.9 M446.4,331.6h-7.7 M438.6,378.3v-5.2v-5.1v-4.9v-4.7v-4.6v-4.3v-4.1v-3.9V338v-3.3v-3.1 M333.8,410v-1.4v-0.3
	 M331.6,408.3h2.2 M333.8,408.3v-9 M332.1,396.2h-46.8 M285.3,396.2v12 M285.3,408.3h2.3 M285.3,408.3v0.3v1.4v2.3v0.1 M446.4,389.1
	h-7.7 M438.6,378.3v5.4v5.8v6.1v6.2 M334.5,401.8v-1.9 M334.5,389.7v-5.4v-5.1v-4.6v-4.2v-3.6V364v-2.2v-1.4 M352.1,410v-1.3
	 M334.5,410v-0.7v-0.8v-0.9v-1.1v-2.5v-2.3 M352.1,401.8v2.3v2.4 M334.5,401.8h17.6 M256.7,423.6L256.7,423.6v-0.4v-0.7v-0.9v-1.1
	v-1.2V418v-1.1v-0.9v-0.7V415 M254.4,424.6v-0.2v-0.5V423v-1.1v-1.3v-1.4 M254.4,419.3v-1.4v-1.3v-1.1v-0.9v-0.5v-0.2 M250.7,424.6
	v-0.2v-0.5V423v-1.1v-1.3v-1.4v-1.4v-1.3v-1.1v-0.9v-0.5v-0.2 M249.7,419.3v-1.6v-1.4v-0.9v-0.3 M249.7,423.4v-0.3v-1v-1.3v-1.6
	 M260.4,424.8v-0.1v-0.4v-0.8v-1v-1.2v-1.4v-1.4v-1.4v-1.2v-1v-0.8v-0.4v-0.1 M258.2,423.6L258.2,423.6v-0.4v-0.7v-0.9v-1.1v-1.2
	V418v-1.1v-0.9v-0.7V415 M267.1,424.8v-0.1v-0.4v-0.8v-1v-1.2v-1.4v-1.4v-1.4v-1.2v-1v-0.8v-0.4v-0.1 M270,426.2V426v-0.5v-0.8v-1.1
	v-1.3v-1.4v-1.6v-1.5v-1.5V415v-1.1V413v-0.5v-0.2 M438.6,448.5v-3.1v-3.2v-3.3v-3.3v-3.3V429v-3.3v-3.2 M438.6,407.1h7.7
	 M287.6,435v-0.3v-0.9v-1.5v-2V428v-2.7v-2.9v-3.1 M331.6,403.6L331.6,403.6v0.4v1v1.5v2v2.3v2.7v2.8 M287.6,419.3V416v-3.2v-2.9
	v-2.5v-1.9v-1.4v-0.6 M352.1,416.9V410 M326.8,416.3v0.7 M352.1,410h-17.6 M331.6,410h2.9 M331.6,416.3h-4.8 M438.6,448.5v4.1
	 M438.6,401.8v2.9v1.6v1.4v1.2v0.9v0.8v0.9v2.3v2.7v1.5v1.5v3 M438.6,401.8h-86.5 M352.1,406.6v1.2v1 M344.6,394.8l-0.5-2.4l-1.4-2
	l-2-1.4l-2.5-0.5 M338.2,401.1l2.5-0.5l2-1.4l1.4-2l0.5-2.5 M331.9,394.8l0.5,2.5l1.4,2l2,1.4l2.4,0.5 M338.2,388.5l-2.4,0.5l-2,1.4
	l-1.4,2l-0.5,2.4 M338.2,400.4l-4.8-2.8 M343.1,397.6l-4.9,2.8 M333.4,392.1l4.8-2.8 M338.2,389.3l4.9,2.8 M343.1,392.1v5.5
	 M333.4,397.6v-5.5 M352.1,423.8v-2v-1.9v-1.6v-1.4 M326.8,423.8v-2v-1.9v-1.6v-1.4 M326.8,416.9h25.3 M612.2,352.6v0.2v0.5v0.8v1.2
	v1.5v1.8v2.1v2.4v2.6v2.9v3.1v3.3v3.5v3.6v3.7v3.8v3.9v3.9 M612.2,397.5v3.9v3.9v3.8v3.8v3.6v3.5v3.3v3.1v2.9v2.7v2.4v2v1.8v1.5v1.2
	v0.8v0.5v0.1 M569.1,476.6v5.9v5.4v4.5v2.5v2v1.3v0.7v0.1 M446.4,281.3v20.3 M569.1,280v21.5 M444,304.5h2.4 M479.2,281.3h-32.8
	 M563.1,281.3h-49.3 M573.9,267.4v39 M569.1,280l-1.8,0.7l-2,0.4l-2.1,0.1 M571.5,318.4l0.1-0.3l1.1-3.1l0.8-3.4l0.4-2.5l0.1-2.7
	 M297.3,304.5h36.4 M231.3,291.1v-23.5 M231.3,291.1l0.3,2.7l0.8,2.7l1.1,2.3l1.4,2.1l1.3,1.3l1.5,1.1l2.8,1.1l1.7,0.1 M242.1,304.5
	h20.6 M513.7,281.3l-4.2,0.9l-4.3,0.7l-4.4,0.3l-4.4,0.1l-4.4-0.1l-4.4-0.3l-4.3-0.7l-4.2-0.9 M513.7,269.4v11.8 M479.2,281.3V278
	 M333.8,304.5l6.1,2.5l6.4,1.4l4.8,0.3l5.4-0.5 M333.8,304.5V278 M262.8,304.5l6.1,2.5l6.4,1.4l4.7,0.3l6.6-0.6l6.4-1.7l4.4-1.8
	 M297.3,278v26.5 M262.8,304.5v-30 M426.9,308.6l6.4-0.5l6.4-1.7l4.4-1.8 M444,278v26.5 M438.6,488.5v4.4 M438.6,452.6v35.9
	 M459.9,467.8v25 M446.4,451.1h-7.7 M352.1,497.3v-73.4 M352.1,423.8h-25.3 M326.8,497.3v-73.4 M419.5,486.8h-52.1 M468.2,488.5
	L468.2,488.5v0.4v0.7v1v1.3v1.5v1.8v1.9v2.1v2.1v2.2v2.1v2v1.8v1.7v1.4v1.1v0.9v0.5v0.1 M323.9,515.4v-0.1v-0.5v-0.9v-1.1v-1.4v-1.7
	v-1.8v-2v-2.1v-2.2v-2.1v-2.1v-1.9v-1.8v-1.5v-1.3v-1v-0.7v-0.3v-0.1 M326.8,497.3h25.3 M352.1,506.9v2v1.8v1.5v1.3v1v0.7v0.3
	 M438.6,506.9h-86.5 M438.6,515.4L438.6,515.4v-0.2v-0.5v-1v-1.3v-1.6v-1.9v-2 M438.6,492.8h21.2 M438.6,498.9v-0.8v-0.8v-0.8v-0.8
	v-0.8v-0.7v-0.8v-0.6 M438.6,499.7v-0.8 M346.1,499.7h92.5 M346.1,498.9v0.8 M352.1,498.9h-6 M352.1,497.3v0.2v0.2v0.2v0.2v0.2v0.2
	v0.2v0.2 M446.4,467.8v-6.6v-6.8v-6.9v-7.2v-7.5v-7.3V418v-7.7v-7.8v-11.3V380v-11.3v-11.1v-11.1v-11.1v-8.7v-8.7v-8.4v-8.2
	 M446.4,301.5h122.7 M459.9,467.8h-13.5 M459.9,476.6h109.2 M569.1,301.5v10V322v10.7v10.9v10.9v9.8v9.8v10v9.9v9.9v7.8v7.7v7.5v7.2
	v7.6v7.3v7v6.8v6.8v6.9 M362,324.2l-2.7-2.6l-1.4-2l-1-2l-0.5-2V314l0.4-1.5l0.8-1.4l1.2-1.3 M423.5,325.9l-1.6,1.2l-1.8,1.2l-2.2,1
	l-1.1,0.3 M411.4,305l2.9,0.8l2.6,0.8l2.3,1l2,1.1l1.6,1.2l1.4,1.4l1,1.4l0.8,1.4l0.8,3l-0.1,3.1l-0.6,2l-1.1,1.9l-1.6,1.8
	 M358.8,284.1v25.7 M358.8,309.8l1.6-1.2l2.1-1.2 M413.6,315.4v-0.8l-0.3-2.9l-0.6-2.9l-0.9-2.9l-1.3-2.7l-1.5-2.6l-1.8-2.3
	l-2.1-2.2l-2.3-1.8l-2.5-1.6l-2.7-1.3l-2.8-1l-2.9-0.7l-3-0.3h-3l-3,0.3l-2.9,0.7l-2.8,1l-2.7,1.3l-2.5,1.6l-2.3,1.8l-2.1,2.2
	l-1.8,2.3l-1.5,2.6l-1.3,2.7l-0.9,2.9l-0.6,2.9l-0.3,2.9v0.8 M387.3,343.1l1.3-0.1l1.3-0.1l1.2-0.2l0.5-0.1 M573.9,99.8L573.9,99.8
	v0.2v0.2v0.4v0.5v0.6 M231.3,101.7v-0.6v-0.5v-0.4V100v-0.2 M295.6,249.3l-0.5,1l-1,1.2l-1.2,1.2l-1.4,1.1l-1.6,0.9l-1.8,0.8
	l-1.9,0.7l-2,0.5l-2.1,0.3l-2.1,0.2H278l-2.1-0.2l-2.1-0.3l-2-0.5l-1.9-0.7l-1.7-0.8l-1.6-0.9l-1.4-1.1l-1.2-1.2l-1-1.2l-0.5-1
	 M367.2,249.3l-0.5,1l-1,1.2l-1.2,1.2l-1.4,1.1l-1.6,0.9l-1.8,0.8l-1.8,0.7l-2,0.5l-2.1,0.3l-2.1,0.2h-2.2l-2.1-0.2l-2-0.3l-2-0.5
	l-1.9-0.7l-1.8-0.8l-1.6-0.9l-1.4-1.1l-1.2-1.2l-1-1.2l-0.5-1 M438.8,249.3l-0.5,1l-1,1.2l-1.2,1.2l-1.4,1.1l-1.6,0.9l-1.8,0.8
	l-1.9,0.7l-2,0.5l-2,0.3l-2.2,0.2h-2.1l-2.1-0.2l-2.1-0.3l-2-0.5l-1.9-0.7l-1.7-0.8l-1.6-0.9l-1.4-1.1l-1.2-1.2l-1-1.2l-0.5-1
	 M510.4,249.3l-0.5,1l-1,1.2l-1.2,1.2l-1.4,1.1l-1.6,0.9l-1.7,0.8l-1.9,0.7l-2,0.5l-2.1,0.3l-2.1,0.2h-2.1l-2.1-0.2l-2.1-0.3l-2-0.5
	l-1.9-0.7l-1.8-0.8l-1.6-0.9l-1.4-1.1l-1.2-1.2l-1-1.2l-0.5-1 M238.9,249.3v10.1 M532.1,238.9v5.5 M260.9,234.4v3.5 M504,230.8v1.9
	 M314.8,246.7l-1,0.2l-0.9,0.4l-0.6,0.8L312,249v1l0.3,0.9l0.6,0.8l0.9,0.5l1,0.1l1-0.1l0.9-0.5l0.6-0.8l0.3-0.9v-1l-0.3-0.9
	l-0.6-0.8l-0.9-0.4L314.8,246.7 M243.2,260.5l-1,0.1l-0.8,0.5l-0.7,0.8l-0.3,0.9v1l0.3,0.9l0.7,0.7l0.8,0.5l1,0.2l1-0.2l0.8-0.5
	l0.7-0.7l0.3-0.9v-1l-0.3-0.9l-0.7-0.8l-0.8-0.5L243.2,260.5 M350.6,237.9l-2.4,0.1l-2.4,0.5l-2.3,0.8l-2.1,1.1l-2,1.4l-1.7,1.6
	l-1.5,1.8l-1.2,2l-0.9,2.1l-0.6,2.3l-0.3,2.3l0.1,2.3l0.5,2.3l0.8,2.2l1,2l1.4,1.9l1.6,1.7l1.8,1.4l2,1.2l2.3,1l2.3,0.6l2.4,0.3h2.5
	l2.4-0.3l2.3-0.6l2.3-1l2-1.2l1.8-1.4l1.6-1.7l1.4-1.9l1.1-2l0.8-2.2l0.4-2.3l0.1-2.3l-0.3-2.3l-0.5-2.3l-1-2.1l-1.2-2l-1.5-1.8
	l-1.8-1.6l-2-1.4l-2.1-1.1l-2.3-0.8l-2.4-0.5L350.6,237.9 M279.1,270.7l2.4-0.1l2.4-0.5l2.3-0.8l2.2-1l2-1.4l1.7-1.6l1.5-1.8l1.2-2
	l0.9-2.1l0.6-2.2l0.3-2.3l-0.1-2.3l-0.4-2.3l-0.8-2.2l-1-2l-1.4-1.8l-1.6-1.7l-1.8-1.5l-2.1-1.2l-2.2-1l-2.3-0.6l-2.5-0.3h-2.4
	l-2.4,0.3l-2.4,0.6l-2.2,1l-2,1.2l-1.9,1.5l-1.6,1.7l-1.4,1.8l-1.1,2l-0.8,2.2l-0.4,2.3l-0.1,2.3l0.2,2.3l0.6,2.2l0.9,2.1l1.2,2
	l1.5,1.8l1.8,1.6l1.9,1.4l2.2,1l2.3,0.8l2.4,0.5L279.1,270.7 M458,246.7l-1,0.2l-0.9,0.4l-0.6,0.8l-0.3,0.9v1l0.3,0.9l0.6,0.8
	l0.9,0.5l1,0.1l1-0.1l0.9-0.5l0.6-0.8l0.3-0.9v-1l-0.3-0.9l-0.6-0.8L459,247L458,246.7 M386.3,260.5l-1,0.1l-0.9,0.5l-0.7,0.8
	l-0.3,0.9v1l0.3,0.9l0.7,0.7l0.9,0.5l1,0.2l1-0.2l0.9-0.5l0.6-0.7l0.3-0.9v-1l-0.3-0.9l-0.6-0.8l-0.9-0.5L386.3,260.5 M386.6,246.7
	l-1,0.2l-0.9,0.4l-0.6,0.8l-0.3,0.9v1l0.3,0.9l0.6,0.8l0.9,0.5l1,0.1l1-0.1l0.9-0.5l0.7-0.8l0.3-0.9v-1l-0.3-0.9l-0.7-0.8l-0.9-0.4
	L386.6,246.7 M493.8,237.9l-2.4,0.1l-2.4,0.5l-2.3,0.8l-2.2,1.1l-2,1.4l-1.7,1.6l-1.5,1.8l-1.2,2l-0.9,2.1l-0.6,2.3l-0.3,2.3
	l0.1,2.3l0.4,2.3l0.8,2.2l1,2l1.4,1.9l1.6,1.7l1.8,1.4l2.1,1.2l2.2,1l2.3,0.6l2.5,0.3h2.4l2.4-0.3l2.4-0.6l2.2-1l2-1.2l1.9-1.4
	l1.6-1.7l1.4-1.9l1.1-2l0.8-2.2l0.4-2.3l0.1-2.3l-0.2-2.3l-0.6-2.3l-0.9-2.1l-1.2-2l-1.5-1.8l-1.8-1.6l-1.9-1.4l-2.2-1.1l-2.3-0.8
	l-2.4-0.5L493.8,237.9 M422.2,270.7l2.4-0.1l2.4-0.5l2.3-0.8l2.1-1l2-1.4l1.7-1.6l1.5-1.8l1.2-2l0.9-2.1l0.6-2.2l0.3-2.3l-0.1-2.3
	l-0.5-2.3l-0.8-2.2l-1-2l-1.4-1.8l-1.6-1.7l-1.8-1.5l-2-1.2l-2.3-1l-2.3-0.6l-2.4-0.3H421l-2.4,0.3l-2.3,0.6l-2.3,1l-2,1.2l-1.8,1.5
	l-1.6,1.7l-1.4,1.8l-1.1,2l-0.8,2.2l-0.4,2.3l-0.1,2.3l0.3,2.3l0.5,2.2l0.9,2.1l1.2,2l1.5,1.8l1.8,1.6l2,1.4l2.1,1l2.3,0.8l2.4,0.5
	L422.2,270.7 M529.7,246.7l-1,0.2l-0.8,0.4l-0.7,0.8l-0.3,0.9v1l0.3,0.9l0.7,0.8l0.8,0.5l1,0.1l1-0.1l0.8-0.5l0.7-0.8l0.3-0.9v-1
	l-0.3-0.9l-0.7-0.8l-0.8-0.4L529.7,246.7 M238.9,259.4l-0.9,1.2l-0.6,1.3l-0.2,1.4l0.2,1.4l0.6,1.3l0.9,1.2l1.2,0.9l1.4,0.6
	 M241.5,268.7l30.5,8.3 M272.1,277l0.8,0.2l0.9,0.2l0.9,0.1l0.9,0.1l0.9,0.1l0.9,0.1h0.9l0.9,0.1 M279.1,278h214.7 M493.8,278
	l2.3-0.1l2.1-0.3l2.2-0.4l2.1-0.6l2-0.8l2-1l1.8-1.1l1.7-1.3 M510,272.4l23.6-18.6 M533.5,253.8l1-1l0.8-1.3l0.3-1.4v-1.4l-0.4-1.4
	l-0.8-1.2l-1.1-1l-1.3-0.8 M532.1,244.4L504,232.7 M504,232.7l-1.2-0.5l-1.2-0.4l-1.3-0.3l-1.2-0.3l-1.3-0.3l-1.3-0.1l-1.3-0.1h-1.4
	 M279.1,230.6l-2.5,0.1l-2.5,0.3l-2.5,0.6l-2.3,0.8l-2.3,1l-2.1,1.2l-2,1.4l-1.8,1.6 M260.9,237.9l-22.1,21.5 M279.1,229.3v1.3
	 M493.8,230.6H279.1 M493.8,229.3v1.3 M573.9,225.2v42.2 M231.3,225.2v42.2 M237.2,252L237.2,252l0.1-0.8l0.3-0.7l0.5-0.6l0.7-0.6
	 M238.9,249.3l22.1-14.9 M260.9,234.4l2.1-1.3l2.4-1.1l2.5-1l2.7-0.8l2.8-0.5l2.8-0.3l2.9-0.1 M279.1,229.3h214.7 M493.8,229.3
	l2.7,0.1l2.6,0.3l2.5,0.5l2.4,0.6 M504,230.8l28.1,8.1 M532.1,238.9l1,0.3l0.9,0.4l0.7,0.6l0.5,0.6l0.3,0.7l0.1,0.7l0.1,0.2
	 M573.9,267.4h-57.6 M231.3,267.4h7.9 M412.3,325.1l0.6-2.2l0.5-2.9l0.2-3l-0.1-3l-0.5-2.9l-0.8-2.9l-1.2-2.8l-1.4-2.6l-1.8-2.5
	l-2-2.2l-2.3-2l-2.5-1.7l-2.7-1.4l-2.9-1.1l-2.9-0.8l-3-0.4l-3-0.1l-3,0.3l-3,0.7l-2.9,1l-2.7,1.2l-2.6,1.6l-2.3,1.9l-2.2,2.1
	l-1.8,2.3l-1.6,2.6l-1.3,2.7l-1,2.9l-0.6,2.9l-0.3,3l0.1,3l0.4,2.9l0.8,2.9l1.1,2.8l1.4,2.7l1.7,2.5l2,2.3l2.2,2l2.5,1.8l2.7,1.5
	l2.7,1.2l2.9,0.9l3,0.5l3,0.2 M374.8,324.6l2.5,3.5l3.4,2.7 M391,305.6l3.2,1.3l2.8,2.1l2.1,2.7l1.4,3.2 M387.3,305l3.3,0.4
	 M387.3,305l-3.1,0.3l-2.9,1l-2.6,1.6l-2.2,2.1l-1.6,2.6l-1,2.9l-0.4,3l0.3,3 M405.6,318.2l0.6,0.6 M400.5,314.9l1.7,0.8l1.7,1.1
	l1.6,1.4 M391,305.6l9.5,9.4 M390.9,305.1l0.1,0.5 M372.4,322.7l2.3,1.8 M380.6,330.7l-5.9-6.1 M380.6,330.7l3.1,3.9 M432.1,345.5
	L432.1,345.5 M432.1,345.5l-0.2,0.3l-0.5,0.7l-0.9,1l-1.2,1.3l-1.4,1.5l-1.6,1.6l-1.8,1.8l-1.8,1.8l-1.9,1.8l-1.8,1.7l-1.7,1.5
	l-1.5,1.4l-1.2,1l-1,0.8l-0.6,0.5l-0.3,0.1 M373.8,321.6l-1.4,1.2 M372.4,322.7l1.2-0.8l1.9-1.6l2.5-2.3l2.9-2.8l3.1-2.9l2.8-2.9
	l2.4-2.5l1.6-1.8 M390.5,305.4l0.3-0.3 M389.8,306.2l0.8-0.8 M373.8,321.6l1.3-1l1.8-1.6l2.2-2l2.5-2.3l2.5-2.5l2.3-2.3l2-2l1.4-1.6
	 M573.9,201.9v23.4 M231.3,201.9v23.4 M573.9,225.2H231.3 M573.9,101.7v94.6 M231.3,101.7v94.6 M573.9,101.7H231.3 M573.9,196.3v0.7
	v0.7v0.8v0.8v0.8v0.8v0.6v0.5 M231.3,201.9v-0.5v-0.6v-0.8v-0.8v-0.8v-0.8V197v-0.7 M231.3,196.3h60.2 M573.9,201.9H231.3
	 M485,196.3h89 M409.3,144.9l1.7,2.5 M405.9,141.7L405.9,141.7h0.2 M486.5,192.1v0.5l-0.1,0.5l-0.1,0.6l-0.2,0.5l-0.2,0.5l-0.3,0.5
	l-0.3,0.5l-0.3,0.5 M486.5,175.6v16.5 M477.2,199.8l2.3-0.3l2.2-0.7l1.8-1.1l1.5-1.4 M291.5,196.3l-1-0.8l-0.9-1l-0.8-1l-0.6-1.1
	l-0.5-1.1l-0.3-1.2l-0.2-1.2l-0.1-1.2 M291.5,196.3l2.2,1.5l2.5,1l2.7,0.7l2.8,0.3 M287.2,187.8v-16.5 M424,162.3l4.2-0.5l3.8-1.6
	l3-2.5l1.8-3.1 M423.6,162.3h0.4 M477.2,183.2l1.8-0.1l1.7-0.4l1.6-0.8l1.4-1l1.2-1.2l0.8-1.3l0.5-1.4l0.2-1.5 M486.5,158.7v16.9
	 M480.8,151.4l0.8,2.1l1.3,1.9l1.6,1.8l2,1.5 M476.1,135.2l4.7,16.2 M444.1,135.2h32 M436.8,154.6l7.3-19.4 M405.5,141.2l0.3,0.6
	 M369.9,141.2h35.6 M365.5,154.5l4.4-13.3 M351.5,163.3l2.4-0.1l2.3-0.5l2.2-0.8l2-1.1l1.8-1.3l1.5-1.5l1.2-1.7l0.8-1.8
	 M337.4,154.3l0.8,1.9l1.1,1.7l1.5,1.5l1.8,1.4l2,1l2.2,0.8l2.3,0.5l2.4,0.1 M331.3,135.2l6.1,19.1 M298,135.2h33.3 M292.6,153.1
	l5.5-18 M287.2,159.2l1.8-1.2l1.6-1.4l1.2-1.6l0.8-1.8 M287.2,171.2v-12 M287.2,171.2l0.3,2.4l0.8,2.2l1.3,2.1l1.8,1.8l2.2,1.5
	l2.5,1.1l2.7,0.7l2.8,0.2 M413.7,199.8h63.5 M301.6,199.8h106.5 M477.2,199.8v-16.6 M477.2,183.2h-57.1 M402,183.2H301.6
	 M301.6,183.2v16.6 M423.5,160.2v0.1 M411,147.5l0.1,0.1 M422.1,182.5l-2,0.5 M400,182.5l-0.8-1.1l-0.5-1.1l-0.1-1.2l0.1-1.2
	l0.5-1.2l0.8-1.1l1.1-1l1.4-0.9l1.6-0.7l1.8-0.5l2-0.4l2-0.2h2l2,0.2l1.9,0.4l1.8,0.5l1.6,0.7l1.4,0.9l1.2,1l0.8,1.1l0.5,1.2
	l0.2,1.2l-0.2,1.2l-0.5,1.1l-0.8,1.1 M402,183l-2-0.5 M420.1,180.1l-0.1-1l-0.5-1l-0.8-0.9l-1.2-0.8l-1.4-0.6l-1.6-0.5l-1.6-0.3
	l-1.8-0.1 M411.1,175l-1.8,0.1l-1.7,0.3l-1.6,0.5l-1.4,0.6l-1.1,0.8l-0.9,0.9l-0.5,1l-0.2,1 M417.4,186.9L417.4,186.9l1.2-0.8
	l0.8-0.9l0.5-1l0.1-1l-0.1-1l-0.5-1l-0.8-0.9l-1.2-0.8l-1.4-0.6l-1.6-0.5l-1.6-0.3l-1.8-0.1 M411.1,178.1l-1.8,0.1l-1.7,0.3L406,179
	l-1.4,0.6l-1.1,0.8l-0.9,0.9l-0.5,1l-0.2,1l0.2,1l0.5,1l0.9,0.9l1.1,0.8h0.1 M415.8,197.1l-0.1,0.8l-0.8,0.9l-0.7,0.4l-0.9,0.3
	l-1,0.2l-1.2,0.1l-1.2-0.1l-1.1-0.2l-0.8-0.3l-0.7-0.4l-0.8-0.9l-0.2-0.8 M417.3,183.6l-0.1-0.3l-0.3-0.8l-0.7-0.8l-1-0.6l-1.2-0.5
	l-1.4-0.3l-1.4-0.1 M411.1,180.2l-1.5,0.1l-1.4,0.3l-1.2,0.5l-1,0.6l-0.7,0.8l-0.4,0.8v0.3 M404.3,195.2v0.2 M417.9,195.4v-0.1
	 M406.4,197.1l0.2-0.8l0.8-0.8l0.7-0.4l0.8-0.3l1.1-0.3l1.2-0.1l1.2,0.1l1,0.3l0.9,0.3l0.7,0.4l0.8,0.8l0.1,0.8 M417.9,195.4v0.3
	l-0.1,0.3l-0.2,0.3l-0.3,0.3l-0.3,0.2l-0.4,0.1l-0.4,0.1h-0.4 M417.9,195.3v0.1 M404.3,195.4v-0.2 M406.4,197.1H406l-0.4-0.1
	l-0.3-0.1l-0.3-0.2l-0.3-0.3l-0.2-0.3l-0.1-0.3l-0.1-0.3 M273,396h-0.7 M298.2,442.2l9.2,2.7 M307.4,449.5h19.4 M613.4,245h-39.5
	 M604.7,334.8h8.7 M621.1,255.4l-7.7-10.4 M613.4,334.8l7.7-10.4 M166.6,321.4l14.6,36.8 M181.1,221.6l-14.6,36.8 M231.3,221.6
	h-50.1 M181.1,358.2h101.2 M573.9,180.7h1.4 M575.4,153.6h-1.4 M231.3,160.6H227 M227,187.7h4.3 M282.3,428.8h5.3 M332.2,393.1
	h-46.9 M256.7,423.6h1.5 M258.2,415h-1.5 M256.7,415l-2.3-1.1 M254.4,424.6l2.3-1 M250.7,424.6h3.7 M254.4,413.9h-3.7 M249.7,423.4
	l1,1.2 M250.7,413.9l-1,1.2 M260.4,424.8h6.8 M267.1,413.7h-6.8 M258.2,423.6l2.2,1.2 M260.4,413.7l-2.2,1.3 M614.3,397.5l-0.1-5.6
	l-0.1-5.6l-0.2-5.6l-0.2-5.6l-0.3-5.6l-0.3-5.6l-0.4-5.6l-0.5-5.6 M612.2,442.3l0.5-5.6l0.4-5.5l0.3-5.6l0.3-5.6l0.2-5.6l0.2-5.7
	l0.1-5.6l0.1-5.6 M267.1,424.8l2.9,1.4 M270,412.4l-2.9,1.4 M270,426.2h17.6 M287.6,412.4H270 M287.6,435h39.1 M331.6,403.5h-43.9
	 M612.2,352.6l-9.3-22.1 M603,464.4l9.3-22.1 M468.2,499.1h39.6h61.4 M603,466.2V466v-0.5v-0.9v-1.2v-1.6V460v-2.2v-2.5v-2.8v-3.1
	V446v-3.6v-3.8v-4v-4.2V426v-4.5v-4.7v-4.7v-4.9v-4.9v-4.9 M598.7,474.5l1.4-0.5l1.1-1l1.4-2.7l0.4-2l0.1-2.1 M603,397.5v-4.9v-4.9
	v-4.9v-4.7v-4.6v-4.6v-4.4v-4.2v-4v-3.8v-3.6v-3.3v-3.1v-2.8v-2.5V335v-1.8v-1.6v-1.2v-0.9v-0.5v-0.1 M603,328.8l-0.1-2.1l-0.4-2
	l-1.4-2.7l-1.1-1.1l-1.4-0.5 M598.7,320.4l-29.6-2.2 M569.1,476.7l29.6-2.2 M352.1,507.9H399h13.6h9.4h16.6 M438.6,486.8h-19.1
	 M367.4,486.8h-15.2 M468.2,488.5h-8.3 M326.8,488.5h-2.9 M323.9,515.4h28.3 M438.6,515.4h29.5 M356.4,278v11.2 M356.4,289.2v25.6
	 M426.9,292.6V278 M426.9,318.2v-25.6 M374.9,292.3l-0.4,0.2 M400,292.5l-0.3-0.1 M237.2,252v11.3 M360.9,315.4v1.5 M413.6,316.9
	v-1.5 M573.9,99.8H231.3 M535.7,249.5v-7 M383.7,334.6l29,29.8 M432.1,345.5l-26-26.7 M411.3,145.5l-1-1.6l-0.7-1l-0.5-0.5l-0.5-0.4
	l-0.7-0.3l-1-0.1l-1,0.3 M412.5,147.4l-1.3-2 M406.1,141.6l-0.1,0.1l-1.2,0.8l-1.1,0.8l-1.4,1.5l-1.6,2.3l-1.4,3.3l-0.4,2l-0.1,2.2
	 M423.5,160.2l0.1-0.2l-0.3-1.3l-0.5-1.1l-0.5-1l-1-1.3l-1-1l-0.6-0.5l-0.7-0.5l-1.1-1l-1.2-0.9l-1.4-1.1l-1.4-1.4l-1.4-1.6
	 M423.6,179.1v-18.7 M398.6,154.6v24.5 M420.1,183.2v-3.1 M402,180.1v3.1 M404.3,195.7l0.1,1l0.5,0.9l1.4,1.4l1.8,0.8l2.1,0.4h2.1
	l2.4-0.7l1.2-0.6l1-0.9l0.7-1.1l0.3-1.2 M405,183.6l-0.7,11.6 M417.9,195.2l-0.6-11.6"/>
</svg>
