<?xml version="1.0" encoding="utf-8"?>
<!-- Generator: Adobe Illustrator 21.1.0, SVG Export Plug-In . SVG Version: 6.00 Build 0)  -->
<svg version="1.1" id="Layer_1" xmlns="http://www.w3.org/2000/svg" xmlns:xlink="http://www.w3.org/1999/xlink" x="0px" y="0px"
	 viewBox="0 0 792 612" style="enable-background:new 0 0 792 612;" xml:space="preserve">
<style type="text/css">
	.st0{fill:none;stroke:#010101;stroke-width:2;stroke-linecap:round;stroke-linejoin:round;stroke-miterlimit:10;}
</style>
<path class="st0" d="M420.8,47L420.8,47v0.2v0.2v0.3v0.7v0.7v0.9v0.9v1v1v1.2v1v1v1V58v0.9v0.7v0.7v0.3v0.3 M371.3,47v0.2v0.2v0.3
	v0.7v0.7v0.9v0.9v1v1v1.2v1v1v1V58v0.9v0.7v0.7v0.3v0.3 M332.9,76.6l0.2-0.2h0.3h0.3l0.5,0.2l0.7,0.2h0.9l1,0.2l0.9,0.3l1,0.2l1,0.3
	l1.2,0.2l0.9,0.3l1,0.3l0.9,0.2l0.9,0.3l0.7,0.2l0.5,0.3l0.3,0.2l0.2,0.2h0.2 M445.7,80L445.7,80l0.3-0.2l0.3-0.2l0.5-0.3l0.7-0.2
	l0.7-0.3l1-0.2l0.9-0.3l1-0.3l1-0.2l1-0.3l1-0.2l1-0.3l1-0.2h0.7l0.7-0.2l0.7-0.2h0.3h0.3v0.2 M240.1,436h-0.3h-0.3h-0.3 M552.1,436
	h0.2h0.5h0.2h0.2 M251.6,450.8l-0.2-0.2h-0.2l-0.5-0.2h-0.5h-0.7h-0.9h-0.9l-1,0.2h-1l-1.2,0.2h-1l-1,0.2l-1,0.2h-0.9l-0.9,0.2
	l-0.7,0.2l-0.7,0.2H238l-0.3,0.2v0.2 M540.6,450.8l0.2-0.2h0.2l0.5-0.2h0.5h0.7h0.9h0.9l1,0.2h1l1.2,0.2 M547.6,450.8h1l1,0.2l1,0.2
	h0.9l0.9,0.2l0.7,0.2l0.5,0.2h0.5l0.2,0.2l0.2,0.2 M268.8,421.4v0.2l0.2,0.2l0.3,0.2l0.5,0.2l0.7,0.2l0.7,0.2l0.9,0.2l1,0.2l0.3,0.2
	 M523.4,421.4v0.2l-0.2,0.2l-0.3,0.2l-0.5,0.2l-0.7,0.2l-0.7,0.2l-0.9,0.2l-1,0.2l-0.3,0.2 M283.6,297.6v0.2l0.2,0.2l0.3,0.2
	l0.5,0.2l0.5,0.2l0.9,0.2l0.9,0.2l0.9,0.2l1,0.2l1.2,0.2l1,0.2h1l1,0.2h1h0.9h0.3 M330.2,256.6L330.2,256.6v0.2v0.3v0.5v0.5v0.9v0.9
	v0.9v1v1.2v1v1v1v1v0.9v0.9v0.7v0.5v0.3v0.2 M508.6,297.6v0.2l-0.2,0.2l-0.3,0.2l-0.5,0.2l-0.7,0.2l-0.7,0.2l-0.9,0.2l-1,0.2l-1,0.2
	l-1,0.2l-1,0.2h-1l-1,0.2h-1h-0.9h-0.3 M462,256.6L462,256.6v0.2v0.3v0.5v0.5v0.9v0.9v0.9v1v1.2v1v1v1v1v0.9v0.9v0.7v0.5v0.3v0.2
	 M516,456.3l0.2-0.3l-0.2-0.3l-0.2-0.5l-0.3-0.5l-0.3-0.7l-0.7-0.5l-0.7-0.7l-0.7-0.7l-1-0.7l-0.9-0.5l-0.9-0.5l-1-0.5l-0.9-0.3
	l-0.9-0.3l-0.9-0.3h-0.9l-0.5-0.2l-0.5,0.2l-0.5,0.2l-0.2,0.2 M276.2,456.3L276,456v-0.3l0.2-0.5l0.3-0.5l0.5-0.7l0.7-0.5l0.7-0.7
	l0.7-0.7l0.9-0.7l1-0.5l0.9-0.5l1-0.5l0.9-0.3l0.9-0.3l0.9-0.3h0.7l0.7-0.2l0.5,0.2l0.3,0.2l0.3,0.2 M296,504.3v11 M306.1,509.6v5.7
	 M306.1,524.9v1.5 M306.1,515.9v2.4 M296,530.7v4.1 M296,515.9v0.3 M486.1,515.3v-5.7 M496.1,515.3v-11 M496.1,516.3v-0.3
	 M496.1,534.9v-4.1 M486.1,518.4v-2.4 M483.5,482.4v-0.7 M493.7,482.3v-1.2 M308.5,482.4v-0.7 M298.5,482.3v-1.2 M333.3,531.4v-8.6
	 M458.8,522.8v8.6 M547.5,551.7v0.2v0.2v0.5v0.5v0.7v0.9v1v1v1v1.2v1.2v1v1.2v1v0.9v0.9v0.7v0.7v0.3v0.3 M244.7,551.7v0.2v0.2v0.5
	v0.5v0.7v0.9v1v1v1v1.2v1.2v1v1.2v1v0.9v0.9v0.7v0.7v0.3v0.3 M479.4,536.4L479.4,536.4v-0.2v-0.3v-0.5v-0.7v-0.9V533v-1v-1v-1.2v-1
	 M479.4,528.7v-1.2v-1.2v-1v-1v-0.9v-0.7V522v-0.2 M312.8,536.4L312.8,536.4v-0.2v-0.3v-0.5v-0.7v-0.9V533v-1v-1v-1.2v-1
	 M312.8,528.7v-1.2v-1.2v-1v-1v-0.9v-0.7V522v-0.2 M297,361.4v0.2v0.2v0.5v0.5v0.9v0.9v0.9v1v1v1v1v1v0.9v0.7v0.7v0.5v0.3v0.2
	 M495,361.4v0.2v0.2v0.5v0.5v0.9v0.9v0.9v1v1v1v1v1v0.9v0.7v0.7v0.5v0.3v0.2 M319,547.1L319,547.1v-0.3v-0.3v-0.7V545v-0.9v-0.9v-1
	v-1v-1v-1v-1v-0.9v-0.9v-0.5v-0.5V535v-0.2v-0.2 M473.2,547.1L473.2,547.1v-0.3v-0.3v-0.7V545v-0.9v-0.9v-1v-1v-1v-1v-1v-0.9v-0.9
	v-0.5v-0.5V535v-0.2v-0.2 M248.2,552.9l-0.7-0.5L247,552l-0.3-0.2l-0.2-0.2 M545.7,551.9h-0.2l-0.7,0.3l-0.7,0.5l-0.2,0.2
	 M299.6,529v-0.2h-0.2v-0.2v-0.2h0.2l0.2-0.2l0.3-0.2l0.3-0.2l0.5-0.2l0.5-0.2l0.7-0.3l0.7-0.2l0.9-0.2l0.9-0.2l0.9-0.2l0.9-0.2
	l1-0.3 M307.3,526.1v-0.5 M493.5,528.5v0.2h-0.2 M488.5,525.9h0.3l0.7,0.3l0.7,0.2l0.5,0.2l0.5,0.2l0.5,0.3 M272.2,530l-0.3,1.2
	l-0.3,1.2l-0.3,1.4l-0.3,1.4l-0.2,1.5 M270.7,536.7l-0.7,0.5 M522.2,537.3l-0.2-1.7l-0.2-1.5l-0.2-1.5l-0.2-1.4l-0.3-1.2
	 M283.1,436.7v0.2l-0.2,0.2l-0.5,0.3l-0.5,0.2l-0.7,0.2l-0.7,0.2h-0.9l-1,0.2l-1-0.2h-1l-1-0.3l-1.4-0.5l-0.9-0.9l-0.5-1l-0.2-1
	l-0.2-1l-0.2-1.7l0.2-1.9l0.5-3.6l0.5-2.9 M273.5,422.9l0.2-1.2 M295.6,319.3l-0.2,1.4v1.4 M295.5,319.5L295.5,319.5l0.2-0.2
	 M518.6,421.7l0.2,1.2 M518.7,422.9l0.9,5l0.2,2.8v2.6l-0.3,1.7l-0.7,1.2l-0.9,0.9l-1.5,0.7l-0.9,0.2h-1l-1,0.2l-0.9-0.2h-1
	l-0.7-0.2l-0.7-0.2l-0.5-0.2l-0.3-0.3l-0.2-0.3 M496.7,322l-0.2-1.4v-1.4 M496.6,319.3l0.2,0.2 M280.3,541.9v-0.7l-0.3-0.9l-0.5-0.7
	L279,539l-0.7-0.7l-0.7-0.5l-0.7-0.5l-0.9-0.5l-0.9-0.3l-0.9-0.2l-0.9-0.2h-0.9l-0.9,0.2l-0.7,0.3l-0.3,0.2 M310.4,457.8l0.3,0.5
	l0.3,0.5l0.2,0.2l0.2,0.2 M511.2,541.6L511.2,541.6 M522.2,537.3l-0.5-0.3l-0.5-0.3l-0.9-0.3h-0.7l-0.9-0.2l-0.9,0.2l-1,0.2
	l-0.9,0.3l-0.9,0.3l-0.7,0.5l-0.7,0.7l-0.7,0.7l-0.5,0.7l-0.5,0.7l-0.3,0.9l-0.2,0.5 M495.2,454.9l1,0.5l1,0.5l1,0.2l1,0.2h0.3
	 M294.9,516.3h0.5h0.5h0.5h0.7h0.7l0.7,0.2h0.7l0.7,0.2h0.7l0.7,0.2l0.7,0.2l0.7,0.2l0.7,0.2l0.5,0.2l0.7,0.2l0.5,0.3l0.5,0.2
	l0.5,0.2l0.5,0.2l0.3,0.3l0.3,0.2 M294.9,515.8L294.9,515.8v0.3v0.2 M307.3,520.9L307.3,520.9v-0.2v-0.2v-0.3v-0.2v-0.3v-0.3V519
	 M484.9,519l0.3-0.2l0.3-0.3l0.5-0.2l0.5-0.2l0.5-0.2l0.5-0.3l0.5-0.2l0.7-0.2l0.7-0.2l0.7-0.2l0.7-0.2l0.7-0.2h0.7l0.7-0.2h0.7
	l0.7-0.2h0.7h0.5h0.7h0.5h0.5 M484.9,520.9v-0.2v-0.2v-0.2v-0.3v-0.3v-0.3V519 M485.2,521.1l-0.3-0.2 M497.3,516.3v-0.2v-0.3
	 M484.9,519L484.9,519 M484.9,512.3h-0.2 M296,534.9h1.4 M307.3,514.7v4.3 M301.6,503.6H296 M296,503.6l-0.2,0.2h-0.2l-0.2,0.2h-0.2
	l-0.2,0.2l-0.2,0.2v0.3v0.2 M294.9,504.8v10 M296,515.9h10.1 M306.1,515.9h0.2l0.3-0.2h0.2l0.2-0.2l0.2-0.2v-0.2l0.2-0.2v-0.3
	 M307.3,514.7v-3.6 M296,504.3L296,504.3h-0.2l-0.2,0.2v0.2h-0.2v0.2 M302.2,504.3H296 M306.6,514.7v-4.5 M306.1,515.3h0.2h0.2v-0.2
	h0.2v-0.2v-0.2 M296,515.3h10.1 M295.5,514.7v0.2h0.2v0.2l0.2,0.2h0.2 M295.5,504.8v10 M296,534.9L296,534.9l-0.3-0.2l-0.3-0.3
	l-0.2-0.3l-0.2-0.7 M294.9,514.7v0.3v0.2l0.2,0.2l0.2,0.2l0.2,0.2h0.2l0.2,0.2h0.2 M294.9,531.8v1.5 M294.9,514.7v1 M252.8,457.3
	h-0.2h-0.5 M333.6,414.5l0.2,1l0.3,1.2l0.2,1l0.3,1l0.2,0.9l0.2,0.9v0.7l0.2,0.7v0.3v0.2l-0.2,0.2 M319,418.3l0.9-0.2l1.7-0.5
	l1.9-0.5l1.9-0.5l2.1-0.5l2.1-0.5l2.1-0.5l2.1-0.5 M265.5,460.3l1.9-0.7l0.7-0.3 M295.1,277.5l-0.2-0.9l0.2-1.2l0.3-1.2l0.7-1
	l0.7-0.9l0.9-0.7l0.7-0.3l0.7-0.2l1.2-0.2h1.2l1,0.3l1,0.3l1.4,0.9l0.7,0.7l0.7,0.5l0.7,1.4l0.3,1.4v0.3 M307.7,361.4l-0.3,0.2h-1
	 M306.3,361.6h-0.9l-0.5-0.2 M309.7,481.1v-1 M309.9,483.1L309.9,483.1v0.3 M309.5,480L309.5,480h0.2 M298,480h-0.3h-0.2h0.2H298
	 M303.7,484.3l-1-0.2l-1-0.3l-1-0.3l-0.9-0.7l-0.7-0.9l-0.7-0.9l-0.3-1 M305.3,484.1h-0.5h-0.5l-0.5,0.2 M309.5,480l-0.5,1l-0.7,1
	l-0.9,0.9l-1,0.7l-1.2,0.5 M309.7,480L309.7,480h-0.2 M310.2,486.2l-0.3-0.7l-0.2-0.3 M309.7,485l0.2,0.3 M305.3,484.1h0.9l1,0.2
	l0.9,0.3l1,0.7l0.7,0.7 M299.6,492.4l-0.3-1.2v-1v-1l0.3-1l0.3-0.9l0.7-0.9l0.7-0.9l0.9-0.5l0.9-0.5l0.7-0.2 M299.6,492.4
	L299.6,492.4 M301,373.8L301,373.8l0.3-0.3l0.3-0.3l0.5-0.5l0.5-0.7l0.7-0.7l0.7-0.9l0.7-0.9l0.9-0.9l0.7-1 M306.3,367.6l1,0.9
	l0.9,0.9l1,0.9l0.9,0.7l0.7,0.7l0.7,0.7l0.7,0.5l0.5,0.3l0.3,0.3l0.2,0.3h0.2 M328.3,540.9l-0.9-0.7l-1-0.9l-0.9-0.9l-0.9-0.7
	l-0.9-0.7l-0.7-0.7l-0.5-0.5l-0.5-0.5l-0.3-0.2l-0.3-0.3h-0.2v-0.2 M333.8,534.7v0.2h-0.2l-0.2,0.3l-0.3,0.3l-0.5,0.5l-0.5,0.7
	l-0.7,0.7l-0.7,0.9l-0.7,0.9l-0.9,0.9l-0.9,0.9 M484.9,514.7v-3.6 M497.3,504.8v10 M496.1,503.6l0.3,0.2h0.2l0.2,0.2h0.2l0.2,0.2
	v0.2l0.2,0.3v0.2 M490.6,503.6h5.5 M496.1,504.3h0.2h0.2l0.2,0.2v0.2v0.2 M496.6,504.8v10 M496.6,514.7v0.2v0.2l-0.2,0.2h-0.2h-0.2
	 M496.1,515.3h-10 M486.1,515.3h-0.2h-0.2l-0.2-0.2v-0.2v-0.2 M485.6,514.7v-4.5 M490,504.3h6 M496.1,515.9h-10 M496.1,534.9h-1.2
	 M497.3,533.3l-0.2,0.7l-0.3,0.3l-0.3,0.3l-0.3,0.2 M497.3,515.8v-1 M497.3,533.3v-1.5 M497.3,514.7v0.3l-0.2,0.2v0.2l-0.2,0.2
	l-0.2,0.2h-0.2l-0.2,0.2h-0.3 M486.1,515.9h-0.3l-0.2-0.2h-0.2l-0.2-0.2l-0.2-0.2l-0.2-0.2v-0.2v-0.3 M484.9,519v-4.3 M485.7,361.6
	h-0.9l-0.3-0.2 M487.1,361.4l-0.3,0.2h-1 M484.7,276.8l0.2-0.5l0.2-0.9l0.7-1.4l1-1.2l1.4-1l1.5-0.5l1.9-0.3h1l1,0.3l1,0.5l0.9,0.7
	l0.7,0.9l0.3,0.9l0.3,0.9l0.2,1.2v1.2 M524.3,459l0.2,0.2l0.9,0.5l1.5,0.5 M462.2,414.5l1.9,0.5l2.1,0.5l2.1,0.5l1.9,0.5l1.9,0.5
	l1.2,0.3 M460.6,422.6L460.6,422.6l-0.2-0.2v-0.3l0.2-0.3v-0.7l0.2-0.7l0.2-0.9l0.2-0.9l0.2-1l0.3-1l0.2-1l0.3-1 M540.1,457.3h-0.5
	h-0.2 M310.8,451.3l-0.2,0.2 M501.6,443.4L501.6,443.4l-0.7,0.2l-0.7,0.3l-0.7,0.3l-0.9,0.5l-0.7,0.5l-0.9,0.7l-0.9,0.7l-0.7,0.7
	l-0.3,0.3 M279.8,329.4l-0.2-0.2l-0.3-0.9l-0.5-0.9l-0.3-1.4v-1l0.2-1l0.9-1.2l1-1l0.2-0.3 M511.4,321.5l0.5,0.5l1.2,1.4l0.5,1
	l0.2,1l-0.2,0.9l-0.2,0.9l-0.3,0.9l-0.3,0.9l-0.3,0.5 M536.8,442.5l0.2-0.3l0.5-0.9 M538.3,438.6l0.2,0.5v0.3 M537.5,441.3l0.3-0.9
	l0.3-1l0.2-0.9 M543,558.2l-0.5-0.7l-0.3-0.7l-0.5-0.5l-0.5-0.7l-0.5-0.5l-0.5-0.5l-0.5-0.5l-0.5-0.5l-0.7-0.5l-0.5-0.3l-0.5-0.3
	l-0.5-0.2 M544,554.6v1.2l-0.5,1.5l-0.5,0.9 M249.2,558.2l-0.7-1.4l-0.3-1.5v-0.7 M255.4,552.2l-0.5,0.2l-0.5,0.3l-0.7,0.3l-0.5,0.5
	l-0.5,0.5l-0.5,0.5l-0.5,0.5l-0.5,0.5l-0.5,0.7l-0.5,0.5l-0.3,0.7l-0.5,0.7 M254.7,441.3l0.5,0.9l0.2,0.3 M253.9,438.6l0.2,0.9
	l0.2,1l0.5,0.9 M253.7,439.5v-0.3l0.2-0.5 M538.2,436.5l0.2,0.9 M538.3,437.4l-0.3-0.7l-0.2-0.5l-0.3-0.5l-0.5-0.5l-0.3-0.5
	l-0.5-0.5l-0.5-0.3l-0.7-0.3l-0.5-0.3l-0.5-0.3l-0.7-0.3l-0.7-0.2l-0.5-0.2h-0.7h-0.5h-0.2 M253.9,437.4l0.2-0.9 M261.4,432.1
	L261.4,432.1h-0.7h-0.5l-0.7,0.2l-0.5,0.2l-0.7,0.3l-0.5,0.3l-0.7,0.3l-0.5,0.3l-0.5,0.3l-0.5,0.5l-0.3,0.5l-0.5,0.5l-0.3,0.5
	l-0.3,0.5l-0.2,0.7 M246.3,444.4l-1.4-0.2l-1.4-0.5l-1.4-0.9l-0.9-0.9l-0.5-0.9l-0.5-0.9l-0.3-1l-0.2-1.4l0.2-1.2l0.2-0.7
	 M240.1,436l0.3-0.5l0.3-0.7l0.7-0.9l0.7-0.7l1-0.5l1-0.5l0.9-0.2h1 M552.1,436l0.2,1l0.2,1l-0.2,0.9l-0.2,1l-0.5,1l-0.7,1l-0.7,0.7
	l-0.9,0.7l-1.5,0.7l-1.5,0.3h-0.3 M545.9,432.1h0.2l1.5,0.2l1,0.3l1,0.5l0.9,0.7l0.7,0.9l0.7,1.2l0.2,0.2 M254.7,441.3l0.2,0.2
	l0.5,0.3l0.5,0.5l0.5,0.3l0.5,0.2l0.5,0.3l0.5,0.3l0.7,0.2l0.5,0.2l0.5,0.2l0.7,0.2h0.5l0.7,0.2h0.5 M530.1,444.4L530.1,444.4h0.5
	l0.5-0.2h0.7l0.5-0.2l0.7-0.2l0.5-0.2l0.5-0.2l0.7-0.3l0.5-0.3l0.5-0.2l0.5-0.3l0.5-0.5l0.3-0.3l0.3-0.2 M257.5,564.8l-0.2,0.2
	l-1.5,0.3h-1.4l-1.2-0.3l-0.9-0.3l-0.7-0.3l-1.2-1.4l-0.5-0.9l-0.3-1.2l-0.2-0.9l-0.2-1v-0.7 M542.8,558.2l0.2,0.9l-0.3,1.7
	l-0.7,1.7l-1.2,1.4l-0.9,0.7l-0.9,0.3l-1.4,0.3h-1.4l-0.9-0.2l-0.9-0.3 M295.1,283.7v-1.4l0.2-1 M297.3,480.2v0.9 M297.9,480.2h-0.3
	h-0.2 M309.4,480.2h0.2h0.2h-0.2H309.4 M297.3,480.2h0.2h0.3 M496.9,281.1l0.2,1.9v0.7 M494.9,481.1v-0.9 M494.3,480.2h0.2h0.3
	 M482.7,480.2h-0.2H482.7 M494.9,480.2h-0.3h-0.2 M483.5,482.4h0.3 M492.8,482.3h0.9 M483.9,482.4h0.2 M483,482.9v-0.2l0.2-0.2
	l0.2-0.2h0.2 M493.7,482.3l0.2,0.2h0.2l0.2,0.2v0.2v0.2 M494.9,492.9l-0.2,0.3v0.2l-0.2,0.2v0.2l-0.2,0.2l-0.3,0.2h-0.2h-0.2
	 M494.9,492.9v-1.7 M493,494.1L493,494.1h-0.3h-0.3h-0.3 M493.7,494.1H493 M493.7,494.1v-1.7 M482.5,481.1v-0.2v-0.2l0.2-0.3
	l0.2-0.2 M482.5,486v-5 M493.7,492.4h-1 M494.9,491.2l-0.2,0.2v0.2l-0.2,0.3v0.2h-0.2l-0.3,0.2h-0.2l-0.2,0.2 M494.9,481.1v10.1
	 M494.2,480l0.2,0.2h0.2v0.2l0.2,0.3v0.2l0.2,0.2 M493.8,480.5l0.2,0.2h0.2v0.2v0.2 M494.2,481.1v10.1 M494.2,491.2L494.2,491.2v0.2
	v0.2H494l-0.2,0.2h-0.2 M493.7,491.7h-0.9 M483,485.3v-4.3 M483,481.1L483,481.1v-0.2 M308,482.4L308,482.4h0.3 M298.5,482.3h0.9
	 M308.3,482.4h0.2 M308.5,482.4h0.2h0.2l0.2,0.2v0.2h0.2v0.2 M298,482.9v-0.2v-0.2l0.2-0.2h0.2l0.2-0.2 M297.3,492.9v-1.7
	 M298.5,494.1h-0.2H298l-0.2-0.2l-0.2-0.2l-0.2-0.2v-0.2l-0.2-0.2v-0.3 M297.3,481.1v-0.2l0.2-0.2v-0.3l0.2-0.2h0.2l0.2-0.2
	 M297.3,491.2v-10.1 M298.5,492.4l-0.2-0.2H298l-0.2-0.2h-0.2l-0.2-0.2v-0.3l-0.2-0.2v-0.2 M309.7,481.1v5 M309.4,480.2L309.4,480.2
	l0.2,0.2l0.2,0.3v0.2v0.2 M309,480.9l0.2,0.2 M309.2,481.1v4.3 M299.4,491.7h-0.9 M298.5,491.7h-0.2l-0.2-0.2H298v-0.2v-0.2
	 M298,491.2v-10.1 M298,481.1L298,481.1v-0.2v-0.2h0.2v-0.2 M300.3,494.1h-0.3h-0.3h-0.3 M299.6,492.4h-1 M298.5,494.1v-1.7
	 M299.2,494.1h-0.7 M332.2,522.8h1 M333.3,522.8h0.3l0.3,0.2l0.2,0.3l0.3,0.3v0.5 M334.5,534.7v-10.5 M457.7,524.2v-0.5l0.2-0.3
	l0.3-0.3h0.2l0.3-0.2 M457.7,524.2v10.5 M458.8,522.8h1.2 M482.3,483.5v-0.3 M482.5,480v1 M482.7,480h-0.2 M486.9,484.1l-1.2-0.5
	l-1-0.7l-0.9-0.9l-0.7-1l-0.5-1 M488.5,484.3l-0.5-0.2h-0.5h-0.5 M494.2,480l-0.5,1l-0.5,0.9l-0.9,0.9l-0.9,0.7l-0.9,0.3l-1,0.3
	l-1,0.2 M494.2,480L494.2,480h0.2h0.2h0.2h-0.2h-0.2H494.2 M482.5,480h0.2 M482.3,485.5v-0.3l0.2-0.2 M482.5,485.2l-0.5,1
	 M492.6,492.4L492.6,492.4 M488.5,484.3l0.7,0.2l0.9,0.5l0.9,0.5l0.7,0.9l0.5,0.9l0.5,0.9l0.2,1l0.2,1l-0.2,1l-0.2,1.2 M482.5,486
	l0.7-0.7l0.9-0.7l1-0.3l1-0.2h0.9 M463.9,540.9l-0.9-0.9l-0.9-0.9l-0.7-0.9l-0.7-0.9l-0.7-0.7l-0.5-0.7l-0.5-0.5l-0.3-0.3l-0.2-0.3
	h-0.2v-0.2 M470.8,534.7v0.2l-0.3,0.3l-0.3,0.2l-0.5,0.5l-0.7,0.5l-0.7,0.7l-0.7,0.7l-0.9,0.7l-0.9,0.9l-1,0.9l-0.9,0.7
	 M478.9,373.8L478.9,373.8l0.3-0.3l0.3-0.3l0.5-0.3l0.7-0.5l0.7-0.7l0.7-0.7l0.9-0.7l0.9-0.9l1-0.9l0.9-0.9 M485.7,367.6l0.9,1
	l0.9,0.9l0.7,0.9l0.7,0.9l0.7,0.7l0.5,0.7l0.5,0.5l0.3,0.3l0.2,0.3h0.2 M307.1,544.3L307.1,544.3v-0.2 M499.2,533.5v0.3v0.5v0.3v0.2
	 M293,533.5v0.3v0.5v0.3v0.2 M485.1,544.3L485.1,544.3v-0.2 M454.1,422.6v-0.2v-0.2v-0.5v-0.5v-0.9v-0.7v-1v-1v-1v-1v-1v-0.9v-1
	v-0.7v-0.7v-0.5v-0.3v-0.2 M355.8,422.6v-0.2v-0.2v-0.5v-0.5v-0.9v-0.7v-1v-1v-1v-1v-1v-0.9v-1v-0.7v-0.7v-0.5v-0.3v-0.2
	 M473.7,534.7v0.2v0.2v0.5v0.5v0.9v0.9v0.9v1v1v1v1v1v0.9v0.7v0.7v0.5v0.3v0.2 M318.5,534.7v0.2v0.2v0.5v0.5v0.9v0.9v0.9v1v1v1v1v1
	v0.9v0.7v0.7v0.5v0.3v0.2 M246.5,551.7h-1.7 M464.3,551.7H327.9 M547.5,551.7h-1.7 M244.7,567.2h302.7 M473.7,536.4h5.7
	 M312.8,536.4h5.7 M460.1,520.9H332.1 M304.9,361.4H297 M484.5,361.4H307.7 M495,361.4h-7.9 M491.2,373.8h3.8 M313.3,373.8h165.5
	 M297,373.8h4 M319,547.1h154.2 M321.2,534.7H319 M458.4,534.7H333.8 M473.2,534.7h-2.4 M420.8,47h-49.5 M371.3,60.9h49.5
	 M420.8,60.9h1l1.9,0.2l2.1,0.3l1.9,0.3l1.9,0.7l1.9,0.7l1.7,0.9l1.7,1l1.5,1.2l1.5,1.2l1.5,1.4l1.2,1.5l1.2,1.5l1,1.7l1,1.7
	l0.7,1.7l0.7,1.9l0.3,1 M459.1,76.6l-0.3-1.4l-0.7-2.4l-1-2.2l-1-2.2l-1.2-2.1l-1.4-2.1l-1.4-2.1l-1.7-1.9l-1.5-1.7l-1.9-1.7
	l-1.9-1.5l-2.1-1.5l-2.1-1.2l-2.1-1.2l-2.2-1l-2.4-0.9l-2.2-0.9l-2.4-0.5l-2.4-0.5l-2.6-0.3l-2.4-0.2h-1.4 M346.5,80l0.2-0.9
	l0.7-1.9l0.9-1.7l0.9-1.7l1-1.7l1.2-1.5l1.4-1.5l1.4-1.4l1.5-1.4l1.5-1l1.7-1l1.7-0.9l1.9-0.9l1.9-0.5l1.9-0.5l2.1-0.3l1.9-0.2h1
	 M371.3,47h-1.4l-2.4,0.2l-2.6,0.3l-2.4,0.5l-2.4,0.5l-2.2,0.9l-2.4,0.9l-2.2,1l-2.1,1.2l-2.1,1.4l-2.1,1.4l-1.9,1.5l-1.7,1.7
	l-1.7,1.9l-1.5,1.9l-1.5,1.9l-1.4,2.1l-1.2,2.2l-1,2.2l-0.9,2.2l-0.9,2.4l-0.3,1.2 M332.9,76.6L239.1,436 M296.7,270.5L346.5,80
	 M254.5,432.1l22.5-86.5 M553.1,436l-94-359.4 M515.1,345.6l22.5,86.5 M445.7,80l49.9,190.5 M251.6,450.8l-0.2-1.2v-2.2l0.2-2.2
	v-0.7 M239.1,436l-0.3,1.5l-0.5,2.6l-0.5,2.8l-0.2,2.6v2.8v2.6l0.2,1.2 M540.6,444.4v0.7l0.2,2.2v2.2l-0.2,1.2 M554.5,452v-1.5
	l0.2-2.8l-0.2-2.6l-0.2-2.8l-0.3-2.6l-0.5-2.8l-0.3-1 M237.7,452l8.8,99.7 M252.7,462.3l-1-11.5 M545.7,551.7l8.8-99.7 M540.6,450.8
	l-1,11.5 M288.1,449.1l-0.5-0.9l-1-1.9l-0.9-1.9l-0.9-2.1l-0.7-2.1l-0.5-2.1l-0.3-1.9 M268.8,421.4l-0.2,1.5l-0.2,2.6v2.8v2.8
	l0.2,2.6l0.3,2.8l0.5,2.8l0.5,2.6l0.9,2.6l0.7,2.6l1,2.4l1,2.4l1.2,2.4l1.4,2.2 M509,436.4l-0.2,1l-0.5,2.2l-0.7,2.1l-0.9,2.1
	l-0.9,1.9l-0.9,1.9l-0.9,1.5 M516,456.3l0.7-1.2l1.2-2.2l1.2-2.4l1-2.4l0.9-2.6l0.7-2.6l0.7-2.6l0.5-2.6l0.3-2.8l0.3-2.8l0.2-2.6
	v-2.8l-0.2-2.8l-0.2-2.8 M283.6,297.6l-14.8,123.8 M294.4,324.3l1-8.3 M523.4,421.4l-14.8-123.8 M496.7,316l1,8.3 M307.5,279.4
	l0.5-0.3l1.7-1.5l1.7-1.2l1.9-1.2l2.1-1.2l2.1-0.9l2.1-0.9l2.2-0.5l2.1-0.5l2.2-0.3l2.2-0.2l1.9-0.2 M330.2,256.6h-1.5l-2.8,0.2
	l-2.6,0.3l-2.8,0.5l-2.6,0.5l-2.6,0.9l-2.4,0.9l-2.6,1l-2.4,1.2l-2.2,1.4l-2.4,1.4l-2.1,1.7l-2.1,1.7l-2.1,1.7l-1.7,1.9l-1.9,2.1
	L292,276l-1.5,2.2l-1.4,2.4l-1.2,2.2l-1,2.6l-1,2.4l-0.9,2.6l-0.5,2.6l-0.5,2.6l-0.3,2.1 M462,256.6H330.2 M330.2,270.5H462
	 M462,270.5h1l2.2,0.2l2.2,0.3l2.2,0.5l2.2,0.5l2.1,0.7l2.1,0.9l2.1,1l1.9,1.2l1.9,1.4l1.7,1.4l0.9,0.9 M508.6,297.6l-0.2-1.5
	l-0.5-2.6l-0.7-2.6l-0.7-2.6l-1-2.4l-1-2.6l-1.2-2.2l-1.4-2.4l-1.4-2.2l-1.7-2.1l-1.7-2.1l-1.7-2.1l-2.1-1.7l-1.9-1.7l-2.2-1.7
	l-2.2-1.4l-2.2-1.4l-2.4-1.2l-2.6-1.2l-2.4-0.9l-2.6-0.9l-2.6-0.5l-2.8-0.5l-2.6-0.3l-2.8-0.2l-2.1-0.2 M494.9,491.2l21.1-34.9
	 M488.5,501.5l4.5-7.4 M482.3,484.8l-6.5,10.7 M483.9,482.4l-0.9,1.4 M504.1,449.1l-9.1,15 M299.2,494.1l4.5,7.4 M276.2,456.3
	l21.1,34.9 M297.2,464l-9.1-15 M309.2,483.8l-0.9-1.4 M316.3,495.5l-6.5-10.7 M299.6,529l6.2,2.2 M488.2,531.9l5.2-3.3 M262.4,515.8
	l5.3,23.4 M276,519.7l-11.5-49 M524.3,539.2l5.5-23.4 M527.5,470.7l-10,43.1 M433,547.1l91.8,13.6 M501.6,551l-27.8-4.1
	 M318.5,546.9l-27.8,4.1 M267.4,560.6l91.8-13.6 M295.5,319.5l-21.8,102.3 M283.1,436.7l13.1-61 M496.1,375.7l13.1,61 M518.6,421.7
	l-21.8-102.3 M288.4,486l-16.2,44 M297.2,462.5l-0.3,0.9 M310.2,462.5l1.2-3.3 M281.2,541.6l16.2-43.7 M499.7,491.5l11.5,50
	 M521.2,529.9l-11.7-51.2 M290,517.8l0.7,1.2 M273.8,494.3l7.6,11 M514.3,500.1l4-5.8 M501.4,519l3.4-5 M290.8,515.4l1.7,2.1
	 M268.5,487.8l13.2,16.3 M514.3,499.4l9.3-11.7 M499.7,517.5l4.6-5.8 M286.3,539.3l21-18.4 M270,537.3l-9.1,7.9 M294.9,515.3l-6,5.3
	 M507.1,524l-9.8-8.8 M531.1,545.2l-8.9-7.9 M485.1,521.1l20.8,18.2 M304,523.7l8.3,4.8 M307.7,511.5l-0.3-0.2 M484.7,512.3
	l-1.9,1.9 M483.9,530.2l5.5-5.3 M303.9,264.6l36.6-161.9 M320.6,430l14.4-7.4 M293.7,443.4l3.1-1.5 M265.2,457.8l1.4-0.7
	 M294.8,429.1l-11.3,5.7 M320.6,430.5l14.6-7.9 M296,443.9l0.9-0.3 M312.1,361.4l-4.8-84.6 M295.1,277.5l4.6,83.9 M300.1,373.8
	L297.5,480 M309.7,485l0.2-1.5l0.7-33 M316.9,501l-6.7-14.8 M299.6,492.4l19.4,43 M333.8,534.7l-20.5-160.9 M301,373.8l20.3,160.9
	 M484.7,276.8l-4.8,84.6 M492.3,361.4l4.8-83.9 M524.3,459L524.3,459 M460.5,422.6l11.3,6.4 M508.4,434l-2.4-1.4 M525.8,457l1.2,0.7
	 M460.6,422.6l11.2,5.8 M451.5,102.7l36.8,161.9 M291,515.1l1.7,2.2 M267.8,484.8l14.3,18.6 M513.9,498.4l10.3-13.6 M499.5,517.3
	l4.6-6.2 M288.2,486.6L265,459.9 M292.7,510.4l2.2,2.4 M266.9,480.7l16.5,19.1 M513.1,494.6l12.2-13.9 M497.3,512.9l5.8-6.5
	 M527,459.9l-17.4,19.9 M292.2,455.8l4.8,1.2 M251.4,446l1.9,0.5 M296.8,444.3l-12.4-3.1 M507.6,441.9l-6,1.5 M538.9,446.5l1.7-0.3
	 M296.1,383.6l-0.9-3.8 M289.4,407.3l7.4,29.7 M275.5,351.8L275.5,351.8 M499.8,393.2l-4.3,26.1 M518.1,357.3v-0.2 M504.3,442.7
	l2.6-16 M482.3,319.1H309.7 M310.4,331.5h171.2 M544,554.6l-5.5-115.2 M526.8,455.6l4.6,94.4 M260.7,550l4.6-94.4 M253.7,439.5
	l-5.5,115.2 M538.2,436.5l-24.6-96.8 M523.7,429.8l0.5,2.2 M267.9,432.1l0.5-2.4 M278.6,339.8L254,436.5 M262.1,444.4h8.8
	 M246.3,444.4h7.2 M255.1,432.1h-8.9 M268.6,432.1h-7.2 M530.6,432.1h-7 M545.9,432.1H537 M538.7,444.4h7.2 M521.3,444.4h8.8
	 M255.4,442.5l53.6,70.8 M483.2,513.4l53.6-70.8 M312.8,528.3l-57.4,23.9 M257.5,564.8l61-25.3 M473.7,539.5l60.9,25.3 M536.8,552.2
	l-57.4-23.9 M309.7,480.2V480 M295.5,322l1.9,164.3 M295.1,283.7l0.3,35.8 M496.7,319.5l0.3-35.8 M494.9,486.4l1.9-164.3 M482.5,480
	v0.2 M477,497l-1.7,2.8 M482.1,485.7l-0.3,0.5 M316.9,499.8l-1.7-2.8 M310.2,486.2l-0.2-0.3 M481.6,450.5l0.7,33v1.5 M494.7,480
	l-2.6-106.2 M473.2,535.4l19.4-43 M481.8,486.2l-6.7,14.8 M470.8,534.7l20.5-160.9 M478.9,373.8l-20.5,160.9 M307.1,544.3h11.3
	 M495,534.9h4.1 M293,534.9h4.1 M473.7,544.3h11.3 M311.4,459.2h0.3 M294.2,459.2h2.8 M454.1,422.6h6.5 M474.2,410.2h-20.1
	 M335,422.6h20.8 M355.8,410.2H318 M318.7,534.7h-0.2 M473.7,534.7h-0.3 M473.2,547.1h0.5 M318.5,547.1h0.5"/>
</svg>
