<?xml version="1.0" encoding="utf-8"?>
<!-- Generator: Adobe Illustrator 21.1.0, SVG Export Plug-In . SVG Version: 6.00 Build 0)  -->
<svg version="1.1" id="Layer_1" onload="init(evt)" xmlns:svg="http://www.w3.org/2000/svg"
	 xmlns="http://www.w3.org/2000/svg" xmlns:xlink="http://www.w3.org/1999/xlink" x="0px" y="0px" viewBox="0 0 225 225"
	 style="enable-background:new 0 0 225 225;" xml:space="preserve">
<style type="text/css">
	.st0{fill:none;stroke:#F9D31A;}
	.st1{fill:#F9D31A;stroke:#F9D31A;}
</style>
<script  type="text/ecmascript">
	<![CDATA[
  	var svgNS = "http://www.w3.org/2000/svg";

	function init(evt)
	{
		if ( window.svgDocument == null )
		{
			svgDocument = evt.target.ownerDocument;
		}
		addRotateTransform('gear-1', 12, 1);
		addRotateTransform('gear-2', 16, -1);
		addRotateTransform('gear-3', 16, -1);
		addRotateTransform('gear-4', 4, 1);
	}

	function addRotateTransform(target_id, speed, direction)
	{
		var element_to_rotate = svgDocument.getElementById(target_id);
		var my_transform = svgDocument.createElementNS(svgNS, "animateTransform");

		var bb = element_to_rotate.getBBox();
		var cx = bb.x + bb.width/2;
		var cy = bb.y + bb.height/2;

		my_transform.setAttributeNS(null, "attributeName", "transform");
		my_transform.setAttributeNS(null, "attributeType", "XML");
		my_transform.setAttributeNS(null, "type", "rotate");
		my_transform.setAttributeNS(null, "dur", speed + "s");
		my_transform.setAttributeNS(null, "repeatCount", "indefinite");
		my_transform.setAttributeNS(null, "from", "0 "+cx+" "+cy);
		my_transform.setAttributeNS(null, "to", 360*direction+" "+cx+" "+cy);

		element_to_rotate.appendChild(my_transform);
		my_transform.beginElement();
	}

		]]>
</script>
<g>
	<path id="gear-4" class="st0" d="M194.8,176l0.7,0l3.3-1.3v-2.5l-3.3-1.3l-0.7,0l-2.5,0.3l-1-3.8l2.3-1l0.6-0.4l2.2-2.8l-1.2-2.1l-3.5,0.6
		l-0.6,0.3l-2,1.6l-2.8-2.8l1.6-2l0.3-0.6l0.6-3.5l-2.1-1.2l-2.8,2.2l-0.4,0.6l-1,2.3l-3.8-1l0.3-2.5l0-0.7l-1.3-3.3h-2.5l-1.3,3.3
		l0,0.7l0.3,2.5l-3.8,1l-1-2.3l-0.4-0.6l-2.8-2.2l-2.1,1.2l0.6,3.5l0.3,0.6l1.6,2l-2.8,2.8l-2-1.6l-0.6-0.3l-3.5-0.6l-1.2,2.1
		l2.2,2.8l0.6,0.4l2.3,1l-1,3.8l-2.5-0.3l-0.7,0l-3.3,1.3v2.5l3.3,1.3l0.7,0l2.5-0.3l1,3.8l-2.3,1l-0.6,0.4l-2.2,2.8l1.2,2.1
		l3.5-0.6l0.6-0.3l2-1.6l2.8,2.8l-1.6,2l-0.3,0.6l-0.6,3.5l2.1,1.2l2.8-2.2l0.4-0.6l1-2.3l3.8,1l-0.3,2.5l0,0.7l1.3,3.3h2.5l1.3-3.3
		l0-0.7l-0.3-2.5l3.8-1l1,2.3l0.4,0.6l2.8,2.2l2.1-1.2l-0.6-3.5l-0.3-0.6l-1.6-2l2.8-2.8l2,1.6l0.6,0.3l3.5,0.6l1.2-2.1l-2.2-2.8
		l-0.6-0.4l-2.3-1l1-3.8L194.8,176z M176.5,183.5c-5.5,0-10-4.5-10-10s4.5-10,10-10s10,4.5,10,10S182,183.5,176.5,183.5z"/>
</g>
<g>
	<path id="gear-3" class="st0" d="M205.7,86.9l2.6-0.4l3.2-1v-3l-3.2-1l-2.6-0.4l-0.6,0l-0.3-3.9l0.6-0.1l2.5-0.7l3.1-1.4l-0.4-3l-3.3-0.6
		l-2.6,0l-0.6,0.1l-0.8-3.8l0.6-0.1l2.4-1l2.8-1.8l-0.8-2.9l-3.4-0.1l-2.6,0.3l-0.6,0.2l-1.3-3.7l0.5-0.2l2.3-1.3l2.6-2.2l-1.1-2.8
		l-3.3,0.3l-2.6,0.7l-0.5,0.2l-1.7-3.5l0.5-0.3l2.1-1.6l2.3-2.5l-1.5-2.6l-3.3,0.7l-2.5,1l-0.5,0.3l-2.2-3.2l0.5-0.3l1.9-1.9
		l1.9-2.7l-1.8-2.4l-3.2,1.2l-2.3,1.3l-0.4,0.4l-2.6-2.9l0.4-0.4l1.6-2.1l1.6-3l-2.1-2.1l-3,1.6l-2.1,1.6l-0.4,0.4l-2.9-2.6l0.4-0.4
		l1.3-2.3l1.2-3.2l-2.4-1.8l-2.7,1.9l-1.9,1.9l-0.3,0.5l-3.2-2.2l0.3-0.5l1-2.5l0.7-3.3l-2.6-1.5l-2.5,2.3l-1.6,2.1l-0.3,0.5
		l-3.5-1.7l0.2-0.5l0.7-2.6l0.3-3.3l-2.8-1.1l-2.2,2.6l-1.3,2.3l-0.2,0.5l-3.7-1.3l0.2-0.6l0.3-2.6L154,7.5l-2.9-0.8l-1.8,2.8
		l-1,2.4l-0.1,0.6l-3.8-0.8l0.1-0.6l0-2.6l-0.6-3.3l-3-0.4L139.5,8l-0.7,2.5l-0.1,0.6l-3.9-0.3l0-0.6l-0.4-2.6l-1-3.2h-3l-1,3.2
		l-0.4,2.6l0,0.6l-3.9,0.3l-0.1-0.6L124.5,8l-1.4-3.1l-3,0.4l-0.6,3.3l0,2.6l0.1,0.6l-3.8,0.8l-0.1-0.6l-1-2.4l-1.8-2.8L110,7.5
		l-0.1,3.4l0.3,2.6l0.2,0.6l-3.7,1.3l-0.2-0.5l-1.3-2.3l-2.2-2.6l-2.8,1.1l0.3,3.3l0.7,2.6l0.2,0.5l-3.5,1.7l-0.3-0.5L96,16.6
		l-2.5-2.3l-2.6,1.5l0.7,3.3l1,2.5l0.3,0.5l-3.2,2.2l-0.3-0.5l-1.9-1.9L84.8,20l-2.4,1.8l1.2,3.2l1.3,2.3l0.4,0.4l-2.9,2.6l-0.4-0.4
		l-2.1-1.6l-3-1.6l-2.1,2.1l1.6,3l1.6,2.1l0.4,0.4l-2.6,2.9l-0.4-0.4l-2.3-1.3l-3.2-1.2L68,36.8l1.9,2.7l1.9,1.9l0.5,0.3L70.1,45
		l-0.5-0.3l-2.5-1l-3.3-0.7l-1.5,2.6l2.3,2.5l2.1,1.6l0.5,0.3l-1.7,3.5L65,53.1l-2.6-0.7l-3.3-0.3l-1.1,2.8l2.6,2.2l2.3,1.3l0.5,0.2
		l-1.3,3.7l-0.6-0.2l-2.6-0.3L55.5,62l-0.8,2.9l2.8,1.8l2.4,1l0.6,0.1l-0.8,3.8l-0.6-0.1l-2.6,0l-3.3,0.6l-0.4,3l3.1,1.4l2.5,0.7
		l0.6,0.1l-0.3,3.9l-0.6,0l-2.6,0.4l-3.2,1v3l3.2,1l2.6,0.4l0.6,0l0.3,3.9l-0.6,0.1L56,91.5l-3.1,1.4l0.4,3l3.3,0.6l2.6,0l0.6-0.1
		l0.8,3.8l-0.6,0.1l-2.4,1l-2.8,1.8l0.8,2.9l3.4,0.1l2.6-0.3l0.6-0.2l1.3,3.7l-0.5,0.2l-2.3,1.3l-2.6,2.2l1.1,2.8l3.3-0.3l2.6-0.7
		l0.5-0.2l1.7,3.5l-0.5,0.3l-2.1,1.6l-2.3,2.5l1.5,2.6l3.3-0.7l2.5-1l0.5-0.3l2.2,3.2l-0.5,0.3l-1.9,1.9l-1.9,2.7l1.8,2.4l3.2-1.2
		l2.3-1.3l0.4-0.4l2.6,2.9l-0.4,0.4l-1.6,2.1l-1.6,3l2.1,2.1l3-1.6l2.1-1.6l0.4-0.4l2.9,2.6l-0.4,0.4l-1.3,2.3l-1.2,3.2l2.4,1.8
		l2.7-1.9l1.9-1.9l0.3-0.5l3.2,2.2l-0.3,0.5l-1,2.5l-0.7,3.3l2.6,1.5l2.5-2.3l1.6-2.1l0.3-0.5l3.5,1.7l-0.2,0.5l-0.7,2.6l-0.3,3.3
		l2.8,1.1l2.2-2.6l1.3-2.3l0.2-0.5l3.7,1.3l-0.2,0.6l-0.3,2.6l0.1,3.4l2.9,0.8l1.8-2.8l1-2.4l0.1-0.6l3.8,0.8l-0.1,0.6l0,2.6
		l0.6,3.3l3,0.4l1.4-3.1l0.7-2.5l0.1-0.6l3.9,0.3l0,0.6l0.4,2.6l1,3.2h3l1-3.2l0.4-2.6l0-0.6l3.9-0.3l0.1,0.6l0.7,2.5l1.4,3.1l3-0.4
		l0.6-3.3l0-2.6l-0.1-0.6l3.8-0.8l0.1,0.6l1,2.4l1.8,2.8l2.9-0.8l0.1-3.4l-0.3-2.6l-0.2-0.6l3.7-1.3l0.2,0.5l1.3,2.3l2.2,2.6
		l2.8-1.1l-0.3-3.3l-0.7-2.6l-0.2-0.5l3.5-1.7l0.3,0.5l1.6,2.1l2.5,2.3l2.6-1.5l-0.7-3.3l-1-2.5l-0.3-0.5l3.2-2.2l0.3,0.5l1.9,1.9
		l2.7,1.9l2.4-1.8l-1.2-3.2l-1.3-2.3l-0.4-0.4l2.9-2.6l0.4,0.4l2.1,1.6l3,1.6l2.1-2.1l-1.6-3l-1.6-2.1l-0.4-0.4l2.6-2.9l0.4,0.4
		l2.3,1.3l3.2,1.2l1.8-2.4l-1.9-2.7l-1.9-1.9l-0.5-0.3l2.2-3.2l0.5,0.3l2.5,1l3.3,0.7l1.5-2.6l-2.3-2.5l-2.1-1.6l-0.5-0.3l1.7-3.5
		l0.5,0.2l2.6,0.7l3.3,0.3l1.1-2.8l-2.6-2.2l-2.3-1.3l-0.5-0.2l1.3-3.7l0.6,0.2l2.6,0.3l3.4-0.1l0.8-2.9l-2.8-1.8l-2.4-1l-0.6-0.1
		l0.8-3.8l0.6,0.1l2.6,0l3.3-0.6l0.4-3l-3.1-1.4l-2.5-0.7l-0.6-0.1l0.3-3.9L205.7,86.9z M132,139.7c-30.7,0-55.7-24.9-55.7-55.7
		s24.9-55.7,55.7-55.7s55.7,24.9,55.7,55.7S162.7,139.7,132,139.7z"/>
</g>
<g>
	<path id="gear-2" class="st1" d="M189.2,88.6L193,88l5.2-2.2v-3.6L193,80l-3.7-0.6l-1.4,0.1l-0.7-5.6l1.4-0.3l3.5-1.6l4.5-3.4l-0.9-3.5
		l-5.6-0.8l-3.8,0.4l-1.3,0.5l-2.2-5.2l1.3-0.6l2.9-2.4l3.4-4.5l-1.8-3.2l-5.6,0.7l-3.5,1.3l-1.2,0.8l-3.4-4.5l1.1-0.9l2.2-3.1
		l2.1-5.2l-2.6-2.6l-5.2,2.1l-3.1,2.2l-0.9,1.1l-4.5-3.4l0.8-1.2l1.3-3.5l0.7-5.6l-3.2-1.8l-4.5,3.4l-2.4,2.9l-0.6,1.3l-5.2-2.2
		l0.5-1.3l0.4-3.8l-0.8-5.6l-3.5-0.9l-3.4,4.5l-1.6,3.5l-0.3,1.4l-5.6-0.7l0.1-1.4L136,23l-2.2-5.2h-3.6L128,23l-0.6,3.7l0.1,1.4
		l-5.6,0.7l-0.3-1.4l-1.6-3.5l-3.4-4.5l-3.5,0.9l-0.8,5.6l0.4,3.8l0.5,1.3l-5.2,2.2l-0.6-1.3l-2.4-2.9l-4.5-3.4l-3.2,1.8l0.7,5.6
		l1.3,3.5l0.8,1.2l-4.5,3.4l-0.9-1.1l-3.1-2.2l-5.2-2.1l-2.6,2.6l2.1,5.2l2.2,3.1l1.1,0.9l-3.4,4.5l-1.2-0.8L81.2,50l-5.6-0.7
		l-1.8,3.2l3.4,4.5l2.9,2.4l1.3,0.6l-2.2,5.2l-1.3-0.5l-3.8-0.4l-5.6,0.8l-0.9,3.5l4.5,3.4l3.5,1.6l1.4,0.3l-0.7,5.6l-1.4-0.1L71,80
		l-5.2,2.2v3.6L71,88l3.7,0.6l1.4-0.1l0.7,5.6l-1.4,0.3l-3.5,1.6l-4.5,3.4l0.9,3.5l5.6,0.8l3.8-0.4l1.3-0.5l2.2,5.2l-1.3,0.6
		l-2.9,2.4l-3.4,4.5l1.8,3.2l5.6-0.7l3.5-1.3l1.2-0.8l3.4,4.5l-1.1,0.9l-2.2,3.1l-2.1,5.2l2.6,2.6l5.2-2.1l3.1-2.2l0.9-1.1l4.5,3.4
		l-0.8,1.2l-1.3,3.5l-0.7,5.6l3.2,1.8l4.5-3.4l2.4-2.9l0.6-1.3l5.2,2.2l-0.5,1.3l-0.4,3.8l0.8,5.6l3.5,0.9l3.4-4.5l1.6-3.5l0.3-1.4
		l5.6,0.7l-0.1,1.4l0.6,3.7l2.2,5.2h3.6l2.2-5.2l0.6-3.7l-0.1-1.4l5.6-0.7l0.3,1.4l1.6,3.5l3.4,4.5l3.5-0.9l0.8-5.6l-0.4-3.8
		l-0.5-1.3l5.2-2.2l0.6,1.3l2.4,2.9l4.5,3.4l3.2-1.8l-0.7-5.6l-1.3-3.5l-0.8-1.2l4.5-3.4l0.9,1.1l3.1,2.2l5.2,2.1l2.6-2.6l-2.1-5.2
		l-2.2-3.1l-1.1-0.9l3.4-4.5l1.2,0.8l3.5,1.3l5.6,0.7l1.8-3.2l-3.4-4.5l-2.9-2.4l-1.3-0.6l2.2-5.2l1.3,0.5l3.8,0.4l5.6-0.8l0.9-3.5
		l-4.5-3.4l-3.5-1.6l-1.4-0.3l0.7-5.6L189.2,88.6z M132,89c-2.8,0-5-2.2-5-5s2.2-5,5-5s5,2.2,5,5S134.8,89,132,89z"/>
</g>
<g transform="translate(-9.5, 106)">
	<path id="gear-1" class="st1" d="M59.5,9.9l-3.4,0.6l-1.3,5.6l0.1,2.8l0.6,2.2l-5.5,2L49,21l-1.8-2.2l-4.6-3.4l-3,1.8l0.7,5.7
		l1.1,2.7l1.4,1.9l-4.5,3.8l-1.6-1.7l-2.4-1.5l-5.4-1.7l-2.2,2.7l2.6,5.1l1.9,2.1l1.9,1.3l-3,5.1l-2.1-1L25.1,41l-5.7,0.3l-1.2,3.3
		l4.2,3.9l2.5,1.3l2.2,0.6l-1,5.8l-2.3-0.2L21,56.3l-5.2,2.2v3.5l5.2,2.3l2.8,0.4l2.3-0.2l1,5.8l-2.2,0.6l-2.5,1.3l-4.2,3.9l1.2,3.2
		l5.7,0.3l2.8-0.6l2.1-1l3,5.1L31,84.5l-1.9,2.1l-2.6,5.1l2.2,2.7l5.4-1.6l2.4-1.5l1.6-1.7l4.5,3.8l-1.4,1.9l-1.1,2.6l-0.7,5.7
		l3,1.7l4.6-3.4l1.8-2.2l0.9-2.1l5.5,2l-0.6,2.2l-0.1,2.8l1.3,5.5l3.4,0.6l3.2-4.8l0.9-2.7l0.2-2.3h5.9l0.2,2.3l0.9,2.7l3.2,4.8
		l3.4-0.6l1.3-5.5l-0.1-2.8l-0.6-2.2l5.5-2l0.9,2.1l1.8,2.2l4.6,3.4l3-1.7l-0.7-5.7l-1.1-2.6l-1.4-1.9l4.5-3.8l1.6,1.7l2.4,1.5
		l5.5,1.6l2.2-2.7l-2.6-5.1l-1.9-2.1l-1.9-1.3l2.9-5.1l2.1,1l2.8,0.6l5.7-0.3l1.2-3.2l-4.2-3.9l-2.5-1.3l-2.2-0.6l1-5.8l2.3,0.2
		l2.8-0.4l5.2-2.3v-3.5l-5.2-2.2l-2.8-0.4l-2.3,0.2l-1-5.8l2.2-0.6l2.5-1.3l4.2-3.9l-1.2-3.3l-5.7-0.3l-2.8,0.6l-2.1,1l-2.9-5.1
		l1.9-1.3l1.9-2.1l2.6-5.1l-2.2-2.7l-5.5,1.7l-2.4,1.5L95,31.1l-4.5-3.8l1.4-1.9l1.1-2.7l0.7-5.7l-3-1.8L86,18.8L84.2,21l-0.9,2.1
		l-5.5-2l0.6-2.2l0.1-2.8l-1.3-5.6l-3.4-0.6l-3.2,4.8l-0.9,2.7l-0.2,2.3h-5.9l-0.2-2.3l-0.9-2.7L59.5,9.9L59.5,9.9z M63.2,26.5v20.8
		c-4.7,1.2-8.3,4.9-9.6,9.6H32.8C34.5,40.9,47.2,28.2,63.2,26.5z M70.2,26.5c16,1.6,28.7,14.3,30.3,30.3H79.7
		c-1.2-4.6-4.9-8.3-9.5-9.5V26.5z M66.6,53.8c3.6,0,6.5,2.9,6.5,6.5s-2.9,6.5-6.5,6.5s-6.5-2.9-6.5-6.5S63,53.8,66.6,53.8z
		 M32.8,63.8h20.8c1.2,4.6,4.9,8.3,9.5,9.5v20.8C47.2,92.5,34.5,79.8,32.8,63.8z M79.7,63.8h20.8c-1.6,16-14.3,28.7-30.3,30.3V73.3
		C74.8,72.1,78.4,68.5,79.7,63.8z"/>
</g>
</svg>
